<svg id="Capa_1" data-name="Capa 1" xmlns="http://www.w3.org/2000/svg" viewBox="0 0 96.015 139.737"><ellipse cx="53.154" cy="121.296" rx="42.861" ry="18.441" style="fill:#a8c4e5;isolation:isolate;opacity:0.400000005960465"/><path d="M17.657,14.88h0a3.057,3.057,0,0,1-3.048-3.048V6.71a3.057,3.057,0,0,1,3.048-3.048h0A3.057,3.057,0,0,1,20.706,6.71v5.122A3.058,3.058,0,0,1,17.657,14.88Z" style="fill:#fff;stroke:#2e2a4a;stroke-linecap:round;stroke-linejoin:round;stroke-width:1.04170000553131px"/><path d="M82.935,36.269c-.351-5.146-81.395-5.146-81.746,0l2.79,7.394,7.5,80.758c-.109,17.339,59.807,19.716,61.164,0l7.5-80.758Z" style="fill:#512583;stroke:#2e2a4a;stroke-linecap:round;stroke-linejoin:round;stroke-width:1.04170000553131px"/><path d="M5.3,66.923c22.852,8.109,44.973,10.785,73.664,0l-5.352,45.623c-20.974,7.4-42.007,8.56-63.114.56Z" style="fill:#efebe2"/><path d="M4.384,65.7c22.541,10.882,54.083,10.882,75.388,0L74.3,111.884c-21.463,12.436-45.583,12.662-64.591,0Z" style="fill:#fff;stroke:#2e2a4a;stroke-linecap:round;stroke-linejoin:round;stroke-width:1.04170000553131px"/><path d="M83.871,44.946c0,7.794-18.738,14.113-41.853,14.113S.165,52.74.165,44.946c0-1.064-.372-4.879,0-6.638,1.569-7.4,21.9-7.474,41.853-7.474,19.345,0,36.959,1.4,41.755,7.412C83.773,38.246,83.871,43.675,83.871,44.946Z" style="fill:#fff;stroke:#2e2a4a;stroke-linecap:round;stroke-linejoin:round;stroke-width:1.04170000553131px"/><ellipse cx="41.946" cy="36.667" rx="41.853" ry="14.113" style="fill:#fff;stroke:#2e2a4a;stroke-linecap:round;stroke-linejoin:round;stroke-width:1.04170000553131px"/><path d="M77.882,31.436c.236,6.7-15.648,12.141-35.478,12.141S6.3,38.141,6.069,31.436C6.037,30.52,11.091,15.7,11.091,15.7a129.857,129.857,0,0,0,30.456,3.592c16.6,0,27.188-8.363,31.485-3.191C73.032,16.1,77.843,30.342,77.882,31.436Z" style="fill:#fff;stroke:#2e2a4a;stroke-linecap:round;stroke-linejoin:round;stroke-width:1.04170000553131px"/><ellipse cx="41.936" cy="17.031" rx="31.158" ry="9.657" style="fill:#fff;stroke:#2e2a4a;stroke-linecap:round;stroke-linejoin:round;stroke-width:1.04170000553131px"/><ellipse cx="41.936" cy="17.031" rx="17.693" ry="5.484" style="fill:#d5e5f2"/><path d="M54.11,95.823A12.339,12.339,0,1,1,41.771,83.484h0A12.339,12.339,0,0,1,54.11,95.823Z" style="fill:#f9c640"/><path d="M27.951,95.2s4.257,10.811,15.067,0,13.3,0,13.3,0" style="fill:none;stroke:#fff;stroke-miterlimit:10;stroke-width:3.62932991981506px"/></svg>