<svg id="Capa_1" data-name="Capa 1" xmlns="http://www.w3.org/2000/svg" viewBox="0 0 518.116 356.098"><polygon points="518.116 357.253 75.231 357.253 40.118 221.438 474.121 221.438 518.116 357.253" style="fill:#a8c4e5;isolation:isolate;opacity:0.400000005960465"/><rect x="37.022" width="405.997" height="247.057" rx="10.147" style="fill:#2e2a4a"/><polygon points="474.833 339.592 335.589 356.098 133.864 356.098 1.293 338.637 36.397 230.479 442.395 230.479 474.833 339.592" style="fill:#fff;stroke:#2e2a4a;stroke-linecap:round;stroke-linejoin:round;stroke-width:1.23064994812012px"/><rect x="37.021" y="2.955" width="405.997" height="226.568" rx="9.717" style="fill:#fff;stroke:#2e2a4a;stroke-linecap:round;stroke-linejoin:round;stroke-width:1.17851996421814px"/><rect x="44.546" y="22.53" width="391.332" height="186.561" style="fill:#2f6fb6"/><polygon points="435.969 47.226 44.636 47.225 44.455 22.529 435.787 22.531 435.969 47.226" style="fill:#205abf"/><ellipse cx="240.02" cy="13.258" rx="3.871" ry="3.635" style="fill:#2e2a4a"/><polygon points="427.239 299.788 40.118 300.855 57.241 239.635 410.99 239.635 427.239 299.788" style="fill:#fff;stroke:#2e2a4a;stroke-linecap:round;stroke-linejoin:round;stroke-width:1.11303997039795px"/><polygon points="418.228 292.711 404.939 243.514 352.939 243.514 115.617 243.514 63.617 243.514 49.612 293.584 101.653 293.44 101.612 293.584 418.228 292.711" style="fill:#a8c4e5;isolation:isolate;opacity:0.400000005960465"/><polygon points="305.535 332.432 169.561 332.873 175.575 307.574 299.827 307.574 305.535 332.432" style="fill:#fff;stroke:#2e2a4a;stroke-linecap:round;stroke-linejoin:round;stroke-width:1.11303997039795px"/><path d="M315.87,339.592a21.959,21.959,0,0,0-13.189,4.413,12.857,12.857,0,0,1-7.726,2.449H179.908a12.854,12.854,0,0,1-7.725-2.449,21.959,21.959,0,0,0-13.19-4.412H1.293v.746c0,9.342,9.737,16.914,21.746,16.914h430.87c12.009,0,21.745-7.572,21.745-16.913v-.747Z" style="fill:#2e2a4a"/><path d="M408.886,33.457a6.25,6.25,0,1,1-6.251-6.249h0A6.251,6.251,0,0,1,408.886,33.457Z" style="fill:none;stroke:#fff;stroke-miterlimit:10;stroke-width:1.66650998592377px"/><path d="M411.279,42.057h0a1.5,1.5,0,0,1-2.114.1l-2.752-2.5a1.5,1.5,0,0,1-.1-2.114h0a1.5,1.5,0,0,1,2.114-.1l2.753,2.5A1.5,1.5,0,0,1,411.279,42.057Z" style="fill:#fff"/><path d="M76.036,34.878a3.958,3.958,0,1,1-3.958-3.958,3.958,3.958,0,0,1,3.958,3.958Z" style="fill:#fff"/><path d="M89.16,34.878A3.958,3.958,0,1,1,85.2,30.92a3.958,3.958,0,0,1,3.958,3.958Z" style="fill:#fff"/><path d="M102.284,34.878a3.958,3.958,0,1,1-3.958-3.958,3.958,3.958,0,0,1,3.958,3.958Z" style="fill:#fff"/><path d="M210.369,72.138h63.147A46.482,46.482,0,0,1,320,118.62h0A46.482,46.482,0,0,1,273.516,165.1H210.369a46.482,46.482,0,0,1-46.482-46.482h0A46.482,46.482,0,0,1,210.369,72.138Z" style="fill:#eb585a"/><path d="M223.038,137.591V99.649c0-3.171,2.563-5.35,4.937-4.2l40.363,19.6c3.109,1.51,3.06,7-.074,8.428L227.9,141.821C225.539,142.9,223.038,140.72,223.038,137.591Z" style="fill:#fff"/><rect x="68.12" y="187.196" width="343.514" height="7.886" style="fill:#205abf"/><rect x="68.12" y="187.196" width="87.514" height="7.886" style="fill:#2e2a4a"/><circle cx="155.634" cy="191.139" r="6.437" style="fill:#2e2a4a"/></svg>