<svg id="Ñëîé_1" data-name="Ñëîé 1" xmlns="http://www.w3.org/2000/svg" viewBox="0 0 115.73 225.062"><g id="Grupo_198" data-name="Grupo 198"><g id="Grupo_90" data-name="Grupo 90"><path id="Trazado_202" data-name="Trazado 202" d="M24.889,3.4c-.115.7-.377.565-.193,1.145.192.6.971.65,1.511,1.01,4.845,3.2,12.194,8.241,16.778,11.7C60.71,29.169,76.512,43.831,88.053,62.423c11.4,18.363,18.622,40.587,19.278,67.942.831,33.293-10.483,54.738-27.7,65.986-11.179,7.311-24.37,10.168-38.089,9.813a88.4,88.4,0,0,1-23.922-3.572c-.8-.336-1.986.3-2.647,1.431s-.551,2.319.247,2.651c9.4,5.062,19.346,8.216,29.442,8.654A63.408,63.408,0,0,0,81.44,205.2c20.644-13.228,35.783-39.266,34.172-78.79C114.42,98.079,106.5,75.15,94.141,56.417,81.885,37.846,65.3,23.4,46.778,11.778,41.7,8.956,33.65,4.823,28.263,2.385c-.606-.274-1.039-.885-1.714-.745-.644.136-.391.277-1,.715-.194-.1-.5.048-.687.332S24.694,3.291,24.889,3.4Z" style="fill:#fcfcfc;fill-rule:evenodd"/></g><g id="Grupo_91" data-name="Grupo 91"><path id="Trazado_203" data-name="Trazado 203" d="M12.937,204.536c4.2-.052,10.291-.31,14.973-1.577,3.173-.857,5.722-1.981,6.833-3.305,1.971-2.862-.863-4.129-2.275-4.2-1.3-.061-3.238-.127-5.71-.026-6.871.27-16.313,1.157-18.41,1.18-7.088.244-7.491,4.147-6.564,6.7.59,1.628,3.794,4.517,7.528,7.72L15.8,216.2l11.648,8.71a1.589,1.589,0,1,0,2.137-2.353h0l-9.632-10.842-5.7-6.106A12.8,12.8,0,0,0,12.937,204.536Z" style="fill:#fcfcfc;fill-rule:evenodd"/></g></g></svg>