<svg id="Ñëîé_1" data-name="Ñëîé 1" xmlns="http://www.w3.org/2000/svg" viewBox="0 0 74.47 106.581"><rect x="1.19" y="4.451" width="73.282" height="102.13" style="fill:#fff"/><rect x="3.686" y="20.196" width="68.289" height="9.088" style="fill:#373737"/><path d="M7.555,33.206h5.323a1.109,1.109,0,0,1,1.109,1.109v5.323a1.108,1.108,0,0,1-1.108,1.108H7.553a1.109,1.109,0,0,1-1.109-1.109V34.316A1.11,1.11,0,0,1,7.555,33.206Z" style="fill:#f43327"/><path d="M16.761,33.206h5.323a1.109,1.109,0,0,1,1.109,1.109v5.323a1.108,1.108,0,0,1-1.108,1.108H16.759a1.109,1.109,0,0,1-1.109-1.109V34.316A1.11,1.11,0,0,1,16.761,33.206Z" style="fill:#ccc"/><path d="M25.965,33.206h5.325A1.108,1.108,0,0,1,32.4,34.314v5.324a1.108,1.108,0,0,1-1.108,1.108H25.964a1.109,1.109,0,0,1-1.109-1.109V34.316A1.11,1.11,0,0,1,25.965,33.206Z" style="fill:#ccc"/><path d="M35.171,33.206h5.323A1.108,1.108,0,0,1,41.6,34.314v5.324a1.108,1.108,0,0,1-1.108,1.108H35.17a1.109,1.109,0,0,1-1.109-1.109V34.316A1.11,1.11,0,0,1,35.171,33.206Z" style="fill:#f43327"/><path d="M44.375,33.206H49.7a1.109,1.109,0,0,1,1.109,1.109v5.323A1.108,1.108,0,0,1,49.7,40.746H44.374a1.109,1.109,0,0,1-1.109-1.109V34.316A1.11,1.11,0,0,1,44.375,33.206Z" style="fill:#ccc"/><path d="M53.582,33.206H58.9a1.109,1.109,0,0,1,1.109,1.109v5.323A1.108,1.108,0,0,1,58.9,40.746H53.58a1.109,1.109,0,0,1-1.109-1.109V34.316A1.11,1.11,0,0,1,53.582,33.206Z" style="fill:#ccc"/><path d="M69.218,39.636a1.109,1.109,0,0,1-1.107,1.11H62.783a1.106,1.106,0,0,1-1.105-1.11V34.314a1.106,1.106,0,0,1,1.105-1.108h5.328a1.108,1.108,0,0,1,1.107,1.108Z" style="fill:#ccc"/><path d="M7.553,46.316h5.324a1.109,1.109,0,0,1,1.109,1.109v5.321a1.111,1.111,0,0,1-1.111,1.111H7.553a1.109,1.109,0,0,1-1.109-1.109V47.425A1.109,1.109,0,0,1,7.553,46.316Z" style="fill:#f43327"/><path d="M16.759,46.316h5.324a1.109,1.109,0,0,1,1.109,1.109v5.321a1.111,1.111,0,0,1-1.111,1.111H16.759a1.109,1.109,0,0,1-1.109-1.109V47.425A1.109,1.109,0,0,1,16.759,46.316Z" style="fill:#ccc"/><path d="M25.964,46.316h5.327A1.108,1.108,0,0,1,32.4,47.424v5.322a1.111,1.111,0,0,1-1.111,1.111H25.964a1.109,1.109,0,0,1-1.109-1.109V47.425A1.109,1.109,0,0,1,25.964,46.316Z" style="fill:#ccc"/><path d="M35.17,46.316h5.324A1.108,1.108,0,0,1,41.6,47.424v5.322a1.111,1.111,0,0,1-1.111,1.111H35.17a1.109,1.109,0,0,1-1.109-1.109V47.425A1.109,1.109,0,0,1,35.17,46.316Z" style="fill:#ccc"/><path d="M44.374,46.316H49.7a1.109,1.109,0,0,1,1.109,1.109v5.321A1.111,1.111,0,0,1,49.7,53.858H44.374a1.109,1.109,0,0,1-1.109-1.109V47.425A1.109,1.109,0,0,1,44.374,46.316Z" style="fill:#ccc"/><path d="M53.58,46.316H58.9a1.109,1.109,0,0,1,1.109,1.109v5.321A1.111,1.111,0,0,1,58.9,53.858H53.58a1.109,1.109,0,0,1-1.109-1.109V47.425A1.109,1.109,0,0,1,53.58,46.316Z" style="fill:#ccc"/><path d="M69.218,52.749a1.11,1.11,0,0,1-1.107,1.109H62.783a1.107,1.107,0,0,1-1.105-1.109V47.427a1.107,1.107,0,0,1,1.105-1.111h5.328a1.11,1.11,0,0,1,1.107,1.111Z" style="fill:#ccc"/><path d="M7.555,59.427h5.323a1.109,1.109,0,0,1,1.109,1.109v5.323a1.11,1.11,0,0,1-1.11,1.11H7.553a1.109,1.109,0,0,1-1.109-1.109V60.537A1.11,1.11,0,0,1,7.555,59.427Z" style="fill:#f43327"/><path d="M16.761,59.427h5.323a1.109,1.109,0,0,1,1.109,1.109v5.323a1.11,1.11,0,0,1-1.11,1.11H16.759a1.109,1.109,0,0,1-1.109-1.109V60.537A1.11,1.11,0,0,1,16.761,59.427Z" style="fill:#ccc"/><path d="M25.965,59.427h5.325A1.108,1.108,0,0,1,32.4,60.535v5.324a1.11,1.11,0,0,1-1.11,1.11H25.964a1.109,1.109,0,0,1-1.109-1.109V60.537A1.11,1.11,0,0,1,25.965,59.427Z" style="fill:#ccc"/><path d="M35.171,59.427h5.323A1.108,1.108,0,0,1,41.6,60.535v5.324a1.11,1.11,0,0,1-1.11,1.11H35.17a1.109,1.109,0,0,1-1.109-1.109V60.537A1.11,1.11,0,0,1,35.171,59.427Z" style="fill:#ccc"/><path d="M44.375,59.427H49.7a1.109,1.109,0,0,1,1.109,1.109v5.323a1.11,1.11,0,0,1-1.11,1.11H44.374a1.109,1.109,0,0,1-1.109-1.109V60.537A1.11,1.11,0,0,1,44.375,59.427Z" style="fill:#ccc"/><path d="M53.582,59.427H58.9a1.109,1.109,0,0,1,1.109,1.109v5.323a1.11,1.11,0,0,1-1.11,1.11H53.58a1.109,1.109,0,0,1-1.109-1.109V60.537A1.11,1.11,0,0,1,53.582,59.427Z" style="fill:#ccc"/><path d="M69.218,65.859a1.11,1.11,0,0,1-1.107,1.111H62.783a1.107,1.107,0,0,1-1.105-1.111V60.538a1.108,1.108,0,0,1,1.105-1.111h5.328a1.11,1.11,0,0,1,1.107,1.111Z" style="fill:#ccc"/><path d="M7.553,72.541h5.324a1.109,1.109,0,0,1,1.109,1.109v5.322a1.108,1.108,0,0,1-1.108,1.108H7.553a1.108,1.108,0,0,1-1.108-1.108V73.649A1.109,1.109,0,0,1,7.553,72.541Z" style="fill:#f43327"/><path d="M16.759,72.541h5.324a1.109,1.109,0,0,1,1.109,1.109v5.321a1.109,1.109,0,0,1-1.109,1.109H16.759a1.108,1.108,0,0,1-1.108-1.108V73.649A1.109,1.109,0,0,1,16.759,72.541Z" style="fill:#ccc"/><path d="M25.964,72.541h5.327A1.108,1.108,0,0,1,32.4,73.649v5.322a1.108,1.108,0,0,1-1.108,1.108H25.964a1.109,1.109,0,0,1-1.109-1.109V73.649A1.109,1.109,0,0,1,25.964,72.541Z" style="fill:#ccc"/><path d="M35.17,72.541h5.323A1.109,1.109,0,0,1,41.6,73.649v5.322a1.108,1.108,0,0,1-1.108,1.108H35.169a1.108,1.108,0,0,1-1.108-1.108V73.649A1.109,1.109,0,0,1,35.17,72.541Z" style="fill:#ccc"/><path d="M44.374,72.541H49.7a1.109,1.109,0,0,1,1.109,1.109v5.322A1.108,1.108,0,0,1,49.7,80.079H44.374a1.109,1.109,0,0,1-1.109-1.109V73.649A1.109,1.109,0,0,1,44.374,72.541Z" style="fill:#ccc"/><path d="M53.58,72.541H58.9a1.109,1.109,0,0,1,1.109,1.109v5.322A1.108,1.108,0,0,1,58.9,80.079H53.579a1.108,1.108,0,0,1-1.108-1.108V73.649A1.109,1.109,0,0,1,53.58,72.541Z" style="fill:#ccc"/><path d="M62.787,72.541h5.326a1.105,1.105,0,0,1,1.105,1.105v5.325a1.108,1.108,0,0,1-1.108,1.108H62.785a1.107,1.107,0,0,1-1.107-1.107V73.649A1.109,1.109,0,0,1,62.787,72.541Z" style="fill:#ccc"/><path d="M13.751,8.963a2.346,2.346,0,1,1-2.346-2.345A2.347,2.347,0,0,1,13.751,8.963Z" style="fill:#ddd"/><path d="M24.319,8.963a2.345,2.345,0,1,1-2.345-2.345A2.344,2.344,0,0,1,24.319,8.963Z" style="fill:#ddd"/><path d="M34.892,8.963a2.346,2.346,0,1,1-2.346-2.345A2.344,2.344,0,0,1,34.892,8.963Z" style="fill:#ddd"/><path d="M45.464,8.963a2.346,2.346,0,1,1-2.346-2.345A2.345,2.345,0,0,1,45.464,8.963Z" style="fill:#ddd"/><path d="M56.032,8.963a2.344,2.344,0,1,1-2.346-2.345A2.344,2.344,0,0,1,56.032,8.963Z" style="fill:#ddd"/><path d="M66.6,8.963a2.346,2.346,0,1,1-2.345-2.345A2.344,2.344,0,0,1,66.6,8.963Z" style="fill:#ddd"/><rect x="6.445" y="89.466" width="62.773" height="10.473" style="fill:#eb585a"/><path d="M13.406,25a3.08,3.08,0,1,1-3.078-3.079A3.078,3.078,0,0,1,13.406,25Z" style="fill:#fffef6"/><path d="M22.594,25a3.08,3.08,0,1,1-3.081-3.079A3.079,3.079,0,0,1,22.594,25Z" style="fill:#fffef6"/><path d="M31.781,25a3.08,3.08,0,1,1-3.08-3.079A3.08,3.08,0,0,1,31.781,25Z" style="fill:#fffef6"/><path d="M40.967,25a3.08,3.08,0,1,1-3.079-3.079A3.079,3.079,0,0,1,40.967,25Z" style="fill:#fffef6"/><path d="M50.154,25a3.08,3.08,0,1,1-3.081-3.079A3.081,3.081,0,0,1,50.154,25Z" style="fill:#fffef6"/><path d="M59.339,25a3.08,3.08,0,1,1-3.078-3.079A3.078,3.078,0,0,1,59.339,25Z" style="fill:#fffef6"/><path d="M68.527,25a3.081,3.081,0,1,1-3.082-3.079A3.079,3.079,0,0,1,68.527,25Z" style="fill:#fffef6"/><path d="M41.343,4.451A3.455,3.455,0,1,1,37.888,1,3.454,3.454,0,0,1,41.343,4.451Z" style="fill:#f43327"/></svg>