<svg xmlns="http://www.w3.org/2000/svg" xmlns:xlink="http://www.w3.org/1999/xlink" viewBox="0 0 116.674 98.044"><defs><linearGradient id="linear-gradient" x1="38.21" y1="74.977" x2="43.739" y2="69.448" gradientUnits="userSpaceOnUse"><stop offset="0" stop-color="#121212"/><stop offset="1" stop-color="#515151"/></linearGradient><linearGradient id="linear-gradient-2" x1="42.006" y1="71.142" x2="39.872" y2="73.276" gradientUnits="userSpaceOnUse"><stop offset="0" stop-color="#c4c4c4"/><stop offset="0.002" stop-color="#c4c4c4"/><stop offset="0.235" stop-color="#dedede"/><stop offset="0.474" stop-color="#f0f0f0"/><stop offset="0.724" stop-color="#fbfbfb"/><stop offset="1" stop-color="#fff"/></linearGradient><linearGradient id="linear-gradient-3" x1="48.375" y1="74.977" x2="53.904" y2="69.448" xlink:href="#linear-gradient"/><linearGradient id="linear-gradient-4" x1="52.203" y1="70.6" x2="49.904" y2="72.899" xlink:href="#linear-gradient-2"/><linearGradient id="linear-gradient-5" x1="52.668" y1="71.065" x2="50.369" y2="73.364" xlink:href="#linear-gradient-2"/><linearGradient id="linear-gradient-6" x1="58.54" y1="74.977" x2="64.07" y2="69.448" xlink:href="#linear-gradient"/><linearGradient id="linear-gradient-7" x1="61.724" y1="70.837" x2="59.244" y2="73.317" xlink:href="#linear-gradient-2"/><linearGradient id="linear-gradient-8" x1="62.646" y1="71.759" x2="60.166" y2="74.239" xlink:href="#linear-gradient-2"/><linearGradient id="linear-gradient-9" x1="62.928" y1="72.042" x2="60.449" y2="74.521" xlink:href="#linear-gradient-2"/><linearGradient id="linear-gradient-10" x1="68.706" y1="74.977" x2="74.235" y2="69.448" xlink:href="#linear-gradient"/><linearGradient id="linear-gradient-11" x1="70.415" y1="71.903" x2="69.796" y2="72.523" xlink:href="#linear-gradient-2"/><linearGradient id="linear-gradient-12" x1="71.78" y1="71.903" x2="71.16" y2="72.523" xlink:href="#linear-gradient-2"/><linearGradient id="linear-gradient-13" x1="73.145" y1="71.903" x2="72.525" y2="72.523" xlink:href="#linear-gradient-2"/></defs><g style="isolation:isolate"><g id="Ñëîé_1" data-name="Ñëîé 1"><polygon points="71.992 93.87 45.496 93.87 48.232 82.896 69.255 82.896 71.992 93.87" style="fill:#062635"/><path d="M86.1,98.044H33.635v-.633a4.552,4.552,0,0,1,4.553-4.553H81.542A4.553,4.553,0,0,1,86.1,97.411Z" style="fill:#133141"/><rect y="12.237" width="115.457" height="73.024" style="fill:#133141"/><rect x="2.737" y="14.974" width="109.984" height="64.193" style="fill:#c1f4f0"/><g style="mix-blend-mode:multiply"><rect x="2.737" y="14.974" width="1.216" height="64.193" style="fill:#ace4e1"/></g><polygon points="116.674 86.386 115.457 86.386 115.457 12.237 116.674 13.342 116.674 86.386" style="fill:#062635"/><g style="mix-blend-mode:multiply"><rect x="3.953" y="14.974" width="108.768" height="1.216" style="fill:#ace4e1"/></g><polygon points="115.457 85.17 115.457 86.386 1.08 86.386 0 85.17 115.457 85.17" style="fill:#062635"/><path d="M109.613,82.4a1.774,1.774,0,1,1-1.773-1.774A1.773,1.773,0,0,1,109.613,82.4Z" style="fill:#062635"/><rect x="86.096" y="82.407" width="3.297" height="0.98" style="fill:#062635"/><rect x="90.784" y="82.407" width="3.297" height="0.98" style="fill:#062635"/><rect x="95.475" y="82.407" width="3.297" height="0.98" style="fill:#062635"/><rect x="100.163" y="82.407" width="3.297" height="0.98" style="fill:#062635"/><g style="mix-blend-mode:screen"><polygon points="36.936 16.227 3.953 49.211 3.996 46.334 34.14 16.19 36.936 16.227" style="fill:#c1f4f0"/></g><g style="mix-blend-mode:screen"><polygon points="56.819 16.19 3.953 69.057 3.953 61.363 49.125 16.19 56.819 16.19" style="fill:#c1f4f0"/></g><polygon points="71.992 93.87 45.496 93.87 48.232 82.896 69.255 82.896 71.992 93.87" style="fill:#062635"/><path d="M86.1,98.044H33.635v-.633a4.552,4.552,0,0,1,4.553-4.553H81.542A4.553,4.553,0,0,1,86.1,97.411Z" style="fill:#133141"/><rect y="12.237" width="115.457" height="73.024" style="fill:#133141"/><rect x="2.737" y="14.974" width="109.984" height="64.193" style="fill:#2f6fb6"/><g style="mix-blend-mode:multiply"><rect x="2.737" y="14.974" width="1.216" height="64.193" style="fill:#ace4e1"/></g><polygon points="116.674 86.386 115.457 86.386 115.457 12.237 116.674 13.342 116.674 86.386" style="fill:#062635"/><g style="mix-blend-mode:multiply"><rect x="3.953" y="14.974" width="108.768" height="1.216" style="fill:#ace4e1"/></g><polygon points="115.457 85.17 115.457 86.386 1.08 86.386 0 85.17 115.457 85.17" style="fill:#062635"/><path d="M109.613,82.4a1.774,1.774,0,1,1-1.773-1.774A1.773,1.773,0,0,1,109.613,82.4Z" style="fill:#062635"/><rect x="86.096" y="82.407" width="3.297" height="0.98" style="fill:#062635"/><rect x="90.784" y="82.407" width="3.297" height="0.98" style="fill:#062635"/><rect x="95.475" y="82.407" width="3.297" height="0.98" style="fill:#062635"/><rect x="100.163" y="82.407" width="3.297" height="0.98" style="fill:#062635"/><path d="M113.665,14.974a6.961,6.961,0,0,1-.348,1.624V79.235H2.829V14.974H.08V85.086H116.065V14.974Z" style="fill:#133141"/><g style="mix-blend-mode:screen;opacity:0.62"><polygon points="38.378 14.407 4.074 48.711 4.147 45.747 35.497 14.397 38.378 14.407" style="fill:#c1f4f0"/></g><g style="mix-blend-mode:screen;opacity:0.62"><polygon points="57.538 15.471 3.953 69.057 4.618 61.924 50.405 16.136 57.538 15.471" style="fill:#c1f4f0"/></g><circle cx="40.975" cy="72.213" r="3.91" style="fill:url(#linear-gradient)"/><path d="M42.565,71.344l-.813.438V71.39a.232.232,0,0,0-.232-.233h-2a.232.232,0,0,0-.232.233v1.646a.232.232,0,0,0,.232.232h2a.232.232,0,0,0,.232-.232v-.392l.813.438a.063.063,0,0,0,.092-.056V71.4A.063.063,0,0,0,42.565,71.344Z" style="fill:url(#linear-gradient-2)"/><circle cx="51.14" cy="72.213" r="3.91" style="fill:url(#linear-gradient-3)"/><rect x="50.368" y="70.383" width="1.545" height="2.547" rx="0.772" style="fill:url(#linear-gradient-4)"/><path d="M52.2,72.33a.932.932,0,0,1-1.058.917c-.509,0-1.054-.238-1.054-.905H49.8A1.159,1.159,0,0,0,51,73.523v.52h.282v-.52a1.181,1.181,0,0,0,1.2-1.193Z" style="fill:url(#linear-gradient-5)"/><circle cx="61.305" cy="72.213" r="3.91" style="fill:url(#linear-gradient-6)"/><path d="M60.99,72.524h0a.956.956,0,0,0,.953-.953.954.954,0,1,0-.954.953Z" style="fill:url(#linear-gradient-7)"/><path d="M61.786,72.608a1.22,1.22,0,0,1-1.549,0,.066.066,0,0,0-.095.008,2.187,2.187,0,0,0-.436,1.114.066.066,0,0,0,.066.074h2.441a.065.065,0,0,0,.065-.072,2.181,2.181,0,0,0-.4-1.12A.066.066,0,0,0,61.786,72.608Z" style="fill:url(#linear-gradient-8)"/><path d="M63.392,71.987h-.408v-.409a.047.047,0,0,0-.048-.047h-.2a.047.047,0,0,0-.047.047v.409H62.28a.047.047,0,0,0-.048.047v.2a.047.047,0,0,0,.048.048h.408v.408a.048.048,0,0,0,.047.048h.2a.048.048,0,0,0,.048-.048v-.408h.408a.048.048,0,0,0,.048-.048v-.2A.048.048,0,0,0,63.392,71.987Z" style="fill:url(#linear-gradient-9)"/><circle cx="71.47" cy="72.213" r="3.91" style="fill:url(#linear-gradient-10)"/><circle cx="70.105" cy="72.213" r="0.438" style="fill:url(#linear-gradient-11)"/><circle cx="71.47" cy="72.213" r="0.438" style="fill:url(#linear-gradient-12)"/><circle cx="72.835" cy="72.213" r="0.438" style="fill:url(#linear-gradient-13)"/><g style="mix-blend-mode:multiply"><path d="M94.423,13.965A41.162,41.162,0,0,0,86.1,7.151,69.7,69.7,0,0,0,56.64.807c-15.083.342-28.77,6.13-34.555,14.642-4.621,6.8-3.713,14.694,2.256,21.074A30.3,30.3,0,0,0,31.1,41.8c3.944,2.489,9.88,4.962,12.126,5.268,5.19.708,10.949,5.656,10.949,5.656L72.478,79.235l40.243-.068V37.532S98.857,18.992,94.423,13.965Z" style="fill:#2f6fb6"/></g><path d="M98.336,24.751c-.966,24.328-36.353,24.12-36.353,24.12L43.935,57.776s4.277-9.684,3.688-9.789a55.381,55.381,0,0,1-8.362-2.159c-12.013-4.156-20.12-12.038-20.12-21.077,0-13.367,17.728-24.2,39.6-24.2S98.866,11.394,98.336,24.751Z" style="fill:#eaeeef"/><path d="M34.893,23.742a1.772,1.772,0,0,1-3.537,0,1.771,1.771,0,0,1,3.537,0Zm-.055,11.217H31.412l.57-8.27h2.284Z" style="fill:#3dad52"/><path d="M49.133,19.229V32.122H46.149V26.836H40.292v5.286H37.308V19.229h2.984v5.084h5.857V19.229Z" style="fill:#3dad52"/><path d="M51.26,27.168c0-2.984,2.3-5.1,5.452-5.1a5.112,5.112,0,1,1,0,10.2C53.562,32.269,51.26,30.152,51.26,27.168Zm7.976,0a2.541,2.541,0,1,0-5.066,0,2.541,2.541,0,1,0,5.066,0Z" style="fill:#3dad52"/><path d="M64.068,18.456h2.874V32.122H64.068Z" style="fill:#3dad52"/><path d="M78.384,26.467v5.655H75.695V30.888a3.251,3.251,0,0,1-3.021,1.381c-2.32,0-3.7-1.289-3.7-3,0-1.751,1.234-2.966,4.255-2.966H75.51c0-1.234-.736-1.952-2.284-1.952a4.754,4.754,0,0,0-2.854.921L69.34,23.262a7.622,7.622,0,0,1,4.273-1.2C76.634,22.066,78.384,23.466,78.384,26.467ZM75.51,28.991V27.978H73.54c-1.344,0-1.769.5-1.769,1.161,0,.718.608,1.2,1.622,1.2A2.114,2.114,0,0,0,75.51,28.991Z" style="fill:#3dad52"/><path d="M80.565,30.593a1.773,1.773,0,0,1,3.536,0,1.771,1.771,0,0,1-3.536,0Zm.055-11.364h3.426l-.572,8.417H81.19Z" style="fill:#3dad52"/></g></g></svg>