<svg id="Ñëîé_1" data-name="Ñëîé 1" xmlns="http://www.w3.org/2000/svg" xmlns:xlink="http://www.w3.org/1999/xlink" viewBox="0 0 283.655 83.023"><defs><clipPath id="clip-path"><path d="M71.8,47.976H65.863c-1.888,0-3.419-1.22-3.419-2.726V32.387H75.22V45.25C75.22,46.756,73.69,47.976,71.8,47.976Z" style="fill:none"/></clipPath><clipPath id="clip-path-2"><rect x="71.577" y="31.747" width="6.429" height="6.429" style="fill:none"/></clipPath><clipPath id="clip-path-3"><rect x="71.577" y="38.176" width="6.429" height="6.429" style="fill:none"/></clipPath><clipPath id="clip-path-4"><rect x="71.577" y="44.605" width="6.429" height="6.429" style="fill:none"/></clipPath><clipPath id="clip-path-5"><rect x="65.148" y="31.747" width="6.429" height="6.429" style="fill:none"/></clipPath><clipPath id="clip-path-6"><rect x="65.148" y="38.176" width="6.429" height="6.429" style="fill:none"/></clipPath><clipPath id="clip-path-7"><rect x="65.148" y="44.605" width="6.429" height="6.429" style="fill:none"/></clipPath><clipPath id="clip-path-8"><rect x="58.72" y="31.747" width="6.428" height="6.429" style="fill:none"/></clipPath><clipPath id="clip-path-9"><rect x="58.72" y="38.176" width="6.428" height="6.429" style="fill:none"/></clipPath><clipPath id="clip-path-10"><rect x="58.72" y="44.605" width="6.428" height="6.429" style="fill:none"/></clipPath></defs><rect x="6.125" y="61.577" width="272.191" height="21.38" style="fill:#f0ead8"/><path d="M33.388,30.774A9.118,9.118,0,0,1,42.5,21.666V20.34a7.477,7.477,0,1,1,0-14.953V1.046H34.537A4.34,4.34,0,0,0,30.2,5.387V48.8H42.5V39.882A9.117,9.117,0,0,1,33.388,30.774Z" style="fill:#ffbc5a"/><path d="M54.8,5.387a4.34,4.34,0,0,0-4.341-4.341H42.5V5.387a7.477,7.477,0,0,1,0,14.953v1.326a9.108,9.108,0,0,1,0,18.216V48.8H54.8Z" style="fill:#eeb149"/><path d="M48.525,12.863a6.03,6.03,0,0,1-6.029,6.03V20.34a7.477,7.477,0,0,0,0-14.953V6.834A6.029,6.029,0,0,1,48.525,12.863Z" style="fill:#ffbc5a"/><path d="M35.019,12.863A7.485,7.485,0,0,0,42.5,20.34V18.893a6.03,6.03,0,1,1,0-12.059V5.387A7.485,7.485,0,0,0,35.019,12.863Z" style="fill:#eeb149"/><path d="M36.466,12.863a6.03,6.03,0,0,0,6.03,6.03V6.834A6.03,6.03,0,0,0,36.466,12.863Z" style="fill:#0f365a"/><path d="M48.525,12.863A6.029,6.029,0,0,0,42.5,6.834V18.893A6.03,6.03,0,0,0,48.525,12.863Z" style="fill:#274b6c"/><path d="M50.156,30.774a7.661,7.661,0,0,1-7.66,7.662v1.446a9.108,9.108,0,0,0,0-18.216v1.447A7.66,7.66,0,0,1,50.156,30.774Z" style="fill:#ffbc5a"/><path d="M33.388,30.774A9.117,9.117,0,0,0,42.5,39.882V38.436a7.662,7.662,0,0,1,0-15.323V21.666A9.118,9.118,0,0,0,33.388,30.774Z" style="fill:#eeb149"/><path d="M34.835,30.774A7.661,7.661,0,0,0,42.5,38.436V23.113A7.66,7.66,0,0,0,34.835,30.774Z" style="fill:#0f365a"/><path d="M50.156,30.774a7.66,7.66,0,0,0-7.66-7.661V38.436A7.661,7.661,0,0,0,50.156,30.774Z" style="fill:#274b6c"/><rect x="0.733" y="48.903" width="282.47" height="12.674" style="fill:#eaeeef"/><rect x="13.285" y="66.963" width="258.234" height="9.791" style="fill:#e4e0d0"/><path d="M212.946,40.735h3.114a1.06,1.06,0,0,1,1.06,1.06v.022a1.059,1.059,0,0,1-1.059,1.059h-3.114a1.059,1.059,0,0,1-1.059-1.059v-.022a1.059,1.059,0,0,1,1.059-1.059Z" style="fill:#274b6c"/><path d="M223.194,48.8H205.145a7.225,7.225,0,0,1,7.165-7.235h.722a13.622,13.622,0,0,1,10.941,5.507l.055.073A1.038,1.038,0,0,1,223.194,48.8Z" style="fill:#062635"/><path d="M206.315,48.333l-1.071-.13a5.859,5.859,0,0,1,4.755-4.8c6.715-1.277,13.243,3.739,13.52,3.953l-.664.852c-.064-.05-6.436-4.927-12.654-3.744A4.744,4.744,0,0,0,206.315,48.333Z" style="fill:#193556"/><path d="M64.814,37.574c-.292.019-.5-.025-.528-.129l1.707,6.874.527.122Z" style="fill:#f7daa9"/><polygon points="65.366 37.485 65.366 37.485 67.095 44.457 65.366 37.485" style="fill:#fff"/><path d="M66.273,36.951c.026.1-.138.242-.406.364l1.7,6.865.437-.362-1.9-7.545Z" style="fill:#f2c577"/><polygon points="66.52 44.441 66.542 44.49 67.793 47.265 67.095 44.457 66.52 44.441" style="fill:#133141"/><polygon points="65.993 44.319 67.793 47.265 66.542 44.49 65.993 44.319" style="fill:#83a7bb"/><polygon points="66.52 44.441 65.993 44.319 66.542 44.49 66.52 44.441" style="fill:#fbfbfb"/><polygon points="67.152 44.678 67.15 44.68 67.793 47.265 67.791 47.251 67.152 44.678" style="fill:#fbfbfb"/><polygon points="67.097 44.456 67.791 47.251 67.577 44.252 67.572 44.18 67.097 44.456" style="fill:#5385a0"/><rect x="67.123" y="44.453" width="0.003" height="0.229" transform="translate(-8.751 17.458) rotate(-13.921)" style="fill:#fbfbfb"/><polygon points="67.577 44.252 67.791 47.251 67.793 47.257 68.009 43.818 67.577 44.252" style="fill:#f9e4bf"/><polygon points="67.793 47.265 67.793 47.257 67.791 47.251 67.793 47.265" style="fill:#fbfbfb"/><polygon points="67.577 44.252 68.009 43.818 67.572 44.18 67.577 44.252" style="fill:#fbfbfb"/><path d="M65.366,37.485l-.01,0a2.943,2.943,0,0,1-.542.087l1.706,6.867.575.016Z" style="fill:#f7daa9"/><path d="M67.1,44.456l.475-.276-1.7-6.865a3.113,3.113,0,0,1-.5.17Z" style="fill:#f2c577"/><rect x="66.231" y="37.38" width="0.001" height="7.183" transform="translate(-7.916 17.152) rotate(-13.933)" style="fill:#f2c577"/><rect x="65.33" y="37.19" height="0.3" style="fill:#fff"/><path d="M64.814,37.574a2.943,2.943,0,0,0,.542-.087l.01,0-.072-.291-.01,0a3.227,3.227,0,0,1-.427.077c-.352.039-.614,0-.644-.12l.073.291C64.312,37.549,64.522,37.593,64.814,37.574Z" style="fill:#eaeeef"/><path d="M65.867,37.315c.268-.122.432-.259.406-.364l-.072-.29c.026.1-.138.242-.407.362a2.831,2.831,0,0,1-.5.171l.072.291A3.113,3.113,0,0,0,65.867,37.315Z" style="fill:#3f5f7c"/><rect x="65.33" y="37.19" height="0.3" transform="translate(-7.068 16.825) rotate(-13.93)" style="fill:#385876"/><path d="M65.2,36.808l.1.386a2.831,2.831,0,0,0,.5-.171c.269-.12.433-.257.407-.362l-.1-.388C66.144,36.434,65.741,36.67,65.2,36.808Z" style="fill:#0f365a"/><path d="M64.857,37.274a3.227,3.227,0,0,0,.427-.077l.01,0h0l-.1-.386-.01,0c-.549.136-1.031.118-1.071-.042l.1.386C64.243,37.272,64.505,37.313,64.857,37.274Z" style="fill:#274b6c"/><path d="M65.188,36.81l.01,0L61.3,21.123l-.01,0c-.549.137,2.536,14.481,2.5,14.321l.328,1.322C64.157,36.928,64.639,36.946,65.188,36.81Z" style="fill:#fd9696"/><path d="M61.3,21.123,65.2,36.808c.543-.138.946-.374.907-.535l-.329-1.32C65.816,35.112,61.846,20.986,61.3,21.123Z" style="fill:#fd6b6b"/><path d="M61.148,20.545c-.548.136,2.6,14.741,2.641,14.9s-3.045-14.184-2.5-14.321l.01,0-.144-.581Z" style="fill:#feaeae"/><path d="M61.159,20.542l.144.581c.543-.137,4.513,13.989,4.473,13.83S61.7,20.408,61.159,20.542Z" style="fill:#fd9696"/><path d="M66.52,44.441l-6.132-24.69c-.293.019-.5-.025-.529-.129l6.134,24.7Z" style="fill:#f7daa9"/><rect x="64.017" y="19.286" height="25.548" transform="translate(-5.839 16.37) rotate(-13.943)" style="fill:#fff"/><path d="M68.009,43.818,61.678,18.451l.169.677c.026.1-.138.242-.407.363L67.572,44.18Z" style="fill:#f1bd64"/><path d="M67.1,44.457,60.94,19.662l-.01,0a3.03,3.03,0,0,1-.542.087l6.132,24.69Z" style="fill:#f9e4c1"/><path d="M67.572,44.18,61.44,19.491a2.971,2.971,0,0,1-.5.171L67.1,44.456Z" style="fill:#f2c577"/><rect x="64.017" y="19.286" width="0.001" height="25.547" transform="translate(-5.84 16.374) rotate(-13.946)" style="fill:#f2c577"/><rect x="60.904" y="19.367" height="0.3" style="fill:#fff"/><path d="M60.388,19.751a3.03,3.03,0,0,0,.542-.087l.01,0-.072-.291-.01,0a3.227,3.227,0,0,1-.427.077c-.352.038-.615,0-.643-.12l.071.291C59.885,19.726,60.1,19.77,60.388,19.751Z" style="fill:#eaeeef"/><path d="M61.44,19.491c.269-.121.433-.259.407-.363l-.073-.29c.026.1-.137.242-.406.363a2.974,2.974,0,0,1-.5.17l.072.291A2.971,2.971,0,0,0,61.44,19.491Z" style="fill:#3f5f7c"/><rect x="60.904" y="19.367" height="0.3" transform="translate(-2.909 15.261) rotate(-13.953)" style="fill:#385876"/><path d="M60.772,18.984l.1.387a2.974,2.974,0,0,0,.5-.17c.269-.121.432-.259.406-.363l-.1-.387C61.718,18.61,61.315,18.848,60.772,18.984Z" style="fill:#0f365a"/><path d="M60.431,19.451a3.227,3.227,0,0,0,.427-.077l.01,0h0l-.1-.387-.01,0c-.549.137-1.031.119-1.071-.042l.1.387C59.816,19.448,60.079,19.489,60.431,19.451Z" style="fill:#274b6c"/><path d="M60.762,18.986l.01,0-.329-1.321-.009,0c-.549.136-1.031.117-1.071-.043l.328,1.321C59.731,19.105,60.213,19.123,60.762,18.986Z" style="fill:#fd9d9d"/><path d="M60.443,17.663l.329,1.321c.543-.136.946-.374.906-.533L61.35,17.13C61.39,17.289,60.987,17.526,60.443,17.663Z" style="fill:#fd6c6c"/><path d="M60.289,17.085c-.549.136-.966.378-.926.538s.522.179,1.071.043l.009,0-.144-.581Z" style="fill:#feaeae"/><path d="M60.3,17.082l.144.581c.544-.137.947-.374.907-.533S60.844,16.949,60.3,17.082Z" style="fill:#fd9696"/><path d="M67.683,47.067l.134.541c.027.109.1.184.162.169L67.8,47.04Z" style="fill:#fd7979"/><path d="M67.8,47.04l.183.737h0c.062-.015.09-.116.063-.225l-.135-.54Z" style="fill:#fc4a4a"/><polygon points="70.406 47.148 70.516 41.568 72.472 41.964 70.406 47.148" style="fill:#195c8f"/><path d="M76.581,16.592l-1-.2q-1.729,7.11-3.129,14.3l1.228.248Z" style="fill:#f1bd66"/><path d="M77.58,16.794l-1-.2-2.9,14.346,1.229.249Q76.4,24.019,77.58,16.794Z" style="fill:#eeb149"/><path d="M71.494,41.766l1,.2c.871-3.578,1.669-7.177,2.418-10.781l-1.229-.249Z" style="fill:#f2c373"/><path d="M72.454,30.69c-.71,3.613-1.371,7.239-1.957,10.875l1,.2,2.188-10.828Z" style="fill:#f5d397"/><path d="M76.723,30.545a.4.4,0,0,1-.288-.236,3.314,3.314,0,0,1-.122-1.573c.051-.6.513-2.353,1.159-4.765.3-1.109.576-2.155.654-2.538.157-.783.334-3.006.4-3.943l-3.044-.615a.5.5,0,0,1,.2-.969l3.79.766-.03.425c-.009.139-.237,3.443-.453,4.51-.084.417-.355,1.431-.67,2.605-.454,1.7-1.077,4.025-1.124,4.573a2.894,2.894,0,0,0,.039,1.063.543.543,0,0,1-.226.65A.414.414,0,0,1,76.723,30.545Z" style="fill:#195c8f"/><rect x="61.222" y="30.659" width="15.221" height="1.727" style="fill:#204466"/><g style="clip-path:url(#clip-path)"><g style="clip-path:url(#clip-path-2)"><rect x="78.947" y="39.117" width="4.546" height="4.546" transform="translate(-5.474 69.566) rotate(-45.008)" style="fill:none;stroke:#204466;stroke-miterlimit:10;stroke-width:1.2857100000000001px"/><rect x="72.518" y="39.117" width="4.546" height="4.546" transform="translate(-7.36 65.013) rotate(-45.004)" style="fill:none;stroke:#204466;stroke-miterlimit:10;stroke-width:1.2857100000000001px"/><rect x="66.09" y="39.117" width="4.546" height="4.546" transform="translate(-9.243 60.467) rotate(-45.004)" style="fill:none;stroke:#204466;stroke-miterlimit:10;stroke-width:1.2857100000000001px"/><rect x="78.947" y="32.689" width="4.546" height="4.546" transform="translate(-0.933 67.671) rotate(-45)" style="fill:none;stroke:#204466;stroke-miterlimit:10;stroke-width:1.2857100000000001px"/><rect x="72.518" y="32.689" width="4.546" height="4.546" transform="translate(-2.818 63.119) rotate(-44.996)" style="fill:none;stroke:#204466;stroke-miterlimit:10;stroke-width:1.2857100000000001px"/><rect x="66.09" y="32.689" width="4.546" height="4.546" transform="translate(-4.701 58.574) rotate(-44.996)" style="fill:none;stroke:#204466;stroke-miterlimit:10;stroke-width:1.2857100000000001px"/><rect x="78.947" y="26.26" width="4.546" height="4.546" transform="translate(3.613 65.788) rotate(-45)" style="fill:none;stroke:#204466;stroke-miterlimit:10;stroke-width:1.2857100000000001px"/><rect x="72.518" y="26.26" width="4.546" height="4.546" transform="translate(1.727 61.237) rotate(-44.996)" style="fill:none;stroke:#204466;stroke-miterlimit:10;stroke-width:1.2857100000000001px"/><rect x="66.09" y="26.26" width="4.546" height="4.546" transform="translate(-0.155 56.691) rotate(-44.996)" style="fill:none;stroke:#204466;stroke-miterlimit:10;stroke-width:1.2857100000000001px"/></g><g style="clip-path:url(#clip-path-3)"><rect x="78.947" y="45.546" width="4.546" height="4.546" transform="translate(-10.021 71.45) rotate(-45.008)" style="fill:none;stroke:#204466;stroke-miterlimit:10;stroke-width:1.2857100000000001px"/><rect x="72.518" y="45.546" width="4.546" height="4.546" transform="translate(-11.906 66.896) rotate(-45.004)" style="fill:none;stroke:#204466;stroke-miterlimit:10;stroke-width:1.2857100000000001px"/><rect x="66.09" y="45.546" width="4.546" height="4.546" transform="translate(-13.789 62.35) rotate(-45.004)" style="fill:none;stroke:#204466;stroke-miterlimit:10;stroke-width:1.2857100000000001px"/><rect x="78.947" y="39.117" width="4.546" height="4.546" transform="translate(-5.474 69.566) rotate(-45.008)" style="fill:none;stroke:#204466;stroke-miterlimit:10;stroke-width:1.2857100000000001px"/><rect x="72.518" y="39.117" width="4.546" height="4.546" transform="translate(-7.36 65.013) rotate(-45.004)" style="fill:none;stroke:#204466;stroke-miterlimit:10;stroke-width:1.2857100000000001px"/><rect x="66.09" y="39.117" width="4.546" height="4.546" transform="translate(-9.243 60.467) rotate(-45.004)" style="fill:none;stroke:#204466;stroke-miterlimit:10;stroke-width:1.2857100000000001px"/><rect x="78.947" y="32.689" width="4.546" height="4.546" transform="translate(-0.933 67.671) rotate(-45)" style="fill:none;stroke:#204466;stroke-miterlimit:10;stroke-width:1.2857100000000001px"/><rect x="72.518" y="32.689" width="4.546" height="4.546" transform="translate(-2.818 63.119) rotate(-44.996)" style="fill:none;stroke:#204466;stroke-miterlimit:10;stroke-width:1.2857100000000001px"/><rect x="66.09" y="32.689" width="4.546" height="4.546" transform="translate(-4.701 58.574) rotate(-44.996)" style="fill:none;stroke:#204466;stroke-miterlimit:10;stroke-width:1.2857100000000001px"/></g><g style="clip-path:url(#clip-path-4)"><rect x="78.947" y="51.975" width="4.546" height="4.546" transform="translate(-14.567 73.333) rotate(-45.008)" style="fill:none;stroke:#204466;stroke-miterlimit:10;stroke-width:1.2857100000000001px"/><rect x="72.518" y="51.974" width="4.546" height="4.546" transform="translate(-16.452 68.78) rotate(-45.004)" style="fill:none;stroke:#204466;stroke-miterlimit:10;stroke-width:1.2857100000000001px"/><rect x="66.09" y="51.974" width="4.546" height="4.546" transform="translate(-18.335 64.234) rotate(-45.004)" style="fill:none;stroke:#204466;stroke-miterlimit:10;stroke-width:1.2857100000000001px"/><rect x="78.947" y="45.546" width="4.546" height="4.546" transform="translate(-10.021 71.45) rotate(-45.008)" style="fill:none;stroke:#204466;stroke-miterlimit:10;stroke-width:1.2857100000000001px"/><rect x="72.518" y="45.546" width="4.546" height="4.546" transform="translate(-11.906 66.896) rotate(-45.004)" style="fill:none;stroke:#204466;stroke-miterlimit:10;stroke-width:1.2857100000000001px"/><rect x="66.09" y="45.546" width="4.546" height="4.546" transform="translate(-13.789 62.35) rotate(-45.004)" style="fill:none;stroke:#204466;stroke-miterlimit:10;stroke-width:1.2857100000000001px"/><rect x="78.947" y="39.117" width="4.546" height="4.546" transform="translate(-5.474 69.566) rotate(-45.008)" style="fill:none;stroke:#204466;stroke-miterlimit:10;stroke-width:1.2857100000000001px"/><rect x="72.518" y="39.117" width="4.546" height="4.546" transform="translate(-7.36 65.013) rotate(-45.004)" style="fill:none;stroke:#204466;stroke-miterlimit:10;stroke-width:1.2857100000000001px"/><rect x="66.09" y="39.117" width="4.546" height="4.546" transform="translate(-9.243 60.467) rotate(-45.004)" style="fill:none;stroke:#204466;stroke-miterlimit:10;stroke-width:1.2857100000000001px"/></g><g style="clip-path:url(#clip-path-5)"><rect x="72.518" y="39.117" width="4.546" height="4.546" transform="translate(-7.36 65.013) rotate(-45.004)" style="fill:none;stroke:#204466;stroke-miterlimit:10;stroke-width:1.2857100000000001px"/><rect x="66.09" y="39.117" width="4.546" height="4.546" transform="translate(-9.243 60.467) rotate(-45.004)" style="fill:none;stroke:#204466;stroke-miterlimit:10;stroke-width:1.2857100000000001px"/><rect x="59.661" y="39.117" width="4.546" height="4.546" transform="translate(-11.126 55.921) rotate(-45.004)" style="fill:none;stroke:#204466;stroke-miterlimit:10;stroke-width:1.2857100000000001px"/><rect x="72.518" y="32.689" width="4.546" height="4.546" transform="translate(-2.818 63.119) rotate(-44.996)" style="fill:none;stroke:#204466;stroke-miterlimit:10;stroke-width:1.2857100000000001px"/><rect x="66.09" y="32.689" width="4.546" height="4.546" transform="translate(-4.701 58.574) rotate(-44.996)" style="fill:none;stroke:#204466;stroke-miterlimit:10;stroke-width:1.2857100000000001px"/><rect x="59.661" y="32.689" width="4.546" height="4.546" transform="translate(-6.583 54.029) rotate(-44.996)" style="fill:none;stroke:#204466;stroke-miterlimit:10;stroke-width:1.2857100000000001px"/><rect x="72.518" y="26.26" width="4.546" height="4.546" transform="translate(1.727 61.237) rotate(-44.996)" style="fill:none;stroke:#204466;stroke-miterlimit:10;stroke-width:1.2857100000000001px"/><rect x="66.09" y="26.26" width="4.546" height="4.546" transform="translate(-0.155 56.691) rotate(-44.996)" style="fill:none;stroke:#204466;stroke-miterlimit:10;stroke-width:1.2857100000000001px"/><rect x="59.661" y="26.26" width="4.546" height="4.546" transform="translate(-2.038 52.146) rotate(-44.996)" style="fill:none;stroke:#204466;stroke-miterlimit:10;stroke-width:1.2857100000000001px"/></g><g style="clip-path:url(#clip-path-6)"><rect x="72.518" y="45.546" width="4.546" height="4.546" transform="translate(-11.906 66.896) rotate(-45.004)" style="fill:none;stroke:#204466;stroke-miterlimit:10;stroke-width:1.2857100000000001px"/><rect x="66.09" y="45.546" width="4.546" height="4.546" transform="translate(-13.789 62.35) rotate(-45.004)" style="fill:none;stroke:#204466;stroke-miterlimit:10;stroke-width:1.2857100000000001px"/><rect x="59.661" y="45.546" width="4.546" height="4.546" transform="translate(-15.672 57.804) rotate(-45.004)" style="fill:none;stroke:#204466;stroke-miterlimit:10;stroke-width:1.2857100000000001px"/><rect x="72.518" y="39.117" width="4.546" height="4.546" transform="translate(-7.36 65.013) rotate(-45.004)" style="fill:none;stroke:#204466;stroke-miterlimit:10;stroke-width:1.2857100000000001px"/><rect x="66.09" y="39.117" width="4.546" height="4.546" transform="translate(-9.243 60.467) rotate(-45.004)" style="fill:none;stroke:#204466;stroke-miterlimit:10;stroke-width:1.2857100000000001px"/><rect x="59.661" y="39.117" width="4.546" height="4.546" transform="translate(-11.126 55.921) rotate(-45.004)" style="fill:none;stroke:#204466;stroke-miterlimit:10;stroke-width:1.2857100000000001px"/><rect x="72.518" y="32.689" width="4.546" height="4.546" transform="translate(-2.818 63.119) rotate(-44.996)" style="fill:none;stroke:#204466;stroke-miterlimit:10;stroke-width:1.2857100000000001px"/><rect x="66.09" y="32.689" width="4.546" height="4.546" transform="translate(-4.701 58.574) rotate(-44.996)" style="fill:none;stroke:#204466;stroke-miterlimit:10;stroke-width:1.2857100000000001px"/><rect x="59.661" y="32.689" width="4.546" height="4.546" transform="translate(-6.583 54.029) rotate(-44.996)" style="fill:none;stroke:#204466;stroke-miterlimit:10;stroke-width:1.2857100000000001px"/></g><g style="clip-path:url(#clip-path-7)"><rect x="72.518" y="51.974" width="4.546" height="4.546" transform="translate(-16.452 68.78) rotate(-45.004)" style="fill:none;stroke:#204466;stroke-miterlimit:10;stroke-width:1.2857100000000001px"/><rect x="66.09" y="51.974" width="4.546" height="4.546" transform="translate(-18.335 64.234) rotate(-45.004)" style="fill:none;stroke:#204466;stroke-miterlimit:10;stroke-width:1.2857100000000001px"/><rect x="59.661" y="51.975" width="4.546" height="4.546" transform="translate(-20.218 59.688) rotate(-45.004)" style="fill:none;stroke:#204466;stroke-miterlimit:10;stroke-width:1.2857100000000001px"/><rect x="72.518" y="45.546" width="4.546" height="4.546" transform="translate(-11.906 66.896) rotate(-45.004)" style="fill:none;stroke:#204466;stroke-miterlimit:10;stroke-width:1.2857100000000001px"/><rect x="66.09" y="45.546" width="4.546" height="4.546" transform="translate(-13.789 62.35) rotate(-45.004)" style="fill:none;stroke:#204466;stroke-miterlimit:10;stroke-width:1.2857100000000001px"/><rect x="59.661" y="45.546" width="4.546" height="4.546" transform="translate(-15.672 57.804) rotate(-45.004)" style="fill:none;stroke:#204466;stroke-miterlimit:10;stroke-width:1.2857100000000001px"/><rect x="72.518" y="39.117" width="4.546" height="4.546" transform="translate(-7.36 65.013) rotate(-45.004)" style="fill:none;stroke:#204466;stroke-miterlimit:10;stroke-width:1.2857100000000001px"/><rect x="66.09" y="39.117" width="4.546" height="4.546" transform="translate(-9.243 60.467) rotate(-45.004)" style="fill:none;stroke:#204466;stroke-miterlimit:10;stroke-width:1.2857100000000001px"/><rect x="59.661" y="39.117" width="4.546" height="4.546" transform="translate(-11.126 55.921) rotate(-45.004)" style="fill:none;stroke:#204466;stroke-miterlimit:10;stroke-width:1.2857100000000001px"/></g><g style="clip-path:url(#clip-path-8)"><rect x="66.09" y="39.117" width="4.546" height="4.546" transform="translate(-9.243 60.467) rotate(-45.004)" style="fill:none;stroke:#204466;stroke-miterlimit:10;stroke-width:1.2857100000000001px"/><rect x="59.661" y="39.117" width="4.546" height="4.546" transform="translate(-11.126 55.921) rotate(-45.004)" style="fill:none;stroke:#204466;stroke-miterlimit:10;stroke-width:1.2857100000000001px"/><rect x="53.233" y="39.117" width="4.546" height="4.546" transform="translate(-13.009 51.376) rotate(-45.004)" style="fill:none;stroke:#204466;stroke-miterlimit:10;stroke-width:1.2857100000000001px"/><rect x="66.09" y="32.689" width="4.546" height="4.546" transform="translate(-4.701 58.574) rotate(-44.996)" style="fill:none;stroke:#204466;stroke-miterlimit:10;stroke-width:1.2857100000000001px"/><rect x="59.661" y="32.689" width="4.546" height="4.546" transform="translate(-6.583 54.029) rotate(-44.996)" style="fill:none;stroke:#204466;stroke-miterlimit:10;stroke-width:1.2857100000000001px"/><rect x="53.233" y="32.689" width="4.546" height="4.546" transform="translate(-8.465 49.484) rotate(-44.996)" style="fill:none;stroke:#204466;stroke-miterlimit:10;stroke-width:1.2857100000000001px"/><rect x="66.09" y="26.26" width="4.546" height="4.546" transform="translate(-0.155 56.691) rotate(-44.996)" style="fill:none;stroke:#204466;stroke-miterlimit:10;stroke-width:1.2857100000000001px"/><rect x="59.661" y="26.26" width="4.546" height="4.546" transform="translate(-2.038 52.146) rotate(-44.996)" style="fill:none;stroke:#204466;stroke-miterlimit:10;stroke-width:1.2857100000000001px"/><rect x="53.233" y="26.26" width="4.546" height="4.546" transform="translate(-3.92 47.602) rotate(-44.996)" style="fill:none;stroke:#204466;stroke-miterlimit:10;stroke-width:1.2857100000000001px"/></g><g style="clip-path:url(#clip-path-9)"><rect x="66.09" y="45.546" width="4.546" height="4.546" transform="translate(-13.789 62.35) rotate(-45.004)" style="fill:none;stroke:#204466;stroke-miterlimit:10;stroke-width:1.2857100000000001px"/><rect x="59.661" y="45.546" width="4.546" height="4.546" transform="translate(-15.672 57.804) rotate(-45.004)" style="fill:none;stroke:#204466;stroke-miterlimit:10;stroke-width:1.2857100000000001px"/><rect x="53.233" y="45.546" width="4.546" height="4.546" transform="translate(-17.555 53.26) rotate(-45.004)" style="fill:none;stroke:#204466;stroke-miterlimit:10;stroke-width:1.2857100000000001px"/><rect x="66.09" y="39.117" width="4.546" height="4.546" transform="translate(-9.243 60.467) rotate(-45.004)" style="fill:none;stroke:#204466;stroke-miterlimit:10;stroke-width:1.2857100000000001px"/><rect x="59.661" y="39.117" width="4.546" height="4.546" transform="translate(-11.126 55.921) rotate(-45.004)" style="fill:none;stroke:#204466;stroke-miterlimit:10;stroke-width:1.2857100000000001px"/><rect x="53.233" y="39.117" width="4.546" height="4.546" transform="translate(-13.009 51.376) rotate(-45.004)" style="fill:none;stroke:#204466;stroke-miterlimit:10;stroke-width:1.2857100000000001px"/><rect x="66.09" y="32.689" width="4.546" height="4.546" transform="translate(-4.701 58.574) rotate(-44.996)" style="fill:none;stroke:#204466;stroke-miterlimit:10;stroke-width:1.2857100000000001px"/><rect x="59.661" y="32.689" width="4.546" height="4.546" transform="translate(-6.583 54.029) rotate(-44.996)" style="fill:none;stroke:#204466;stroke-miterlimit:10;stroke-width:1.2857100000000001px"/><rect x="53.233" y="32.689" width="4.546" height="4.546" transform="translate(-8.465 49.484) rotate(-44.996)" style="fill:none;stroke:#204466;stroke-miterlimit:10;stroke-width:1.2857100000000001px"/></g><g style="clip-path:url(#clip-path-10)"><rect x="66.09" y="51.974" width="4.546" height="4.546" transform="translate(-18.335 64.234) rotate(-45.004)" style="fill:none;stroke:#204466;stroke-miterlimit:10;stroke-width:1.2857100000000001px"/><rect x="59.661" y="51.975" width="4.546" height="4.546" transform="translate(-20.218 59.688) rotate(-45.004)" style="fill:none;stroke:#204466;stroke-miterlimit:10;stroke-width:1.2857100000000001px"/><rect x="53.233" y="51.974" width="4.546" height="4.546" transform="translate(-22.101 55.143) rotate(-45.004)" style="fill:none;stroke:#204466;stroke-miterlimit:10;stroke-width:1.2857100000000001px"/><rect x="66.09" y="45.546" width="4.546" height="4.546" transform="translate(-13.789 62.35) rotate(-45.004)" style="fill:none;stroke:#204466;stroke-miterlimit:10;stroke-width:1.2857100000000001px"/><rect x="59.661" y="45.546" width="4.546" height="4.546" transform="translate(-15.672 57.804) rotate(-45.004)" style="fill:none;stroke:#204466;stroke-miterlimit:10;stroke-width:1.2857100000000001px"/><rect x="53.233" y="45.546" width="4.546" height="4.546" transform="translate(-17.555 53.26) rotate(-45.004)" style="fill:none;stroke:#204466;stroke-miterlimit:10;stroke-width:1.2857100000000001px"/><rect x="66.09" y="39.117" width="4.546" height="4.546" transform="translate(-9.243 60.467) rotate(-45.004)" style="fill:none;stroke:#204466;stroke-miterlimit:10;stroke-width:1.2857100000000001px"/><rect x="59.661" y="39.117" width="4.546" height="4.546" transform="translate(-11.126 55.921) rotate(-45.004)" style="fill:none;stroke:#204466;stroke-miterlimit:10;stroke-width:1.2857100000000001px"/><rect x="53.233" y="39.117" width="4.546" height="4.546" transform="translate(-13.009 51.376) rotate(-45.004)" style="fill:none;stroke:#204466;stroke-miterlimit:10;stroke-width:1.2857100000000001px"/></g></g><path d="M71.8,48.516H65.863c-2.183,0-3.959-1.464-3.959-3.265v-13.4H75.76v13.4C75.76,47.052,73.984,48.516,71.8,48.516ZM62.984,32.928V45.251c0,1.205,1.291,2.185,2.879,2.185H71.8c1.588,0,2.879-.98,2.879-2.185V32.928Z" style="fill:#204466"/><rect x="64.474" y="47.976" width="8.717" height="0.822" style="fill:#204466"/><path d="M33.388,30.774A9.118,9.118,0,0,1,42.5,21.666V20.34a7.477,7.477,0,1,1,0-14.953V1.046H34.537A4.34,4.34,0,0,0,30.2,5.387V48.8H42.5V39.882A9.117,9.117,0,0,1,33.388,30.774Z" style="fill:#ffbc5a"/><path d="M54.8,5.387a4.34,4.34,0,0,0-4.341-4.341H42.5V5.387a7.477,7.477,0,0,1,0,14.953v1.326a9.108,9.108,0,0,1,0,18.216V48.8H54.8Z" style="fill:#eeb149"/><path d="M48.525,12.863a6.03,6.03,0,0,1-6.029,6.03V20.34a7.477,7.477,0,0,0,0-14.953V6.834A6.029,6.029,0,0,1,48.525,12.863Z" style="fill:#ffbc5a"/><path d="M35.019,12.863A7.485,7.485,0,0,0,42.5,20.34V18.893a6.03,6.03,0,1,1,0-12.059V5.387A7.485,7.485,0,0,0,35.019,12.863Z" style="fill:#eeb149"/><path d="M36.466,12.863a6.03,6.03,0,0,0,6.03,6.03V6.834A6.03,6.03,0,0,0,36.466,12.863Z" style="fill:#0f365a"/><path d="M48.525,12.863A6.029,6.029,0,0,0,42.5,6.834V18.893A6.03,6.03,0,0,0,48.525,12.863Z" style="fill:#274b6c"/><path d="M50.156,30.774a7.661,7.661,0,0,1-7.66,7.662v1.446a9.108,9.108,0,0,0,0-18.216v1.447A7.66,7.66,0,0,1,50.156,30.774Z" style="fill:#ffbc5a"/><path d="M33.388,30.774A9.117,9.117,0,0,0,42.5,39.882V38.436a7.662,7.662,0,0,1,0-15.323V21.666A9.118,9.118,0,0,0,33.388,30.774Z" style="fill:#eeb149"/><path d="M34.835,30.774A7.661,7.661,0,0,0,42.5,38.436V23.113A7.66,7.66,0,0,0,34.835,30.774Z" style="fill:#0f365a"/><path d="M50.156,30.774a7.66,7.66,0,0,0-7.66-7.661V38.436A7.661,7.661,0,0,0,50.156,30.774Z" style="fill:#274b6c"/><path d="M212.946,40.735h3.114a1.06,1.06,0,0,1,1.06,1.06v.022a1.059,1.059,0,0,1-1.059,1.059h-3.114a1.059,1.059,0,0,1-1.059-1.059v-.022a1.059,1.059,0,0,1,1.059-1.059Z" style="fill:#274b6c"/><path d="M223.194,48.8H205.145a7.225,7.225,0,0,1,7.165-7.235h.722a13.622,13.622,0,0,1,10.941,5.507l.055.073A1.038,1.038,0,0,1,223.194,48.8Z" style="fill:#062635"/><path d="M206.315,48.333l-1.071-.13a5.859,5.859,0,0,1,4.755-4.8c6.715-1.277,13.243,3.739,13.52,3.953l-.664.852c-.064-.05-6.436-4.927-12.654-3.744A4.744,4.744,0,0,0,206.315,48.333Z" style="fill:#193556"/><path d="M64.814,37.574c-.292.019-.5-.025-.528-.129l1.707,6.874.527.122Z" style="fill:#f7daa9"/><polygon points="65.366 37.485 65.366 37.485 67.095 44.457 65.366 37.485" style="fill:#fff"/><path d="M66.273,36.951c.026.1-.138.242-.406.364l1.7,6.865.437-.362-1.9-7.545Z" style="fill:#f2c577"/><polygon points="66.52 44.441 66.542 44.49 67.793 47.265 67.095 44.457 66.52 44.441" style="fill:#133141"/><polygon points="65.993 44.319 67.793 47.265 66.542 44.49 65.993 44.319" style="fill:#83a7bb"/><polygon points="66.52 44.441 65.993 44.319 66.542 44.49 66.52 44.441" style="fill:#fbfbfb"/><polygon points="67.152 44.678 67.15 44.68 67.793 47.265 67.791 47.251 67.152 44.678" style="fill:#fbfbfb"/><polygon points="67.097 44.456 67.791 47.251 67.577 44.252 67.572 44.18 67.097 44.456" style="fill:#5385a0"/><rect x="67.123" y="44.453" width="0.003" height="0.229" transform="translate(-8.751 17.458) rotate(-13.921)" style="fill:#fbfbfb"/><polygon points="67.577 44.252 67.791 47.251 67.793 47.257 68.009 43.818 67.577 44.252" style="fill:#f9e4bf"/><polygon points="67.793 47.265 67.793 47.257 67.791 47.251 67.793 47.265" style="fill:#fbfbfb"/><polygon points="67.577 44.252 68.009 43.818 67.572 44.18 67.577 44.252" style="fill:#fbfbfb"/><path d="M65.366,37.485l-.01,0a2.943,2.943,0,0,1-.542.087l1.706,6.867.575.016Z" style="fill:#f7daa9"/><path d="M67.1,44.456l.475-.276-1.7-6.865a3.113,3.113,0,0,1-.5.17Z" style="fill:#f2c577"/><rect x="66.231" y="37.38" width="0.001" height="7.183" transform="translate(-7.916 17.152) rotate(-13.933)" style="fill:#f2c577"/><rect x="65.33" y="37.19" height="0.3" style="fill:#fff"/><path d="M64.814,37.574a2.943,2.943,0,0,0,.542-.087l.01,0-.072-.291-.01,0a3.227,3.227,0,0,1-.427.077c-.352.039-.614,0-.644-.12l.073.291C64.312,37.549,64.522,37.593,64.814,37.574Z" style="fill:#eaeeef"/><path d="M65.867,37.315c.268-.122.432-.259.406-.364l-.072-.29c.026.1-.138.242-.407.362a2.831,2.831,0,0,1-.5.171l.072.291A3.113,3.113,0,0,0,65.867,37.315Z" style="fill:#3f5f7c"/><rect x="65.33" y="37.19" height="0.3" transform="translate(-7.068 16.825) rotate(-13.93)" style="fill:#385876"/><path d="M65.2,36.808l.1.386a2.831,2.831,0,0,0,.5-.171c.269-.12.433-.257.407-.362l-.1-.388C66.144,36.434,65.741,36.67,65.2,36.808Z" style="fill:#0f365a"/><path d="M64.857,37.274a3.227,3.227,0,0,0,.427-.077l.01,0h0l-.1-.386-.01,0c-.549.136-1.031.118-1.071-.042l.1.386C64.243,37.272,64.505,37.313,64.857,37.274Z" style="fill:#274b6c"/><path d="M65.188,36.81l.01,0L61.3,21.123l-.01,0c-.549.137,2.536,14.481,2.5,14.321l.328,1.322C64.157,36.928,64.639,36.946,65.188,36.81Z" style="fill:#fd9696"/><path d="M61.3,21.123,65.2,36.808c.543-.138.946-.374.907-.535l-.329-1.32C65.816,35.112,61.846,20.986,61.3,21.123Z" style="fill:#fd6b6b"/><path d="M61.148,20.545c-.548.136,2.6,14.741,2.641,14.9s-3.045-14.184-2.5-14.321l.01,0-.144-.581Z" style="fill:#feaeae"/><path d="M61.159,20.542l.144.581c.543-.137,4.513,13.989,4.473,13.83S61.7,20.408,61.159,20.542Z" style="fill:#fd9696"/><path d="M66.52,44.441l-6.132-24.69c-.293.019-.5-.025-.529-.129l6.134,24.7Z" style="fill:#f7daa9"/><rect x="64.017" y="19.286" height="25.548" transform="translate(-5.839 16.37) rotate(-13.943)" style="fill:#fff"/><path d="M68.009,43.818,61.678,18.451l.169.677c.026.1-.138.242-.407.363L67.572,44.18Z" style="fill:#f1bd64"/><path d="M67.1,44.457,60.94,19.662l-.01,0a3.03,3.03,0,0,1-.542.087l6.132,24.69Z" style="fill:#f9e4c1"/><path d="M67.572,44.18,61.44,19.491a2.971,2.971,0,0,1-.5.171L67.1,44.456Z" style="fill:#f2c577"/><rect x="64.017" y="19.286" width="0.001" height="25.547" transform="translate(-5.84 16.374) rotate(-13.946)" style="fill:#f2c577"/><rect x="60.904" y="19.367" height="0.3" style="fill:#fff"/><path d="M60.388,19.751a3.03,3.03,0,0,0,.542-.087l.01,0-.072-.291-.01,0a3.227,3.227,0,0,1-.427.077c-.352.038-.615,0-.643-.12l.071.291C59.885,19.726,60.1,19.77,60.388,19.751Z" style="fill:#eaeeef"/><path d="M61.44,19.491c.269-.121.433-.259.407-.363l-.073-.29c.026.1-.137.242-.406.363a2.974,2.974,0,0,1-.5.17l.072.291A2.971,2.971,0,0,0,61.44,19.491Z" style="fill:#3f5f7c"/><rect x="60.904" y="19.367" height="0.3" transform="translate(-2.909 15.261) rotate(-13.953)" style="fill:#385876"/><path d="M60.772,18.984l.1.387a2.974,2.974,0,0,0,.5-.17c.269-.121.432-.259.406-.363l-.1-.387C61.718,18.61,61.315,18.848,60.772,18.984Z" style="fill:#0f365a"/><path d="M60.431,19.451a3.227,3.227,0,0,0,.427-.077l.01,0h0l-.1-.387-.01,0c-.549.137-1.031.119-1.071-.042l.1.387C59.816,19.448,60.079,19.489,60.431,19.451Z" style="fill:#274b6c"/><path d="M60.762,18.986l.01,0-.329-1.321-.009,0c-.549.136-1.031.117-1.071-.043l.328,1.321C59.731,19.105,60.213,19.123,60.762,18.986Z" style="fill:#fd9d9d"/><path d="M60.443,17.663l.329,1.321c.543-.136.946-.374.906-.533L61.35,17.13C61.39,17.289,60.987,17.526,60.443,17.663Z" style="fill:#fd6c6c"/><path d="M60.289,17.085c-.549.136-.966.378-.926.538s.522.179,1.071.043l.009,0-.144-.581Z" style="fill:#feaeae"/><path d="M60.3,17.082l.144.581c.544-.137.947-.374.907-.533S60.844,16.949,60.3,17.082Z" style="fill:#fd9696"/><path d="M67.683,47.067l.134.541c.027.109.1.184.162.169L67.8,47.04Z" style="fill:#fd7979"/><path d="M67.8,47.04l.183.737h0c.062-.015.09-.116.063-.225l-.135-.54Z" style="fill:#fc4a4a"/><polygon points="70.406 47.148 70.516 41.568 72.472 41.964 70.406 47.148" style="fill:#195c8f"/><path d="M76.581,16.592l-1-.2q-1.729,7.11-3.129,14.3l1.228.248Z" style="fill:#f1bd66"/><path d="M77.58,16.794l-1-.2-2.9,14.346,1.229.249Q76.4,24.019,77.58,16.794Z" style="fill:#eeb149"/><path d="M71.494,41.766l1,.2c.871-3.578,1.669-7.177,2.418-10.781l-1.229-.249Z" style="fill:#f2c373"/><path d="M72.454,30.69c-.71,3.613-1.371,7.239-1.957,10.875l1,.2,2.188-10.828Z" style="fill:#f5d397"/><path d="M76.723,30.545a.4.4,0,0,1-.288-.236,3.314,3.314,0,0,1-.122-1.573c.051-.6.513-2.353,1.159-4.765.3-1.109.576-2.155.654-2.538.157-.783.334-3.006.4-3.943l-3.044-.615a.5.5,0,0,1,.2-.969l3.79.766-.03.425c-.009.139-.237,3.443-.453,4.51-.084.417-.355,1.431-.67,2.605-.454,1.7-1.077,4.025-1.124,4.573a2.894,2.894,0,0,0,.039,1.063.543.543,0,0,1-.226.65A.414.414,0,0,1,76.723,30.545Z" style="fill:#195c8f"/><rect x="61.222" y="30.659" width="15.221" height="1.727" style="fill:#204466"/><g style="clip-path:url(#clip-path)"><g style="clip-path:url(#clip-path-2)"><rect x="78.947" y="39.117" width="4.546" height="4.546" transform="translate(-5.474 69.566) rotate(-45.008)" style="fill:none;stroke:#204466;stroke-miterlimit:10;stroke-width:1.2857100000000001px"/><rect x="72.518" y="39.117" width="4.546" height="4.546" transform="translate(-7.36 65.013) rotate(-45.004)" style="fill:none;stroke:#204466;stroke-miterlimit:10;stroke-width:1.2857100000000001px"/><rect x="66.09" y="39.117" width="4.546" height="4.546" transform="translate(-9.243 60.467) rotate(-45.004)" style="fill:none;stroke:#204466;stroke-miterlimit:10;stroke-width:1.2857100000000001px"/><rect x="78.947" y="32.689" width="4.546" height="4.546" transform="translate(-0.933 67.671) rotate(-45)" style="fill:none;stroke:#204466;stroke-miterlimit:10;stroke-width:1.2857100000000001px"/><rect x="72.518" y="32.689" width="4.546" height="4.546" transform="translate(-2.818 63.119) rotate(-44.996)" style="fill:none;stroke:#204466;stroke-miterlimit:10;stroke-width:1.2857100000000001px"/><rect x="66.09" y="32.689" width="4.546" height="4.546" transform="translate(-4.701 58.574) rotate(-44.996)" style="fill:none;stroke:#204466;stroke-miterlimit:10;stroke-width:1.2857100000000001px"/><rect x="78.947" y="26.26" width="4.546" height="4.546" transform="translate(3.613 65.788) rotate(-45)" style="fill:none;stroke:#204466;stroke-miterlimit:10;stroke-width:1.2857100000000001px"/><rect x="72.518" y="26.26" width="4.546" height="4.546" transform="translate(1.727 61.237) rotate(-44.996)" style="fill:none;stroke:#204466;stroke-miterlimit:10;stroke-width:1.2857100000000001px"/><rect x="66.09" y="26.26" width="4.546" height="4.546" transform="translate(-0.155 56.691) rotate(-44.996)" style="fill:none;stroke:#204466;stroke-miterlimit:10;stroke-width:1.2857100000000001px"/></g><g style="clip-path:url(#clip-path-3)"><rect x="78.947" y="45.546" width="4.546" height="4.546" transform="translate(-10.021 71.45) rotate(-45.008)" style="fill:none;stroke:#204466;stroke-miterlimit:10;stroke-width:1.2857100000000001px"/><rect x="72.518" y="45.546" width="4.546" height="4.546" transform="translate(-11.906 66.896) rotate(-45.004)" style="fill:none;stroke:#204466;stroke-miterlimit:10;stroke-width:1.2857100000000001px"/><rect x="66.09" y="45.546" width="4.546" height="4.546" transform="translate(-13.789 62.35) rotate(-45.004)" style="fill:none;stroke:#204466;stroke-miterlimit:10;stroke-width:1.2857100000000001px"/><rect x="78.947" y="39.117" width="4.546" height="4.546" transform="translate(-5.474 69.566) rotate(-45.008)" style="fill:none;stroke:#204466;stroke-miterlimit:10;stroke-width:1.2857100000000001px"/><rect x="72.518" y="39.117" width="4.546" height="4.546" transform="translate(-7.36 65.013) rotate(-45.004)" style="fill:none;stroke:#204466;stroke-miterlimit:10;stroke-width:1.2857100000000001px"/><rect x="66.09" y="39.117" width="4.546" height="4.546" transform="translate(-9.243 60.467) rotate(-45.004)" style="fill:none;stroke:#204466;stroke-miterlimit:10;stroke-width:1.2857100000000001px"/><rect x="78.947" y="32.689" width="4.546" height="4.546" transform="translate(-0.933 67.671) rotate(-45)" style="fill:none;stroke:#204466;stroke-miterlimit:10;stroke-width:1.2857100000000001px"/><rect x="72.518" y="32.689" width="4.546" height="4.546" transform="translate(-2.818 63.119) rotate(-44.996)" style="fill:none;stroke:#204466;stroke-miterlimit:10;stroke-width:1.2857100000000001px"/><rect x="66.09" y="32.689" width="4.546" height="4.546" transform="translate(-4.701 58.574) rotate(-44.996)" style="fill:none;stroke:#204466;stroke-miterlimit:10;stroke-width:1.2857100000000001px"/></g><g style="clip-path:url(#clip-path-4)"><rect x="78.947" y="51.975" width="4.546" height="4.546" transform="translate(-14.567 73.333) rotate(-45.008)" style="fill:none;stroke:#204466;stroke-miterlimit:10;stroke-width:1.2857100000000001px"/><rect x="72.518" y="51.974" width="4.546" height="4.546" transform="translate(-16.452 68.78) rotate(-45.004)" style="fill:none;stroke:#204466;stroke-miterlimit:10;stroke-width:1.2857100000000001px"/><rect x="66.09" y="51.974" width="4.546" height="4.546" transform="translate(-18.335 64.234) rotate(-45.004)" style="fill:none;stroke:#204466;stroke-miterlimit:10;stroke-width:1.2857100000000001px"/><rect x="78.947" y="45.546" width="4.546" height="4.546" transform="translate(-10.021 71.45) rotate(-45.008)" style="fill:none;stroke:#204466;stroke-miterlimit:10;stroke-width:1.2857100000000001px"/><rect x="72.518" y="45.546" width="4.546" height="4.546" transform="translate(-11.906 66.896) rotate(-45.004)" style="fill:none;stroke:#204466;stroke-miterlimit:10;stroke-width:1.2857100000000001px"/><rect x="66.09" y="45.546" width="4.546" height="4.546" transform="translate(-13.789 62.35) rotate(-45.004)" style="fill:none;stroke:#204466;stroke-miterlimit:10;stroke-width:1.2857100000000001px"/><rect x="78.947" y="39.117" width="4.546" height="4.546" transform="translate(-5.474 69.566) rotate(-45.008)" style="fill:none;stroke:#204466;stroke-miterlimit:10;stroke-width:1.2857100000000001px"/><rect x="72.518" y="39.117" width="4.546" height="4.546" transform="translate(-7.36 65.013) rotate(-45.004)" style="fill:none;stroke:#204466;stroke-miterlimit:10;stroke-width:1.2857100000000001px"/><rect x="66.09" y="39.117" width="4.546" height="4.546" transform="translate(-9.243 60.467) rotate(-45.004)" style="fill:none;stroke:#204466;stroke-miterlimit:10;stroke-width:1.2857100000000001px"/></g><g style="clip-path:url(#clip-path-5)"><rect x="72.518" y="39.117" width="4.546" height="4.546" transform="translate(-7.36 65.013) rotate(-45.004)" style="fill:none;stroke:#204466;stroke-miterlimit:10;stroke-width:1.2857100000000001px"/><rect x="66.09" y="39.117" width="4.546" height="4.546" transform="translate(-9.243 60.467) rotate(-45.004)" style="fill:none;stroke:#204466;stroke-miterlimit:10;stroke-width:1.2857100000000001px"/><rect x="59.661" y="39.117" width="4.546" height="4.546" transform="translate(-11.126 55.921) rotate(-45.004)" style="fill:none;stroke:#204466;stroke-miterlimit:10;stroke-width:1.2857100000000001px"/><rect x="72.518" y="32.689" width="4.546" height="4.546" transform="translate(-2.818 63.119) rotate(-44.996)" style="fill:none;stroke:#204466;stroke-miterlimit:10;stroke-width:1.2857100000000001px"/><rect x="66.09" y="32.689" width="4.546" height="4.546" transform="translate(-4.701 58.574) rotate(-44.996)" style="fill:none;stroke:#204466;stroke-miterlimit:10;stroke-width:1.2857100000000001px"/><rect x="59.661" y="32.689" width="4.546" height="4.546" transform="translate(-6.583 54.029) rotate(-44.996)" style="fill:none;stroke:#204466;stroke-miterlimit:10;stroke-width:1.2857100000000001px"/><rect x="72.518" y="26.26" width="4.546" height="4.546" transform="translate(1.727 61.237) rotate(-44.996)" style="fill:none;stroke:#204466;stroke-miterlimit:10;stroke-width:1.2857100000000001px"/><rect x="66.09" y="26.26" width="4.546" height="4.546" transform="translate(-0.155 56.691) rotate(-44.996)" style="fill:none;stroke:#204466;stroke-miterlimit:10;stroke-width:1.2857100000000001px"/><rect x="59.661" y="26.26" width="4.546" height="4.546" transform="translate(-2.038 52.146) rotate(-44.996)" style="fill:none;stroke:#204466;stroke-miterlimit:10;stroke-width:1.2857100000000001px"/></g><g style="clip-path:url(#clip-path-6)"><rect x="72.518" y="45.546" width="4.546" height="4.546" transform="translate(-11.906 66.896) rotate(-45.004)" style="fill:none;stroke:#204466;stroke-miterlimit:10;stroke-width:1.2857100000000001px"/><rect x="66.09" y="45.546" width="4.546" height="4.546" transform="translate(-13.789 62.35) rotate(-45.004)" style="fill:none;stroke:#204466;stroke-miterlimit:10;stroke-width:1.2857100000000001px"/><rect x="59.661" y="45.546" width="4.546" height="4.546" transform="translate(-15.672 57.804) rotate(-45.004)" style="fill:none;stroke:#204466;stroke-miterlimit:10;stroke-width:1.2857100000000001px"/><rect x="72.518" y="39.117" width="4.546" height="4.546" transform="translate(-7.36 65.013) rotate(-45.004)" style="fill:none;stroke:#204466;stroke-miterlimit:10;stroke-width:1.2857100000000001px"/><rect x="66.09" y="39.117" width="4.546" height="4.546" transform="translate(-9.243 60.467) rotate(-45.004)" style="fill:none;stroke:#204466;stroke-miterlimit:10;stroke-width:1.2857100000000001px"/><rect x="59.661" y="39.117" width="4.546" height="4.546" transform="translate(-11.126 55.921) rotate(-45.004)" style="fill:none;stroke:#204466;stroke-miterlimit:10;stroke-width:1.2857100000000001px"/><rect x="72.518" y="32.689" width="4.546" height="4.546" transform="translate(-2.818 63.119) rotate(-44.996)" style="fill:none;stroke:#204466;stroke-miterlimit:10;stroke-width:1.2857100000000001px"/><rect x="66.09" y="32.689" width="4.546" height="4.546" transform="translate(-4.701 58.574) rotate(-44.996)" style="fill:none;stroke:#204466;stroke-miterlimit:10;stroke-width:1.2857100000000001px"/><rect x="59.661" y="32.689" width="4.546" height="4.546" transform="translate(-6.583 54.029) rotate(-44.996)" style="fill:none;stroke:#204466;stroke-miterlimit:10;stroke-width:1.2857100000000001px"/></g><g style="clip-path:url(#clip-path-7)"><rect x="72.518" y="51.974" width="4.546" height="4.546" transform="translate(-16.452 68.78) rotate(-45.004)" style="fill:none;stroke:#204466;stroke-miterlimit:10;stroke-width:1.2857100000000001px"/><rect x="66.09" y="51.974" width="4.546" height="4.546" transform="translate(-18.335 64.234) rotate(-45.004)" style="fill:none;stroke:#204466;stroke-miterlimit:10;stroke-width:1.2857100000000001px"/><rect x="59.661" y="51.975" width="4.546" height="4.546" transform="translate(-20.218 59.688) rotate(-45.004)" style="fill:none;stroke:#204466;stroke-miterlimit:10;stroke-width:1.2857100000000001px"/><rect x="72.518" y="45.546" width="4.546" height="4.546" transform="translate(-11.906 66.896) rotate(-45.004)" style="fill:none;stroke:#204466;stroke-miterlimit:10;stroke-width:1.2857100000000001px"/><rect x="66.09" y="45.546" width="4.546" height="4.546" transform="translate(-13.789 62.35) rotate(-45.004)" style="fill:none;stroke:#204466;stroke-miterlimit:10;stroke-width:1.2857100000000001px"/><rect x="59.661" y="45.546" width="4.546" height="4.546" transform="translate(-15.672 57.804) rotate(-45.004)" style="fill:none;stroke:#204466;stroke-miterlimit:10;stroke-width:1.2857100000000001px"/><rect x="72.518" y="39.117" width="4.546" height="4.546" transform="translate(-7.36 65.013) rotate(-45.004)" style="fill:none;stroke:#204466;stroke-miterlimit:10;stroke-width:1.2857100000000001px"/><rect x="66.09" y="39.117" width="4.546" height="4.546" transform="translate(-9.243 60.467) rotate(-45.004)" style="fill:none;stroke:#204466;stroke-miterlimit:10;stroke-width:1.2857100000000001px"/><rect x="59.661" y="39.117" width="4.546" height="4.546" transform="translate(-11.126 55.921) rotate(-45.004)" style="fill:none;stroke:#204466;stroke-miterlimit:10;stroke-width:1.2857100000000001px"/></g><g style="clip-path:url(#clip-path-8)"><rect x="66.09" y="39.117" width="4.546" height="4.546" transform="translate(-9.243 60.467) rotate(-45.004)" style="fill:none;stroke:#204466;stroke-miterlimit:10;stroke-width:1.2857100000000001px"/><rect x="59.661" y="39.117" width="4.546" height="4.546" transform="translate(-11.126 55.921) rotate(-45.004)" style="fill:none;stroke:#204466;stroke-miterlimit:10;stroke-width:1.2857100000000001px"/><rect x="53.233" y="39.117" width="4.546" height="4.546" transform="translate(-13.009 51.376) rotate(-45.004)" style="fill:none;stroke:#204466;stroke-miterlimit:10;stroke-width:1.2857100000000001px"/><rect x="66.09" y="32.689" width="4.546" height="4.546" transform="translate(-4.701 58.574) rotate(-44.996)" style="fill:none;stroke:#204466;stroke-miterlimit:10;stroke-width:1.2857100000000001px"/><rect x="59.661" y="32.689" width="4.546" height="4.546" transform="translate(-6.583 54.029) rotate(-44.996)" style="fill:none;stroke:#204466;stroke-miterlimit:10;stroke-width:1.2857100000000001px"/><rect x="53.233" y="32.689" width="4.546" height="4.546" transform="translate(-8.465 49.484) rotate(-44.996)" style="fill:none;stroke:#204466;stroke-miterlimit:10;stroke-width:1.2857100000000001px"/><rect x="66.09" y="26.26" width="4.546" height="4.546" transform="translate(-0.155 56.691) rotate(-44.996)" style="fill:none;stroke:#204466;stroke-miterlimit:10;stroke-width:1.2857100000000001px"/><rect x="59.661" y="26.26" width="4.546" height="4.546" transform="translate(-2.038 52.146) rotate(-44.996)" style="fill:none;stroke:#204466;stroke-miterlimit:10;stroke-width:1.2857100000000001px"/><rect x="53.233" y="26.26" width="4.546" height="4.546" transform="translate(-3.92 47.602) rotate(-44.996)" style="fill:none;stroke:#204466;stroke-miterlimit:10;stroke-width:1.2857100000000001px"/></g><g style="clip-path:url(#clip-path-9)"><rect x="66.09" y="45.546" width="4.546" height="4.546" transform="translate(-13.789 62.35) rotate(-45.004)" style="fill:none;stroke:#204466;stroke-miterlimit:10;stroke-width:1.2857100000000001px"/><rect x="59.661" y="45.546" width="4.546" height="4.546" transform="translate(-15.672 57.804) rotate(-45.004)" style="fill:none;stroke:#204466;stroke-miterlimit:10;stroke-width:1.2857100000000001px"/><rect x="53.233" y="45.546" width="4.546" height="4.546" transform="translate(-17.555 53.26) rotate(-45.004)" style="fill:none;stroke:#204466;stroke-miterlimit:10;stroke-width:1.2857100000000001px"/><rect x="66.09" y="39.117" width="4.546" height="4.546" transform="translate(-9.243 60.467) rotate(-45.004)" style="fill:none;stroke:#204466;stroke-miterlimit:10;stroke-width:1.2857100000000001px"/><rect x="59.661" y="39.117" width="4.546" height="4.546" transform="translate(-11.126 55.921) rotate(-45.004)" style="fill:none;stroke:#204466;stroke-miterlimit:10;stroke-width:1.2857100000000001px"/><rect x="53.233" y="39.117" width="4.546" height="4.546" transform="translate(-13.009 51.376) rotate(-45.004)" style="fill:none;stroke:#204466;stroke-miterlimit:10;stroke-width:1.2857100000000001px"/><rect x="66.09" y="32.689" width="4.546" height="4.546" transform="translate(-4.701 58.574) rotate(-44.996)" style="fill:none;stroke:#204466;stroke-miterlimit:10;stroke-width:1.2857100000000001px"/><rect x="59.661" y="32.689" width="4.546" height="4.546" transform="translate(-6.583 54.029) rotate(-44.996)" style="fill:none;stroke:#204466;stroke-miterlimit:10;stroke-width:1.2857100000000001px"/><rect x="53.233" y="32.689" width="4.546" height="4.546" transform="translate(-8.465 49.484) rotate(-44.996)" style="fill:none;stroke:#204466;stroke-miterlimit:10;stroke-width:1.2857100000000001px"/></g><g style="clip-path:url(#clip-path-10)"><rect x="66.09" y="51.974" width="4.546" height="4.546" transform="translate(-18.335 64.234) rotate(-45.004)" style="fill:none;stroke:#204466;stroke-miterlimit:10;stroke-width:1.2857100000000001px"/><rect x="59.661" y="51.975" width="4.546" height="4.546" transform="translate(-20.218 59.688) rotate(-45.004)" style="fill:none;stroke:#204466;stroke-miterlimit:10;stroke-width:1.2857100000000001px"/><rect x="53.233" y="51.974" width="4.546" height="4.546" transform="translate(-22.101 55.143) rotate(-45.004)" style="fill:none;stroke:#204466;stroke-miterlimit:10;stroke-width:1.2857100000000001px"/><rect x="66.09" y="45.546" width="4.546" height="4.546" transform="translate(-13.789 62.35) rotate(-45.004)" style="fill:none;stroke:#204466;stroke-miterlimit:10;stroke-width:1.2857100000000001px"/><rect x="59.661" y="45.546" width="4.546" height="4.546" transform="translate(-15.672 57.804) rotate(-45.004)" style="fill:none;stroke:#204466;stroke-miterlimit:10;stroke-width:1.2857100000000001px"/><rect x="53.233" y="45.546" width="4.546" height="4.546" transform="translate(-17.555 53.26) rotate(-45.004)" style="fill:none;stroke:#204466;stroke-miterlimit:10;stroke-width:1.2857100000000001px"/><rect x="66.09" y="39.117" width="4.546" height="4.546" transform="translate(-9.243 60.467) rotate(-45.004)" style="fill:none;stroke:#204466;stroke-miterlimit:10;stroke-width:1.2857100000000001px"/><rect x="59.661" y="39.117" width="4.546" height="4.546" transform="translate(-11.126 55.921) rotate(-45.004)" style="fill:none;stroke:#204466;stroke-miterlimit:10;stroke-width:1.2857100000000001px"/><rect x="53.233" y="39.117" width="4.546" height="4.546" transform="translate(-13.009 51.376) rotate(-45.004)" style="fill:none;stroke:#204466;stroke-miterlimit:10;stroke-width:1.2857100000000001px"/></g></g><path d="M71.8,48.516H65.863c-2.183,0-3.959-1.464-3.959-3.265v-13.4H75.76v13.4C75.76,47.052,73.984,48.516,71.8,48.516ZM62.984,32.928V45.251c0,1.205,1.291,2.185,2.879,2.185H71.8c1.588,0,2.879-.98,2.879-2.185V32.928Z" style="fill:#204466"/><rect x="64.474" y="47.976" width="8.717" height="0.822" style="fill:#204466"/></svg>