<svg xmlns="http://www.w3.org/2000/svg" xmlns:xlink="http://www.w3.org/1999/xlink" viewBox="0 0 123.969 223.394"><defs><clipPath id="clip-path"><rect y="8.017" width="123.969" height="215.377" style="fill:none"/></clipPath></defs><g style="isolation:isolate"><g id="Ñëîé_1" data-name="Ñëîé 1"><g style="clip-path:url(#clip-path)"><g style="mix-blend-mode:multiply"><rect x="52.283" y="55.635" width="98.661" height="167.752" style="fill:#fff"/><rect x="51.779" y="55.131" width="98.661" height="168.257" style="fill:#fffefd"/><rect x="51.274" y="54.626" width="98.661" height="168.761" style="fill:#fffefb"/><rect x="50.77" y="54.122" width="98.661" height="169.265" style="fill:#fffdf9"/><rect x="50.266" y="53.618" width="98.661" height="169.769" style="fill:#fffdf8"/><rect x="49.762" y="53.114" width="98.661" height="170.273" style="fill:#fffcf6"/><rect x="49.258" y="52.61" width="98.661" height="170.778" style="fill:#fffcf4"/><rect x="48.753" y="52.105" width="98.661" height="171.282" style="fill:#fffbf2"/><rect x="48.249" y="51.601" width="98.661" height="171.786" style="fill:#fffbf0"/><rect x="47.745" y="51.097" width="98.661" height="172.29" style="fill:#fefaee"/><rect x="47.241" y="50.593" width="98.661" height="172.794" style="fill:#fef9ec"/><rect x="46.737" y="50.089" width="98.661" height="173.299" style="fill:#fef9ea"/><rect x="46.232" y="49.584" width="98.661" height="173.803" style="fill:#fef8e9"/><rect x="45.728" y="49.08" width="98.661" height="174.307" style="fill:#fef8e7"/><rect x="45.224" y="48.576" width="98.661" height="174.811" style="fill:#fef7e5"/><rect x="44.72" y="48.072" width="98.661" height="175.315" style="fill:#fef7e3"/><rect x="44.216" y="47.568" width="98.661" height="175.82" style="fill:#fef6e1"/><rect x="43.711" y="47.063" width="98.661" height="176.324" style="fill:#fef5df"/><rect x="43.207" y="46.559" width="98.661" height="176.828" style="fill:#fef5dd"/><rect x="42.703" y="46.055" width="98.661" height="177.332" style="fill:#fef4db"/><rect x="42.199" y="45.551" width="98.661" height="177.836" style="fill:#fef4da"/><rect x="41.695" y="45.047" width="98.661" height="178.341" style="fill:#fef3d8"/><rect x="41.19" y="44.542" width="98.661" height="178.845" style="fill:#fef3d6"/><rect x="40.686" y="44.038" width="98.661" height="179.349" style="fill:#fef2d4"/><rect x="40.182" y="43.534" width="98.661" height="179.853" style="fill:#fef2d2"/><rect x="39.678" y="43.03" width="98.661" height="180.357" style="fill:#fef1d0"/><rect x="39.173" y="42.526" width="98.661" height="180.862" style="fill:#fdf0ce"/><rect x="38.669" y="42.021" width="98.661" height="181.366" style="fill:#fdf0cc"/><rect x="38.165" y="41.517" width="98.661" height="181.87" style="fill:#fdefcb"/><rect x="37.661" y="41.013" width="98.661" height="182.374" style="fill:#fdefc9"/><rect x="37.157" y="40.509" width="98.661" height="182.878" style="fill:#fdeec7"/><rect x="36.652" y="40.005" width="98.661" height="183.383" style="fill:#fdeec5"/><rect x="36.148" y="39.5" width="98.661" height="183.887" style="fill:#fdedc3"/><rect x="35.644" y="38.996" width="98.661" height="184.391" style="fill:#fdedc1"/><rect x="35.14" y="38.492" width="98.661" height="184.895" style="fill:#fdecbf"/><rect x="34.636" y="37.988" width="98.661" height="185.4" style="fill:#fdebbd"/><rect x="34.131" y="37.484" width="98.661" height="185.904" style="fill:#fdebbc"/><rect x="33.627" y="36.979" width="98.661" height="186.408" style="fill:#fdeaba"/><rect x="33.123" y="36.475" width="98.662" height="186.912" style="fill:#fdeab8"/><rect x="32.619" y="35.971" width="98.662" height="187.416" style="fill:#fde9b6"/><rect x="32.115" y="35.467" width="98.662" height="187.921" style="fill:#fde9b4"/><rect x="31.61" y="34.963" width="98.662" height="188.425" style="fill:#fde8b2"/><rect x="31.106" y="34.458" width="98.662" height="188.929" style="fill:#fde8b0"/><rect x="30.602" y="33.954" width="98.662" height="189.433" style="fill:#fce7ae"/><rect x="30.098" y="33.45" width="98.662" height="189.937" style="fill:#fce6ad"/><rect x="29.594" y="32.946" width="98.662" height="190.442" style="fill:#fce6ab"/><rect x="29.089" y="32.441" width="98.662" height="190.946" style="fill:#fce5a9"/><rect x="28.585" y="31.937" width="98.662" height="191.45" style="fill:#fce5a7"/><rect x="28.081" y="31.433" width="98.662" height="191.954" style="fill:#fce4a5"/><rect x="27.577" y="30.929" width="98.662" height="192.458" style="fill:#fce4a3"/><rect x="27.073" y="30.425" width="98.662" height="192.963" style="fill:#fce3a1"/><rect x="26.568" y="29.92" width="98.662" height="193.467" style="fill:#fce3a0"/><rect x="26.064" y="29.416" width="98.662" height="193.971" style="fill:#fce29e"/><rect x="25.56" y="28.912" width="98.662" height="194.475" style="fill:#fce19c"/><rect x="25.056" y="28.408" width="98.662" height="194.979" style="fill:#fce19a"/><rect x="24.552" y="27.904" width="98.662" height="195.484" style="fill:#fce098"/><rect x="24.047" y="27.399" width="98.662" height="195.988" style="fill:#fce096"/><rect x="23.543" y="26.895" width="98.662" height="196.492" style="fill:#fcdf94"/><rect x="23.039" y="26.391" width="98.662" height="196.996" style="fill:#fcdf92"/><rect x="22.535" y="25.887" width="98.662" height="197.5" style="fill:#fcde91"/><rect x="22.031" y="25.383" width="98.662" height="198.005" style="fill:#fbdd8f"/><rect x="21.526" y="24.878" width="98.662" height="198.509" style="fill:#fbdd8d"/><rect x="21.022" y="24.374" width="98.662" height="199.013" style="fill:#fbdc8b"/><rect x="20.518" y="23.87" width="98.662" height="199.517" style="fill:#fbdc89"/><rect x="20.014" y="23.366" width="98.662" height="200.021" style="fill:#fbdb87"/><rect x="19.51" y="22.862" width="98.662" height="200.526" style="fill:#fbdb85"/><rect x="19.005" y="22.357" width="98.662" height="201.03" style="fill:#fbda83"/><rect x="18.501" y="21.853" width="98.662" height="201.534" style="fill:#fbda82"/><rect x="17.997" y="21.349" width="98.662" height="202.038" style="fill:#fbd980"/><rect x="17.493" y="20.845" width="98.662" height="202.542" style="fill:#fbd87e"/><rect x="16.989" y="20.341" width="98.662" height="203.047" style="fill:#fbd87c"/><rect x="16.484" y="19.836" width="98.662" height="203.551" style="fill:#fbd77a"/><rect x="15.98" y="19.332" width="98.662" height="204.055" style="fill:#fbd778"/><rect x="15.476" y="18.828" width="98.662" height="204.559" style="fill:#fbd676"/><rect x="14.972" y="18.324" width="98.662" height="205.063" style="fill:#fbd674"/><rect x="14.467" y="17.82" width="98.662" height="205.568" style="fill:#fbd573"/><rect x="13.963" y="17.315" width="98.662" height="206.072" style="fill:#fbd571"/><rect x="13.459" y="16.811" width="98.662" height="206.576" style="fill:#fad46f"/><rect x="12.955" y="16.307" width="98.662" height="207.08" style="fill:#fad36d"/><rect x="12.451" y="15.803" width="98.662" height="207.584" style="fill:#fad36b"/><rect x="11.946" y="15.299" width="98.662" height="208.089" style="fill:#fad269"/><rect x="11.442" y="14.794" width="98.662" height="208.593" style="fill:#fad267"/><rect x="10.938" y="14.29" width="98.662" height="209.097" style="fill:#fad165"/><rect x="10.434" y="13.786" width="98.662" height="209.601" style="fill:#fad164"/><rect x="9.93" y="13.282" width="98.662" height="210.105" style="fill:#fad062"/><rect x="9.425" y="12.778" width="98.662" height="210.61" style="fill:#fad060"/><rect x="8.921" y="12.273" width="98.662" height="211.114" style="fill:#facf5e"/><rect x="8.417" y="11.769" width="98.662" height="211.618" style="fill:#face5c"/><rect x="7.913" y="11.265" width="98.662" height="212.122" style="fill:#face5a"/><rect x="7.409" y="10.761" width="98.662" height="212.626" style="fill:#facd58"/><rect x="6.904" y="10.257" width="98.662" height="213.131" style="fill:#facd56"/><rect x="6.4" y="9.752" width="98.662" height="213.635" style="fill:#facc55"/><rect x="5.896" y="9.248" width="98.662" height="214.139" style="fill:#facc53"/><rect x="5.392" y="8.744" width="98.662" height="214.643" style="fill:#facb51"/><rect x="4.888" y="8.24" width="98.662" height="215.147" style="fill:#f9ca4f"/><rect x="4.383" y="7.736" width="98.662" height="215.652" style="fill:#f9ca4d"/><rect x="3.879" y="7.231" width="98.662" height="216.156" style="fill:#f9c94b"/><rect x="3.375" y="6.727" width="98.662" height="216.66" style="fill:#f9c949"/><rect x="2.871" y="6.223" width="98.662" height="217.164" style="fill:#f9c847"/><rect x="2.367" y="5.719" width="98.662" height="217.668" style="fill:#f9c846"/><rect x="1.862" y="5.215" width="98.662" height="218.173" style="fill:#f9c744"/><rect x="1.358" y="4.71" width="98.662" height="218.677" style="fill:#f9c742"/><rect x="0.854" y="4.206" width="98.662" height="219.181" style="fill:#f9c640"/></g></g><rect x="0.226" y="5.886" width="92.186" height="217.955" style="fill:#74afb3"/><path d="M0,0V223.394H6.476v-11.32H92.184v11.32h6.477V0ZM92.184,7.623V70.486H6.476V7.623Zm0,136.979v61.162H6.476V144.6ZM6.476,138.125V76.962H92.184v61.163Z" style="fill:#2f6fb6"/><rect x="6.708" y="17.39" width="16.566" height="52.973" style="fill:#eeb149"/><path d="M17.4,60.564a2.409,2.409,0,1,1-2.409-2.41A2.41,2.41,0,0,1,17.4,60.564Z" style="fill:#3c2415"/><path d="M14.992,64.053a3.489,3.489,0,1,1,3.488-3.489A3.494,3.494,0,0,1,14.992,64.053Zm0-4.819a1.33,1.33,0,1,0,1.329,1.33A1.33,1.33,0,0,0,14.992,59.234Z" style="fill:#bcbec0"/><rect x="9.217" y="20.603" width="11.547" height="26.005" style="fill:#fff"/><rect x="9.217" y="20.603" width="11.547" height="2.41" style="fill:#bcbec0"/><rect x="9.217" y="44.198" width="11.547" height="2.41" style="fill:#bcbec0"/><rect x="10.591" y="24.905" width="8.801" height="0.918" style="fill:#bcbec0"/><rect x="10.591" y="27.415" width="8.801" height="0.918" style="fill:#bcbec0"/><rect x="10.591" y="29.925" width="8.801" height="0.918" style="fill:#bcbec0"/><rect x="27.945" y="15.367" width="16.568" height="52.973" transform="translate(-7.203 7.533) rotate(-10.804)" style="fill:#98dcdb"/><path d="M41.725,57.794a2.41,2.41,0,1,1-2.819-1.915A2.412,2.412,0,0,1,41.725,57.794Z" style="fill:#3c2415"/><path d="M39.354,61.735a3.494,3.494,0,1,1,.656-.062A3.491,3.491,0,0,1,39.354,61.735Zm.006-4.82a1.352,1.352,0,0,0-.252.024,1.328,1.328,0,1,0,.252-.024Z" style="fill:#bcbec0"/><rect x="28.531" y="18.762" width="11.547" height="26.005" transform="translate(-5.346 6.994) rotate(-10.805)" style="fill:#fff"/><rect x="26.319" y="18.972" width="11.547" height="2.409" transform="translate(-3.213 6.373) rotate(-10.803)" style="fill:#bcbec0"/><rect x="30.742" y="42.149" width="11.547" height="2.41" transform="translate(-7.48 7.614) rotate(-10.805)" style="fill:#bcbec0"/><rect x="28.358" y="23.211" width="8.802" height="0.919" transform="translate(-3.856 6.56) rotate(-10.803)" style="fill:#bcbec0"/><rect x="28.829" y="25.677" width="8.802" height="0.919" transform="translate(-4.31 6.692) rotate(-10.803)" style="fill:#bcbec0"/><rect x="29.299" y="28.142" width="8.803" height="0.918" transform="translate(-4.764 6.824) rotate(-10.803)" style="fill:#bcbec0"/><rect x="26.959" y="163.163" width="36.973" height="10.501" style="fill:#062635"/><rect x="15.071" y="173.664" width="60.75" height="15.659" style="fill:#133141"/><rect x="15.071" y="187.733" width="60.75" height="5.089" style="fill:#062635"/><path d="M25.25,179.469a3.11,3.11,0,0,1-3.733,3.733,3.1,3.1,0,1,1,3.733-3.733Z" style="fill:#274b6c"/><path d="M22.229,183.82a3.813,3.813,0,0,1-.828-.092,3.59,3.59,0,0,1-2.723-2.722,3.649,3.649,0,0,1,4.376-4.377,3.6,3.6,0,0,1,2.722,2.723,3.667,3.667,0,0,1-.707,3.1A3.628,3.628,0,0,1,22.229,183.82Zm0-6.2a2.551,2.551,0,0,0-2,.96,2.592,2.592,0,0,0-.5,2.195,2.539,2.539,0,0,0,1.9,1.9,2.564,2.564,0,0,0,1.187-4.989A2.74,2.74,0,0,0,22.229,177.618Z" style="fill:#0c2344"/><rect x="56.338" y="175.488" width="17.453" height="9.479" style="fill:#062635"/><rect x="57.852" y="176.596" width="14.426" height="3.816" style="fill:#274b6c"/><rect x="57.852" y="181.582" width="5.61" height="2.217" style="fill:#2ba537"/><path d="M64,184.338h-6.69v-3.295H64Zm-5.611-1.08h4.53v-1.135h-4.53Z" style="fill:#193556"/><rect x="66.669" y="181.582" width="5.608" height="2.217" style="fill:#eeb149"/><path d="M72.819,184.338H66.128v-3.295h6.691Zm-5.611-1.08h4.53v-1.135h-4.53Z" style="fill:#193556"/><rect x="15.071" y="192.822" width="11.928" height="8.747" style="fill:#274b6c"/><rect x="63.973" y="192.822" width="11.926" height="8.747" style="fill:#274b6c"/><polygon points="72.958 204.431 17.458 204.431 15.071 201.569 75.821 201.569 72.958 204.431" style="fill:#133141"/><polygon points="68.743 205.981 22.227 205.981 26.999 197.156 63.973 197.156 68.743 205.981" style="fill:#fff"/><rect x="26.999" y="192.822" width="36.975" height="4.334" style="fill:#062635"/><rect x="31.133" y="148.612" width="28.625" height="25.052" style="fill:#fff"/><rect x="33.51" y="152.401" width="23.789" height="2.271" style="fill:#98dcdb"/><rect x="33.51" y="157.632" width="23.789" height="1.135" style="fill:#98dcdb"/><rect x="33.51" y="160.002" width="23.789" height="1.136" style="fill:#98dcdb"/><rect x="33.51" y="162.374" width="23.789" height="1.135" style="fill:#98dcdb"/><rect x="33.51" y="164.745" width="23.789" height="1.135" style="fill:#98dcdb"/><rect x="33.51" y="167.116" width="23.789" height="1.135" style="fill:#98dcdb"/><rect x="21.302" y="99.767" width="50.033" height="38.275" style="fill:#e4e0d0"/><rect x="19.641" y="96.917" width="53.356" height="7.918" style="fill:#f0ead8"/><rect x="26.478" y="114.864" width="16.049" height="16.911" style="fill:#fff"/><path d="M43.066,132.315H25.939V114.324H43.066Zm-16.047-1.08H41.986V115.4H27.019Z" style="fill:#2ba537"/><rect x="28.169" y="117.78" width="12.436" height="5.54" style="fill:#98dcdb"/><polygon points="71.942 35.408 70.644 36.842 70.889 35.512 71.967 34.76 71.942 35.408" style="fill:#6ee5ba"/><polygon points="72.19 45.547 70.893 46.982 71.139 45.651 72.217 44.9 72.19 45.547" style="fill:#6ee5ba"/><path d="M83.7,38.709a7.109,7.109,0,0,1-7.11,7.108h-4.65l11.76-7.18Z" style="fill:#32e09d"/><path d="M79.048,38.637H83.7l-11.76,7.18v-.071A7.107,7.107,0,0,1,79.048,38.637Z" style="fill:#6ee5ba"/><path d="M82.481,29.037a6.37,6.37,0,0,1-6.371,6.371H71.942l10.539-6.435Z" style="fill:#32e09d"/><path d="M78.311,28.973h4.17L71.942,35.408v-.065A6.369,6.369,0,0,1,78.311,28.973Z" style="fill:#6ee5ba"/><rect x="70.09" y="27.641" width="0.619" height="25.48" style="fill:#6ee5ba"/><rect x="70.709" y="27.641" width="0.618" height="25.48" style="fill:#32e09d"/><polygon points="70.709 69.454 62.469 69.454 58.807 52.71 70.709 52.71 70.709 69.454" style="fill:#fc4a4a"/><polygon points="70.709 69.454 78.949 69.454 82.61 52.71 70.709 52.71 70.709 69.454" style="fill:#fc4a4a"/><path d="M58.486,50.521H70.709V52.71H58.486a.941.941,0,0,1-.9-.976V51.5A.941.941,0,0,1,58.486,50.521Z" style="fill:#fc7c7c"/><path d="M82.931,50.521H70.709V52.71H82.931a.94.94,0,0,0,.9-.976V51.5A.941.941,0,0,0,82.931,50.521Z" style="fill:#fc4a4a"/><path d="M70.709,70.947h-6.93a1.4,1.4,0,0,1-1.31-1.478v-.015h8.24Z" style="fill:#fc4a4a"/><path d="M70.709,70.947h6.93a1.4,1.4,0,0,0,1.31-1.478v-.015h-8.24Z" style="fill:#fc4a4a"/><polygon points="69.348 35.408 70.644 36.842 70.399 35.512 69.32 34.76 69.348 35.408" style="fill:#32e09d"/><polygon points="69.098 45.547 70.394 46.982 70.151 45.651 69.07 44.9 69.098 45.547" style="fill:#32e09d"/><path d="M57.586,38.709a7.108,7.108,0,0,0,7.109,7.108h4.653l-11.762-7.18Z" style="fill:#6ee5ba"/><path d="M62.24,38.637H57.586l11.762,7.18v-.071A7.109,7.109,0,0,0,62.24,38.637Z" style="fill:#32e09d"/><path d="M58.807,29.037a6.372,6.372,0,0,0,6.371,6.371h4.17L58.807,28.973Z" style="fill:#6ee5ba"/><path d="M62.977,28.973h-4.17l10.541,6.435v-.065A6.371,6.371,0,0,0,62.977,28.973Z" style="fill:#32e09d"/><path d="M66.118,17.811a6.369,6.369,0,0,0,1.21,8.927l3.316,2.526-4.487-11.5Z" style="fill:#6ee5ba"/><path d="M69.473,20.286,66.157,17.76l4.487,11.5.04-.051A6.37,6.37,0,0,0,69.473,20.286Z" style="fill:#32e09d"/></g></g></svg>