<svg xmlns="http://www.w3.org/2000/svg" xmlns:xlink="http://www.w3.org/1999/xlink" viewBox="0 0 283.655 170.981"><defs><clipPath id="clip-path"><path d="M71.8,121.659H65.863c-1.888,0-3.419-1.22-3.419-2.726V106.07H75.22v12.863C75.22,120.439,73.69,121.659,71.8,121.659Z" style="fill:none"/></clipPath><clipPath id="clip-path-2"><rect x="71.577" y="105.43" width="6.429" height="6.429" style="fill:none"/></clipPath><clipPath id="clip-path-3"><rect x="71.577" y="111.859" width="6.429" height="6.429" style="fill:none"/></clipPath><clipPath id="clip-path-4"><rect x="71.577" y="118.288" width="6.429" height="6.429" style="fill:none"/></clipPath><clipPath id="clip-path-5"><rect x="65.148" y="105.43" width="6.429" height="6.429" style="fill:none"/></clipPath><clipPath id="clip-path-6"><rect x="65.148" y="111.859" width="6.429" height="6.429" style="fill:none"/></clipPath><clipPath id="clip-path-7"><rect x="65.148" y="118.288" width="6.429" height="6.429" style="fill:none"/></clipPath><clipPath id="clip-path-8"><rect x="58.72" y="105.43" width="6.428" height="6.429" style="fill:none"/></clipPath><clipPath id="clip-path-9"><rect x="58.72" y="111.859" width="6.428" height="6.429" style="fill:none"/></clipPath><clipPath id="clip-path-10"><rect x="58.72" y="118.288" width="6.428" height="6.429" style="fill:none"/></clipPath><linearGradient id="linear-gradient" x1="120.985" y1="98.495" x2="126.679" y2="92.802" gradientUnits="userSpaceOnUse"><stop offset="0" stop-color="#121212"/><stop offset="1" stop-color="#515151"/></linearGradient><linearGradient id="linear-gradient-2" x1="124.894" y1="94.546" x2="122.696" y2="96.744" gradientUnits="userSpaceOnUse"><stop offset="0" stop-color="#c4c4c4"/><stop offset="0.002" stop-color="#c4c4c4"/><stop offset="0.235" stop-color="#dedede"/><stop offset="0.474" stop-color="#f0f0f0"/><stop offset="0.724" stop-color="#fbfbfb"/><stop offset="1" stop-color="#fff"/></linearGradient><linearGradient id="linear-gradient-3" x1="131.452" y1="98.495" x2="137.146" y2="92.802" xlink:href="#linear-gradient"/><linearGradient id="linear-gradient-4" x1="135.394" y1="93.988" x2="133.026" y2="96.356" xlink:href="#linear-gradient-2"/><linearGradient id="linear-gradient-5" x1="135.873" y1="94.467" x2="133.505" y2="96.834" xlink:href="#linear-gradient-2"/><linearGradient id="linear-gradient-6" x1="141.919" y1="98.495" x2="147.612" y2="92.802" xlink:href="#linear-gradient"/><linearGradient id="linear-gradient-7" x1="145.197" y1="94.233" x2="142.644" y2="96.786" xlink:href="#linear-gradient-2"/><linearGradient id="linear-gradient-8" x1="146.146" y1="95.182" x2="143.593" y2="97.735" xlink:href="#linear-gradient-2"/><linearGradient id="linear-gradient-9" x1="146.437" y1="95.473" x2="143.885" y2="98.026" xlink:href="#linear-gradient-2"/><linearGradient id="linear-gradient-10" x1="152.386" y1="98.495" x2="158.079" y2="92.802" xlink:href="#linear-gradient"/><linearGradient id="linear-gradient-11" x1="154.146" y1="95.33" x2="153.508" y2="95.968" xlink:href="#linear-gradient-2"/><linearGradient id="linear-gradient-12" x1="155.551" y1="95.33" x2="154.914" y2="95.968" xlink:href="#linear-gradient-2"/><linearGradient id="linear-gradient-13" x1="156.957" y1="95.33" x2="156.319" y2="95.968" xlink:href="#linear-gradient-2"/></defs><g style="isolation:isolate"><g id="Ñëîé_1" data-name="Ñëîé 1"><rect x="6.125" y="135.26" width="272.191" height="35.721" style="fill:#f0ead8"/><path d="M33.388,104.457A9.118,9.118,0,0,1,42.5,95.349V94.023a7.477,7.477,0,0,1-.173-14.953H42.5V74.729H34.537A4.339,4.339,0,0,0,30.2,79.07v43.413H42.5v-8.918A9.117,9.117,0,0,1,33.388,104.457Z" style="fill:#ffbc5a"/><path d="M54.8,79.07a4.339,4.339,0,0,0-4.339-4.341H42.5V79.07a7.477,7.477,0,0,1,0,14.953v1.326a9.108,9.108,0,1,1,0,18.216h0v8.918H54.8Z" style="fill:#eeb149"/><path d="M48.525,86.546a6.03,6.03,0,0,1-6.029,6.03v1.447a7.477,7.477,0,0,0,0-14.953v1.447A6.029,6.029,0,0,1,48.525,86.546Z" style="fill:#ffbc5a"/><path d="M35.019,86.546A7.485,7.485,0,0,0,42.5,94.023V92.576a6.03,6.03,0,0,1-.155-12.059H42.5V79.07A7.485,7.485,0,0,0,35.019,86.546Z" style="fill:#eeb149"/><path d="M36.466,86.546a6.03,6.03,0,0,0,6.03,6.03V80.517A6.03,6.03,0,0,0,36.466,86.546Z" style="fill:#0f365a"/><path d="M48.525,86.546A6.029,6.029,0,0,0,42.5,80.517V92.576A6.031,6.031,0,0,0,48.525,86.546Z" style="fill:#274b6c"/><path d="M50.156,104.457a7.661,7.661,0,0,1-7.66,7.662h0v1.446a9.108,9.108,0,0,0,0-18.216V96.8a7.66,7.66,0,0,1,7.66,7.66Z" style="fill:#ffbc5a"/><path d="M33.388,104.457a9.117,9.117,0,0,0,9.112,9.108v-1.446a7.662,7.662,0,0,1,0-15.323V95.349A9.118,9.118,0,0,0,33.388,104.457Z" style="fill:#eeb149"/><path d="M34.835,104.457a7.661,7.661,0,0,0,7.66,7.662H42.5V96.8a7.66,7.66,0,0,0-7.665,7.655Z" style="fill:#0f365a"/><path d="M50.156,104.457A7.659,7.659,0,0,0,42.5,96.8h0v15.323a7.661,7.661,0,0,0,7.66-7.662Z" style="fill:#274b6c"/><rect x="0.733" y="122.586" width="282.47" height="12.674" style="fill:#eaeeef"/><rect x="16.021" y="143.406" width="251.778" height="19.404" style="fill:#e4e0d0"/><path d="M217.946,114.418h3.114a1.06,1.06,0,0,1,1.06,1.06v.022a1.059,1.059,0,0,1-1.059,1.059h-3.114a1.059,1.059,0,0,1-1.059-1.059h0v-.022a1.059,1.059,0,0,1,1.059-1.059h0Z" style="fill:#274b6c"/><path d="M228.194,122.483H210.145a7.224,7.224,0,0,1,7.165-7.235h.722a13.62,13.62,0,0,1,10.941,5.507l.055.073a1.039,1.039,0,0,1-.834,1.655Z" style="fill:#062635"/><path d="M211.315,122.016l-1.071-.13a5.859,5.859,0,0,1,4.755-4.8c6.715-1.277,13.243,3.739,13.52,3.953l-.664.852c-.064-.05-6.436-4.927-12.654-3.744A4.742,4.742,0,0,0,211.315,122.016Z" style="fill:#193556"/><path d="M64.814,111.257c-.292.019-.5-.025-.528-.129L65.993,118l.527.122Z" style="fill:#f7daa9"/><polygon points="65.366 111.168 65.366 111.168 67.095 118.14 65.366 111.168" style="fill:#fff"/><path d="M66.273,110.634c.026.1-.138.242-.406.364l1.7,6.865L68,117.5l-1.9-7.545Z" style="fill:#f2c577"/><polygon points="66.52 118.124 66.542 118.173 67.793 120.948 67.095 118.14 66.52 118.124" style="fill:#133141"/><polygon points="65.993 118.002 67.793 120.948 66.542 118.173 65.993 118.002" style="fill:#83a7bb"/><polygon points="66.52 118.124 65.993 118.002 66.542 118.173 66.52 118.124" style="fill:#fbfbfb"/><polygon points="67.152 118.361 67.15 118.363 67.793 120.948 67.791 120.934 67.152 118.361" style="fill:#fbfbfb"/><polygon points="67.097 118.139 67.791 120.934 67.577 117.935 67.572 117.863 67.097 118.139" style="fill:#5385a0"/><rect x="67.123" y="118.136" width="0.003" height="0.229" transform="translate(-26.478 19.622) rotate(-13.921)" style="fill:#fbfbfb"/><polygon points="67.577 117.935 67.791 120.934 67.793 120.94 68.009 117.501 67.577 117.935" style="fill:#f9e4bf"/><polygon points="67.793 120.948 67.793 120.94 67.791 120.934 67.793 120.948" style="fill:#fbfbfb"/><polygon points="67.577 117.935 68.009 117.501 67.572 117.863 67.577 117.935" style="fill:#fbfbfb"/><path d="M65.366,111.168h-.01a2.93,2.93,0,0,1-.542.087l1.706,6.867.575.016Z" style="fill:#f7daa9"/><path d="M67.1,118.139l.475-.276L65.875,111a3.272,3.272,0,0,1-.5.17Z" style="fill:#f2c577"/><rect x="66.232" y="111.062" width="0.001" height="7.183" transform="translate(-25.658 19.321) rotate(-13.933)" style="fill:#f2c577"/><path d="M64.814,111.257a2.93,2.93,0,0,0,.542-.087h.01l-.072-.291h-.01a3.237,3.237,0,0,1-.427.077c-.352.039-.614,0-.644-.12l.073.291C64.312,111.232,64.522,111.276,64.814,111.257Z" style="fill:#eaeeef"/><path d="M65.867,111c.268-.122.432-.259.406-.364l-.072-.29c.026.1-.138.242-.407.362a2.92,2.92,0,0,1-.5.171l.072.291A3.247,3.247,0,0,0,65.867,111Z" style="fill:#3f5f7c"/><rect x="65.33" y="110.872" height="0.3" style="fill:#385876"/><path d="M65.2,110.491l.1.386a2.92,2.92,0,0,0,.5-.171c.269-.12.433-.257.407-.362l-.1-.388C66.144,110.117,65.741,110.353,65.2,110.491Z" style="fill:#0f365a"/><path d="M64.857,110.957a3.237,3.237,0,0,0,.427-.077h.01l-.1-.386h-.01c-.549.136-1.031.118-1.071-.042l.1.386C64.243,110.955,64.505,111,64.857,110.957Z" style="fill:#274b6c"/><path d="M65.188,110.493h.01L61.3,94.806h-.01c-.549.137,2.536,14.481,2.5,14.321l.328,1.322C64.157,110.611,64.639,110.629,65.188,110.493Z" style="fill:#fd9696"/><path d="M61.3,94.806l3.9,15.685c.543-.138.946-.374.907-.535l-.329-1.32C65.816,108.8,61.846,94.669,61.3,94.806Z" style="fill:#fd6b6b"/><path d="M61.148,94.228c-.548.136,2.6,14.741,2.641,14.9s-3.045-14.184-2.5-14.321h.01l-.144-.581Z" style="fill:#feaeae"/><path d="M61.159,94.225l.144.581c.543-.137,4.513,13.989,4.473,13.83S61.7,94.091,61.159,94.225Z" style="fill:#fd9696"/><path d="M66.52,118.124l-6.132-24.69c-.293.019-.5-.025-.529-.129l6.134,24.7Z" style="fill:#f7daa9"/><rect x="64.017" y="92.969" height="25.548" style="fill:#fff"/><path d="M68.009,117.5,61.678,92.134l.169.677c.026.1-.138.242-.407.363l6.132,24.689Z" style="fill:#f1bd64"/><path d="M67.1,118.14,60.94,93.345h-.01a3.107,3.107,0,0,1-.542.087l6.132,24.69Z" style="fill:#f9e4c1"/><path d="M67.572,117.863,61.44,93.174a3.04,3.04,0,0,1-.5.171l6.16,24.794Z" style="fill:#f2c577"/><rect x="64.017" y="92.969" width="0.001" height="25.547" transform="translate(-23.598 18.546) rotate(-13.946)" style="fill:#f2c577"/><path d="M60.388,93.434a3.107,3.107,0,0,0,.542-.087h.01l-.072-.291h-.01a3.237,3.237,0,0,1-.427.077c-.352.038-.615,0-.643-.12l.071.291C59.885,93.409,60.1,93.453,60.388,93.434Z" style="fill:#eaeeef"/><path d="M61.44,93.174c.269-.121.433-.259.407-.363l-.073-.29c.026.1-.137.242-.406.363a3.036,3.036,0,0,1-.5.17l.072.291A3.04,3.04,0,0,0,61.44,93.174Z" style="fill:#3f5f7c"/><rect x="60.904" y="93.049" height="0.3" style="fill:#385876"/><path d="M60.772,92.667l.1.387a3.036,3.036,0,0,0,.5-.17c.269-.121.432-.259.406-.363l-.1-.387C61.718,92.293,61.315,92.531,60.772,92.667Z" style="fill:#0f365a"/><path d="M60.431,93.134a3.237,3.237,0,0,0,.427-.077h.01l-.1-.387h-.01c-.549.137-1.031.119-1.071-.042l.1.387C59.816,93.131,60.079,93.172,60.431,93.134Z" style="fill:#274b6c"/><path d="M60.762,92.669h.01l-.329-1.321h-.009c-.549.136-1.031.117-1.071-.043l.328,1.321C59.731,92.788,60.213,92.806,60.762,92.669Z" style="fill:#fd9d9d"/><path d="M60.443,91.346l.329,1.321c.543-.136.946-.374.906-.533l-.328-1.321C61.39,90.972,60.987,91.209,60.443,91.346Z" style="fill:#fd6c6c"/><path d="M60.289,90.768c-.549.136-.966.378-.926.538s.522.179,1.071.043h.009l-.144-.581Z" style="fill:#feaeae"/><path d="M60.3,90.765l.144.581c.544-.137.947-.374.907-.533S60.844,90.632,60.3,90.765Z" style="fill:#fd9696"/><path d="M67.683,120.75l.134.541c.027.109.1.184.162.169l-.179-.737Z" style="fill:#fd7979"/><path d="M67.8,120.723l.183.737h0c.062-.015.09-.116.063-.225l-.135-.54Z" style="fill:#fc4a4a"/><polygon points="70.406 120.831 70.516 115.251 72.472 115.647 70.406 120.831" style="fill:#195c8f"/><path d="M76.581,90.275l-1-.2q-1.73,7.11-3.129,14.3l1.228.248Z" style="fill:#f1bd66"/><path d="M77.58,90.477l-1-.2-2.9,14.346,1.229.249Q76.4,97.7,77.58,90.477Z" style="fill:#eeb149"/><path d="M71.494,115.449l1,.2c.871-3.578,1.669-7.177,2.418-10.781l-1.229-.249Z" style="fill:#f2c373"/><path d="M72.454,104.373c-.71,3.613-1.371,7.239-1.957,10.875l1,.2,2.188-10.828Z" style="fill:#f5d397"/><path d="M76.723,104.228a.4.4,0,0,1-.288-.236,3.305,3.305,0,0,1-.122-1.573,48.991,48.991,0,0,1,1.159-4.765c.3-1.109.576-2.155.654-2.538.157-.783.334-3.006.4-3.943l-3.044-.615a.5.5,0,0,1,.2-.969l3.79.766-.03.425c-.009.139-.237,3.443-.453,4.51-.084.417-.355,1.431-.67,2.6-.454,1.7-1.077,4.025-1.124,4.573a2.881,2.881,0,0,0,.039,1.063.542.542,0,0,1-.226.65A.416.416,0,0,1,76.723,104.228Z" style="fill:#195c8f"/><rect x="61.222" y="104.342" width="15.221" height="1.727" style="fill:#204466"/><g style="clip-path:url(#clip-path)"><g style="clip-path:url(#clip-path-2)"><rect x="78.947" y="112.8" width="4.546" height="4.546" transform="translate(-57.583 91.155) rotate(-45.008)" style="fill:none;stroke:#204466;stroke-miterlimit:9.999999926284637;stroke-width:1.2857099676723056px"/><rect x="72.518" y="112.799" width="4.546" height="4.546" transform="translate(-59.464 86.598) rotate(-45.004)" style="fill:none;stroke:#204466;stroke-miterlimit:10.000000274712036;stroke-width:1.2857100124699639px"/><rect x="66.09" y="112.799" width="4.546" height="4.546" transform="translate(-61.347 82.052) rotate(-45.004)" style="fill:none;stroke:#204466;stroke-miterlimit:10.000000274712036;stroke-width:1.2857100124699639px"/><rect x="78.947" y="106.371" width="4.546" height="4.546" transform="translate(-53.034 89.252) rotate(-45)" style="fill:none;stroke:#204466;stroke-miterlimit:9.99999982885729;stroke-width:1.2857099551459743px"/><rect x="72.518" y="106.371" width="4.546" height="4.546" transform="translate(-54.915 84.697) rotate(-44.996)" style="fill:none;stroke:#204466;stroke-miterlimit:10.000000274712036;stroke-width:1.2857100124699639px"/><rect x="66.089" y="106.371" width="4.546" height="4.546" transform="translate(-56.798 80.152) rotate(-44.996)" style="fill:none;stroke:#204466;stroke-miterlimit:10.000000274712036;stroke-width:1.2857100124699639px"/><rect x="78.947" y="99.942" width="4.546" height="4.546" transform="translate(-48.488 87.369) rotate(-45)" style="fill:none;stroke:#204466;stroke-miterlimit:9.99999982885729;stroke-width:1.2857099551459743px"/><rect x="72.517" y="99.942" width="4.546" height="4.546" transform="translate(-50.37 82.814) rotate(-44.996)" style="fill:none;stroke:#204466;stroke-miterlimit:10.000000274712036;stroke-width:1.2857100124699639px"/><rect x="66.09" y="99.941" width="4.546" height="4.546" transform="translate(-52.252 78.269) rotate(-44.996)" style="fill:none;stroke:#204466;stroke-miterlimit:10.000000274712036;stroke-width:1.2857100124699639px"/></g><g style="clip-path:url(#clip-path-3)"><rect x="78.947" y="119.229" width="4.546" height="4.546" transform="translate(-62.13 93.038) rotate(-45.008)" style="fill:none;stroke:#204466;stroke-miterlimit:9.999999926284637;stroke-width:1.2857099676723056px"/><rect x="72.518" y="119.228" width="4.546" height="4.546" transform="translate(-64.01 88.482) rotate(-45.004)" style="fill:none;stroke:#204466;stroke-miterlimit:10.000000274712036;stroke-width:1.2857100124699639px"/><rect x="66.09" y="119.227" width="4.546" height="4.546" transform="translate(-65.893 83.936) rotate(-45.004)" style="fill:none;stroke:#204466;stroke-miterlimit:10.000000274712036;stroke-width:1.2857100124699639px"/><rect x="78.947" y="112.8" width="4.546" height="4.546" transform="translate(-57.583 91.155) rotate(-45.008)" style="fill:none;stroke:#204466;stroke-miterlimit:9.999999926284637;stroke-width:1.2857099676723056px"/><rect x="72.518" y="112.799" width="4.546" height="4.546" transform="translate(-59.464 86.598) rotate(-45.004)" style="fill:none;stroke:#204466;stroke-miterlimit:10.000000274712036;stroke-width:1.2857100124699639px"/><rect x="66.09" y="112.799" width="4.546" height="4.546" transform="translate(-61.347 82.052) rotate(-45.004)" style="fill:none;stroke:#204466;stroke-miterlimit:10.000000274712036;stroke-width:1.2857100124699639px"/><rect x="78.947" y="106.371" width="4.546" height="4.546" transform="translate(-53.034 89.252) rotate(-45)" style="fill:none;stroke:#204466;stroke-miterlimit:9.99999982885729;stroke-width:1.2857099551459743px"/><rect x="72.518" y="106.371" width="4.546" height="4.546" transform="translate(-54.915 84.697) rotate(-44.996)" style="fill:none;stroke:#204466;stroke-miterlimit:10.000000274712036;stroke-width:1.2857100124699639px"/><rect x="66.089" y="106.371" width="4.546" height="4.546" transform="translate(-56.798 80.152) rotate(-44.996)" style="fill:none;stroke:#204466;stroke-miterlimit:10.000000274712036;stroke-width:1.2857100124699639px"/></g><g style="clip-path:url(#clip-path-4)"><rect x="78.948" y="125.657" width="4.546" height="4.546" transform="translate(-66.676 94.922) rotate(-45.008)" style="fill:none;stroke:#204466;stroke-miterlimit:9.999999926284637;stroke-width:1.2857099676723056px"/><rect x="72.518" y="125.657" width="4.546" height="4.546" transform="translate(-68.557 90.365) rotate(-45.004)" style="fill:none;stroke:#204466;stroke-miterlimit:10.000000274712036;stroke-width:1.2857100124699639px"/><rect x="66.09" y="125.656" width="4.546" height="4.546" transform="translate(-70.44 85.819) rotate(-45.004)" style="fill:none;stroke:#204466;stroke-miterlimit:10.000000274712036;stroke-width:1.2857100124699639px"/><rect x="78.947" y="119.229" width="4.546" height="4.546" transform="translate(-62.13 93.038) rotate(-45.008)" style="fill:none;stroke:#204466;stroke-miterlimit:9.999999926284637;stroke-width:1.2857099676723056px"/><rect x="72.518" y="119.228" width="4.546" height="4.546" transform="translate(-64.01 88.482) rotate(-45.004)" style="fill:none;stroke:#204466;stroke-miterlimit:10.000000274712036;stroke-width:1.2857100124699639px"/><rect x="66.09" y="119.227" width="4.546" height="4.546" transform="translate(-65.893 83.936) rotate(-45.004)" style="fill:none;stroke:#204466;stroke-miterlimit:10.000000274712036;stroke-width:1.2857100124699639px"/><rect x="78.947" y="112.8" width="4.546" height="4.546" transform="translate(-57.583 91.155) rotate(-45.008)" style="fill:none;stroke:#204466;stroke-miterlimit:9.999999926284637;stroke-width:1.2857099676723056px"/><rect x="72.518" y="112.799" width="4.546" height="4.546" transform="translate(-59.464 86.598) rotate(-45.004)" style="fill:none;stroke:#204466;stroke-miterlimit:10.000000274712036;stroke-width:1.2857100124699639px"/><rect x="66.09" y="112.799" width="4.546" height="4.546" transform="translate(-61.347 82.052) rotate(-45.004)" style="fill:none;stroke:#204466;stroke-miterlimit:10.000000274712036;stroke-width:1.2857100124699639px"/></g><g style="clip-path:url(#clip-path-5)"><rect x="72.518" y="112.799" width="4.546" height="4.546" transform="translate(-59.464 86.598) rotate(-45.004)" style="fill:none;stroke:#204466;stroke-miterlimit:10.000000274712036;stroke-width:1.2857100124699639px"/><rect x="66.09" y="112.799" width="4.546" height="4.546" transform="translate(-61.347 82.052) rotate(-45.004)" style="fill:none;stroke:#204466;stroke-miterlimit:10.000000274712036;stroke-width:1.2857100124699639px"/><rect x="59.661" y="112.799" width="4.546" height="4.546" transform="translate(-63.231 77.507) rotate(-45.004)" style="fill:none;stroke:#204466;stroke-miterlimit:10.000000274712036;stroke-width:1.2857100124699639px"/><rect x="72.518" y="106.371" width="4.546" height="4.546" transform="translate(-54.915 84.697) rotate(-44.996)" style="fill:none;stroke:#204466;stroke-miterlimit:10.000000274712036;stroke-width:1.2857100124699639px"/><rect x="66.089" y="106.371" width="4.546" height="4.546" transform="translate(-56.798 80.152) rotate(-44.996)" style="fill:none;stroke:#204466;stroke-miterlimit:10.000000274712036;stroke-width:1.2857100124699639px"/><rect x="59.661" y="106.371" width="4.546" height="4.546" transform="translate(-58.681 75.607) rotate(-44.996)" style="fill:none;stroke:#204466;stroke-miterlimit:10.000000274712036;stroke-width:1.2857100124699639px"/><rect x="72.517" y="99.942" width="4.546" height="4.546" transform="translate(-50.37 82.814) rotate(-44.996)" style="fill:none;stroke:#204466;stroke-miterlimit:10.000000274712036;stroke-width:1.2857100124699639px"/><rect x="66.09" y="99.941" width="4.546" height="4.546" transform="translate(-52.252 78.269) rotate(-44.996)" style="fill:none;stroke:#204466;stroke-miterlimit:10.000000274712036;stroke-width:1.2857100124699639px"/><rect x="59.66" y="99.942" width="4.546" height="4.546" transform="translate(-54.135 73.724) rotate(-44.996)" style="fill:none;stroke:#204466;stroke-miterlimit:10.000000274712036;stroke-width:1.2857100124699639px"/></g><g style="clip-path:url(#clip-path-6)"><rect x="72.518" y="119.228" width="4.546" height="4.546" transform="translate(-64.01 88.482) rotate(-45.004)" style="fill:none;stroke:#204466;stroke-miterlimit:10.000000274712036;stroke-width:1.2857100124699639px"/><rect x="66.09" y="119.227" width="4.546" height="4.546" transform="translate(-65.893 83.936) rotate(-45.004)" style="fill:none;stroke:#204466;stroke-miterlimit:10.000000274712036;stroke-width:1.2857100124699639px"/><rect x="59.661" y="119.227" width="4.546" height="4.546" transform="translate(-67.777 79.39) rotate(-45.004)" style="fill:none;stroke:#204466;stroke-miterlimit:10.000000274712036;stroke-width:1.2857100124699639px"/><rect x="72.518" y="112.799" width="4.546" height="4.546" transform="translate(-59.464 86.598) rotate(-45.004)" style="fill:none;stroke:#204466;stroke-miterlimit:10.000000274712036;stroke-width:1.2857100124699639px"/><rect x="66.09" y="112.799" width="4.546" height="4.546" transform="translate(-61.347 82.052) rotate(-45.004)" style="fill:none;stroke:#204466;stroke-miterlimit:10.000000274712036;stroke-width:1.2857100124699639px"/><rect x="59.661" y="112.799" width="4.546" height="4.546" transform="translate(-63.231 77.507) rotate(-45.004)" style="fill:none;stroke:#204466;stroke-miterlimit:10.000000274712036;stroke-width:1.2857100124699639px"/><rect x="72.518" y="106.371" width="4.546" height="4.546" transform="translate(-54.915 84.697) rotate(-44.996)" style="fill:none;stroke:#204466;stroke-miterlimit:10.000000274712036;stroke-width:1.2857100124699639px"/><rect x="66.089" y="106.371" width="4.546" height="4.546" transform="translate(-56.798 80.152) rotate(-44.996)" style="fill:none;stroke:#204466;stroke-miterlimit:10.000000274712036;stroke-width:1.2857100124699639px"/><rect x="59.661" y="106.371" width="4.546" height="4.546" transform="translate(-58.681 75.607) rotate(-44.996)" style="fill:none;stroke:#204466;stroke-miterlimit:10.000000274712036;stroke-width:1.2857100124699639px"/></g><g style="clip-path:url(#clip-path-7)"><rect x="72.518" y="125.657" width="4.546" height="4.546" transform="translate(-68.557 90.365) rotate(-45.004)" style="fill:none;stroke:#204466;stroke-miterlimit:10.000000274712036;stroke-width:1.2857100124699639px"/><rect x="66.09" y="125.656" width="4.546" height="4.546" transform="translate(-70.44 85.819) rotate(-45.004)" style="fill:none;stroke:#204466;stroke-miterlimit:10.000000274712036;stroke-width:1.2857100124699639px"/><rect x="59.662" y="125.657" width="4.546" height="4.546" transform="translate(-72.323 81.274) rotate(-45.004)" style="fill:none;stroke:#204466;stroke-miterlimit:10.000000274712036;stroke-width:1.2857100124699639px"/><rect x="72.518" y="119.228" width="4.546" height="4.546" transform="translate(-64.01 88.482) rotate(-45.004)" style="fill:none;stroke:#204466;stroke-miterlimit:10.000000274712036;stroke-width:1.2857100124699639px"/><rect x="66.09" y="119.227" width="4.546" height="4.546" transform="translate(-65.893 83.936) rotate(-45.004)" style="fill:none;stroke:#204466;stroke-miterlimit:10.000000274712036;stroke-width:1.2857100124699639px"/><rect x="59.661" y="119.227" width="4.546" height="4.546" transform="translate(-67.777 79.39) rotate(-45.004)" style="fill:none;stroke:#204466;stroke-miterlimit:10.000000274712036;stroke-width:1.2857100124699639px"/><rect x="72.518" y="112.799" width="4.546" height="4.546" transform="translate(-59.464 86.598) rotate(-45.004)" style="fill:none;stroke:#204466;stroke-miterlimit:10.000000274712036;stroke-width:1.2857100124699639px"/><rect x="66.09" y="112.799" width="4.546" height="4.546" transform="translate(-61.347 82.052) rotate(-45.004)" style="fill:none;stroke:#204466;stroke-miterlimit:10.000000274712036;stroke-width:1.2857100124699639px"/><rect x="59.661" y="112.799" width="4.546" height="4.546" transform="translate(-63.231 77.507) rotate(-45.004)" style="fill:none;stroke:#204466;stroke-miterlimit:10.000000274712036;stroke-width:1.2857100124699639px"/></g><g style="clip-path:url(#clip-path-8)"><rect x="66.09" y="112.799" width="4.546" height="4.546" transform="translate(-61.347 82.052) rotate(-45.004)" style="fill:none;stroke:#204466;stroke-miterlimit:10.000000274712036;stroke-width:1.2857100124699639px"/><rect x="59.661" y="112.799" width="4.546" height="4.546" transform="translate(-63.231 77.507) rotate(-45.004)" style="fill:none;stroke:#204466;stroke-miterlimit:10.000000274712036;stroke-width:1.2857100124699639px"/><rect x="53.233" y="112.799" width="4.546" height="4.546" transform="translate(-65.114 72.961) rotate(-45.004)" style="fill:none;stroke:#204466;stroke-miterlimit:10.000000274712036;stroke-width:1.2857100124699639px"/><rect x="66.089" y="106.371" width="4.546" height="4.546" transform="translate(-56.798 80.152) rotate(-44.996)" style="fill:none;stroke:#204466;stroke-miterlimit:10.000000274712036;stroke-width:1.2857100124699639px"/><rect x="59.661" y="106.371" width="4.546" height="4.546" transform="translate(-58.681 75.607) rotate(-44.996)" style="fill:none;stroke:#204466;stroke-miterlimit:10.000000274712036;stroke-width:1.2857100124699639px"/><rect x="53.234" y="106.371" width="4.546" height="4.546" transform="translate(-60.563 71.062) rotate(-44.996)" style="fill:none;stroke:#204466;stroke-miterlimit:10.000000274712036;stroke-width:1.2857100124699639px"/><rect x="66.09" y="99.941" width="4.546" height="4.546" transform="translate(-52.252 78.269) rotate(-44.996)" style="fill:none;stroke:#204466;stroke-miterlimit:10.000000274712036;stroke-width:1.2857100124699639px"/><rect x="59.66" y="99.942" width="4.546" height="4.546" transform="translate(-54.135 73.724) rotate(-44.996)" style="fill:none;stroke:#204466;stroke-miterlimit:10.000000274712036;stroke-width:1.2857100124699639px"/><rect x="53.233" y="99.943" width="4.546" height="4.546" transform="translate(-56.018 69.179) rotate(-44.996)" style="fill:none;stroke:#204466;stroke-miterlimit:10.000000274712036;stroke-width:1.2857100124699639px"/></g><g style="clip-path:url(#clip-path-9)"><rect x="66.09" y="119.227" width="4.546" height="4.546" transform="translate(-65.893 83.936) rotate(-45.004)" style="fill:none;stroke:#204466;stroke-miterlimit:10.000000274712036;stroke-width:1.2857100124699639px"/><rect x="59.661" y="119.227" width="4.546" height="4.546" transform="translate(-67.777 79.39) rotate(-45.004)" style="fill:none;stroke:#204466;stroke-miterlimit:10.000000274712036;stroke-width:1.2857100124699639px"/><rect x="53.233" y="119.229" width="4.546" height="4.546" transform="translate(-69.661 74.845) rotate(-45.004)" style="fill:none;stroke:#204466;stroke-miterlimit:10.000000274712036;stroke-width:1.2857100124699639px"/><rect x="66.09" y="112.799" width="4.546" height="4.546" transform="translate(-61.347 82.052) rotate(-45.004)" style="fill:none;stroke:#204466;stroke-miterlimit:10.000000274712036;stroke-width:1.2857100124699639px"/><rect x="59.661" y="112.799" width="4.546" height="4.546" transform="translate(-63.231 77.507) rotate(-45.004)" style="fill:none;stroke:#204466;stroke-miterlimit:10.000000274712036;stroke-width:1.2857100124699639px"/><rect x="53.233" y="112.799" width="4.546" height="4.546" transform="translate(-65.114 72.961) rotate(-45.004)" style="fill:none;stroke:#204466;stroke-miterlimit:10.000000274712036;stroke-width:1.2857100124699639px"/><rect x="66.089" y="106.371" width="4.546" height="4.546" transform="translate(-56.798 80.152) rotate(-44.996)" style="fill:none;stroke:#204466;stroke-miterlimit:10.000000274712036;stroke-width:1.2857100124699639px"/><rect x="59.661" y="106.371" width="4.546" height="4.546" transform="translate(-58.681 75.607) rotate(-44.996)" style="fill:none;stroke:#204466;stroke-miterlimit:10.000000274712036;stroke-width:1.2857100124699639px"/><rect x="53.234" y="106.371" width="4.546" height="4.546" transform="translate(-60.563 71.062) rotate(-44.996)" style="fill:none;stroke:#204466;stroke-miterlimit:10.000000274712036;stroke-width:1.2857100124699639px"/></g><g style="clip-path:url(#clip-path-10)"><rect x="66.09" y="125.656" width="4.546" height="4.546" transform="translate(-70.44 85.819) rotate(-45.004)" style="fill:none;stroke:#204466;stroke-miterlimit:10.000000274712036;stroke-width:1.2857100124699639px"/><rect x="59.662" y="125.657" width="4.546" height="4.546" transform="translate(-72.323 81.274) rotate(-45.004)" style="fill:none;stroke:#204466;stroke-miterlimit:10.000000274712036;stroke-width:1.2857100124699639px"/><rect x="53.233" y="125.657" width="4.546" height="4.546" transform="translate(-74.206 76.728) rotate(-45.004)" style="fill:none;stroke:#204466;stroke-miterlimit:10.000000274712036;stroke-width:1.2857100124699639px"/><rect x="66.09" y="119.227" width="4.546" height="4.546" transform="translate(-65.893 83.936) rotate(-45.004)" style="fill:none;stroke:#204466;stroke-miterlimit:10.000000274712036;stroke-width:1.2857100124699639px"/><rect x="59.661" y="119.227" width="4.546" height="4.546" transform="translate(-67.777 79.39) rotate(-45.004)" style="fill:none;stroke:#204466;stroke-miterlimit:10.000000274712036;stroke-width:1.2857100124699639px"/><rect x="53.233" y="119.229" width="4.546" height="4.546" transform="translate(-69.661 74.845) rotate(-45.004)" style="fill:none;stroke:#204466;stroke-miterlimit:10.000000274712036;stroke-width:1.2857100124699639px"/><rect x="66.09" y="112.799" width="4.546" height="4.546" transform="translate(-61.347 82.052) rotate(-45.004)" style="fill:none;stroke:#204466;stroke-miterlimit:10.000000274712036;stroke-width:1.2857100124699639px"/><rect x="59.661" y="112.799" width="4.546" height="4.546" transform="translate(-63.231 77.507) rotate(-45.004)" style="fill:none;stroke:#204466;stroke-miterlimit:10.000000274712036;stroke-width:1.2857100124699639px"/><rect x="53.233" y="112.799" width="4.546" height="4.546" transform="translate(-65.114 72.961) rotate(-45.004)" style="fill:none;stroke:#204466;stroke-miterlimit:10.000000274712036;stroke-width:1.2857100124699639px"/></g></g><path d="M71.8,122.2H65.863c-2.183,0-3.959-1.464-3.959-3.265v-13.4H75.76v13.4C75.76,120.735,73.984,122.2,71.8,122.2Zm-8.816-15.588v12.323c0,1.2,1.291,2.185,2.879,2.185H71.8c1.588,0,2.879-.98,2.879-2.185V106.611Z" style="fill:#204466"/><rect x="64.474" y="121.659" width="8.717" height="0.822" style="fill:#204466"/><path d="M33.388,104.457A9.118,9.118,0,0,1,42.5,95.349V94.023a7.477,7.477,0,0,1-.173-14.953H42.5V74.729H34.537A4.339,4.339,0,0,0,30.2,79.07v43.413H42.5v-8.918A9.117,9.117,0,0,1,33.388,104.457Z" style="fill:#ffbc5a"/><path d="M54.8,79.07a4.339,4.339,0,0,0-4.339-4.341H42.5V79.07a7.477,7.477,0,0,1,0,14.953v1.326a9.108,9.108,0,1,1,0,18.216h0v8.918H54.8Z" style="fill:#eeb149"/><path d="M48.525,86.546a6.03,6.03,0,0,1-6.029,6.03v1.447a7.477,7.477,0,0,0,0-14.953v1.447A6.029,6.029,0,0,1,48.525,86.546Z" style="fill:#ffbc5a"/><path d="M35.019,86.546A7.485,7.485,0,0,0,42.5,94.023V92.576a6.03,6.03,0,0,1-.155-12.059H42.5V79.07A7.485,7.485,0,0,0,35.019,86.546Z" style="fill:#eeb149"/><path d="M36.466,86.546a6.03,6.03,0,0,0,6.03,6.03V80.517A6.03,6.03,0,0,0,36.466,86.546Z" style="fill:#0f365a"/><path d="M48.525,86.546A6.029,6.029,0,0,0,42.5,80.517V92.576A6.031,6.031,0,0,0,48.525,86.546Z" style="fill:#274b6c"/><path d="M50.156,104.457a7.661,7.661,0,0,1-7.66,7.662h0v1.446a9.108,9.108,0,0,0,0-18.216V96.8a7.66,7.66,0,0,1,7.66,7.66Z" style="fill:#ffbc5a"/><path d="M33.388,104.457a9.117,9.117,0,0,0,9.112,9.108v-1.446a7.662,7.662,0,0,1,0-15.323V95.349A9.118,9.118,0,0,0,33.388,104.457Z" style="fill:#eeb149"/><path d="M34.835,104.457a7.661,7.661,0,0,0,7.66,7.662H42.5V96.8a7.66,7.66,0,0,0-7.665,7.655Z" style="fill:#0f365a"/><path d="M50.156,104.457A7.659,7.659,0,0,0,42.5,96.8h0v15.323a7.661,7.661,0,0,0,7.66-7.662Z" style="fill:#274b6c"/><path d="M217.946,114.418h3.114a1.06,1.06,0,0,1,1.06,1.06v.022a1.059,1.059,0,0,1-1.059,1.059h-3.114a1.059,1.059,0,0,1-1.059-1.059h0v-.022a1.059,1.059,0,0,1,1.059-1.059h0Z" style="fill:#274b6c"/><path d="M230.194,122.483H212.145a7.224,7.224,0,0,1,7.165-7.235h.722a13.62,13.62,0,0,1,10.941,5.507l.055.073a1.039,1.039,0,0,1-.834,1.655Z" style="fill:#062635"/><path d="M211.315,122.016l-1.071-.13a5.859,5.859,0,0,1,4.755-4.8c6.715-1.277,13.243,3.739,13.52,3.953l-.664.852c-.064-.05-6.436-4.927-12.654-3.744A4.742,4.742,0,0,0,211.315,122.016Z" style="fill:#193556"/><path d="M64.814,111.257c-.292.019-.5-.025-.528-.129L65.993,118l.527.122Z" style="fill:#f7daa9"/><polygon points="65.366 111.168 65.366 111.168 67.095 118.14 65.366 111.168" style="fill:#fff"/><path d="M66.273,110.634c.026.1-.138.242-.406.364l1.7,6.865L68,117.5l-1.9-7.545Z" style="fill:#f2c577"/><polygon points="66.52 118.124 66.542 118.173 67.793 120.948 67.095 118.14 66.52 118.124" style="fill:#133141"/><polygon points="65.993 118.002 67.793 120.948 66.542 118.173 65.993 118.002" style="fill:#83a7bb"/><polygon points="66.52 118.124 65.993 118.002 66.542 118.173 66.52 118.124" style="fill:#fbfbfb"/><polygon points="67.152 118.361 67.15 118.363 67.793 120.948 67.791 120.934 67.152 118.361" style="fill:#fbfbfb"/><polygon points="67.097 118.139 67.791 120.934 67.577 117.935 67.572 117.863 67.097 118.139" style="fill:#5385a0"/><rect x="67.123" y="118.136" width="0.003" height="0.229" transform="translate(-26.478 19.622) rotate(-13.921)" style="fill:#fbfbfb"/><polygon points="67.577 117.935 67.791 120.934 67.793 120.94 68.009 117.501 67.577 117.935" style="fill:#f9e4bf"/><polygon points="67.793 120.948 67.793 120.94 67.791 120.934 67.793 120.948" style="fill:#fbfbfb"/><polygon points="67.577 117.935 68.009 117.501 67.572 117.863 67.577 117.935" style="fill:#fbfbfb"/><path d="M65.366,111.168h-.01a2.93,2.93,0,0,1-.542.087l1.706,6.867.575.016Z" style="fill:#f7daa9"/><path d="M67.1,118.139l.475-.276L65.875,111a3.272,3.272,0,0,1-.5.17Z" style="fill:#f2c577"/><rect x="66.232" y="111.062" width="0.001" height="7.183" transform="translate(-25.658 19.321) rotate(-13.933)" style="fill:#f2c577"/><path d="M64.814,111.257a2.93,2.93,0,0,0,.542-.087h.01l-.072-.291h-.01a3.237,3.237,0,0,1-.427.077c-.352.039-.614,0-.644-.12l.073.291C64.312,111.232,64.522,111.276,64.814,111.257Z" style="fill:#eaeeef"/><path d="M65.867,111c.268-.122.432-.259.406-.364l-.072-.29c.026.1-.138.242-.407.362a2.92,2.92,0,0,1-.5.171l.072.291A3.247,3.247,0,0,0,65.867,111Z" style="fill:#3f5f7c"/><rect x="65.33" y="110.872" height="0.3" style="fill:#385876"/><path d="M65.2,110.491l.1.386a2.92,2.92,0,0,0,.5-.171c.269-.12.433-.257.407-.362l-.1-.388C66.144,110.117,65.741,110.353,65.2,110.491Z" style="fill:#0f365a"/><path d="M64.857,110.957a3.237,3.237,0,0,0,.427-.077h.01l-.1-.386h-.01c-.549.136-1.031.118-1.071-.042l.1.386C64.243,110.955,64.505,111,64.857,110.957Z" style="fill:#274b6c"/><path d="M65.188,110.493h.01L61.3,94.806h-.01c-.549.137,2.536,14.481,2.5,14.321l.328,1.322C64.157,110.611,64.639,110.629,65.188,110.493Z" style="fill:#fd9696"/><path d="M61.3,94.806l3.9,15.685c.543-.138.946-.374.907-.535l-.329-1.32C65.816,108.8,61.846,94.669,61.3,94.806Z" style="fill:#fd6b6b"/><path d="M61.148,94.228c-.548.136,2.6,14.741,2.641,14.9s-3.045-14.184-2.5-14.321h.01l-.144-.581Z" style="fill:#feaeae"/><path d="M61.159,94.225l.144.581c.543-.137,4.513,13.989,4.473,13.83S61.7,94.091,61.159,94.225Z" style="fill:#fd9696"/><path d="M66.52,118.124l-6.132-24.69c-.293.019-.5-.025-.529-.129l6.134,24.7Z" style="fill:#f7daa9"/><rect x="64.017" y="92.969" height="25.548" style="fill:#fff"/><path d="M68.009,117.5,61.678,92.134l.169.677c.026.1-.138.242-.407.363l6.132,24.689Z" style="fill:#f1bd64"/><path d="M67.1,118.14,60.94,93.345h-.01a3.107,3.107,0,0,1-.542.087l6.132,24.69Z" style="fill:#f9e4c1"/><path d="M67.572,117.863,61.44,93.174a3.04,3.04,0,0,1-.5.171l6.16,24.794Z" style="fill:#f2c577"/><rect x="64.017" y="92.969" width="0.001" height="25.547" transform="translate(-23.598 18.546) rotate(-13.946)" style="fill:#f2c577"/><path d="M60.388,93.434a3.107,3.107,0,0,0,.542-.087h.01l-.072-.291h-.01a3.237,3.237,0,0,1-.427.077c-.352.038-.615,0-.643-.12l.071.291C59.885,93.409,60.1,93.453,60.388,93.434Z" style="fill:#eaeeef"/><path d="M61.44,93.174c.269-.121.433-.259.407-.363l-.073-.29c.026.1-.137.242-.406.363a3.036,3.036,0,0,1-.5.17l.072.291A3.04,3.04,0,0,0,61.44,93.174Z" style="fill:#3f5f7c"/><rect x="60.904" y="93.049" height="0.3" style="fill:#385876"/><path d="M60.772,92.667l.1.387a3.036,3.036,0,0,0,.5-.17c.269-.121.432-.259.406-.363l-.1-.387C61.718,92.293,61.315,92.531,60.772,92.667Z" style="fill:#0f365a"/><path d="M60.431,93.134a3.237,3.237,0,0,0,.427-.077h.01l-.1-.387h-.01c-.549.137-1.031.119-1.071-.042l.1.387C59.816,93.131,60.079,93.172,60.431,93.134Z" style="fill:#274b6c"/><path d="M60.762,92.669h.01l-.329-1.321h-.009c-.549.136-1.031.117-1.071-.043l.328,1.321C59.731,92.788,60.213,92.806,60.762,92.669Z" style="fill:#fd9d9d"/><path d="M60.443,91.346l.329,1.321c.543-.136.946-.374.906-.533l-.328-1.321C61.39,90.972,60.987,91.209,60.443,91.346Z" style="fill:#fd6c6c"/><path d="M60.289,90.768c-.549.136-.966.378-.926.538s.522.179,1.071.043h.009l-.144-.581Z" style="fill:#feaeae"/><path d="M60.3,90.765l.144.581c.544-.137.947-.374.907-.533S60.844,90.632,60.3,90.765Z" style="fill:#fd9696"/><path d="M67.683,120.75l.134.541c.027.109.1.184.162.169l-.179-.737Z" style="fill:#fd7979"/><path d="M67.8,120.723l.183.737h0c.062-.015.09-.116.063-.225l-.135-.54Z" style="fill:#fc4a4a"/><polygon points="70.406 120.831 70.516 115.251 72.472 115.647 70.406 120.831" style="fill:#195c8f"/><path d="M76.581,90.275l-1-.2q-1.73,7.11-3.129,14.3l1.228.248Z" style="fill:#f1bd66"/><path d="M77.58,90.477l-1-.2-2.9,14.346,1.229.249Q76.4,97.7,77.58,90.477Z" style="fill:#eeb149"/><path d="M71.494,115.449l1,.2c.871-3.578,1.669-7.177,2.418-10.781l-1.229-.249Z" style="fill:#f2c373"/><path d="M72.454,104.373c-.71,3.613-1.371,7.239-1.957,10.875l1,.2,2.188-10.828Z" style="fill:#f5d397"/><path d="M76.723,104.228a.4.4,0,0,1-.288-.236,3.305,3.305,0,0,1-.122-1.573,48.991,48.991,0,0,1,1.159-4.765c.3-1.109.576-2.155.654-2.538.157-.783.334-3.006.4-3.943l-3.044-.615a.5.5,0,0,1,.2-.969l3.79.766-.03.425c-.009.139-.237,3.443-.453,4.51-.084.417-.355,1.431-.67,2.6-.454,1.7-1.077,4.025-1.124,4.573a2.881,2.881,0,0,0,.039,1.063.542.542,0,0,1-.226.65A.416.416,0,0,1,76.723,104.228Z" style="fill:#195c8f"/><rect x="61.222" y="104.342" width="15.221" height="1.727" style="fill:#204466"/><g style="clip-path:url(#clip-path)"><g style="clip-path:url(#clip-path-2)"><rect x="78.947" y="112.8" width="4.546" height="4.546" transform="translate(-57.583 91.155) rotate(-45.008)" style="fill:none;stroke:#204466;stroke-miterlimit:9.999999926284637;stroke-width:1.2857099676723056px"/><rect x="72.518" y="112.799" width="4.546" height="4.546" transform="translate(-59.464 86.598) rotate(-45.004)" style="fill:none;stroke:#204466;stroke-miterlimit:10.000000274712036;stroke-width:1.2857100124699639px"/><rect x="66.09" y="112.799" width="4.546" height="4.546" transform="translate(-61.347 82.052) rotate(-45.004)" style="fill:none;stroke:#204466;stroke-miterlimit:10.000000274712036;stroke-width:1.2857100124699639px"/><rect x="78.947" y="106.371" width="4.546" height="4.546" transform="translate(-53.034 89.252) rotate(-45)" style="fill:none;stroke:#204466;stroke-miterlimit:9.99999982885729;stroke-width:1.2857099551459743px"/><rect x="72.518" y="106.371" width="4.546" height="4.546" transform="translate(-54.915 84.697) rotate(-44.996)" style="fill:none;stroke:#204466;stroke-miterlimit:10.000000274712036;stroke-width:1.2857100124699639px"/><rect x="66.089" y="106.371" width="4.546" height="4.546" transform="translate(-56.798 80.152) rotate(-44.996)" style="fill:none;stroke:#204466;stroke-miterlimit:10.000000274712036;stroke-width:1.2857100124699639px"/><rect x="78.947" y="99.942" width="4.546" height="4.546" transform="translate(-48.488 87.369) rotate(-45)" style="fill:none;stroke:#204466;stroke-miterlimit:9.99999982885729;stroke-width:1.2857099551459743px"/><rect x="72.517" y="99.942" width="4.546" height="4.546" transform="translate(-50.37 82.814) rotate(-44.996)" style="fill:none;stroke:#204466;stroke-miterlimit:10.000000274712036;stroke-width:1.2857100124699639px"/><rect x="66.09" y="99.941" width="4.546" height="4.546" transform="translate(-52.252 78.269) rotate(-44.996)" style="fill:none;stroke:#204466;stroke-miterlimit:10.000000274712036;stroke-width:1.2857100124699639px"/></g><g style="clip-path:url(#clip-path-3)"><rect x="78.947" y="119.229" width="4.546" height="4.546" transform="translate(-62.13 93.038) rotate(-45.008)" style="fill:none;stroke:#204466;stroke-miterlimit:9.999999926284637;stroke-width:1.2857099676723056px"/><rect x="72.518" y="119.228" width="4.546" height="4.546" transform="translate(-64.01 88.482) rotate(-45.004)" style="fill:none;stroke:#204466;stroke-miterlimit:10.000000274712036;stroke-width:1.2857100124699639px"/><rect x="66.09" y="119.227" width="4.546" height="4.546" transform="translate(-65.893 83.936) rotate(-45.004)" style="fill:none;stroke:#204466;stroke-miterlimit:10.000000274712036;stroke-width:1.2857100124699639px"/><rect x="78.947" y="112.8" width="4.546" height="4.546" transform="translate(-57.583 91.155) rotate(-45.008)" style="fill:none;stroke:#204466;stroke-miterlimit:9.999999926284637;stroke-width:1.2857099676723056px"/><rect x="72.518" y="112.799" width="4.546" height="4.546" transform="translate(-59.464 86.598) rotate(-45.004)" style="fill:none;stroke:#204466;stroke-miterlimit:10.000000274712036;stroke-width:1.2857100124699639px"/><rect x="66.09" y="112.799" width="4.546" height="4.546" transform="translate(-61.347 82.052) rotate(-45.004)" style="fill:none;stroke:#204466;stroke-miterlimit:10.000000274712036;stroke-width:1.2857100124699639px"/><rect x="78.947" y="106.371" width="4.546" height="4.546" transform="translate(-53.034 89.252) rotate(-45)" style="fill:none;stroke:#204466;stroke-miterlimit:9.99999982885729;stroke-width:1.2857099551459743px"/><rect x="72.518" y="106.371" width="4.546" height="4.546" transform="translate(-54.915 84.697) rotate(-44.996)" style="fill:none;stroke:#204466;stroke-miterlimit:10.000000274712036;stroke-width:1.2857100124699639px"/><rect x="66.089" y="106.371" width="4.546" height="4.546" transform="translate(-56.798 80.152) rotate(-44.996)" style="fill:none;stroke:#204466;stroke-miterlimit:10.000000274712036;stroke-width:1.2857100124699639px"/></g><g style="clip-path:url(#clip-path-4)"><rect x="78.948" y="125.657" width="4.546" height="4.546" transform="translate(-66.676 94.922) rotate(-45.008)" style="fill:none;stroke:#204466;stroke-miterlimit:9.999999926284637;stroke-width:1.2857099676723056px"/><rect x="72.518" y="125.657" width="4.546" height="4.546" transform="translate(-68.557 90.365) rotate(-45.004)" style="fill:none;stroke:#204466;stroke-miterlimit:10.000000274712036;stroke-width:1.2857100124699639px"/><rect x="66.09" y="125.656" width="4.546" height="4.546" transform="translate(-70.44 85.819) rotate(-45.004)" style="fill:none;stroke:#204466;stroke-miterlimit:10.000000274712036;stroke-width:1.2857100124699639px"/><rect x="78.947" y="119.229" width="4.546" height="4.546" transform="translate(-62.13 93.038) rotate(-45.008)" style="fill:none;stroke:#204466;stroke-miterlimit:9.999999926284637;stroke-width:1.2857099676723056px"/><rect x="72.518" y="119.228" width="4.546" height="4.546" transform="translate(-64.01 88.482) rotate(-45.004)" style="fill:none;stroke:#204466;stroke-miterlimit:10.000000274712036;stroke-width:1.2857100124699639px"/><rect x="66.09" y="119.227" width="4.546" height="4.546" transform="translate(-65.893 83.936) rotate(-45.004)" style="fill:none;stroke:#204466;stroke-miterlimit:10.000000274712036;stroke-width:1.2857100124699639px"/><rect x="78.947" y="112.8" width="4.546" height="4.546" transform="translate(-57.583 91.155) rotate(-45.008)" style="fill:none;stroke:#204466;stroke-miterlimit:9.999999926284637;stroke-width:1.2857099676723056px"/><rect x="72.518" y="112.799" width="4.546" height="4.546" transform="translate(-59.464 86.598) rotate(-45.004)" style="fill:none;stroke:#204466;stroke-miterlimit:10.000000274712036;stroke-width:1.2857100124699639px"/><rect x="66.09" y="112.799" width="4.546" height="4.546" transform="translate(-61.347 82.052) rotate(-45.004)" style="fill:none;stroke:#204466;stroke-miterlimit:10.000000274712036;stroke-width:1.2857100124699639px"/></g><g style="clip-path:url(#clip-path-5)"><rect x="72.518" y="112.799" width="4.546" height="4.546" transform="translate(-59.464 86.598) rotate(-45.004)" style="fill:none;stroke:#204466;stroke-miterlimit:10.000000274712036;stroke-width:1.2857100124699639px"/><rect x="66.09" y="112.799" width="4.546" height="4.546" transform="translate(-61.347 82.052) rotate(-45.004)" style="fill:none;stroke:#204466;stroke-miterlimit:10.000000274712036;stroke-width:1.2857100124699639px"/><rect x="59.661" y="112.799" width="4.546" height="4.546" transform="translate(-63.231 77.507) rotate(-45.004)" style="fill:none;stroke:#204466;stroke-miterlimit:10.000000274712036;stroke-width:1.2857100124699639px"/><rect x="72.518" y="106.371" width="4.546" height="4.546" transform="translate(-54.915 84.697) rotate(-44.996)" style="fill:none;stroke:#204466;stroke-miterlimit:10.000000274712036;stroke-width:1.2857100124699639px"/><rect x="66.089" y="106.371" width="4.546" height="4.546" transform="translate(-56.798 80.152) rotate(-44.996)" style="fill:none;stroke:#204466;stroke-miterlimit:10.000000274712036;stroke-width:1.2857100124699639px"/><rect x="59.661" y="106.371" width="4.546" height="4.546" transform="translate(-58.681 75.607) rotate(-44.996)" style="fill:none;stroke:#204466;stroke-miterlimit:10.000000274712036;stroke-width:1.2857100124699639px"/><rect x="72.517" y="99.942" width="4.546" height="4.546" transform="translate(-50.37 82.814) rotate(-44.996)" style="fill:none;stroke:#204466;stroke-miterlimit:10.000000274712036;stroke-width:1.2857100124699639px"/><rect x="66.09" y="99.941" width="4.546" height="4.546" transform="translate(-52.252 78.269) rotate(-44.996)" style="fill:none;stroke:#204466;stroke-miterlimit:10.000000274712036;stroke-width:1.2857100124699639px"/><rect x="59.66" y="99.942" width="4.546" height="4.546" transform="translate(-54.135 73.724) rotate(-44.996)" style="fill:none;stroke:#204466;stroke-miterlimit:10.000000274712036;stroke-width:1.2857100124699639px"/></g><g style="clip-path:url(#clip-path-6)"><rect x="72.518" y="119.228" width="4.546" height="4.546" transform="translate(-64.01 88.482) rotate(-45.004)" style="fill:none;stroke:#204466;stroke-miterlimit:10.000000274712036;stroke-width:1.2857100124699639px"/><rect x="66.09" y="119.227" width="4.546" height="4.546" transform="translate(-65.893 83.936) rotate(-45.004)" style="fill:none;stroke:#204466;stroke-miterlimit:10.000000274712036;stroke-width:1.2857100124699639px"/><rect x="59.661" y="119.227" width="4.546" height="4.546" transform="translate(-67.777 79.39) rotate(-45.004)" style="fill:none;stroke:#204466;stroke-miterlimit:10.000000274712036;stroke-width:1.2857100124699639px"/><rect x="72.518" y="112.799" width="4.546" height="4.546" transform="translate(-59.464 86.598) rotate(-45.004)" style="fill:none;stroke:#204466;stroke-miterlimit:10.000000274712036;stroke-width:1.2857100124699639px"/><rect x="66.09" y="112.799" width="4.546" height="4.546" transform="translate(-61.347 82.052) rotate(-45.004)" style="fill:none;stroke:#204466;stroke-miterlimit:10.000000274712036;stroke-width:1.2857100124699639px"/><rect x="59.661" y="112.799" width="4.546" height="4.546" transform="translate(-63.231 77.507) rotate(-45.004)" style="fill:none;stroke:#204466;stroke-miterlimit:10.000000274712036;stroke-width:1.2857100124699639px"/><rect x="72.518" y="106.371" width="4.546" height="4.546" transform="translate(-54.915 84.697) rotate(-44.996)" style="fill:none;stroke:#204466;stroke-miterlimit:10.000000274712036;stroke-width:1.2857100124699639px"/><rect x="66.089" y="106.371" width="4.546" height="4.546" transform="translate(-56.798 80.152) rotate(-44.996)" style="fill:none;stroke:#204466;stroke-miterlimit:10.000000274712036;stroke-width:1.2857100124699639px"/><rect x="59.661" y="106.371" width="4.546" height="4.546" transform="translate(-58.681 75.607) rotate(-44.996)" style="fill:none;stroke:#204466;stroke-miterlimit:10.000000274712036;stroke-width:1.2857100124699639px"/></g><g style="clip-path:url(#clip-path-7)"><rect x="72.518" y="125.657" width="4.546" height="4.546" transform="translate(-68.557 90.365) rotate(-45.004)" style="fill:none;stroke:#204466;stroke-miterlimit:10.000000274712036;stroke-width:1.2857100124699639px"/><rect x="66.09" y="125.656" width="4.546" height="4.546" transform="translate(-70.44 85.819) rotate(-45.004)" style="fill:none;stroke:#204466;stroke-miterlimit:10.000000274712036;stroke-width:1.2857100124699639px"/><rect x="59.662" y="125.657" width="4.546" height="4.546" transform="translate(-72.323 81.274) rotate(-45.004)" style="fill:none;stroke:#204466;stroke-miterlimit:10.000000274712036;stroke-width:1.2857100124699639px"/><rect x="72.518" y="119.228" width="4.546" height="4.546" transform="translate(-64.01 88.482) rotate(-45.004)" style="fill:none;stroke:#204466;stroke-miterlimit:10.000000274712036;stroke-width:1.2857100124699639px"/><rect x="66.09" y="119.227" width="4.546" height="4.546" transform="translate(-65.893 83.936) rotate(-45.004)" style="fill:none;stroke:#204466;stroke-miterlimit:10.000000274712036;stroke-width:1.2857100124699639px"/><rect x="59.661" y="119.227" width="4.546" height="4.546" transform="translate(-67.777 79.39) rotate(-45.004)" style="fill:none;stroke:#204466;stroke-miterlimit:10.000000274712036;stroke-width:1.2857100124699639px"/><rect x="72.518" y="112.799" width="4.546" height="4.546" transform="translate(-59.464 86.598) rotate(-45.004)" style="fill:none;stroke:#204466;stroke-miterlimit:10.000000274712036;stroke-width:1.2857100124699639px"/><rect x="66.09" y="112.799" width="4.546" height="4.546" transform="translate(-61.347 82.052) rotate(-45.004)" style="fill:none;stroke:#204466;stroke-miterlimit:10.000000274712036;stroke-width:1.2857100124699639px"/><rect x="59.661" y="112.799" width="4.546" height="4.546" transform="translate(-63.231 77.507) rotate(-45.004)" style="fill:none;stroke:#204466;stroke-miterlimit:10.000000274712036;stroke-width:1.2857100124699639px"/></g><g style="clip-path:url(#clip-path-8)"><rect x="66.09" y="112.799" width="4.546" height="4.546" transform="translate(-61.347 82.052) rotate(-45.004)" style="fill:none;stroke:#204466;stroke-miterlimit:10.000000274712036;stroke-width:1.2857100124699639px"/><rect x="59.661" y="112.799" width="4.546" height="4.546" transform="translate(-63.231 77.507) rotate(-45.004)" style="fill:none;stroke:#204466;stroke-miterlimit:10.000000274712036;stroke-width:1.2857100124699639px"/><rect x="53.233" y="112.799" width="4.546" height="4.546" transform="translate(-65.114 72.961) rotate(-45.004)" style="fill:none;stroke:#204466;stroke-miterlimit:10.000000274712036;stroke-width:1.2857100124699639px"/><rect x="66.089" y="106.371" width="4.546" height="4.546" transform="translate(-56.798 80.152) rotate(-44.996)" style="fill:none;stroke:#204466;stroke-miterlimit:10.000000274712036;stroke-width:1.2857100124699639px"/><rect x="59.661" y="106.371" width="4.546" height="4.546" transform="translate(-58.681 75.607) rotate(-44.996)" style="fill:none;stroke:#204466;stroke-miterlimit:10.000000274712036;stroke-width:1.2857100124699639px"/><rect x="53.234" y="106.371" width="4.546" height="4.546" transform="translate(-60.563 71.062) rotate(-44.996)" style="fill:none;stroke:#204466;stroke-miterlimit:10.000000274712036;stroke-width:1.2857100124699639px"/><rect x="66.09" y="99.941" width="4.546" height="4.546" transform="translate(-52.252 78.269) rotate(-44.996)" style="fill:none;stroke:#204466;stroke-miterlimit:10.000000274712036;stroke-width:1.2857100124699639px"/><rect x="59.66" y="99.942" width="4.546" height="4.546" transform="translate(-54.135 73.724) rotate(-44.996)" style="fill:none;stroke:#204466;stroke-miterlimit:10.000000274712036;stroke-width:1.2857100124699639px"/><rect x="53.233" y="99.943" width="4.546" height="4.546" transform="translate(-56.018 69.179) rotate(-44.996)" style="fill:none;stroke:#204466;stroke-miterlimit:10.000000274712036;stroke-width:1.2857100124699639px"/></g><g style="clip-path:url(#clip-path-9)"><rect x="66.09" y="119.227" width="4.546" height="4.546" transform="translate(-65.893 83.936) rotate(-45.004)" style="fill:none;stroke:#204466;stroke-miterlimit:10.000000274712036;stroke-width:1.2857100124699639px"/><rect x="59.661" y="119.227" width="4.546" height="4.546" transform="translate(-67.777 79.39) rotate(-45.004)" style="fill:none;stroke:#204466;stroke-miterlimit:10.000000274712036;stroke-width:1.2857100124699639px"/><rect x="53.233" y="119.229" width="4.546" height="4.546" transform="translate(-69.661 74.845) rotate(-45.004)" style="fill:none;stroke:#204466;stroke-miterlimit:10.000000274712036;stroke-width:1.2857100124699639px"/><rect x="66.09" y="112.799" width="4.546" height="4.546" transform="translate(-61.347 82.052) rotate(-45.004)" style="fill:none;stroke:#204466;stroke-miterlimit:10.000000274712036;stroke-width:1.2857100124699639px"/><rect x="59.661" y="112.799" width="4.546" height="4.546" transform="translate(-63.231 77.507) rotate(-45.004)" style="fill:none;stroke:#204466;stroke-miterlimit:10.000000274712036;stroke-width:1.2857100124699639px"/><rect x="53.233" y="112.799" width="4.546" height="4.546" transform="translate(-65.114 72.961) rotate(-45.004)" style="fill:none;stroke:#204466;stroke-miterlimit:10.000000274712036;stroke-width:1.2857100124699639px"/><rect x="66.089" y="106.371" width="4.546" height="4.546" transform="translate(-56.798 80.152) rotate(-44.996)" style="fill:none;stroke:#204466;stroke-miterlimit:10.000000274712036;stroke-width:1.2857100124699639px"/><rect x="59.661" y="106.371" width="4.546" height="4.546" transform="translate(-58.681 75.607) rotate(-44.996)" style="fill:none;stroke:#204466;stroke-miterlimit:10.000000274712036;stroke-width:1.2857100124699639px"/><rect x="53.234" y="106.371" width="4.546" height="4.546" transform="translate(-60.563 71.062) rotate(-44.996)" style="fill:none;stroke:#204466;stroke-miterlimit:10.000000274712036;stroke-width:1.2857100124699639px"/></g><g style="clip-path:url(#clip-path-10)"><rect x="66.09" y="125.656" width="4.546" height="4.546" transform="translate(-70.44 85.819) rotate(-45.004)" style="fill:none;stroke:#204466;stroke-miterlimit:10.000000274712036;stroke-width:1.2857100124699639px"/><rect x="59.662" y="125.657" width="4.546" height="4.546" transform="translate(-72.323 81.274) rotate(-45.004)" style="fill:none;stroke:#204466;stroke-miterlimit:10.000000274712036;stroke-width:1.2857100124699639px"/><rect x="53.233" y="125.657" width="4.546" height="4.546" transform="translate(-74.206 76.728) rotate(-45.004)" style="fill:none;stroke:#204466;stroke-miterlimit:10.000000274712036;stroke-width:1.2857100124699639px"/><rect x="66.09" y="119.227" width="4.546" height="4.546" transform="translate(-65.893 83.936) rotate(-45.004)" style="fill:none;stroke:#204466;stroke-miterlimit:10.000000274712036;stroke-width:1.2857100124699639px"/><rect x="59.661" y="119.227" width="4.546" height="4.546" transform="translate(-67.777 79.39) rotate(-45.004)" style="fill:none;stroke:#204466;stroke-miterlimit:10.000000274712036;stroke-width:1.2857100124699639px"/><rect x="53.233" y="119.229" width="4.546" height="4.546" transform="translate(-69.661 74.845) rotate(-45.004)" style="fill:none;stroke:#204466;stroke-miterlimit:10.000000274712036;stroke-width:1.2857100124699639px"/><rect x="66.09" y="112.799" width="4.546" height="4.546" transform="translate(-61.347 82.052) rotate(-45.004)" style="fill:none;stroke:#204466;stroke-miterlimit:10.000000274712036;stroke-width:1.2857100124699639px"/><rect x="59.661" y="112.799" width="4.546" height="4.546" transform="translate(-63.231 77.507) rotate(-45.004)" style="fill:none;stroke:#204466;stroke-miterlimit:10.000000274712036;stroke-width:1.2857100124699639px"/><rect x="53.233" y="112.799" width="4.546" height="4.546" transform="translate(-65.114 72.961) rotate(-45.004)" style="fill:none;stroke:#204466;stroke-miterlimit:10.000000274712036;stroke-width:1.2857100124699639px"/></g></g><path d="M71.8,122.2H65.863c-2.183,0-3.959-1.464-3.959-3.265v-13.4H75.76v13.4C75.76,120.735,73.984,122.2,71.8,122.2Zm-8.816-15.588v12.323c0,1.2,1.291,2.185,2.879,2.185H71.8c1.588,0,2.879-.98,2.879-2.185V106.611Z" style="fill:#204466"/><rect x="64.474" y="121.659" width="8.717" height="0.822" style="fill:#204466"/><path d="M199.824,105.414c-.026.006-.012-.008-.089,0a1.921,1.921,0,0,0-.331.037,1.646,1.646,0,0,0-.981.525,1.569,1.569,0,0,0-.325.762c-.021.408-.042.837-.065,1.282-.045.887-.094,1.835-.143,2.782l-.382,7.579-.384-7.579c-.047-.947-.095-1.895-.14-2.782-.023-.445-.045-.874-.065-1.282a3.074,3.074,0,0,1,.177-1.451,3.329,3.329,0,0,1,1.564-1.667,3.965,3.965,0,0,1,.584-.259c.138-.05.27-.078.245-.074Z" style="fill:#8dc63f"/><path d="M197.508,123.22a10.3,10.3,0,0,1-1.4.553c-2.911.558-5.5-2.121-6.027-5.037l-.909-2.826c-.678-3.756,2.235-7.66,6.026-7.21.588.07,2.305.554,2.305.554Z" style="fill:#fc4a4a"/><path d="M197.508,123.22a10.266,10.266,0,0,0,1.4.553c2.91.558,5.5-2.121,6.027-5.037l.909-2.826c.677-3.756-2.237-7.66-6.028-7.21-.588.07-2.3.554-2.3.554V123.22Z" style="fill:#fc4a4a"/><path d="M192.742,114.686h-.007a2.543,2.543,0,0,1-.808-2.166,3.611,3.611,0,0,1,.338-1.23,1.64,1.64,0,0,1,2.211-.856l.017.012c.47.356-.089.862-.747,1.619a3.041,3.041,0,0,0-.557.946C192.811,113.916,192.923,114.71,192.742,114.686Z" style="fill:#ffc2c2"/><polygon points="155.77 117.949 128.487 117.949 131.305 106.65 152.952 106.65 155.77 117.949" style="fill:#062635"/><path d="M170.292,122.247H116.274V121.6a4.688,4.688,0,0,1,4.688-4.688H165.6a4.688,4.688,0,0,1,4.688,4.688Z" style="fill:#133141"/><rect x="81.641" y="33.893" width="118.885" height="75.192" style="fill:#133141"/><rect x="84.459" y="36.711" width="113.249" height="66.099" style="fill:#c1f4f0"/><g style="mix-blend-mode:multiply"><rect x="84.459" y="36.711" width="1.252" height="66.099" style="fill:#ace4e1"/></g><polygon points="201.778 110.242 200.525 110.242 200.525 33.893 201.778 35.03 201.778 110.242" style="fill:#062635"/><g style="mix-blend-mode:multiply"><rect x="85.711" y="36.711" width="111.997" height="1.252" style="fill:#ace4e1"/></g><polygon points="200.525 108.99 200.525 110.242 82.753 110.242 81.641 108.99 200.525 108.99" style="fill:#062635"/><path d="M194.508,106.14a1.826,1.826,0,1,1-1.826-1.827A1.825,1.825,0,0,1,194.508,106.14Z" style="fill:#062635"/><rect x="170.292" y="106.146" width="3.395" height="1.009" style="fill:#062635"/><rect x="175.12" y="106.146" width="3.395" height="1.009" style="fill:#062635"/><rect x="179.95" y="106.146" width="3.395" height="1.009" style="fill:#062635"/><rect x="184.777" y="106.146" width="3.395" height="1.009" style="fill:#062635"/><g style="mix-blend-mode:screen"><polygon points="119.674 38.001 85.711 71.964 85.755 69.002 116.794 37.963 119.674 38.001" style="fill:#c1f4f0"/></g><g style="mix-blend-mode:screen"><polygon points="140.147 37.963 85.711 92.399 85.711 84.477 132.225 37.963 140.147 37.963" style="fill:#c1f4f0"/></g><polygon points="155.77 117.949 128.487 117.949 131.305 106.65 152.952 106.65 155.77 117.949" style="fill:#062635"/><path d="M170.292,122.247H116.274V121.6a4.688,4.688,0,0,1,4.688-4.688H165.6a4.688,4.688,0,0,1,4.688,4.688Z" style="fill:#133141"/><rect x="81.641" y="33.893" width="118.885" height="75.192" style="fill:#133141"/><rect x="84.459" y="36.711" width="113.249" height="66.099" style="fill:#2f6fb6"/><g style="mix-blend-mode:multiply"><rect x="84.459" y="36.711" width="1.252" height="66.099" style="fill:#ace4e1"/></g><polygon points="201.778 110.242 200.525 110.242 200.525 33.893 201.778 35.03 201.778 110.242" style="fill:#062635"/><g style="mix-blend-mode:multiply"><rect x="85.711" y="36.711" width="111.997" height="1.252" style="fill:#ace4e1"/></g><polygon points="200.525 108.99 200.525 110.242 82.753 110.242 81.641 108.99 200.525 108.99" style="fill:#062635"/><path d="M194.508,106.14a1.826,1.826,0,1,1-1.826-1.827A1.825,1.825,0,0,1,194.508,106.14Z" style="fill:#062635"/><rect x="170.292" y="106.146" width="3.395" height="1.009" style="fill:#062635"/><rect x="175.12" y="106.146" width="3.395" height="1.009" style="fill:#062635"/><rect x="179.95" y="106.146" width="3.395" height="1.009" style="fill:#062635"/><rect x="184.777" y="106.146" width="3.395" height="1.009" style="fill:#062635"/><path d="M198.68,36.711a7.148,7.148,0,0,1-.358,1.671v64.5H84.554V36.711H81.723V108.9H201.152V36.711Z" style="fill:#133141"/><g style="mix-blend-mode:screen;opacity:0.62"><polygon points="121.158 36.127 85.836 71.449 85.911 68.397 118.192 36.116 121.158 36.127" style="fill:#c1f4f0"/></g><g style="mix-blend-mode:screen;opacity:0.62"><polygon points="140.887 37.223 85.711 92.399 86.396 85.054 133.542 37.908 140.887 37.223" style="fill:#c1f4f0"/></g><circle cx="123.832" cy="95.649" r="4.026" style="fill:url(#linear-gradient)"/><path d="M125.469,94.754l-.836.451v-.4a.24.24,0,0,0-.24-.24h-2.054a.239.239,0,0,0-.239.24V96.5a.239.239,0,0,0,.239.24h2.054a.24.24,0,0,0,.24-.24v-.4l.836.451a.064.064,0,0,0,.095-.057V94.811A.065.065,0,0,0,125.469,94.754Z" style="fill:url(#linear-gradient-2)"/><circle cx="134.299" cy="95.649" r="4.026" style="fill:url(#linear-gradient-3)"/><rect x="133.504" y="93.765" width="1.59" height="2.623" rx="0.795" style="fill:url(#linear-gradient-4)"/><path d="M135.386,95.77a.959.959,0,0,1-1.089.943c-.525,0-1.085-.244-1.085-.931h-.29A1.194,1.194,0,0,0,134.152,97v.535h.29V97a1.216,1.216,0,0,0,1.234-1.228Z" style="fill:url(#linear-gradient-5)"/><circle cx="144.766" cy="95.649" r="4.026" style="fill:url(#linear-gradient-6)"/><path d="M144.442,95.969h0a.981.981,0,1,0-.982-.981A.974.974,0,0,0,144.442,95.969Z" style="fill:url(#linear-gradient-7)"/><path d="M145.261,96.056a1.256,1.256,0,0,1-1.595,0,.067.067,0,0,0-.1.008,2.239,2.239,0,0,0-.449,1.148.067.067,0,0,0,.067.075H145.7a.067.067,0,0,0,.068-.074,2.245,2.245,0,0,0-.409-1.153A.068.068,0,0,0,145.261,96.056Z" style="fill:url(#linear-gradient-8)"/><path d="M146.915,95.416h-.42V95a.049.049,0,0,0-.049-.049h-.207a.049.049,0,0,0-.049.049v.42h-.421a.049.049,0,0,0-.049.049v.207a.049.049,0,0,0,.049.049h.421v.42a.049.049,0,0,0,.049.049h.207a.049.049,0,0,0,.049-.049v-.42h.42a.049.049,0,0,0,.049-.049v-.207A.049.049,0,0,0,146.915,95.416Z" style="fill:url(#linear-gradient-9)"/><circle cx="155.233" cy="95.649" r="4.026" style="fill:url(#linear-gradient-10)"/><circle cx="153.827" cy="95.649" r="0.451" style="fill:url(#linear-gradient-11)"/><circle cx="155.233" cy="95.649" r="0.451" style="fill:url(#linear-gradient-12)"/><circle cx="156.638" cy="95.649" r="0.451" style="fill:url(#linear-gradient-13)"/><path d="M194.883,32.343c-1.23,30.994-46.312,30.73-46.312,30.73L125.577,74.417s5.449-12.337,4.7-12.471A70.4,70.4,0,0,1,119.623,59.2C104.319,53.9,93.99,43.859,93.99,32.343c0-17.029,22.586-30.833,50.447-30.833S195.558,15.327,194.883,32.343Z" style="fill:#eaeeef"/><path d="M114.058,31.058a2.258,2.258,0,0,1-4.506,0,2.256,2.256,0,0,1,4.506,0Zm-.071,14.291h-4.364l.726-10.537h2.91Z" style="fill:#3dad52"/><path d="M132.2,25.308V41.735h-3.8V35h-7.462v6.735h-3.8V25.308h3.8v6.477H128.4V25.308Z" style="fill:#3dad52"/><path d="M134.91,35.423c0-3.8,2.932-6.5,6.945-6.5s6.923,2.7,6.923,6.5-2.911,6.5-6.923,6.5S134.91,39.224,134.91,35.423Zm10.161,0a3.238,3.238,0,1,0-6.455,0,3.238,3.238,0,1,0,6.455,0Z" style="fill:#3dad52"/><path d="M151.227,24.323h3.661V41.735h-3.661Z" style="fill:#3dad52"/><path d="M169.465,34.53v7.2h-3.426V40.162c-.68,1.15-1.995,1.76-3.848,1.76-2.956,0-4.718-1.642-4.718-3.824,0-2.23,1.573-3.779,5.421-3.779h2.91c0-1.571-.938-2.487-2.91-2.487a6.061,6.061,0,0,0-3.636,1.173l-1.315-2.558a9.71,9.71,0,0,1,5.444-1.525C167.235,28.922,169.465,30.706,169.465,34.53ZM165.8,37.745V36.454h-2.511c-1.712,0-2.253.635-2.253,1.479,0,.915.774,1.525,2.066,1.525A2.7,2.7,0,0,0,165.8,37.745Z" style="fill:#3dad52"/><path d="M172.243,39.787a2.259,2.259,0,0,1,4.5,0,2.256,2.256,0,0,1-4.5,0Zm.071-14.479h4.364l-.728,10.724h-2.91Z" style="fill:#3dad52"/><rect x="236.899" y="119.139" width="41.417" height="3.108" rx="1.538" style="fill:#eb585a"/><rect x="249.01" y="101.684" width="39.381" height="0.935" transform="translate(82.069 320.792) rotate(-70.331)" style="fill:#eb585a"/><rect x="241.865" y="100.871" width="40.795" height="0.934" transform="translate(83.333 318.214) rotate(-71.603)" style="fill:#eb585a"/><polygon points="268.701 81.984 275.328 83.608 270.088 76.336 268.267 77.793 268.701 81.984" style="fill:#eb585a"/><path d="M275.216,84.062l-6.626-1.626a.465.465,0,0,1-.354-.405l-.434-4.19a.471.471,0,0,1,.172-.413l1.824-1.457a.466.466,0,0,1,.668.092l5.241,7.275a.466.466,0,0,1-.379.738A.484.484,0,0,1,275.216,84.062ZM268.756,78l.375,3.61,5.078,1.246L270,77.007Z" style="fill:#eb585a"/><rect x="258.604" y="47.209" width="0.934" height="33.293" transform="translate(22.501 187.267) rotate(-41.396)" style="fill:#eb585a"/><rect x="256.64" y="49.523" width="0.934" height="32.675" transform="translate(24.448 193.576) rotate(-43.132)" style="fill:#eb585a"/><polygon points="242.852 52.652 245.948 53.927 248.054 51.377 244.127 51.377 242.852 52.652" style="fill:#eb585a"/><path d="M245.771,54.359l-3.1-1.276a.466.466,0,0,1-.152-.761l1.277-1.275a.46.46,0,0,1,.329-.137h3.927a.467.467,0,0,1,.361.764l-2.106,2.55a.466.466,0,0,1-.361.17A.458.458,0,0,1,245.771,54.359Zm-1.451-2.516-.643.644,2.131.878,1.256-1.522Z" style="fill:#eb585a"/><path d="M237.191,52.652V51.377a.469.469,0,0,1,.469-.467h6.467a.467.467,0,0,1,.466.467v1.275a.466.466,0,0,1-.466.465H237.66A.468.468,0,0,1,237.191,52.652Zm6.47-.809h-5.534v.342h5.534Z" style="fill:#eb585a"/><path d="M234.245,48.349a1.958,1.958,0,0,1,2.348-1.469l.827.192-2.334,9.558-2.613-.6Z" style="fill:#eb585a"/><path d="M238.014,47.208a1.959,1.959,0,0,1,1.467,2.349l-1.77,7.677-2.625-.6,2.334-9.558Z" style="fill:#eb585a"/><path d="M237.2,57.118a6.8,6.8,0,0,1,5.229,7.406l-1.52,13.269L230.5,75.39l4.582-18.76Z" style="fill:#eb585a"/><path d="M225.033,60.508a6.807,6.807,0,0,1,7.948-4.365l2.105.487L230.5,75.39,220.586,73.1Z" style="fill:#eb585a"/></g></g></svg>