<svg id="Ñëîé_1" data-name="Ñëîé 1" xmlns="http://www.w3.org/2000/svg" viewBox="0 0 63.227 78.783"><rect x="17.367" y="75.675" width="41.417" height="3.108" rx="1.538" style="fill:#fc4a4a"/><rect x="29.478" y="58.22" width="39.381" height="0.935" transform="translate(-22.644 85.234) rotate(-70.331)" style="fill:#fc4a4a"/><rect x="22.333" y="57.407" width="40.795" height="0.934" transform="translate(-25.672 80.155) rotate(-71.603)" style="fill:#fc4a4a"/><polygon points="49.169 38.52 55.795 40.144 50.555 32.872 48.735 34.329 49.169 38.52" style="fill:#fc4a4a"/><path d="M55.684,40.6l-6.627-1.626a.466.466,0,0,1-.353-.405l-.434-4.19a.469.469,0,0,1,.172-.413l1.823-1.457a.46.46,0,0,1,.355-.1.455.455,0,0,1,.314.189l5.24,7.275a.465.465,0,0,1-.49.724Zm-6.46-6.064.375,3.61,5.077,1.246-4.213-5.847Z" style="fill:#fc4a4a"/><rect x="39.072" y="3.745" width="0.934" height="33.293" transform="translate(-3.606 31.24) rotate(-41.396)" style="fill:#f72107"/><rect x="37.108" y="6.059" width="0.934" height="32.675" transform="translate(-5.158 31.741) rotate(-43.132)" style="fill:#f72107"/><polygon points="23.32 9.188 26.416 10.463 28.522 7.913 24.594 7.913 23.32 9.188" style="fill:#f72107"/><path d="M26.239,10.9l-3.1-1.276a.466.466,0,0,1-.152-.761l1.276-1.275a.461.461,0,0,1,.329-.137h3.928a.466.466,0,0,1,.36.764l-2.105,2.55a.468.468,0,0,1-.361.17A.454.454,0,0,1,26.239,10.9ZM24.788,8.379l-.643.644,2.131.878,1.256-1.522Z" style="fill:#fc4a4a"/><path d="M17.659,9.188V7.913a.469.469,0,0,1,.469-.467h6.466a.467.467,0,0,1,.467.467V9.188a.466.466,0,0,1-.467.465H18.128A.468.468,0,0,1,17.659,9.188Zm6.469-.809H18.594v.342h5.534Z" style="fill:#fc4a4a"/><path d="M14.712,4.885a1.959,1.959,0,0,1,2.349-1.469l.826.192-2.334,9.558-2.612-.6Z" style="fill:#fc4a4a"/><path d="M18.482,3.744a1.959,1.959,0,0,1,1.467,2.349L18.178,13.77l-2.625-.6,2.334-9.558Z" style="fill:#f72107"/><path d="M17.67,13.654A6.8,6.8,0,0,1,22.9,21.06L21.378,34.329l-10.407-2.4,4.582-18.76Z" style="fill:#fc4a4a"/><path d="M5.5,17.044a6.807,6.807,0,0,1,7.948-4.365l2.1.487-4.582,18.76L1.053,29.637Z" style="fill:#fc4a4a"/><rect x="17.367" y="75.675" width="41.417" height="3.108" rx="1.538" style="fill:#eb585a"/><rect x="29.478" y="58.22" width="39.381" height="0.935" transform="translate(-22.644 85.234) rotate(-70.331)" style="fill:#eb585a"/><rect x="22.333" y="57.407" width="40.795" height="0.934" transform="translate(-25.672 80.155) rotate(-71.603)" style="fill:#eb585a"/><polygon points="49.169 38.52 55.795 40.144 50.555 32.872 48.735 34.329 49.169 38.52" style="fill:#eb585a"/><path d="M55.684,40.6l-6.627-1.626a.466.466,0,0,1-.353-.405l-.434-4.19a.469.469,0,0,1,.172-.413l1.823-1.457a.46.46,0,0,1,.355-.1.455.455,0,0,1,.314.189l5.24,7.275a.465.465,0,0,1-.49.724Zm-6.46-6.064.375,3.61,5.077,1.246-4.213-5.847Z" style="fill:#eb585a"/><rect x="39.072" y="3.745" width="0.934" height="33.293" transform="translate(-3.606 31.24) rotate(-41.396)" style="fill:#eb585a"/><rect x="37.108" y="6.059" width="0.934" height="32.675" transform="translate(-5.158 31.741) rotate(-43.132)" style="fill:#eb585a"/><polygon points="23.32 9.188 26.416 10.463 28.522 7.913 24.594 7.913 23.32 9.188" style="fill:#eb585a"/><path d="M26.239,10.9l-3.1-1.276a.466.466,0,0,1-.152-.761l1.276-1.275a.461.461,0,0,1,.329-.137h3.928a.466.466,0,0,1,.36.764l-2.105,2.55a.468.468,0,0,1-.361.17A.454.454,0,0,1,26.239,10.9ZM24.788,8.379l-.643.644,2.131.878,1.256-1.522Z" style="fill:#eb585a"/><path d="M17.659,9.188V7.913a.469.469,0,0,1,.469-.467h6.466a.467.467,0,0,1,.467.467V9.188a.466.466,0,0,1-.467.465H18.128A.468.468,0,0,1,17.659,9.188Zm6.469-.809H18.594v.342h5.534Z" style="fill:#eb585a"/><path d="M14.712,4.885a1.959,1.959,0,0,1,2.349-1.469l.826.192-2.334,9.558-2.612-.6Z" style="fill:#eb585a"/><path d="M18.482,3.744a1.959,1.959,0,0,1,1.467,2.349L18.178,13.77l-2.625-.6,2.334-9.558Z" style="fill:#eb585a"/><path d="M17.67,13.654A6.8,6.8,0,0,1,22.9,21.06L21.378,34.329l-10.407-2.4,4.582-18.76Z" style="fill:#eb585a"/><path d="M5.5,17.044a6.807,6.807,0,0,1,7.948-4.365l2.1.487-4.582,18.76L1.053,29.637Z" style="fill:#eb585a"/></svg>