<svg id="Ñëîé_1" data-name="Ñëîé 1" xmlns="http://www.w3.org/2000/svg" viewBox="0 0 98.661 223.394"><rect x="0.226" y="5.886" width="92.186" height="217.955" style="fill:#74afb3"/><path d="M0,0V223.394H6.476v-11.32H92.184v11.32h6.477V0ZM92.184,7.623V70.486H6.476V7.623Zm0,136.979v61.162H6.476V144.6ZM6.476,138.125V76.962H92.184v61.163Z" style="fill:#2f6fb6"/><rect x="6.708" y="17.39" width="16.566" height="52.973" style="fill:#eeb149"/><path d="M17.4,60.564a2.409,2.409,0,1,1-2.409-2.41A2.41,2.41,0,0,1,17.4,60.564Z" style="fill:#3c2415"/><path d="M14.992,64.053a3.489,3.489,0,1,1,3.488-3.489A3.494,3.494,0,0,1,14.992,64.053Zm0-4.819a1.33,1.33,0,1,0,1.329,1.33A1.33,1.33,0,0,0,14.992,59.234Z" style="fill:#bcbec0"/><rect x="9.217" y="20.603" width="11.547" height="26.005" style="fill:#fff"/><rect x="9.217" y="20.603" width="11.547" height="2.41" style="fill:#bcbec0"/><rect x="9.217" y="44.198" width="11.547" height="2.41" style="fill:#bcbec0"/><rect x="10.591" y="24.905" width="8.801" height="0.918" style="fill:#bcbec0"/><rect x="10.591" y="27.415" width="8.801" height="0.918" style="fill:#bcbec0"/><rect x="10.591" y="29.925" width="8.801" height="0.918" style="fill:#bcbec0"/><rect x="27.945" y="15.367" width="16.568" height="52.973" transform="translate(-7.203 7.533) rotate(-10.804)" style="fill:#98dcdb"/><path d="M41.725,57.794a2.41,2.41,0,1,1-2.819-1.915A2.412,2.412,0,0,1,41.725,57.794Z" style="fill:#3c2415"/><path d="M39.354,61.735a3.494,3.494,0,1,1,.656-.062A3.491,3.491,0,0,1,39.354,61.735Zm.006-4.82a1.352,1.352,0,0,0-.252.024,1.328,1.328,0,1,0,.252-.024Z" style="fill:#bcbec0"/><rect x="28.531" y="18.762" width="11.547" height="26.005" transform="translate(-5.346 6.994) rotate(-10.805)" style="fill:#fff"/><rect x="26.319" y="18.972" width="11.547" height="2.409" transform="translate(-3.213 6.373) rotate(-10.803)" style="fill:#bcbec0"/><rect x="30.742" y="42.149" width="11.547" height="2.41" transform="translate(-7.48 7.614) rotate(-10.805)" style="fill:#bcbec0"/><rect x="28.358" y="23.211" width="8.802" height="0.919" transform="translate(-3.856 6.56) rotate(-10.803)" style="fill:#bcbec0"/><rect x="28.829" y="25.677" width="8.802" height="0.919" transform="translate(-4.31 6.692) rotate(-10.803)" style="fill:#bcbec0"/><rect x="29.299" y="28.142" width="8.803" height="0.918" transform="translate(-4.764 6.824) rotate(-10.803)" style="fill:#bcbec0"/><rect x="26.959" y="163.163" width="36.973" height="10.501" style="fill:#062635"/><rect x="15.071" y="173.664" width="60.75" height="15.659" style="fill:#133141"/><rect x="15.071" y="187.733" width="60.75" height="5.089" style="fill:#062635"/><path d="M25.25,179.469a3.11,3.11,0,0,1-3.733,3.733,3.1,3.1,0,1,1,3.733-3.733Z" style="fill:#274b6c"/><path d="M22.229,183.82a3.813,3.813,0,0,1-.828-.092,3.59,3.59,0,0,1-2.723-2.722,3.649,3.649,0,0,1,4.376-4.377,3.6,3.6,0,0,1,2.722,2.723,3.667,3.667,0,0,1-.707,3.1A3.628,3.628,0,0,1,22.229,183.82Zm0-6.2a2.551,2.551,0,0,0-2,.96,2.592,2.592,0,0,0-.5,2.195,2.539,2.539,0,0,0,1.9,1.9,2.564,2.564,0,0,0,1.187-4.989A2.74,2.74,0,0,0,22.229,177.618Z" style="fill:#0c2344"/><rect x="56.338" y="175.488" width="17.453" height="9.48" style="fill:#062635"/><rect x="57.852" y="176.596" width="14.426" height="3.816" style="fill:#274b6c"/><rect x="57.852" y="181.582" width="5.61" height="2.217" style="fill:#2ba537"/><path d="M64,184.338h-6.69v-3.295H64Zm-5.611-1.08h4.53v-1.135h-4.53Z" style="fill:#193556"/><rect x="66.669" y="181.582" width="5.608" height="2.217" style="fill:#eeb149"/><path d="M72.819,184.338H66.128v-3.295h6.691Zm-5.611-1.08h4.53v-1.135h-4.53Z" style="fill:#193556"/><rect x="15.071" y="192.822" width="11.928" height="8.747" style="fill:#274b6c"/><rect x="63.973" y="192.822" width="11.926" height="8.747" style="fill:#274b6c"/><polygon points="72.958 204.431 17.458 204.431 15.071 201.569 75.821 201.569 72.958 204.431" style="fill:#133141"/><polygon points="68.743 205.981 22.227 205.981 26.999 197.156 63.973 197.156 68.743 205.981" style="fill:#fff"/><rect x="26.999" y="192.822" width="36.975" height="4.334" style="fill:#062635"/><rect x="31.133" y="148.612" width="28.625" height="25.052" style="fill:#fff"/><rect x="33.51" y="152.401" width="23.789" height="2.27" style="fill:#98dcdb"/><rect x="33.51" y="157.632" width="23.789" height="1.135" style="fill:#98dcdb"/><rect x="33.51" y="160.002" width="23.789" height="1.136" style="fill:#98dcdb"/><rect x="33.51" y="162.374" width="23.789" height="1.135" style="fill:#98dcdb"/><rect x="33.51" y="164.745" width="23.789" height="1.135" style="fill:#98dcdb"/><rect x="33.51" y="167.116" width="23.789" height="1.135" style="fill:#98dcdb"/><rect x="21.302" y="99.767" width="50.033" height="38.275" style="fill:#e4e0d0"/><rect x="19.641" y="96.917" width="53.356" height="7.918" style="fill:#f0ead8"/><rect x="26.478" y="114.864" width="16.049" height="16.911" style="fill:#fff"/><path d="M43.066,132.315H25.939V114.324H43.066Zm-16.047-1.08H41.986V115.4H27.019Z" style="fill:#2ba537"/><rect x="28.169" y="117.78" width="12.436" height="5.54" style="fill:#98dcdb"/><polygon points="71.942 35.408 70.644 36.842 70.889 35.512 71.967 34.76 71.942 35.408" style="fill:#6ee5ba"/><polygon points="72.19 45.547 70.893 46.982 71.139 45.651 72.217 44.9 72.19 45.547" style="fill:#6ee5ba"/><path d="M83.7,38.709a7.109,7.109,0,0,1-7.11,7.108h-4.65l11.76-7.18Z" style="fill:#32e09d"/><path d="M79.048,38.637H83.7l-11.76,7.18v-.071A7.107,7.107,0,0,1,79.048,38.637Z" style="fill:#6ee5ba"/><path d="M82.481,29.037a6.37,6.37,0,0,1-6.371,6.371H71.942l10.539-6.435Z" style="fill:#32e09d"/><path d="M78.311,28.973h4.17L71.942,35.408v-.065A6.369,6.369,0,0,1,78.311,28.973Z" style="fill:#6ee5ba"/><rect x="70.09" y="27.641" width="0.619" height="25.48" style="fill:#6ee5ba"/><rect x="70.709" y="27.641" width="0.618" height="25.48" style="fill:#32e09d"/><polygon points="70.709 69.454 62.469 69.454 58.807 52.71 70.709 52.71 70.709 69.454" style="fill:#fc4a4a"/><polygon points="70.709 69.454 78.949 69.454 82.61 52.71 70.709 52.71 70.709 69.454" style="fill:#fc4a4a"/><path d="M58.486,50.521H70.709V52.71H58.486a.941.941,0,0,1-.9-.976V51.5A.941.941,0,0,1,58.486,50.521Z" style="fill:#fc7c7c"/><path d="M82.931,50.521H70.709V52.71H82.931a.94.94,0,0,0,.9-.976V51.5A.941.941,0,0,0,82.931,50.521Z" style="fill:#fc4a4a"/><path d="M70.709,70.947h-6.93a1.4,1.4,0,0,1-1.31-1.478v-.015h8.24Z" style="fill:#fc4a4a"/><path d="M70.709,70.947h6.93a1.4,1.4,0,0,0,1.31-1.478v-.015h-8.24Z" style="fill:#fc4a4a"/><polygon points="69.348 35.408 70.644 36.842 70.399 35.512 69.32 34.76 69.348 35.408" style="fill:#32e09d"/><polygon points="69.098 45.547 70.394 46.982 70.151 45.651 69.07 44.9 69.098 45.547" style="fill:#32e09d"/><path d="M57.586,38.709a7.108,7.108,0,0,0,7.109,7.108h4.653l-11.762-7.18Z" style="fill:#6ee5ba"/><path d="M62.24,38.637H57.586l11.762,7.18v-.071A7.109,7.109,0,0,0,62.24,38.637Z" style="fill:#32e09d"/><path d="M58.807,29.037a6.372,6.372,0,0,0,6.371,6.371h4.17L58.807,28.973Z" style="fill:#6ee5ba"/><path d="M62.977,28.973h-4.17l10.541,6.435v-.065A6.371,6.371,0,0,0,62.977,28.973Z" style="fill:#32e09d"/><path d="M66.118,17.811a6.369,6.369,0,0,0,1.21,8.927l3.316,2.526-4.487-11.5Z" style="fill:#6ee5ba"/><path d="M69.473,20.286,66.157,17.76l4.487,11.5.04-.051A6.37,6.37,0,0,0,69.473,20.286Z" style="fill:#32e09d"/></svg>