<svg xmlns="http://www.w3.org/2000/svg" viewBox="0 0 148.058 166.506"><g style="isolation:isolate"><g id="Ñëîé_1" data-name="Ñëîé 1"><g style="mix-blend-mode:multiply"><rect x="67.04" y="67.389" width="81.018" height="100.118" style="fill:#fff"/><rect x="66.391" y="66.769" width="80.948" height="100.151" style="fill:#fffefd"/><rect x="65.743" y="66.15" width="80.878" height="100.184" style="fill:#fffefb"/><rect x="65.094" y="65.531" width="80.808" height="100.217" style="fill:#fffdf9"/><rect x="64.446" y="64.912" width="80.738" height="100.25" style="fill:#fffdf8"/><rect x="63.797" y="64.293" width="80.668" height="100.282" style="fill:#fffcf6"/><rect x="63.148" y="63.673" width="80.598" height="100.315" style="fill:#fffcf4"/><rect x="62.5" y="63.054" width="80.528" height="100.348" style="fill:#fffbf2"/><rect x="61.851" y="62.435" width="80.459" height="100.381" style="fill:#fffbf0"/><rect x="61.203" y="61.816" width="80.389" height="100.414" style="fill:#fefaee"/><rect x="60.554" y="61.196" width="80.319" height="100.447" style="fill:#fef9ec"/><rect x="59.906" y="60.577" width="80.249" height="100.48" style="fill:#fef9ea"/><rect x="59.257" y="59.958" width="80.179" height="100.513" style="fill:#fef8e9"/><rect x="58.609" y="59.339" width="80.109" height="100.546" style="fill:#fef8e7"/><rect x="57.96" y="58.719" width="80.039" height="100.579" style="fill:#fef7e5"/><rect x="57.312" y="58.1" width="79.969" height="100.612" style="fill:#fef7e3"/><rect x="56.663" y="57.481" width="79.899" height="100.645" style="fill:#fef6e1"/><rect x="56.015" y="56.862" width="79.829" height="100.678" style="fill:#fef5df"/><rect x="55.366" y="56.242" width="79.759" height="100.711" style="fill:#fef5dd"/><rect x="54.718" y="55.623" width="79.689" height="100.744" style="fill:#fef4db"/><rect x="54.069" y="55.004" width="79.619" height="100.777" style="fill:#fef4da"/><rect x="53.421" y="54.385" width="79.549" height="100.81" style="fill:#fef3d8"/><rect x="52.772" y="53.766" width="79.479" height="100.843" style="fill:#fef3d6"/><rect x="52.123" y="53.146" width="79.409" height="100.876" style="fill:#fef2d4"/><rect x="51.475" y="52.527" width="79.339" height="100.909" style="fill:#fef2d2"/><rect x="50.826" y="51.908" width="79.269" height="100.942" style="fill:#fef1d0"/><rect x="50.178" y="51.289" width="79.199" height="100.975" style="fill:#fdf0ce"/><rect x="49.529" y="50.669" width="79.13" height="101.008" style="fill:#fdf0cc"/><rect x="48.881" y="50.05" width="79.06" height="101.041" style="fill:#fdefcb"/><rect x="48.232" y="49.431" width="78.99" height="101.073" style="fill:#fdefc9"/><rect x="47.584" y="48.812" width="78.92" height="101.106" style="fill:#fdeec7"/><rect x="46.935" y="48.192" width="78.85" height="101.139" style="fill:#fdeec5"/><rect x="46.287" y="47.573" width="78.78" height="101.172" style="fill:#fdedc3"/><rect x="45.638" y="46.954" width="78.71" height="101.205" style="fill:#fdedc1"/><rect x="44.99" y="46.335" width="78.64" height="101.238" style="fill:#fdecbf"/><rect x="44.341" y="45.715" width="78.57" height="101.271" style="fill:#fdebbd"/><rect x="43.693" y="45.096" width="78.5" height="101.304" style="fill:#fdebbc"/><rect x="43.044" y="44.477" width="78.43" height="101.337" style="fill:#fdeaba"/><rect x="42.396" y="43.858" width="78.36" height="101.37" style="fill:#fdeab8"/><rect x="41.747" y="43.239" width="78.29" height="101.403" style="fill:#fde9b6"/><rect x="41.099" y="42.619" width="78.22" height="101.436" style="fill:#fde9b4"/><rect x="40.45" y="42" width="78.15" height="101.469" style="fill:#fde8b2"/><rect x="39.801" y="41.381" width="78.08" height="101.502" style="fill:#fde8b0"/><rect x="39.153" y="40.762" width="78.01" height="101.535" style="fill:#fce7ae"/><rect x="38.504" y="40.142" width="77.94" height="101.568" style="fill:#fce6ad"/><rect x="37.856" y="39.523" width="77.87" height="101.601" style="fill:#fce6ab"/><rect x="37.207" y="38.904" width="77.8" height="101.634" style="fill:#fce5a9"/><rect x="36.559" y="38.285" width="77.731" height="101.667" style="fill:#fce5a7"/><rect x="35.91" y="37.665" width="77.661" height="101.7" style="fill:#fce4a5"/><rect x="35.262" y="37.046" width="77.591" height="101.733" style="fill:#fce4a3"/><rect x="34.613" y="36.427" width="77.521" height="101.766" style="fill:#fce3a1"/><rect x="33.965" y="35.808" width="77.451" height="101.799" style="fill:#fce3a0"/><rect x="33.316" y="35.188" width="77.381" height="101.832" style="fill:#fce29e"/><rect x="32.668" y="34.569" width="77.311" height="101.864" style="fill:#fce19c"/><rect x="32.019" y="33.95" width="77.241" height="101.897" style="fill:#fce19a"/><rect x="31.371" y="33.331" width="77.171" height="101.93" style="fill:#fce098"/><rect x="30.722" y="32.712" width="77.101" height="101.963" style="fill:#fce096"/><rect x="30.074" y="32.092" width="77.031" height="101.996" style="fill:#fcdf94"/><rect x="29.425" y="31.473" width="76.961" height="102.029" style="fill:#fcdf92"/><rect x="28.776" y="30.854" width="76.891" height="102.062" style="fill:#fcde91"/><rect x="28.128" y="30.235" width="76.821" height="102.095" style="fill:#fbdd8f"/><rect x="27.479" y="29.615" width="76.751" height="102.128" style="fill:#fbdd8d"/><rect x="26.831" y="28.996" width="76.681" height="102.161" style="fill:#fbdc8b"/><rect x="26.182" y="28.377" width="76.611" height="102.194" style="fill:#fbdc89"/><rect x="25.534" y="27.758" width="76.541" height="102.227" style="fill:#fbdb87"/><rect x="24.885" y="27.138" width="76.471" height="102.26" style="fill:#fbdb85"/><rect x="24.237" y="26.519" width="76.401" height="102.293" style="fill:#fbda83"/><rect x="23.588" y="25.9" width="76.332" height="102.326" style="fill:#fbda82"/><rect x="22.94" y="25.281" width="76.262" height="102.359" style="fill:#fbd980"/><rect x="22.291" y="24.661" width="76.192" height="102.392" style="fill:#fbd87e"/><rect x="21.643" y="24.042" width="76.122" height="102.425" style="fill:#fbd87c"/><rect x="20.994" y="23.423" width="76.052" height="102.458" style="fill:#fbd77a"/><rect x="20.346" y="22.804" width="75.982" height="102.491" style="fill:#fbd778"/><rect x="19.697" y="22.185" width="75.912" height="102.524" style="fill:#fbd676"/><rect x="19.049" y="21.565" width="75.842" height="102.557" style="fill:#fbd674"/><rect x="18.4" y="20.946" width="75.772" height="102.59" style="fill:#fbd573"/><rect x="17.751" y="20.327" width="75.702" height="102.623" style="fill:#fbd571"/><rect x="17.103" y="19.708" width="75.632" height="102.655" style="fill:#fad46f"/><rect x="16.454" y="19.088" width="75.562" height="102.688" style="fill:#fad36d"/><rect x="15.806" y="18.469" width="75.492" height="102.721" style="fill:#fad36b"/><rect x="15.157" y="17.85" width="75.422" height="102.754" style="fill:#fad269"/><rect x="14.509" y="17.231" width="75.352" height="102.787" style="fill:#fad267"/><rect x="13.86" y="16.611" width="75.282" height="102.82" style="fill:#fad165"/><rect x="13.212" y="15.992" width="75.212" height="102.853" style="fill:#fad164"/><rect x="12.563" y="15.373" width="75.142" height="102.886" style="fill:#fad062"/><rect x="11.915" y="14.754" width="75.072" height="102.919" style="fill:#fad060"/><rect x="11.266" y="14.134" width="75.002" height="102.952" style="fill:#facf5e"/><rect x="10.618" y="13.515" width="74.933" height="102.985" style="fill:#face5c"/><rect x="9.969" y="12.896" width="74.863" height="103.018" style="fill:#face5a"/><rect x="9.321" y="12.277" width="74.793" height="103.051" style="fill:#facd58"/><rect x="8.672" y="11.658" width="74.723" height="103.084" style="fill:#facd56"/><rect x="8.024" y="11.038" width="74.653" height="103.117" style="fill:#facc55"/><rect x="7.375" y="10.419" width="74.583" height="103.15" style="fill:#facc53"/><rect x="6.727" y="9.8" width="74.513" height="103.183" style="fill:#facb51"/><rect x="6.078" y="9.181" width="74.443" height="103.216" style="fill:#f9ca4f"/><rect x="5.429" y="8.561" width="74.373" height="103.249" style="fill:#f9ca4d"/><rect x="4.781" y="7.942" width="74.303" height="103.282" style="fill:#f9c94b"/><rect x="4.132" y="7.323" width="74.233" height="103.315" style="fill:#f9c949"/><rect x="3.484" y="6.704" width="74.163" height="103.348" style="fill:#f9c847"/><rect x="2.835" y="6.084" width="74.093" height="103.381" style="fill:#f9c846"/><rect x="2.187" y="5.465" width="74.023" height="103.414" style="fill:#f9c744"/><rect x="1.538" y="4.846" width="73.953" height="103.446" style="fill:#f9c742"/><rect x="0.89" y="4.227" width="73.883" height="103.479" style="fill:#f9c640"/></g><rect x="1.19" y="4.451" width="73.282" height="102.131" style="fill:#fff"/><rect x="3.686" y="20.196" width="68.289" height="9.088" style="fill:#373737"/><path d="M7.555,33.206h5.323a1.109,1.109,0,0,1,1.109,1.109v5.323a1.108,1.108,0,0,1-1.108,1.108H7.553a1.109,1.109,0,0,1-1.109-1.109V34.316A1.11,1.11,0,0,1,7.555,33.206Z" style="fill:#f43327"/><path d="M16.761,33.206h5.323a1.109,1.109,0,0,1,1.109,1.109v5.323a1.108,1.108,0,0,1-1.108,1.108H16.759a1.109,1.109,0,0,1-1.109-1.109V34.316A1.11,1.11,0,0,1,16.761,33.206Z" style="fill:#ccc"/><path d="M25.965,33.206h5.325A1.108,1.108,0,0,1,32.4,34.314v5.324a1.108,1.108,0,0,1-1.108,1.108H25.964a1.109,1.109,0,0,1-1.109-1.109V34.316A1.11,1.11,0,0,1,25.965,33.206Z" style="fill:#ccc"/><path d="M35.171,33.206h5.323A1.108,1.108,0,0,1,41.6,34.314v5.324a1.108,1.108,0,0,1-1.108,1.108H35.17a1.109,1.109,0,0,1-1.109-1.109V34.316A1.11,1.11,0,0,1,35.171,33.206Z" style="fill:#f43327"/><path d="M44.375,33.206H49.7a1.109,1.109,0,0,1,1.109,1.109v5.323A1.109,1.109,0,0,1,49.7,40.746H44.374a1.109,1.109,0,0,1-1.109-1.109V34.316A1.11,1.11,0,0,1,44.375,33.206Z" style="fill:#ccc"/><path d="M53.582,33.206H58.9a1.11,1.11,0,0,1,1.11,1.11v5.322A1.108,1.108,0,0,1,58.9,40.746H53.58a1.109,1.109,0,0,1-1.109-1.109V34.316A1.11,1.11,0,0,1,53.582,33.206Z" style="fill:#ccc"/><path d="M69.218,39.636a1.109,1.109,0,0,1-1.107,1.11H62.783a1.106,1.106,0,0,1-1.105-1.11V34.314a1.106,1.106,0,0,1,1.105-1.108h5.328a1.108,1.108,0,0,1,1.107,1.108Z" style="fill:#ccc"/><path d="M7.553,46.316h5.324a1.109,1.109,0,0,1,1.109,1.109v5.321a1.111,1.111,0,0,1-1.111,1.111H7.553a1.109,1.109,0,0,1-1.109-1.109V47.425A1.109,1.109,0,0,1,7.553,46.316Z" style="fill:#f43327"/><path d="M16.759,46.316h5.324a1.109,1.109,0,0,1,1.109,1.109v5.321a1.111,1.111,0,0,1-1.111,1.111H16.759a1.109,1.109,0,0,1-1.109-1.109V47.425A1.109,1.109,0,0,1,16.759,46.316Z" style="fill:#ccc"/><path d="M25.964,46.316h5.327A1.108,1.108,0,0,1,32.4,47.424v5.325a1.108,1.108,0,0,1-1.108,1.108H25.964a1.109,1.109,0,0,1-1.109-1.109V47.425A1.109,1.109,0,0,1,25.964,46.316Z" style="fill:#ccc"/><path d="M35.17,46.316h5.324A1.108,1.108,0,0,1,41.6,47.424v5.322a1.111,1.111,0,0,1-1.111,1.111H35.17a1.109,1.109,0,0,1-1.109-1.109V47.425a1.109,1.109,0,0,1,1.109-1.109Z" style="fill:#ccc"/><path d="M44.374,46.316H49.7a1.109,1.109,0,0,1,1.109,1.109v5.321A1.111,1.111,0,0,1,49.7,53.858H44.374a1.109,1.109,0,0,1-1.109-1.109V47.425A1.109,1.109,0,0,1,44.374,46.316Z" style="fill:#ccc"/><path d="M53.58,46.316H58.9a1.109,1.109,0,0,1,1.109,1.109v5.321A1.111,1.111,0,0,1,58.9,53.858H53.58a1.109,1.109,0,0,1-1.109-1.109V47.425A1.109,1.109,0,0,1,53.58,46.316Z" style="fill:#ccc"/><path d="M69.218,52.749a1.11,1.11,0,0,1-1.107,1.109H62.783a1.107,1.107,0,0,1-1.105-1.109V47.428a1.108,1.108,0,0,1,1.105-1.112h5.328a1.11,1.11,0,0,1,1.107,1.112Z" style="fill:#ccc"/><path d="M7.555,59.427h5.321a1.11,1.11,0,0,1,1.11,1.11v5.322a1.11,1.11,0,0,1-1.11,1.11H7.553a1.109,1.109,0,0,1-1.109-1.109V60.537A1.11,1.11,0,0,1,7.555,59.427Z" style="fill:#f43327"/><path d="M16.761,59.427h5.323a1.109,1.109,0,0,1,1.109,1.109v5.323a1.11,1.11,0,0,1-1.11,1.11H16.759a1.109,1.109,0,0,1-1.109-1.109V60.537A1.11,1.11,0,0,1,16.761,59.427Z" style="fill:#ccc"/><path d="M25.965,59.427h5.325A1.108,1.108,0,0,1,32.4,60.535v5.324a1.11,1.11,0,0,1-1.11,1.11H25.964a1.109,1.109,0,0,1-1.109-1.109V60.537A1.11,1.11,0,0,1,25.965,59.427Z" style="fill:#ccc"/><path d="M35.171,59.427h5.323A1.108,1.108,0,0,1,41.6,60.535v5.326a1.108,1.108,0,0,1-1.108,1.108H35.17a1.109,1.109,0,0,1-1.109-1.109V60.537A1.11,1.11,0,0,1,35.171,59.427Z" style="fill:#ccc"/><path d="M44.375,59.427H49.7a1.109,1.109,0,0,1,1.109,1.109v5.323a1.11,1.11,0,0,1-1.11,1.11H44.374a1.109,1.109,0,0,1-1.109-1.109V60.537A1.11,1.11,0,0,1,44.375,59.427Z" style="fill:#ccc"/><path d="M53.582,59.427H58.9a1.109,1.109,0,0,1,1.109,1.109v5.323a1.11,1.11,0,0,1-1.11,1.11H53.58a1.109,1.109,0,0,1-1.109-1.109V60.537A1.11,1.11,0,0,1,53.582,59.427Z" style="fill:#ccc"/><path d="M69.218,65.859a1.11,1.11,0,0,1-1.107,1.111H62.783a1.107,1.107,0,0,1-1.105-1.111V60.538a1.108,1.108,0,0,1,1.105-1.111h5.328a1.11,1.11,0,0,1,1.107,1.111Z" style="fill:#ccc"/><path d="M7.553,72.541h5.324a1.109,1.109,0,0,1,1.109,1.109v5.322a1.108,1.108,0,0,1-1.108,1.108H7.553a1.109,1.109,0,0,1-1.109-1.109V73.649A1.109,1.109,0,0,1,7.553,72.541Z" style="fill:#f43327"/><path d="M16.759,72.541h5.324a1.109,1.109,0,0,1,1.109,1.109v5.322a1.108,1.108,0,0,1-1.108,1.108H16.759a1.109,1.109,0,0,1-1.109-1.109V73.649A1.109,1.109,0,0,1,16.759,72.541Z" style="fill:#ccc"/><path d="M25.964,72.541H31.29A1.109,1.109,0,0,1,32.4,73.649v5.322a1.108,1.108,0,0,1-1.108,1.108H25.964a1.109,1.109,0,0,1-1.109-1.109V73.649A1.109,1.109,0,0,1,25.964,72.541Z" style="fill:#ccc"/><path d="M35.17,72.541h5.324A1.108,1.108,0,0,1,41.6,73.649v5.323a1.108,1.108,0,0,1-1.108,1.108H35.17a1.109,1.109,0,0,1-1.109-1.109V73.649a1.109,1.109,0,0,1,1.109-1.109Z" style="fill:#ccc"/><path d="M44.374,72.541H49.7a1.109,1.109,0,0,1,1.109,1.109v5.322A1.108,1.108,0,0,1,49.7,80.079H44.374a1.109,1.109,0,0,1-1.109-1.109V73.649A1.109,1.109,0,0,1,44.374,72.541Z" style="fill:#ccc"/><path d="M53.58,72.541H58.9a1.109,1.109,0,0,1,1.109,1.109v5.322A1.108,1.108,0,0,1,58.9,80.079H53.58a1.109,1.109,0,0,1-1.109-1.109V73.649A1.109,1.109,0,0,1,53.58,72.541Z" style="fill:#ccc"/><path d="M62.787,72.541h5.326a1.105,1.105,0,0,1,1.105,1.105v5.325a1.108,1.108,0,0,1-1.108,1.108H62.785a1.107,1.107,0,0,1-1.107-1.107V73.649A1.109,1.109,0,0,1,62.787,72.541Z" style="fill:#ccc"/><path d="M13.751,8.963a2.346,2.346,0,1,1-2.346-2.345A2.347,2.347,0,0,1,13.751,8.963Z" style="fill:#ddd"/><path d="M24.319,8.963a2.345,2.345,0,1,1-2.345-2.345A2.344,2.344,0,0,1,24.319,8.963Z" style="fill:#ddd"/><path d="M34.892,8.963a2.346,2.346,0,1,1-2.346-2.345A2.344,2.344,0,0,1,34.892,8.963Z" style="fill:#ddd"/><path d="M45.464,8.963a2.346,2.346,0,1,1-2.346-2.345A2.345,2.345,0,0,1,45.464,8.963Z" style="fill:#ddd"/><path d="M56.032,8.963a2.344,2.344,0,1,1-2.346-2.345A2.344,2.344,0,0,1,56.032,8.963Z" style="fill:#ddd"/><path d="M66.6,8.963a2.346,2.346,0,1,1-2.345-2.345A2.344,2.344,0,0,1,66.6,8.963Z" style="fill:#ddd"/><rect x="6.445" y="89.466" width="62.773" height="10.473" style="fill:#eb585a"/><path d="M13.406,25a3.08,3.08,0,1,1-3.078-3.079A3.078,3.078,0,0,1,13.406,25Z" style="fill:#fffef6"/><path d="M22.594,25a3.08,3.08,0,1,1-3.081-3.079A3.079,3.079,0,0,1,22.594,25Z" style="fill:#fffef6"/><path d="M31.781,25a3.08,3.08,0,1,1-3.08-3.079A3.08,3.08,0,0,1,31.781,25Z" style="fill:#fffef6"/><path d="M40.967,25a3.08,3.08,0,1,1-3.079-3.079A3.079,3.079,0,0,1,40.967,25Z" style="fill:#fffef6"/><path d="M50.154,25a3.08,3.08,0,1,1-3.081-3.079A3.081,3.081,0,0,1,50.154,25Z" style="fill:#fffef6"/><path d="M59.339,25a3.08,3.08,0,1,1-3.078-3.079A3.078,3.078,0,0,1,59.339,25Z" style="fill:#fffef6"/><path d="M68.527,25a3.081,3.081,0,1,1-3.082-3.079A3.079,3.079,0,0,1,68.527,25Z" style="fill:#fffef6"/><path d="M41.343,4.451A3.455,3.455,0,1,1,37.888,1,3.454,3.454,0,0,1,41.343,4.451Z" style="fill:#f43327"/></g></g></svg>