<svg id="Ñëîé_1" data-name="Ñëîé 1" xmlns="http://www.w3.org/2000/svg" viewBox="0 0 63.586 64.425"><path d="M57.173,46.881A28.779,28.779,0,0,1,34.189,61.226,28.935,28.935,0,0,1,4.969,22.967,28.755,28.755,0,0,1,25.2,4.579,28.947,28.947,0,0,1,60.6,37.1a28.68,28.68,0,0,1-3.425,9.779C49.326,60.644,65.022,33.12,57.173,46.881Z" style="fill:#82bfc1"/><path d="M32.308,63.243A30.9,30.9,0,0,1,3.775,20.628a30.783,30.783,0,0,1,27.1-18.8A31.18,31.18,0,0,1,59.166,18.017a30.96,30.96,0,0,1-.473,30.132A30.778,30.778,0,0,1,32.308,63.243ZM32.014,5.714A26.913,26.913,0,0,0,7.522,21.777a26.965,26.965,0,0,0,32.231,36.5,26.863,26.863,0,0,0,19.2-24.051A27.019,27.019,0,0,0,32.014,5.714Z" style="fill:#82bfc1"/><path d="M56.436,46.145A28.777,28.777,0,0,1,33.452,60.489,28.936,28.936,0,0,1,4.231,22.229,28.761,28.761,0,0,1,24.46,3.841a28.948,28.948,0,0,1,35.4,32.524,28.649,28.649,0,0,1-3.424,9.78C48.588,59.907,64.285,32.383,56.436,46.145Z" style="fill:#fefff5"/><path d="M32.173,13.622c-2.386,0-1.625-4.358-1.625-5.8s-.761-5.8,1.625-5.8S33.8,6.376,33.8,7.82,34.556,13.622,32.173,13.622Z" style="fill:#82bfc1"/><path d="M60.953,34.153H54.791c-.709,0-1.447.06-2.155,0a1.63,1.63,0,0,1,0-3.258c2.021-.173,4.132,0,6.162,0,.708,0,1.447-.061,2.155,0A1.63,1.63,0,0,1,60.953,34.153Z" style="fill:#82bfc1"/><path d="M32.173,63.029c-2.386,0-1.625-4.358-1.625-5.8s-.761-5.8,1.625-5.8,1.624,4.357,1.624,5.8S34.556,63.029,32.173,63.029Z" style="fill:#82bfc1"/><path d="M11.7,34.162H5.537c-.71,0-1.449.061-2.156,0a1.63,1.63,0,0,1,0-3.258c2.021-.172,4.133,0,6.162,0,.709,0,1.449-.06,2.156,0A1.63,1.63,0,0,1,11.7,34.162Z" style="fill:#82bfc1"/><path d="M31.435,12.884c-2.384,0-1.625-4.358-1.625-5.8s-.759-5.8,1.625-5.8,1.623,4.358,1.623,5.8S33.819,12.884,31.435,12.884Z" style="fill:#2f6fb6"/><path d="M60.216,33.416H54.055c-.71,0-1.449.06-2.158,0a1.63,1.63,0,0,1,0-3.258c2.023-.173,4.134,0,6.161,0,.71,0,1.45-.061,2.158,0A1.63,1.63,0,0,1,60.216,33.416Z" style="fill:#2f6fb6"/><path d="M31.435,62.292c-2.384,0-1.625-4.358-1.625-5.8s-.759-5.8,1.625-5.8,1.623,4.358,1.623,5.8S33.819,62.292,31.435,62.292Z" style="fill:#2f6fb6"/><path d="M10.961,33.425H4.8c-.711,0-1.45.06-2.158,0a1.63,1.63,0,0,1,0-3.258c2.023-.172,4.132,0,6.163,0,.708,0,1.448-.06,2.155,0A1.63,1.63,0,0,1,10.961,33.425Z" style="fill:#2f6fb6"/><path d="M31.573,62.505A30.9,30.9,0,0,1,3.039,19.89a30.782,30.782,0,0,1,27.1-18.8A31.182,31.182,0,0,1,58.43,17.279a30.962,30.962,0,0,1-.474,30.133A30.777,30.777,0,0,1,31.573,62.505Zm-.3-57.528A26.912,26.912,0,0,0,6.785,21.04a26.966,26.966,0,0,0,32.232,36.5,26.863,26.863,0,0,0,19.2-24.053A27.017,27.017,0,0,0,31.277,4.977Z" style="fill:#2f6fb6"/><path d="M22.556,18.836c2.025,1.9,3.837,3.99,5.735,6.011a10.867,10.867,0,0,1,2.761,3.862c.194.546,1.057,2.86.243,3.176-.246.1-1.022-.427-1.239-.549a9.56,9.56,0,0,1-1.839-1.353c-1.257-1.174-1.776-2.685-2.582-4.16-.771-1.4-1.487-2.83-2.187-4.267C23.248,21.149,21.911,19.04,22.556,18.836Z" style="fill:#3dad52"/><path d="M44.8,15.268C42.892,18.6,40.706,21.744,38.683,25a18.792,18.792,0,0,1-3.627,4.643c-.423.365-3.258,2.806-3.754,2.036-.174-.27.367-1.48.466-1.762a16.535,16.535,0,0,1,1.267-2.73,25.431,25.431,0,0,1,3.95-4.568q2.195-2.325,4.459-4.582c.725-.718,1.449-1.434,2.188-2.137C43.914,15.633,44.435,14.776,44.8,15.268Z" style="fill:#3dad52"/><path d="M41.294,13.693c-1.012-.581.057-1.875.423-2.517s1.006-2.425,2.054-1.823c1.012.58-.056,1.875-.423,2.517s-1,2.424-2.054,1.823Z" style="fill:#98dcdb"/><path d="M18.5,53.656c-1.011-.581.056-1.875.423-2.517s1-2.425,2.053-1.824c1.012.583-.054,1.875-.422,2.518s-1.006,2.424-2.054,1.823Z" style="fill:#98dcdb"/><path d="M19.961,13.776c-.635-.363-1.047-1.572-1.395-2.168q-.27-.468-.543-.934a.889.889,0,0,1,1.1-1.269c.679.3,1.138,1.624,1.48,2.212.182.311.362.623.543.934a.887.887,0,0,1-1.189,1.225Z" style="fill:#98dcdb"/><path d="M43.06,53.561c-.636-.368-1.046-1.57-1.394-2.169l-.541-.934a.888.888,0,0,1,1.1-1.269c.679.3,1.138,1.624,1.48,2.211.182.312.361.623.543.935a.888.888,0,0,1-1.19,1.226C42.931,53.485,43.326,53.711,43.06,53.561Z" style="fill:#98dcdb"/><path d="M9.385,20.034a.889.889,0,0,1,.338-1.643,1.732,1.732,0,0,1,1.007.382,18,18,0,0,1,2.328,1.336.889.889,0,0,1-.338,1.643,1.734,1.734,0,0,1-1.007-.382Q10.546,20.7,9.385,20.034Z" style="fill:#98dcdb"/><path d="M52.015,44.507l-2.179-1.252A3.269,3.269,0,0,1,49,42.722a.885.885,0,0,1,1.092-1.354,16.692,16.692,0,0,1,2.179,1.251,3.361,3.361,0,0,1,.84.533A.887.887,0,0,1,52.015,44.507Z" style="fill:#98dcdb"/><path d="M9.478,44.673c-1.33-.763.315-1.714.944-2.082.6-.351,1.876-1.454,2.634-1.122,1.512.66-.232,1.76-.855,2.125S10.243,45.111,9.478,44.673Z" style="fill:#98dcdb"/><path d="M49.132,21.5c-1.33-.764.312-1.715.941-2.082.6-.351,1.876-1.454,2.637-1.122,1.511.66-.233,1.76-.858,2.124s-1.956,1.517-2.72,1.08C49,21.422,49.4,21.648,49.132,21.5Z" style="fill:#98dcdb"/><path d="M42.786,46.233c-2.015-2.307-3.992-4.648-5.962-6.995-1.137-1.355-2.307-2.664-3.332-4.11-.286-.405-2.315-3.042-2.019-3.372.071-.078,2.767,2.839,2.974,3.08,1.164,1.336,2.159,2.8,3.218,4.223q1.671,2.25,3.323,4.516C41.252,43.938,42.981,45.863,42.786,46.233Z" style="fill:#eeb149"/><path d="M34.519,31.787c0,3.99-6.171,3.99-6.171,0S34.519,27.8,34.519,31.787Z" style="fill:#eeb149"/><path d="M31.435,35.615a3.829,3.829,0,1,1,3.816-3.828A3.862,3.862,0,0,1,31.435,35.615Zm0-6.191c-3.038,0-3.038,4.724,0,4.724S34.473,29.424,31.435,29.424Z" style="fill:#eeb149"/></svg>