<svg xmlns="http://www.w3.org/2000/svg" viewBox="0 0 150.091 219.693"><g style="isolation:isolate"><g id="Ñëîé_1" data-name="Ñëîé 1"><g style="mix-blend-mode:multiply"><rect x="51.428" y="51.599" width="98.662" height="168.094" style="fill:#fff"/><rect x="50.924" y="51.095" width="98.662" height="168.593" style="fill:#fffefd"/><rect x="50.42" y="50.591" width="98.662" height="169.092" style="fill:#fffefb"/><rect x="49.916" y="50.087" width="98.662" height="169.59" style="fill:#fffdf9"/><rect x="49.412" y="49.584" width="98.662" height="170.089" style="fill:#fffdf8"/><rect x="48.907" y="49.08" width="98.662" height="170.588" style="fill:#fffcf6"/><rect x="48.403" y="48.576" width="98.662" height="171.087" style="fill:#fffcf4"/><rect x="47.899" y="48.073" width="98.662" height="171.586" style="fill:#fffbf2"/><rect x="47.395" y="47.569" width="98.662" height="172.085" style="fill:#fffbf0"/><rect x="46.891" y="47.065" width="98.662" height="172.583" style="fill:#fefaee"/><rect x="46.386" y="46.561" width="98.662" height="173.082" style="fill:#fef9ec"/><rect x="45.882" y="46.058" width="98.662" height="173.581" style="fill:#fef9ea"/><rect x="45.378" y="45.554" width="98.662" height="174.08" style="fill:#fef8e9"/><rect x="44.874" y="45.05" width="98.662" height="174.579" style="fill:#fef8e7"/><rect x="44.37" y="44.546" width="98.662" height="175.077" style="fill:#fef7e5"/><rect x="43.865" y="44.043" width="98.662" height="175.576" style="fill:#fef7e3"/><rect x="43.361" y="43.539" width="98.662" height="176.075" style="fill:#fef6e1"/><rect x="42.857" y="43.035" width="98.662" height="176.574" style="fill:#fef5df"/><rect x="42.353" y="42.532" width="98.662" height="177.073" style="fill:#fef5dd"/><rect x="41.849" y="42.028" width="98.662" height="177.572" style="fill:#fef4db"/><rect x="41.344" y="41.524" width="98.662" height="178.07" style="fill:#fef4da"/><rect x="40.84" y="41.02" width="98.662" height="178.569" style="fill:#fef3d8"/><rect x="40.336" y="40.517" width="98.662" height="179.068" style="fill:#fef3d6"/><rect x="39.832" y="40.013" width="98.662" height="179.567" style="fill:#fef2d4"/><rect x="39.328" y="39.509" width="98.662" height="180.066" style="fill:#fef2d2"/><rect x="38.823" y="39.006" width="98.662" height="180.565" style="fill:#fef1d0"/><rect x="38.319" y="38.502" width="98.662" height="181.063" style="fill:#fdf0ce"/><rect x="37.815" y="37.998" width="98.662" height="181.562" style="fill:#fdf0cc"/><rect x="37.311" y="37.494" width="98.662" height="182.061" style="fill:#fdefcb"/><rect x="36.807" y="36.991" width="98.662" height="182.56" style="fill:#fdefc9"/><rect x="36.302" y="36.487" width="98.662" height="183.059" style="fill:#fdeec7"/><rect x="35.798" y="35.983" width="98.662" height="183.557" style="fill:#fdeec5"/><rect x="35.294" y="35.479" width="98.662" height="184.056" style="fill:#fdedc3"/><rect x="34.79" y="34.976" width="98.662" height="184.555" style="fill:#fdedc1"/><rect x="34.286" y="34.472" width="98.662" height="185.054" style="fill:#fdecbf"/><rect x="33.781" y="33.968" width="98.662" height="185.553" style="fill:#fdebbd"/><rect x="33.277" y="33.465" width="98.662" height="186.052" style="fill:#fdebbc"/><rect x="32.773" y="32.961" width="98.662" height="186.55" style="fill:#fdeaba"/><rect x="32.269" y="32.457" width="98.662" height="187.049" style="fill:#fdeab8"/><rect x="31.764" y="31.953" width="98.662" height="187.548" style="fill:#fde9b6"/><rect x="31.26" y="31.45" width="98.662" height="188.047" style="fill:#fde9b4"/><rect x="30.756" y="30.946" width="98.662" height="188.546" style="fill:#fde8b2"/><rect x="30.252" y="30.442" width="98.662" height="189.045" style="fill:#fde8b0"/><rect x="29.748" y="29.938" width="98.662" height="189.543" style="fill:#fce7ae"/><rect x="29.243" y="29.435" width="98.662" height="190.042" style="fill:#fce6ad"/><rect x="28.739" y="28.931" width="98.662" height="190.541" style="fill:#fce6ab"/><rect x="28.235" y="28.427" width="98.662" height="191.04" style="fill:#fce5a9"/><rect x="27.731" y="27.924" width="98.662" height="191.539" style="fill:#fce5a7"/><rect x="27.227" y="27.42" width="98.662" height="192.037" style="fill:#fce4a5"/><rect x="26.722" y="26.916" width="98.662" height="192.536" style="fill:#fce4a3"/><rect x="26.218" y="26.412" width="98.662" height="193.035" style="fill:#fce3a1"/><rect x="25.714" y="25.909" width="98.662" height="193.534" style="fill:#fce3a0"/><rect x="25.21" y="25.405" width="98.662" height="194.033" style="fill:#fce29e"/><rect x="24.706" y="24.901" width="98.662" height="194.532" style="fill:#fce19c"/><rect x="24.201" y="24.397" width="98.662" height="195.03" style="fill:#fce19a"/><rect x="23.697" y="23.894" width="98.662" height="195.529" style="fill:#fce098"/><rect x="23.193" y="23.39" width="98.662" height="196.028" style="fill:#fce096"/><rect x="22.689" y="22.886" width="98.662" height="196.527" style="fill:#fcdf94"/><rect x="22.185" y="22.383" width="98.662" height="197.026" style="fill:#fcdf92"/><rect x="21.68" y="21.879" width="98.662" height="197.524" style="fill:#fcde91"/><rect x="21.176" y="21.375" width="98.662" height="198.023" style="fill:#fbdd8f"/><rect x="20.672" y="20.871" width="98.662" height="198.522" style="fill:#fbdd8d"/><rect x="20.168" y="20.368" width="98.662" height="199.021" style="fill:#fbdc8b"/><rect x="19.664" y="19.864" width="98.662" height="199.52" style="fill:#fbdc89"/><rect x="19.159" y="19.36" width="98.662" height="200.019" style="fill:#fbdb87"/><rect x="18.655" y="18.856" width="98.662" height="200.517" style="fill:#fbdb85"/><rect x="18.151" y="18.353" width="98.662" height="201.016" style="fill:#fbda83"/><rect x="17.647" y="17.849" width="98.662" height="201.515" style="fill:#fbda82"/><rect x="17.143" y="17.345" width="98.662" height="202.014" style="fill:#fbd980"/><rect x="16.638" y="16.842" width="98.662" height="202.513" style="fill:#fbd87e"/><rect x="16.134" y="16.338" width="98.662" height="203.012" style="fill:#fbd87c"/><rect x="15.63" y="15.834" width="98.662" height="203.51" style="fill:#fbd77a"/><rect x="15.126" y="15.33" width="98.662" height="204.009" style="fill:#fbd778"/><rect x="14.622" y="14.827" width="98.662" height="204.508" style="fill:#fbd676"/><rect x="14.117" y="14.323" width="98.662" height="205.007" style="fill:#fbd674"/><rect x="13.613" y="13.819" width="98.662" height="205.506" style="fill:#fbd573"/><rect x="13.109" y="13.315" width="98.662" height="206.004" style="fill:#fbd571"/><rect x="12.605" y="12.812" width="98.662" height="206.503" style="fill:#fad46f"/><rect x="12.101" y="12.308" width="98.662" height="207.002" style="fill:#fad36d"/><rect x="11.596" y="11.804" width="98.662" height="207.501" style="fill:#fad36b"/><rect x="11.092" y="11.301" width="98.662" height="208" style="fill:#fad269"/><rect x="10.588" y="10.797" width="98.662" height="208.499" style="fill:#fad267"/><rect x="10.084" y="10.293" width="98.662" height="208.997" style="fill:#fad165"/><rect x="9.58" y="9.789" width="98.662" height="209.496" style="fill:#fad164"/><rect x="9.075" y="9.286" width="98.662" height="209.995" style="fill:#fad062"/><rect x="8.571" y="8.782" width="98.662" height="210.494" style="fill:#fad060"/><rect x="8.067" y="8.278" width="98.662" height="210.993" style="fill:#facf5e"/><rect x="7.563" y="7.774" width="98.662" height="211.492" style="fill:#face5c"/><rect x="7.059" y="7.271" width="98.662" height="211.99" style="fill:#face5a"/><rect x="6.554" y="6.767" width="98.662" height="212.489" style="fill:#facd58"/><rect x="6.05" y="6.263" width="98.662" height="212.988" style="fill:#facd56"/><rect x="5.546" y="5.76" width="98.662" height="213.487" style="fill:#facc55"/><rect x="5.042" y="5.256" width="98.662" height="213.986" style="fill:#facc53"/><rect x="4.538" y="4.752" width="98.662" height="214.484" style="fill:#facb51"/><rect x="4.033" y="4.248" width="98.662" height="214.983" style="fill:#f9ca4f"/><rect x="3.529" y="3.745" width="98.662" height="215.482" style="fill:#f9ca4d"/><rect x="3.025" y="3.241" width="98.662" height="215.981" style="fill:#f9c94b"/><rect x="2.521" y="2.737" width="98.662" height="216.48" style="fill:#f9c949"/><rect x="2.017" y="2.233" width="98.662" height="216.979" style="fill:#f9c847"/><rect x="1.512" y="1.73" width="98.662" height="217.477" style="fill:#f9c846"/><rect x="1.008" y="1.226" width="98.662" height="217.976" style="fill:#f9c744"/><rect x="0.504" y="0.722" width="98.662" height="218.475" style="fill:#f9c742"/><rect y="0.219" width="98.662" height="218.974" style="fill:#f9c640"/></g><rect x="3.238" y="3.536" width="92.185" height="216.444" style="fill:#74afb3"/><rect x="6.188" y="14.195" width="16.567" height="52.973" style="fill:#f9c640"/><path d="M16.881,57.369a2.41,2.41,0,1,1-2.41-2.41A2.41,2.41,0,0,1,16.881,57.369Z" style="fill:#3c2415"/><path d="M14.471,60.858a3.489,3.489,0,1,1,3.489-3.489A3.493,3.493,0,0,1,14.471,60.858Zm0-4.819a1.331,1.331,0,1,0,1.331,1.33A1.332,1.332,0,0,0,14.471,56.039Z" style="fill:#bcbec0"/><rect x="8.698" y="17.408" width="11.547" height="26.005" style="fill:#fff"/><rect x="8.698" y="17.408" width="11.547" height="2.41" style="fill:#bcbec0"/><rect x="8.698" y="41.003" width="11.547" height="2.41" style="fill:#bcbec0"/><rect x="10.07" y="21.71" width="8.802" height="0.918" style="fill:#bcbec0"/><rect x="10.07" y="24.221" width="8.802" height="0.918" style="fill:#bcbec0"/><rect x="10.07" y="26.731" width="8.802" height="0.918" style="fill:#bcbec0"/><rect x="24.426" y="14.195" width="16.567" height="52.973" style="fill:#3dad52"/><path d="M35.119,57.369a2.41,2.41,0,1,1-2.409-2.41A2.41,2.41,0,0,1,35.119,57.369Z" style="fill:#3c2415"/><path d="M32.71,60.858A3.489,3.489,0,1,1,36.2,57.369,3.493,3.493,0,0,1,32.71,60.858Zm0-4.819a1.331,1.331,0,1,0,1.33,1.33A1.332,1.332,0,0,0,32.71,56.039Z" style="fill:#bcbec0"/><rect x="26.936" y="17.408" width="11.546" height="26.005" style="fill:#fff"/><rect x="26.936" y="17.408" width="11.546" height="2.41" style="fill:#bcbec0"/><rect x="26.936" y="41.003" width="11.546" height="2.41" style="fill:#bcbec0"/><rect x="28.308" y="21.71" width="8.802" height="0.918" style="fill:#bcbec0"/><rect x="28.308" y="24.221" width="8.802" height="0.918" style="fill:#bcbec0"/><rect x="28.308" y="26.731" width="8.802" height="0.918" style="fill:#bcbec0"/><rect x="44.17" y="14.195" width="16.567" height="52.973" style="fill:#35ddf2"/><path d="M54.864,57.369a2.41,2.41,0,1,1-2.41-2.41A2.411,2.411,0,0,1,54.864,57.369Z" style="fill:#3c2415"/><path d="M52.453,60.858a3.489,3.489,0,1,1,3.49-3.489A3.493,3.493,0,0,1,52.453,60.858Zm0-4.819a1.331,1.331,0,1,0,1.331,1.33A1.332,1.332,0,0,0,52.453,56.039Z" style="fill:#bcbec0"/><rect x="46.68" y="17.408" width="11.547" height="26.005" style="fill:#fff"/><rect x="46.68" y="17.408" width="11.547" height="2.41" style="fill:#bcbec0"/><rect x="46.68" y="41.003" width="11.547" height="2.41" style="fill:#bcbec0"/><rect x="48.052" y="21.71" width="8.802" height="0.918" style="fill:#bcbec0"/><rect x="48.052" y="24.221" width="8.802" height="0.918" style="fill:#bcbec0"/><rect x="48.052" y="26.731" width="8.802" height="0.918" style="fill:#bcbec0"/><rect x="62.408" y="14.195" width="16.567" height="52.973" style="fill:#eb585a"/><path d="M73.1,57.369a2.41,2.41,0,1,1-2.41-2.41A2.41,2.41,0,0,1,73.1,57.369Z" style="fill:#3c2415"/><path d="M70.692,60.858a3.489,3.489,0,1,1,3.489-3.489A3.493,3.493,0,0,1,70.692,60.858Zm0-4.819a1.331,1.331,0,1,0,1.331,1.33A1.332,1.332,0,0,0,70.692,56.039Z" style="fill:#bcbec0"/><rect x="64.919" y="17.408" width="11.546" height="26.005" style="fill:#fff"/><rect x="64.919" y="17.408" width="11.546" height="2.41" style="fill:#bcbec0"/><rect x="64.919" y="41.003" width="11.546" height="2.41" style="fill:#bcbec0"/><rect x="66.291" y="21.71" width="8.802" height="0.918" style="fill:#bcbec0"/><rect x="66.291" y="24.221" width="8.802" height="0.918" style="fill:#bcbec0"/><rect x="66.291" y="26.731" width="8.802" height="0.918" style="fill:#bcbec0"/><path d="M71.874,134.139h-.646a6.913,6.913,0,0,1-6.912-6.912V123.6H62.029v12.331h9.845Z" style="fill:#eeb149"/><path d="M60.935,123.6H59.741v3.629a6.912,6.912,0,0,1-6.911,6.912h-.646v1.79h9.845V123.6Z" style="fill:#ffbc5a"/><polygon points="78.22 82.601 44.344 116.526 44.902 117.082 78.801 83.182 78.22 82.601" style="fill:#ffbc5a"/><polygon points="44.902 117.082 45.483 117.663 79.359 83.738 78.801 83.182 44.902 117.082" style="fill:#eeb149"/><path d="M62.147,124.39A23.9,23.9,0,0,1,45.2,117.38l1.137-1.137A22.366,22.366,0,0,0,77.963,84.612L79.1,83.474A23.963,23.963,0,0,1,62.147,124.39Z" style="fill:#eeb149"/><path d="M49.3,108.839,47.013,104.5l2.884-2.188,6.364,2.188.894.3,4.837-4.837c-1.164-1.323-2.526-2.887-2.747-3.22-.4-.6,5.071-3.182,5.071-3.182l1.1.494,1.715.773,1.817-1.817-3.534-.643-1.691-3.381,5.47-.4,2.586-1S68.593,85.61,67,85.411s.6-1.591.6-1.591H72.63a19.144,19.144,0,0,0-15.8-2.453l3.411,3.249L54.471,87.6l-2.784,2.586L49.9,86.206l4.332-3.912a19.319,19.319,0,0,0-5.844,4l3.3,6.082,2.784,1.193v3.382H49.9l-1.989,2.386-2.387,2.983V99.532l-2.585,1.79-.139-.2a19.223,19.223,0,0,0,5.59,12.454l2.818-2.818Z" style="fill:#4092dd"/><path d="M58.517,105.262l.707,3.577-2.963,3.223.995,4.773-6.051-6.081-2.818,2.818a19.267,19.267,0,0,0,32.242-18.7l-.3,1.277-2.586,2.784s-2.188,10.144-2.586,10.939-5.17,2.188-5.17,2.188l-1.392-3.223.994-6.92H63.719s-.8-.9-1.727-1.952L57.155,104.8l1.362.458Z" style="fill:#2f6fb6"/><polygon points="74.161 94.56 74.161 93.963 68.944 93.015 67.127 94.832 71.377 96.747 74.161 94.56" style="fill:#82bfc1"/><path d="M67,85.411c1.592.2,4.774,2.187,4.774,2.187l-2.586,1-5.47.4,1.691,3.381,3.534.643,6.727-6.727A19.429,19.429,0,0,0,72.63,83.82H67.6S65.41,85.212,67,85.411Z" style="fill:#44cc57"/><path d="M65.412,94.059l-1.1-.494s-5.47,2.586-5.071,3.182c.221.333,1.583,1.9,2.747,3.22l5.135-5.135Z" style="fill:#44cc57"/><path d="M68.944,93.015l5.217.948v.6l-2.784,2.187-4.25-1.915-5.135,5.135c.926,1.052,1.727,1.952,1.727,1.952h5.868l-.994,6.92,1.392,3.223s4.773-1.392,5.17-2.188,2.586-10.939,2.586-10.939l2.586-2.784.3-1.277a19.271,19.271,0,0,0-4.958-8.586Z" style="fill:#3dad52"/><path d="M51.687,90.184,54.471,87.6l5.768-2.982-3.411-3.249a19.043,19.043,0,0,0-2.6.927L49.9,86.206Z" style="fill:#44cc57"/><path d="M45.521,99.532v2.784l2.387-2.983L49.9,96.947h4.574V93.565l-2.784-1.193-3.3-6.082a19.233,19.233,0,0,0-5.648,13.64c0,.4.036.793.06,1.188l.139.2Z" style="fill:#44cc57"/><polygon points="49.897 102.316 47.013 104.504 49.3 108.839 51.205 110.754 57.155 104.804 56.261 104.504 49.897 102.316" style="fill:#44cc57"/><polygon points="57.256 116.835 56.261 112.062 59.224 108.839 58.517 105.262 57.155 104.804 51.205 110.754 57.256 116.835" style="fill:#3dad52"/><path d="M42.8,130.322l-1.67-2.71c3.558-2.193,4.305-3.362,4.305-3.956s-.747-1.763-4.3-3.956l1.67-2.71c3.023,1.862,5.819,3.959,5.819,6.666S45.827,128.46,42.8,130.322Z" style="fill:#000f28"/><path d="M13.647,130.322c-3.022-1.862-5.82-3.959-5.82-6.666s2.8-4.8,5.82-6.666l1.67,2.71c-3.558,2.193-4.306,3.362-4.306,3.956s.748,1.763,4.306,3.956Z" style="fill:#000f28"/><path d="M28.225,114.528v2.356a35.037,35.037,0,0,0-13.743,2.677l-2.2-1.927A40.632,40.632,0,0,1,28.225,114.528Z" style="fill:#5385a0"/><path d="M44.167,117.634l-2.2,1.927a35.039,35.039,0,0,0-13.744-2.677v-2.356A40.633,40.633,0,0,1,44.167,117.634Z" style="fill:#384b66"/><rect x="19.46" y="115.236" width="6.123" height="20.347" rx="2.007" style="fill:#1a273e"/><polygon points="19.46 118.632 13.77 122.514 13.77 131.732 19.46 133.188 19.46 118.632" style="fill:#384b66"/><rect x="30.449" y="115.236" width="6.123" height="20.347" rx="2.007" style="fill:#062635"/><polygon points="36.572 118.632 42.262 122.514 42.262 131.732 36.572 133.188 36.572 118.632" style="fill:#1a273e"/><rect x="13.06" y="123.14" width="2.845" height="9.673" rx="1.408" style="fill:#5385a0"/><path d="M41.745,123.14h.028a1.408,1.408,0,0,1,1.408,1.408V131.4a1.408,1.408,0,0,1-1.408,1.408h-.028a1.409,1.409,0,0,1-1.409-1.409v-6.856a1.409,1.409,0,0,1,1.409-1.409Z" style="fill:#274b6c"/><rect x="17.236" y="154.13" width="13.213" height="48.744" style="fill:#eb585a"/><rect x="40.425" y="153.742" width="13.213" height="48.744" style="fill:#eb585a"/><rect x="30.921" y="154.13" width="2.589" height="48.744" style="fill:#2f6fb6"/><rect x="34.185" y="154.13" width="2.59" height="48.744" style="fill:#3dad52"/><rect x="37.45" y="154.13" width="2.589" height="48.744" style="fill:#f9c640"/><rect x="6.666" y="157.657" width="10.57" height="45.217" style="fill:#f9c640"/><rect x="9.42" y="162.704" width="5.063" height="2.631" style="fill:#f0ead8"/><rect x="9.42" y="169.094" width="5.063" height="2.631" style="fill:#f0ead8"/><rect x="9.42" y="175.483" width="5.063" height="2.631" style="fill:#f0ead8"/><rect x="56.978" y="157.072" width="10.571" height="45.217" transform="translate(-30.603 13.736) rotate(-10.12)" style="fill:#f9c640"/><rect x="56.878" y="162.371" width="5.063" height="2.631" transform="translate(-27.841 12.988) rotate(-10.122)" style="fill:#f0ead8"/><rect x="58" y="168.662" width="5.063" height="2.631" transform="translate(-28.926 13.281) rotate(-10.12)" style="fill:#f0ead8"/><rect x="59.123" y="174.952" width="5.063" height="2.631" transform="translate(-30.017 13.578) rotate(-10.122)" style="fill:#f0ead8"/><rect x="68.115" y="157.011" width="6.924" height="45.217" transform="translate(-30.453 15.375) rotate(-10.122)" style="fill:#e4e0d0"/><rect x="67.064" y="162.311" width="3.316" height="2.631" transform="translate(-27.651 14.601) rotate(-10.108)" style="fill:#f0ead8"/><rect x="68.187" y="168.602" width="3.316" height="2.631" transform="translate(-28.737 14.895) rotate(-10.108)" style="fill:#f0ead8"/><rect x="69.309" y="174.892" width="3.316" height="2.631" transform="translate(-29.824 15.191) rotate(-10.108)" style="fill:#f0ead8"/><rect x="43.215" y="161.606" width="4.415" height="34.283" style="fill:#f0ead8"/><path d="M96.137,0V-.4H3.952V0H0V219.978H6.476V209.284H92.185v10.7h6.477V0ZM92.185,6.075V67.53H6.476V6.075Zm0,196.732H6.476V141.646H92.185ZM6.476,135.17V74.006H92.185V135.17Z" style="fill:#512583"/></g></g></svg>