<svg id="Ñëîé_1" data-name="Ñëîé 1" xmlns="http://www.w3.org/2000/svg" xmlns:xlink="http://www.w3.org/1999/xlink" viewBox="0 0 282.47 99.163"><defs><clipPath id="clip-path"><path d="M71.068,80.032H65.13c-1.888,0-3.419-1.22-3.419-2.726V64.443H74.487V77.306C74.487,78.812,72.957,80.032,71.068,80.032Z" style="fill:none"/></clipPath><clipPath id="clip-path-2"><rect x="70.844" y="63.803" width="6.429" height="6.429" style="fill:none"/></clipPath><clipPath id="clip-path-3"><rect x="70.844" y="70.232" width="6.429" height="6.429" style="fill:none"/></clipPath><clipPath id="clip-path-4"><rect x="70.844" y="76.661" width="6.429" height="6.429" style="fill:none"/></clipPath><clipPath id="clip-path-5"><rect x="64.415" y="63.803" width="6.429" height="6.429" style="fill:none"/></clipPath><clipPath id="clip-path-6"><rect x="64.415" y="70.232" width="6.429" height="6.429" style="fill:none"/></clipPath><clipPath id="clip-path-7"><rect x="64.415" y="76.661" width="6.429" height="6.429" style="fill:none"/></clipPath><clipPath id="clip-path-8"><rect x="57.987" y="63.803" width="6.428" height="6.429" style="fill:none"/></clipPath><clipPath id="clip-path-9"><rect x="57.987" y="70.232" width="6.428" height="6.429" style="fill:none"/></clipPath><clipPath id="clip-path-10"><rect x="57.987" y="76.661" width="6.428" height="6.429" style="fill:none"/></clipPath></defs><rect x="226.562" y="77.747" width="41.417" height="3.108" rx="1.538" style="fill:#fc4a4a"/><rect x="238.673" y="60.291" width="39.381" height="0.935" transform="translate(114.189 283.598) rotate(-70.331)" style="fill:#fc4a4a"/><rect x="231.529" y="59.479" width="40.795" height="0.934" transform="translate(115.536 280.077) rotate(-71.603)" style="fill:#fc4a4a"/><polygon points="258.364 40.591 264.991 42.215 259.751 34.943 257.931 36.4 258.364 40.591" style="fill:#fc4a4a"/><path d="M264.88,42.669l-6.627-1.626a.464.464,0,0,1-.354-.405l-.433-4.19a.467.467,0,0,1,.172-.412l1.823-1.457a.465.465,0,0,1,.669.092l5.24,7.274a.468.468,0,0,1,.008.533.463.463,0,0,1-.387.2A.469.469,0,0,1,264.88,42.669ZM258.42,36.6l.375,3.61,5.077,1.246-4.213-5.847Z" style="fill:#fc4a4a"/><rect x="248.268" y="5.817" width="0.934" height="33.293" transform="translate(47.29 170.09) rotate(-41.396)" style="fill:#f72107"/><rect x="246.304" y="8.13" width="0.934" height="32.675" transform="translate(49.954 175.324) rotate(-43.132)" style="fill:#f72107"/><polygon points="232.516 11.259 235.611 12.535 237.718 9.984 233.79 9.984 232.516 11.259" style="fill:#f72107"/><path d="M235.435,12.966l-3.1-1.276a.466.466,0,0,1-.152-.761l1.276-1.275a.46.46,0,0,1,.329-.136h3.928a.466.466,0,0,1,.36.763l-2.1,2.551a.471.471,0,0,1-.362.169A.453.453,0,0,1,235.435,12.966Zm-1.452-2.516-.642.644,2.131.878,1.256-1.522Z" style="fill:#fc4a4a"/><path d="M226.854,11.259V9.984a.468.468,0,0,1,.469-.466h6.467a.466.466,0,0,1,.467.466v1.275a.466.466,0,0,1-.467.466h-6.467A.468.468,0,0,1,226.854,11.259Zm6.47-.809H227.79v.343h5.534Z" style="fill:#fc4a4a"/><path d="M223.908,6.956a1.959,1.959,0,0,1,2.349-1.469l.826.192-2.334,9.558-2.612-.6Z" style="fill:#fc4a4a"/><path d="M227.678,5.815a1.959,1.959,0,0,1,1.467,2.349l-1.771,7.677-2.625-.6,2.334-9.558Z" style="fill:#f72107"/><path d="M226.865,15.725a6.8,6.8,0,0,1,5.23,7.406L230.574,36.4,220.167,34l4.582-18.761Z" style="fill:#fc4a4a"/><path d="M214.7,19.115a6.807,6.807,0,0,1,7.949-4.364l2.1.486L220.167,34l-9.918-2.289Z" style="fill:#fc4a4a"/><path d="M32.655,62.831a9.118,9.118,0,0,1,9.108-9.109V52.4a7.477,7.477,0,1,1,0-14.953V33.1H33.8a4.341,4.341,0,0,0-4.341,4.341V80.854h12.3V71.938A9.117,9.117,0,0,1,32.655,62.831Z" style="fill:#ffbc5a"/><path d="M54.062,37.443A4.341,4.341,0,0,0,49.721,33.1H41.763v4.341a7.477,7.477,0,0,1,0,14.953v1.326a9.108,9.108,0,1,1,0,18.216v8.916h12.3Z" style="fill:#eeb149"/><path d="M47.792,44.919a6.03,6.03,0,0,1-6.029,6.03V52.4a7.477,7.477,0,0,0,0-14.953V38.89A6.029,6.029,0,0,1,47.792,44.919Z" style="fill:#ffbc5a"/><path d="M34.286,44.919A7.485,7.485,0,0,0,41.763,52.4V50.949a6.03,6.03,0,1,1,0-12.059V37.443A7.485,7.485,0,0,0,34.286,44.919Z" style="fill:#eeb149"/><path d="M35.733,44.919a6.03,6.03,0,0,0,6.03,6.03V38.89A6.03,6.03,0,0,0,35.733,44.919Z" style="fill:#0f365a"/><path d="M47.792,44.919a6.029,6.029,0,0,0-6.029-6.029V50.949A6.03,6.03,0,0,0,47.792,44.919Z" style="fill:#274b6c"/><path d="M49.423,62.831a7.661,7.661,0,0,1-7.66,7.661v1.446a9.108,9.108,0,1,0,0-18.216v1.447A7.66,7.66,0,0,1,49.423,62.831Z" style="fill:#ffbc5a"/><path d="M32.655,62.831a9.117,9.117,0,0,0,9.108,9.107V70.492a7.662,7.662,0,0,1,0-15.323V53.722A9.118,9.118,0,0,0,32.655,62.831Z" style="fill:#eeb149"/><path d="M34.1,62.831a7.661,7.661,0,0,0,7.661,7.661V55.169A7.661,7.661,0,0,0,34.1,62.831Z" style="fill:#0f365a"/><path d="M49.423,62.831a7.66,7.66,0,0,0-7.66-7.662V70.492A7.661,7.661,0,0,0,49.423,62.831Z" style="fill:#274b6c"/><rect y="80.96" width="282.47" height="12.224" style="fill:#eaeeef"/><rect x="8.358" y="93.183" width="265.754" height="6.627" style="fill:#e4e0d0"/><path d="M212.213,72.792h3.116a1.058,1.058,0,0,1,1.058,1.058v.025a1.058,1.058,0,0,1-1.058,1.058h-3.116a1.059,1.059,0,0,1-1.059-1.059v-.022a1.059,1.059,0,0,1,1.059-1.059Z" style="fill:#274b6c"/><path d="M222.461,80.854H204.412a7.225,7.225,0,0,1,7.165-7.235h.722a13.621,13.621,0,0,1,10.941,5.508l.055.072A1.038,1.038,0,0,1,222.461,80.854Z" style="fill:#062635"/><path d="M205.582,80.389l-1.071-.13a5.859,5.859,0,0,1,4.755-4.8c6.715-1.277,13.243,3.739,13.52,3.954l-.664.851c-.064-.05-6.436-4.927-12.654-3.744A4.744,4.744,0,0,0,205.582,80.389Z" style="fill:#193556"/><path d="M64.081,69.63c-.292.019-.5-.025-.528-.128l1.707,6.874.527.122Z" style="fill:#f7daa9"/><polygon points="64.633 69.542 64.633 69.542 66.362 76.513 64.633 69.542" style="fill:#fff"/><path d="M65.54,69.007c.026.1-.138.243-.406.364l1.7,6.865.437-.361-1.9-7.545Z" style="fill:#f2c577"/><polygon points="65.787 76.498 65.809 76.546 67.06 79.321 66.362 76.513 65.787 76.498" style="fill:#133141"/><polygon points="65.26 76.376 67.06 79.321 65.809 76.546 65.26 76.376" style="fill:#83a7bb"/><polygon points="65.787 76.498 65.26 76.376 65.809 76.546 65.787 76.498" style="fill:#fbfbfb"/><polygon points="66.419 76.734 66.417 76.736 67.06 79.321 67.058 79.307 66.419 76.734" style="fill:#fbfbfb"/><polygon points="66.364 76.512 67.058 79.307 66.844 76.308 66.839 76.236 66.364 76.512" style="fill:#5385a0"/><rect x="66.39" y="76.509" width="0.003" height="0.229" transform="translate(-16.485 18.223) rotate(-13.921)" style="fill:#fbfbfb"/><polygon points="66.844 76.308 67.058 79.307 67.06 79.313 67.276 75.875 66.844 76.308" style="fill:#f9e4bf"/><polygon points="67.06 79.321 67.06 79.313 67.058 79.307 67.06 79.321" style="fill:#fbfbfb"/><polygon points="66.844 76.308 67.276 75.875 66.839 76.236 66.844 76.308" style="fill:#fbfbfb"/><path d="M64.633,69.542h-.01a2.943,2.943,0,0,1-.542.087L65.787,76.5l.575.015Z" style="fill:#f7daa9"/><path d="M66.364,76.512l.475-.276-1.7-6.865a3.211,3.211,0,0,1-.5.171Z" style="fill:#f2c577"/><rect x="65.498" y="69.436" width="0.001" height="7.183" transform="translate(-15.656 17.919) rotate(-13.933)" style="fill:#f2c577"/><rect x="64.597" y="69.246" height="0.3" style="fill:#fff"/><path d="M64.081,69.63a2.943,2.943,0,0,0,.542-.087h.01l-.072-.291-.01,0a3.4,3.4,0,0,1-.427.077c-.352.038-.614,0-.644-.121l.073.292C63.579,69.605,63.789,69.649,64.081,69.63Z" style="fill:#eaeeef"/><path d="M65.134,69.371c.268-.121.432-.259.406-.364l-.072-.29c.026.105-.138.243-.407.363a3,3,0,0,1-.5.171l.072.291A3.211,3.211,0,0,0,65.134,69.371Z" style="fill:#3f5f7c"/><rect x="64.597" y="69.246" height="0.3" transform="translate(-14.806 17.591) rotate(-13.93)" style="fill:#385876"/><path d="M64.465,68.864l.1.387a3,3,0,0,0,.5-.171c.269-.12.433-.258.407-.363l-.1-.387C65.411,68.49,65.008,68.726,64.465,68.864Z" style="fill:#0f365a"/><path d="M64.124,69.331a3.4,3.4,0,0,0,.427-.077l.01,0h0l-.1-.387-.01,0c-.549.137-1.031.118-1.071-.042l.1.386C63.51,69.328,63.772,69.369,64.124,69.331Z" style="fill:#274b6c"/><path d="M64.455,68.866l.01,0-3.9-15.685-.01,0c-.549.137,2.536,14.482,2.5,14.322l.328,1.321C63.424,68.984,63.906,69,64.455,68.866Z" style="fill:#fd9696"/><path d="M60.57,53.179l3.9,15.685c.543-.138.946-.374.907-.534l-.329-1.321C65.083,67.168,61.113,53.042,60.57,53.179Z" style="fill:#fd6b6b"/><path d="M60.415,52.6c-.548.136,2.6,14.741,2.641,14.9s-3.045-14.185-2.5-14.322l.01,0-.144-.581Z" style="fill:#feaeae"/><path d="M60.426,52.6l.144.581c.543-.137,4.513,13.989,4.473,13.83S60.97,52.464,60.426,52.6Z" style="fill:#fd9696"/><path d="M65.787,76.5,59.655,51.807c-.293.019-.5-.025-.529-.129l6.134,24.7Z" style="fill:#f7daa9"/><rect x="63.284" y="51.342" height="25.548" transform="translate(-13.584 17.137) rotate(-13.943)" style="fill:#fff"/><path d="M67.276,75.875,60.945,50.507l.169.677c.026.105-.138.242-.407.363l6.132,24.689Z" style="fill:#f1bd64"/><path d="M66.362,76.513,60.207,51.718l-.01,0a3.03,3.03,0,0,1-.542.087L65.787,76.5Z" style="fill:#f9e4c1"/><path d="M66.839,76.236,60.707,51.547a2.884,2.884,0,0,1-.5.171l6.157,24.794Z" style="fill:#f2c577"/><rect x="63.284" y="51.342" width="0.001" height="25.547" transform="translate(-13.587 17.143) rotate(-13.946)" style="fill:#f2c577"/><rect x="60.171" y="51.423" height="0.3" style="fill:#fff"/><path d="M59.655,51.807a3.03,3.03,0,0,0,.542-.087l.01,0-.072-.291-.01,0a3.227,3.227,0,0,1-.427.077c-.352.039-.615,0-.643-.12l.071.291C59.152,51.782,59.362,51.826,59.655,51.807Z" style="fill:#eaeeef"/><path d="M60.707,51.547c.269-.121.433-.258.407-.363l-.073-.29c.026.105-.137.242-.406.363a2.974,2.974,0,0,1-.5.17l.072.291A2.884,2.884,0,0,0,60.707,51.547Z" style="fill:#3f5f7c"/><rect x="60.171" y="51.423" height="0.3" transform="translate(-10.66 16.03) rotate(-13.953)" style="fill:#385876"/><path d="M60.039,51.041l.1.386a2.974,2.974,0,0,0,.5-.17c.269-.121.432-.258.406-.363l-.1-.387C60.985,50.667,60.582,50.9,60.039,51.041Z" style="fill:#0f365a"/><path d="M59.7,51.507a3.227,3.227,0,0,0,.427-.077l.01,0h0l-.1-.386h-.01c-.549.137-1.031.119-1.071-.041l.1.386C59.083,51.5,59.346,51.546,59.7,51.507Z" style="fill:#274b6c"/><path d="M60.029,51.042h.01l-.329-1.322-.009,0c-.549.136-1.031.117-1.071-.043L58.958,51C59,51.161,59.48,51.179,60.029,51.042Z" style="fill:#fd9d9d"/><path d="M59.71,49.719l.329,1.322c.543-.137.946-.374.906-.534l-.328-1.321C60.657,49.345,60.254,49.583,59.71,49.719Z" style="fill:#fd6c6c"/><path d="M59.556,49.141c-.549.136-.966.378-.926.538s.522.179,1.071.043l.009,0-.144-.581Z" style="fill:#feaeae"/><path d="M59.566,49.138l.144.581c.544-.136.947-.374.907-.533S60.111,49.005,59.566,49.138Z" style="fill:#fd9696"/><path d="M66.95,79.124l.134.541c.027.108.1.183.162.169l-.183-.738Z" style="fill:#fd7979"/><path d="M67.063,79.1l.183.738h0c.062-.016.09-.117.063-.226l-.135-.54Z" style="fill:#fc4a4a"/><polygon points="69.673 79.204 69.783 73.625 71.739 74.02 69.673 79.204" style="fill:#195c8f"/><path d="M75.848,48.648l-1-.2q-1.729,7.11-3.129,14.3l1.228.248Z" style="fill:#f1bd66"/><path d="M76.847,48.85l-1-.2-2.9,14.346,1.229.249Q75.669,56.075,76.847,48.85Z" style="fill:#eeb149"/><path d="M70.761,73.822l1,.2c.871-3.578,1.669-7.177,2.418-10.781l-1.229-.249Z" style="fill:#f2c373"/><path d="M71.721,62.746c-.71,3.613-1.371,7.239-1.957,10.875l1,.2,2.188-10.828Z" style="fill:#f5d397"/><path d="M75.99,62.6a.4.4,0,0,1-.288-.236,3.314,3.314,0,0,1-.122-1.573c.051-.6.513-2.353,1.159-4.765.3-1.109.576-2.154.654-2.538.157-.782.334-3.006.4-3.943l-3.044-.615a.5.5,0,0,1,.2-.969l3.79.766-.03.425c-.009.139-.237,3.443-.453,4.511-.084.417-.355,1.43-.67,2.6-.454,1.7-1.077,4.025-1.124,4.573A2.894,2.894,0,0,0,76.5,61.9a.543.543,0,0,1-.226.65A.414.414,0,0,1,75.99,62.6Z" style="fill:#195c8f"/><rect x="60.489" y="62.715" width="15.221" height="1.727" style="fill:#204466"/><g style="clip-path:url(#clip-path)"><g style="clip-path:url(#clip-path-2)"><rect x="78.214" y="71.173" width="4.546" height="4.546" transform="translate(-28.36 78.44) rotate(-45.008)" style="fill:none;stroke:#204466;stroke-miterlimit:10;stroke-width:1.2857100000000001px"/><rect x="71.785" y="71.173" width="4.546" height="4.546" transform="translate(-30.243 73.885) rotate(-45.004)" style="fill:none;stroke:#204466;stroke-miterlimit:10;stroke-width:1.2857100000000001px"/><rect x="65.357" y="71.173" width="4.546" height="4.546" transform="translate(-32.126 69.339) rotate(-45.004)" style="fill:none;stroke:#204466;stroke-miterlimit:10;stroke-width:1.2857100000000001px"/><rect x="78.214" y="64.745" width="4.546" height="4.546" transform="translate(-23.815 76.542) rotate(-45)" style="fill:none;stroke:#204466;stroke-miterlimit:10;stroke-width:1.2857100000000001px"/><rect x="71.785" y="64.745" width="4.546" height="4.546" transform="translate(-25.698 71.988) rotate(-44.996)" style="fill:none;stroke:#204466;stroke-miterlimit:10;stroke-width:1.2857100000000001px"/><rect x="65.357" y="64.745" width="4.546" height="4.546" transform="translate(-27.581 67.443) rotate(-44.996)" style="fill:none;stroke:#204466;stroke-miterlimit:10;stroke-width:1.2857100000000001px"/><rect x="78.214" y="58.316" width="4.546" height="4.546" transform="translate(-19.269 74.659) rotate(-45)" style="fill:none;stroke:#204466;stroke-miterlimit:10;stroke-width:1.2857100000000001px"/><rect x="71.785" y="58.316" width="4.546" height="4.546" transform="translate(-21.153 70.106) rotate(-44.996)" style="fill:none;stroke:#204466;stroke-miterlimit:10;stroke-width:1.2857100000000001px"/><rect x="65.357" y="58.316" width="4.546" height="4.546" transform="translate(-23.035 65.56) rotate(-44.996)" style="fill:none;stroke:#204466;stroke-miterlimit:10;stroke-width:1.2857100000000001px"/></g><g style="clip-path:url(#clip-path-3)"><rect x="78.214" y="77.602" width="4.546" height="4.546" transform="translate(-32.906 80.323) rotate(-45.008)" style="fill:none;stroke:#204466;stroke-miterlimit:10;stroke-width:1.2857100000000001px"/><rect x="71.785" y="77.602" width="4.546" height="4.546" transform="translate(-34.789 75.769) rotate(-45.004)" style="fill:none;stroke:#204466;stroke-miterlimit:10;stroke-width:1.2857100000000001px"/><rect x="65.357" y="77.602" width="4.546" height="4.546" transform="translate(-36.672 71.223) rotate(-45.004)" style="fill:none;stroke:#204466;stroke-miterlimit:10;stroke-width:1.2857100000000001px"/><rect x="78.214" y="71.173" width="4.546" height="4.546" transform="translate(-28.36 78.44) rotate(-45.008)" style="fill:none;stroke:#204466;stroke-miterlimit:10;stroke-width:1.2857100000000001px"/><rect x="71.785" y="71.173" width="4.546" height="4.546" transform="translate(-30.243 73.885) rotate(-45.004)" style="fill:none;stroke:#204466;stroke-miterlimit:10;stroke-width:1.2857100000000001px"/><rect x="65.357" y="71.173" width="4.546" height="4.546" transform="translate(-32.126 69.339) rotate(-45.004)" style="fill:none;stroke:#204466;stroke-miterlimit:10;stroke-width:1.2857100000000001px"/><rect x="78.214" y="64.745" width="4.546" height="4.546" transform="translate(-23.815 76.542) rotate(-45)" style="fill:none;stroke:#204466;stroke-miterlimit:10;stroke-width:1.2857100000000001px"/><rect x="71.785" y="64.745" width="4.546" height="4.546" transform="translate(-25.698 71.988) rotate(-44.996)" style="fill:none;stroke:#204466;stroke-miterlimit:10;stroke-width:1.2857100000000001px"/><rect x="65.357" y="64.745" width="4.546" height="4.546" transform="translate(-27.581 67.443) rotate(-44.996)" style="fill:none;stroke:#204466;stroke-miterlimit:10;stroke-width:1.2857100000000001px"/></g><g style="clip-path:url(#clip-path-4)"><rect x="78.214" y="84.031" width="4.546" height="4.546" transform="translate(-37.452 82.207) rotate(-45.008)" style="fill:none;stroke:#204466;stroke-miterlimit:10;stroke-width:1.2857100000000001px"/><rect x="71.785" y="84.031" width="4.546" height="4.546" transform="translate(-39.335 77.652) rotate(-45.004)" style="fill:none;stroke:#204466;stroke-miterlimit:10;stroke-width:1.2857100000000001px"/><rect x="65.357" y="84.031" width="4.546" height="4.546" transform="translate(-41.218 73.106) rotate(-45.004)" style="fill:none;stroke:#204466;stroke-miterlimit:10;stroke-width:1.2857100000000001px"/><rect x="78.214" y="77.602" width="4.546" height="4.546" transform="translate(-32.906 80.323) rotate(-45.008)" style="fill:none;stroke:#204466;stroke-miterlimit:10;stroke-width:1.2857100000000001px"/><rect x="71.785" y="77.602" width="4.546" height="4.546" transform="translate(-34.789 75.769) rotate(-45.004)" style="fill:none;stroke:#204466;stroke-miterlimit:10;stroke-width:1.2857100000000001px"/><rect x="65.357" y="77.602" width="4.546" height="4.546" transform="translate(-36.672 71.223) rotate(-45.004)" style="fill:none;stroke:#204466;stroke-miterlimit:10;stroke-width:1.2857100000000001px"/><rect x="78.214" y="71.173" width="4.546" height="4.546" transform="translate(-28.36 78.44) rotate(-45.008)" style="fill:none;stroke:#204466;stroke-miterlimit:10;stroke-width:1.2857100000000001px"/><rect x="71.785" y="71.173" width="4.546" height="4.546" transform="translate(-30.243 73.885) rotate(-45.004)" style="fill:none;stroke:#204466;stroke-miterlimit:10;stroke-width:1.2857100000000001px"/><rect x="65.357" y="71.173" width="4.546" height="4.546" transform="translate(-32.126 69.339) rotate(-45.004)" style="fill:none;stroke:#204466;stroke-miterlimit:10;stroke-width:1.2857100000000001px"/></g><g style="clip-path:url(#clip-path-5)"><rect x="71.785" y="71.173" width="4.546" height="4.546" transform="translate(-30.243 73.885) rotate(-45.004)" style="fill:none;stroke:#204466;stroke-miterlimit:10;stroke-width:1.2857100000000001px"/><rect x="65.357" y="71.173" width="4.546" height="4.546" transform="translate(-32.126 69.339) rotate(-45.004)" style="fill:none;stroke:#204466;stroke-miterlimit:10;stroke-width:1.2857100000000001px"/><rect x="58.928" y="71.173" width="4.546" height="4.546" transform="translate(-34.009 64.793) rotate(-45.004)" style="fill:none;stroke:#204466;stroke-miterlimit:10;stroke-width:1.2857100000000001px"/><rect x="71.785" y="64.745" width="4.546" height="4.546" transform="translate(-25.698 71.988) rotate(-44.996)" style="fill:none;stroke:#204466;stroke-miterlimit:10;stroke-width:1.2857100000000001px"/><rect x="65.357" y="64.745" width="4.546" height="4.546" transform="translate(-27.581 67.443) rotate(-44.996)" style="fill:none;stroke:#204466;stroke-miterlimit:10;stroke-width:1.2857100000000001px"/><rect x="58.928" y="64.745" width="4.546" height="4.546" transform="translate(-29.463 62.898) rotate(-44.996)" style="fill:none;stroke:#204466;stroke-miterlimit:10;stroke-width:1.2857100000000001px"/><rect x="71.785" y="58.316" width="4.546" height="4.546" transform="translate(-21.153 70.106) rotate(-44.996)" style="fill:none;stroke:#204466;stroke-miterlimit:10;stroke-width:1.2857100000000001px"/><rect x="65.357" y="58.316" width="4.546" height="4.546" transform="translate(-23.035 65.56) rotate(-44.996)" style="fill:none;stroke:#204466;stroke-miterlimit:10;stroke-width:1.2857100000000001px"/><rect x="58.928" y="58.316" width="4.546" height="4.546" transform="translate(-24.918 61.015) rotate(-44.996)" style="fill:none;stroke:#204466;stroke-miterlimit:10;stroke-width:1.2857100000000001px"/></g><g style="clip-path:url(#clip-path-6)"><rect x="71.785" y="77.602" width="4.546" height="4.546" transform="translate(-34.789 75.769) rotate(-45.004)" style="fill:none;stroke:#204466;stroke-miterlimit:10;stroke-width:1.2857100000000001px"/><rect x="65.357" y="77.602" width="4.546" height="4.546" transform="translate(-36.672 71.223) rotate(-45.004)" style="fill:none;stroke:#204466;stroke-miterlimit:10;stroke-width:1.2857100000000001px"/><rect x="58.928" y="77.602" width="4.546" height="4.546" transform="translate(-38.556 66.677) rotate(-45.004)" style="fill:none;stroke:#204466;stroke-miterlimit:10;stroke-width:1.2857100000000001px"/><rect x="71.785" y="71.173" width="4.546" height="4.546" transform="translate(-30.243 73.885) rotate(-45.004)" style="fill:none;stroke:#204466;stroke-miterlimit:10;stroke-width:1.2857100000000001px"/><rect x="65.357" y="71.173" width="4.546" height="4.546" transform="translate(-32.126 69.339) rotate(-45.004)" style="fill:none;stroke:#204466;stroke-miterlimit:10;stroke-width:1.2857100000000001px"/><rect x="58.928" y="71.173" width="4.546" height="4.546" transform="translate(-34.009 64.793) rotate(-45.004)" style="fill:none;stroke:#204466;stroke-miterlimit:10;stroke-width:1.2857100000000001px"/><rect x="71.785" y="64.745" width="4.546" height="4.546" transform="translate(-25.698 71.988) rotate(-44.996)" style="fill:none;stroke:#204466;stroke-miterlimit:10;stroke-width:1.2857100000000001px"/><rect x="65.357" y="64.745" width="4.546" height="4.546" transform="translate(-27.581 67.443) rotate(-44.996)" style="fill:none;stroke:#204466;stroke-miterlimit:10;stroke-width:1.2857100000000001px"/><rect x="58.928" y="64.745" width="4.546" height="4.546" transform="translate(-29.463 62.898) rotate(-44.996)" style="fill:none;stroke:#204466;stroke-miterlimit:10;stroke-width:1.2857100000000001px"/></g><g style="clip-path:url(#clip-path-7)"><rect x="71.785" y="84.031" width="4.546" height="4.546" transform="translate(-39.335 77.652) rotate(-45.004)" style="fill:none;stroke:#204466;stroke-miterlimit:10;stroke-width:1.2857100000000001px"/><rect x="65.357" y="84.031" width="4.546" height="4.546" transform="translate(-41.218 73.106) rotate(-45.004)" style="fill:none;stroke:#204466;stroke-miterlimit:10;stroke-width:1.2857100000000001px"/><rect x="58.928" y="84.031" width="4.546" height="4.546" transform="translate(-43.102 68.56) rotate(-45.004)" style="fill:none;stroke:#204466;stroke-miterlimit:10;stroke-width:1.2857100000000001px"/><rect x="71.785" y="77.602" width="4.546" height="4.546" transform="translate(-34.789 75.769) rotate(-45.004)" style="fill:none;stroke:#204466;stroke-miterlimit:10;stroke-width:1.2857100000000001px"/><rect x="65.357" y="77.602" width="4.546" height="4.546" transform="translate(-36.672 71.223) rotate(-45.004)" style="fill:none;stroke:#204466;stroke-miterlimit:10;stroke-width:1.2857100000000001px"/><rect x="58.928" y="77.602" width="4.546" height="4.546" transform="translate(-38.556 66.677) rotate(-45.004)" style="fill:none;stroke:#204466;stroke-miterlimit:10;stroke-width:1.2857100000000001px"/><rect x="71.785" y="71.173" width="4.546" height="4.546" transform="translate(-30.243 73.885) rotate(-45.004)" style="fill:none;stroke:#204466;stroke-miterlimit:10;stroke-width:1.2857100000000001px"/><rect x="65.357" y="71.173" width="4.546" height="4.546" transform="translate(-32.126 69.339) rotate(-45.004)" style="fill:none;stroke:#204466;stroke-miterlimit:10;stroke-width:1.2857100000000001px"/><rect x="58.928" y="71.173" width="4.546" height="4.546" transform="translate(-34.009 64.793) rotate(-45.004)" style="fill:none;stroke:#204466;stroke-miterlimit:10;stroke-width:1.2857100000000001px"/></g><g style="clip-path:url(#clip-path-8)"><rect x="65.357" y="71.173" width="4.546" height="4.546" transform="translate(-32.126 69.339) rotate(-45.004)" style="fill:none;stroke:#204466;stroke-miterlimit:10;stroke-width:1.2857100000000001px"/><rect x="58.928" y="71.173" width="4.546" height="4.546" transform="translate(-34.009 64.793) rotate(-45.004)" style="fill:none;stroke:#204466;stroke-miterlimit:10;stroke-width:1.2857100000000001px"/><rect x="52.5" y="71.173" width="4.546" height="4.546" transform="translate(-35.893 60.249) rotate(-45.004)" style="fill:none;stroke:#204466;stroke-miterlimit:10;stroke-width:1.2857100000000001px"/><rect x="65.357" y="64.745" width="4.546" height="4.546" transform="translate(-27.581 67.443) rotate(-44.996)" style="fill:none;stroke:#204466;stroke-miterlimit:10;stroke-width:1.2857100000000001px"/><rect x="58.928" y="64.745" width="4.546" height="4.546" transform="translate(-29.463 62.898) rotate(-44.996)" style="fill:none;stroke:#204466;stroke-miterlimit:10;stroke-width:1.2857100000000001px"/><rect x="52.5" y="64.745" width="4.546" height="4.546" transform="translate(-31.346 58.354) rotate(-44.996)" style="fill:none;stroke:#204466;stroke-miterlimit:10;stroke-width:1.2857100000000001px"/><rect x="65.357" y="58.316" width="4.546" height="4.546" transform="translate(-23.035 65.56) rotate(-44.996)" style="fill:none;stroke:#204466;stroke-miterlimit:10;stroke-width:1.2857100000000001px"/><rect x="58.928" y="58.316" width="4.546" height="4.546" transform="translate(-24.918 61.015) rotate(-44.996)" style="fill:none;stroke:#204466;stroke-miterlimit:10;stroke-width:1.2857100000000001px"/><rect x="52.5" y="58.316" width="4.546" height="4.546" transform="translate(-26.8 56.471) rotate(-44.996)" style="fill:none;stroke:#204466;stroke-miterlimit:10;stroke-width:1.2857100000000001px"/></g><g style="clip-path:url(#clip-path-9)"><rect x="65.357" y="77.602" width="4.546" height="4.546" transform="translate(-36.672 71.223) rotate(-45.004)" style="fill:none;stroke:#204466;stroke-miterlimit:10;stroke-width:1.2857100000000001px"/><rect x="58.928" y="77.602" width="4.546" height="4.546" transform="translate(-38.556 66.677) rotate(-45.004)" style="fill:none;stroke:#204466;stroke-miterlimit:10;stroke-width:1.2857100000000001px"/><rect x="52.5" y="77.602" width="4.546" height="4.546" transform="translate(-40.439 62.132) rotate(-45.004)" style="fill:none;stroke:#204466;stroke-miterlimit:10;stroke-width:1.2857100000000001px"/><rect x="65.357" y="71.173" width="4.546" height="4.546" transform="translate(-32.126 69.339) rotate(-45.004)" style="fill:none;stroke:#204466;stroke-miterlimit:10;stroke-width:1.2857100000000001px"/><rect x="58.928" y="71.173" width="4.546" height="4.546" transform="translate(-34.009 64.793) rotate(-45.004)" style="fill:none;stroke:#204466;stroke-miterlimit:10;stroke-width:1.2857100000000001px"/><rect x="52.5" y="71.173" width="4.546" height="4.546" transform="translate(-35.893 60.249) rotate(-45.004)" style="fill:none;stroke:#204466;stroke-miterlimit:10;stroke-width:1.2857100000000001px"/><rect x="65.357" y="64.745" width="4.546" height="4.546" transform="translate(-27.581 67.443) rotate(-44.996)" style="fill:none;stroke:#204466;stroke-miterlimit:10;stroke-width:1.2857100000000001px"/><rect x="58.928" y="64.745" width="4.546" height="4.546" transform="translate(-29.463 62.898) rotate(-44.996)" style="fill:none;stroke:#204466;stroke-miterlimit:10;stroke-width:1.2857100000000001px"/><rect x="52.5" y="64.745" width="4.546" height="4.546" transform="translate(-31.346 58.354) rotate(-44.996)" style="fill:none;stroke:#204466;stroke-miterlimit:10;stroke-width:1.2857100000000001px"/></g><g style="clip-path:url(#clip-path-10)"><rect x="65.357" y="84.031" width="4.546" height="4.546" transform="translate(-41.218 73.106) rotate(-45.004)" style="fill:none;stroke:#204466;stroke-miterlimit:10;stroke-width:1.2857100000000001px"/><rect x="58.928" y="84.031" width="4.546" height="4.546" transform="translate(-43.102 68.56) rotate(-45.004)" style="fill:none;stroke:#204466;stroke-miterlimit:10;stroke-width:1.2857100000000001px"/><rect x="52.5" y="84.031" width="4.546" height="4.546" transform="translate(-44.985 64.015) rotate(-45.004)" style="fill:none;stroke:#204466;stroke-miterlimit:10;stroke-width:1.2857100000000001px"/><rect x="65.357" y="77.602" width="4.546" height="4.546" transform="translate(-36.672 71.223) rotate(-45.004)" style="fill:none;stroke:#204466;stroke-miterlimit:10;stroke-width:1.2857100000000001px"/><rect x="58.928" y="77.602" width="4.546" height="4.546" transform="translate(-38.556 66.677) rotate(-45.004)" style="fill:none;stroke:#204466;stroke-miterlimit:10;stroke-width:1.2857100000000001px"/><rect x="52.5" y="77.602" width="4.546" height="4.546" transform="translate(-40.439 62.132) rotate(-45.004)" style="fill:none;stroke:#204466;stroke-miterlimit:10;stroke-width:1.2857100000000001px"/><rect x="65.357" y="71.173" width="4.546" height="4.546" transform="translate(-32.126 69.339) rotate(-45.004)" style="fill:none;stroke:#204466;stroke-miterlimit:10;stroke-width:1.2857100000000001px"/><rect x="58.928" y="71.173" width="4.546" height="4.546" transform="translate(-34.009 64.793) rotate(-45.004)" style="fill:none;stroke:#204466;stroke-miterlimit:10;stroke-width:1.2857100000000001px"/><rect x="52.5" y="71.173" width="4.546" height="4.546" transform="translate(-35.893 60.249) rotate(-45.004)" style="fill:none;stroke:#204466;stroke-miterlimit:10;stroke-width:1.2857100000000001px"/></g></g><path d="M71.068,80.572H65.13c-2.183,0-3.959-1.464-3.959-3.265V63.9H75.027v13.4C75.027,79.108,73.251,80.572,71.068,80.572ZM62.251,64.984V77.307c0,1.2,1.291,2.185,2.879,2.185h5.938c1.588,0,2.879-.98,2.879-2.185V64.984Z" style="fill:#204466"/><rect x="63.741" y="80.032" width="8.717" height="0.822" style="fill:#204466"/><path d="M198.388,62.421c-.027.005-.012-.008-.089-.005a1.73,1.73,0,0,0-.331.037,1.646,1.646,0,0,0-.982.524,1.592,1.592,0,0,0-.325.763c-.02.407-.042.837-.064,1.281-.045.888-.094,1.835-.143,2.782-.191,3.79-.383,7.579-.383,7.579s-.191-3.789-.384-7.579c-.046-.947-.094-1.894-.139-2.782-.024-.444-.045-.874-.066-1.281a3.1,3.1,0,0,1,.177-1.451,3.326,3.326,0,0,1,1.565-1.667,3.965,3.965,0,0,1,.584-.259c.137-.051.27-.078.245-.074Z" style="fill:#8dc63f"/><path d="M196.071,80.226a10.241,10.241,0,0,1-1.394.554c-2.911.557-5.5-2.121-6.028-5.037l-.909-2.826c-.678-3.756,2.236-7.661,6.027-7.21.587.069,2.3.553,2.3.553Z" style="fill:#fc4a4a"/><path d="M196.071,80.226a10.265,10.265,0,0,0,1.4.554c2.91.557,5.5-2.121,6.026-5.037l.909-2.826c.678-3.756-2.236-7.661-6.027-7.21-.588.069-2.305.553-2.305.553V80.226Z" style="fill:#fc4a4a"/><path d="M191.306,71.692H191.3a2.542,2.542,0,0,1-.809-2.166,3.578,3.578,0,0,1,.339-1.229,1.641,1.641,0,0,1,2.211-.857l.017.013c.469.355-.089.861-.747,1.618a3.022,3.022,0,0,0-.557.946C191.375,70.922,191.486,71.716,191.306,71.692Z" style="fill:#ffc2c2"/><rect x="226.562" y="77.747" width="41.417" height="3.108" rx="1.538" style="fill:#eb585a"/><rect x="238.673" y="60.291" width="39.381" height="0.935" transform="translate(114.189 283.598) rotate(-70.331)" style="fill:#eb585a"/><rect x="231.529" y="59.479" width="40.795" height="0.934" transform="translate(115.536 280.077) rotate(-71.603)" style="fill:#eb585a"/><polygon points="258.364 40.591 264.991 42.215 259.751 34.943 257.931 36.4 258.364 40.591" style="fill:#eb585a"/><path d="M264.88,42.669l-6.627-1.626a.464.464,0,0,1-.354-.405l-.433-4.19a.467.467,0,0,1,.172-.412l1.823-1.457a.465.465,0,0,1,.669.092l5.24,7.274a.468.468,0,0,1,.008.533.463.463,0,0,1-.387.2A.469.469,0,0,1,264.88,42.669ZM258.42,36.6l.375,3.61,5.077,1.246-4.213-5.847Z" style="fill:#eb585a"/><rect x="248.268" y="5.817" width="0.934" height="33.293" transform="translate(47.29 170.09) rotate(-41.396)" style="fill:#eb585a"/><rect x="246.304" y="8.13" width="0.934" height="32.675" transform="translate(49.954 175.324) rotate(-43.132)" style="fill:#eb585a"/><polygon points="232.516 11.259 235.611 12.535 237.718 9.984 233.79 9.984 232.516 11.259" style="fill:#eb585a"/><path d="M235.435,12.966l-3.1-1.276a.466.466,0,0,1-.152-.761l1.276-1.275a.46.46,0,0,1,.329-.136h3.928a.466.466,0,0,1,.36.763l-2.1,2.551a.471.471,0,0,1-.362.169A.453.453,0,0,1,235.435,12.966Zm-1.452-2.516-.642.644,2.131.878,1.256-1.522Z" style="fill:#eb585a"/><path d="M226.854,11.259V9.984a.468.468,0,0,1,.469-.466h6.467a.466.466,0,0,1,.467.466v1.275a.466.466,0,0,1-.467.466h-6.467A.468.468,0,0,1,226.854,11.259Zm6.47-.809H227.79v.343h5.534Z" style="fill:#eb585a"/><path d="M223.908,6.956a1.959,1.959,0,0,1,2.349-1.469l.826.192-2.334,9.558-2.612-.6Z" style="fill:#eb585a"/><path d="M227.678,5.815a1.959,1.959,0,0,1,1.467,2.349l-1.771,7.677-2.625-.6,2.334-9.558Z" style="fill:#eb585a"/><path d="M226.865,15.725a6.8,6.8,0,0,1,5.23,7.406L230.574,36.4,220.167,34l4.582-18.761Z" style="fill:#eb585a"/><path d="M214.7,19.115a6.807,6.807,0,0,1,7.949-4.364l2.1.486L220.167,34l-9.918-2.289Z" style="fill:#eb585a"/><path d="M32.655,62.831a9.118,9.118,0,0,1,9.108-9.109V52.4a7.477,7.477,0,1,1,0-14.953V33.1H33.8a4.341,4.341,0,0,0-4.341,4.341V80.854h12.3V71.938A9.117,9.117,0,0,1,32.655,62.831Z" style="fill:#ffbc5a"/><path d="M54.062,37.443A4.341,4.341,0,0,0,49.721,33.1H41.763v4.341a7.477,7.477,0,0,1,0,14.953v1.326a9.108,9.108,0,1,1,0,18.216v8.916h12.3Z" style="fill:#eeb149"/><path d="M47.792,44.919a6.03,6.03,0,0,1-6.029,6.03V52.4a7.477,7.477,0,0,0,0-14.953V38.89A6.029,6.029,0,0,1,47.792,44.919Z" style="fill:#ffbc5a"/><path d="M34.286,44.919A7.485,7.485,0,0,0,41.763,52.4V50.949a6.03,6.03,0,1,1,0-12.059V37.443A7.485,7.485,0,0,0,34.286,44.919Z" style="fill:#eeb149"/><path d="M35.733,44.919a6.03,6.03,0,0,0,6.03,6.03V38.89A6.03,6.03,0,0,0,35.733,44.919Z" style="fill:#0f365a"/><path d="M47.792,44.919a6.029,6.029,0,0,0-6.029-6.029V50.949A6.03,6.03,0,0,0,47.792,44.919Z" style="fill:#274b6c"/><path d="M49.423,62.831a7.661,7.661,0,0,1-7.66,7.661v1.446a9.108,9.108,0,1,0,0-18.216v1.447A7.66,7.66,0,0,1,49.423,62.831Z" style="fill:#ffbc5a"/><path d="M32.655,62.831a9.117,9.117,0,0,0,9.108,9.107V70.492a7.662,7.662,0,0,1,0-15.323V53.722A9.118,9.118,0,0,0,32.655,62.831Z" style="fill:#eeb149"/><path d="M34.1,62.831a7.661,7.661,0,0,0,7.661,7.661V55.169A7.661,7.661,0,0,0,34.1,62.831Z" style="fill:#0f365a"/><path d="M49.423,62.831a7.66,7.66,0,0,0-7.66-7.662V70.492A7.661,7.661,0,0,0,49.423,62.831Z" style="fill:#274b6c"/><rect x="14.151" y="95.449" width="252.812" height="4.361" style="fill:#f0ead8"/><path d="M212.213,72.792h3.116a1.058,1.058,0,0,1,1.058,1.058v.025a1.058,1.058,0,0,1-1.058,1.058h-3.116a1.059,1.059,0,0,1-1.059-1.059v-.022a1.059,1.059,0,0,1,1.059-1.059Z" style="fill:#274b6c"/><path d="M222.461,80.854H204.412a7.225,7.225,0,0,1,7.165-7.235h.722a13.621,13.621,0,0,1,10.941,5.508l.055.072A1.038,1.038,0,0,1,222.461,80.854Z" style="fill:#062635"/><path d="M205.582,80.389l-1.071-.13a5.859,5.859,0,0,1,4.755-4.8c6.715-1.277,13.243,3.739,13.52,3.954l-.664.851c-.064-.05-6.436-4.927-12.654-3.744A4.744,4.744,0,0,0,205.582,80.389Z" style="fill:#193556"/><path d="M64.081,69.63c-.292.019-.5-.025-.528-.128l1.707,6.874.527.122Z" style="fill:#f7daa9"/><polygon points="64.633 69.542 64.633 69.542 66.362 76.513 64.633 69.542" style="fill:#fff"/><path d="M65.54,69.007c.026.1-.138.243-.406.364l1.7,6.865.437-.361-1.9-7.545Z" style="fill:#f2c577"/><polygon points="65.787 76.498 65.809 76.546 67.06 79.321 66.362 76.513 65.787 76.498" style="fill:#133141"/><polygon points="65.26 76.376 67.06 79.321 65.809 76.546 65.26 76.376" style="fill:#83a7bb"/><polygon points="65.787 76.498 65.26 76.376 65.809 76.546 65.787 76.498" style="fill:#fbfbfb"/><polygon points="66.419 76.734 66.417 76.736 67.06 79.321 67.058 79.307 66.419 76.734" style="fill:#fbfbfb"/><polygon points="66.364 76.512 67.058 79.307 66.844 76.308 66.839 76.236 66.364 76.512" style="fill:#5385a0"/><rect x="66.39" y="76.509" width="0.003" height="0.229" transform="translate(-16.485 18.223) rotate(-13.921)" style="fill:#fbfbfb"/><polygon points="66.844 76.308 67.058 79.307 67.06 79.313 67.276 75.875 66.844 76.308" style="fill:#f9e4bf"/><polygon points="67.06 79.321 67.06 79.313 67.058 79.307 67.06 79.321" style="fill:#fbfbfb"/><polygon points="66.844 76.308 67.276 75.875 66.839 76.236 66.844 76.308" style="fill:#fbfbfb"/><path d="M64.633,69.542h-.01a2.943,2.943,0,0,1-.542.087L65.787,76.5l.575.015Z" style="fill:#f7daa9"/><path d="M66.364,76.512l.475-.276-1.7-6.865a3.211,3.211,0,0,1-.5.171Z" style="fill:#f2c577"/><rect x="65.498" y="69.436" width="0.001" height="7.183" transform="translate(-15.656 17.919) rotate(-13.933)" style="fill:#f2c577"/><rect x="64.597" y="69.246" height="0.3" style="fill:#fff"/><path d="M64.081,69.63a2.943,2.943,0,0,0,.542-.087h.01l-.072-.291-.01,0a3.4,3.4,0,0,1-.427.077c-.352.038-.614,0-.644-.121l.073.292C63.579,69.605,63.789,69.649,64.081,69.63Z" style="fill:#eaeeef"/><path d="M65.134,69.371c.268-.121.432-.259.406-.364l-.072-.29c.026.105-.138.243-.407.363a3,3,0,0,1-.5.171l.072.291A3.211,3.211,0,0,0,65.134,69.371Z" style="fill:#3f5f7c"/><rect x="64.597" y="69.246" height="0.3" transform="translate(-14.806 17.591) rotate(-13.93)" style="fill:#385876"/><path d="M64.465,68.864l.1.387a3,3,0,0,0,.5-.171c.269-.12.433-.258.407-.363l-.1-.387C65.411,68.49,65.008,68.726,64.465,68.864Z" style="fill:#0f365a"/><path d="M64.124,69.331a3.4,3.4,0,0,0,.427-.077l.01,0h0l-.1-.387-.01,0c-.549.137-1.031.118-1.071-.042l.1.386C63.51,69.328,63.772,69.369,64.124,69.331Z" style="fill:#274b6c"/><path d="M64.455,68.866l.01,0-3.9-15.685-.01,0c-.549.137,2.536,14.482,2.5,14.322l.328,1.321C63.424,68.984,63.906,69,64.455,68.866Z" style="fill:#fd9696"/><path d="M60.57,53.179l3.9,15.685c.543-.138.946-.374.907-.534l-.329-1.321C65.083,67.168,61.113,53.042,60.57,53.179Z" style="fill:#fd6b6b"/><path d="M60.415,52.6c-.548.136,2.6,14.741,2.641,14.9s-3.045-14.185-2.5-14.322l.01,0-.144-.581Z" style="fill:#feaeae"/><path d="M60.426,52.6l.144.581c.543-.137,4.513,13.989,4.473,13.83S60.97,52.464,60.426,52.6Z" style="fill:#fd9696"/><path d="M65.787,76.5,59.655,51.807c-.293.019-.5-.025-.529-.129l6.134,24.7Z" style="fill:#f7daa9"/><rect x="63.284" y="51.342" height="25.548" transform="translate(-13.584 17.137) rotate(-13.943)" style="fill:#fff"/><path d="M67.276,75.875,60.945,50.507l.169.677c.026.105-.138.242-.407.363l6.132,24.689Z" style="fill:#f1bd64"/><path d="M66.362,76.513,60.207,51.718l-.01,0a3.03,3.03,0,0,1-.542.087L65.787,76.5Z" style="fill:#f9e4c1"/><path d="M66.839,76.236,60.707,51.547a2.884,2.884,0,0,1-.5.171l6.157,24.794Z" style="fill:#f2c577"/><rect x="63.284" y="51.342" width="0.001" height="25.547" transform="translate(-13.587 17.143) rotate(-13.946)" style="fill:#f2c577"/><rect x="60.171" y="51.423" height="0.3" style="fill:#fff"/><path d="M59.655,51.807a3.03,3.03,0,0,0,.542-.087l.01,0-.072-.291-.01,0a3.227,3.227,0,0,1-.427.077c-.352.039-.615,0-.643-.12l.071.291C59.152,51.782,59.362,51.826,59.655,51.807Z" style="fill:#eaeeef"/><path d="M60.707,51.547c.269-.121.433-.258.407-.363l-.073-.29c.026.105-.137.242-.406.363a2.974,2.974,0,0,1-.5.17l.072.291A2.884,2.884,0,0,0,60.707,51.547Z" style="fill:#3f5f7c"/><rect x="60.171" y="51.423" height="0.3" transform="translate(-10.66 16.03) rotate(-13.953)" style="fill:#385876"/><path d="M60.039,51.041l.1.386a2.974,2.974,0,0,0,.5-.17c.269-.121.432-.258.406-.363l-.1-.387C60.985,50.667,60.582,50.9,60.039,51.041Z" style="fill:#0f365a"/><path d="M59.7,51.507a3.227,3.227,0,0,0,.427-.077l.01,0h0l-.1-.386h-.01c-.549.137-1.031.119-1.071-.041l.1.386C59.083,51.5,59.346,51.546,59.7,51.507Z" style="fill:#274b6c"/><path d="M60.029,51.042h.01l-.329-1.322-.009,0c-.549.136-1.031.117-1.071-.043L58.958,51C59,51.161,59.48,51.179,60.029,51.042Z" style="fill:#fd9d9d"/><path d="M59.71,49.719l.329,1.322c.543-.137.946-.374.906-.534l-.328-1.321C60.657,49.345,60.254,49.583,59.71,49.719Z" style="fill:#fd6c6c"/><path d="M59.556,49.141c-.549.136-.966.378-.926.538s.522.179,1.071.043l.009,0-.144-.581Z" style="fill:#feaeae"/><path d="M59.566,49.138l.144.581c.544-.136.947-.374.907-.533S60.111,49.005,59.566,49.138Z" style="fill:#fd9696"/><path d="M66.95,79.124l.134.541c.027.108.1.183.162.169l-.183-.738Z" style="fill:#fd7979"/><path d="M67.063,79.1l.183.738h0c.062-.016.09-.117.063-.226l-.135-.54Z" style="fill:#fc4a4a"/><polygon points="69.673 79.204 69.783 73.625 71.739 74.02 69.673 79.204" style="fill:#195c8f"/><path d="M75.848,48.648l-1-.2q-1.729,7.11-3.129,14.3l1.228.248Z" style="fill:#f1bd66"/><path d="M76.847,48.85l-1-.2-2.9,14.346,1.229.249Q75.669,56.075,76.847,48.85Z" style="fill:#eeb149"/><path d="M70.761,73.822l1,.2c.871-3.578,1.669-7.177,2.418-10.781l-1.229-.249Z" style="fill:#f2c373"/><path d="M71.721,62.746c-.71,3.613-1.371,7.239-1.957,10.875l1,.2,2.188-10.828Z" style="fill:#f5d397"/><path d="M75.99,62.6a.4.4,0,0,1-.288-.236,3.314,3.314,0,0,1-.122-1.573c.051-.6.513-2.353,1.159-4.765.3-1.109.576-2.154.654-2.538.157-.782.334-3.006.4-3.943l-3.044-.615a.5.5,0,0,1,.2-.969l3.79.766-.03.425c-.009.139-.237,3.443-.453,4.511-.084.417-.355,1.43-.67,2.6-.454,1.7-1.077,4.025-1.124,4.573A2.894,2.894,0,0,0,76.5,61.9a.543.543,0,0,1-.226.65A.414.414,0,0,1,75.99,62.6Z" style="fill:#195c8f"/><rect x="60.489" y="62.715" width="15.221" height="1.727" style="fill:#204466"/><g style="clip-path:url(#clip-path)"><g style="clip-path:url(#clip-path-2)"><rect x="78.214" y="71.173" width="4.546" height="4.546" transform="translate(-28.36 78.44) rotate(-45.008)" style="fill:none;stroke:#204466;stroke-miterlimit:10;stroke-width:1.2857100000000001px"/><rect x="71.785" y="71.173" width="4.546" height="4.546" transform="translate(-30.243 73.885) rotate(-45.004)" style="fill:none;stroke:#204466;stroke-miterlimit:10;stroke-width:1.2857100000000001px"/><rect x="65.357" y="71.173" width="4.546" height="4.546" transform="translate(-32.126 69.339) rotate(-45.004)" style="fill:none;stroke:#204466;stroke-miterlimit:10;stroke-width:1.2857100000000001px"/><rect x="78.214" y="64.745" width="4.546" height="4.546" transform="translate(-23.815 76.542) rotate(-45)" style="fill:none;stroke:#204466;stroke-miterlimit:10;stroke-width:1.2857100000000001px"/><rect x="71.785" y="64.745" width="4.546" height="4.546" transform="translate(-25.698 71.988) rotate(-44.996)" style="fill:none;stroke:#204466;stroke-miterlimit:10;stroke-width:1.2857100000000001px"/><rect x="65.357" y="64.745" width="4.546" height="4.546" transform="translate(-27.581 67.443) rotate(-44.996)" style="fill:none;stroke:#204466;stroke-miterlimit:10;stroke-width:1.2857100000000001px"/><rect x="78.214" y="58.316" width="4.546" height="4.546" transform="translate(-19.269 74.659) rotate(-45)" style="fill:none;stroke:#204466;stroke-miterlimit:10;stroke-width:1.2857100000000001px"/><rect x="71.785" y="58.316" width="4.546" height="4.546" transform="translate(-21.153 70.106) rotate(-44.996)" style="fill:none;stroke:#204466;stroke-miterlimit:10;stroke-width:1.2857100000000001px"/><rect x="65.357" y="58.316" width="4.546" height="4.546" transform="translate(-23.035 65.56) rotate(-44.996)" style="fill:none;stroke:#204466;stroke-miterlimit:10;stroke-width:1.2857100000000001px"/></g><g style="clip-path:url(#clip-path-3)"><rect x="78.214" y="77.602" width="4.546" height="4.546" transform="translate(-32.906 80.323) rotate(-45.008)" style="fill:none;stroke:#204466;stroke-miterlimit:10;stroke-width:1.2857100000000001px"/><rect x="71.785" y="77.602" width="4.546" height="4.546" transform="translate(-34.789 75.769) rotate(-45.004)" style="fill:none;stroke:#204466;stroke-miterlimit:10;stroke-width:1.2857100000000001px"/><rect x="65.357" y="77.602" width="4.546" height="4.546" transform="translate(-36.672 71.223) rotate(-45.004)" style="fill:none;stroke:#204466;stroke-miterlimit:10;stroke-width:1.2857100000000001px"/><rect x="78.214" y="71.173" width="4.546" height="4.546" transform="translate(-28.36 78.44) rotate(-45.008)" style="fill:none;stroke:#204466;stroke-miterlimit:10;stroke-width:1.2857100000000001px"/><rect x="71.785" y="71.173" width="4.546" height="4.546" transform="translate(-30.243 73.885) rotate(-45.004)" style="fill:none;stroke:#204466;stroke-miterlimit:10;stroke-width:1.2857100000000001px"/><rect x="65.357" y="71.173" width="4.546" height="4.546" transform="translate(-32.126 69.339) rotate(-45.004)" style="fill:none;stroke:#204466;stroke-miterlimit:10;stroke-width:1.2857100000000001px"/><rect x="78.214" y="64.745" width="4.546" height="4.546" transform="translate(-23.815 76.542) rotate(-45)" style="fill:none;stroke:#204466;stroke-miterlimit:10;stroke-width:1.2857100000000001px"/><rect x="71.785" y="64.745" width="4.546" height="4.546" transform="translate(-25.698 71.988) rotate(-44.996)" style="fill:none;stroke:#204466;stroke-miterlimit:10;stroke-width:1.2857100000000001px"/><rect x="65.357" y="64.745" width="4.546" height="4.546" transform="translate(-27.581 67.443) rotate(-44.996)" style="fill:none;stroke:#204466;stroke-miterlimit:10;stroke-width:1.2857100000000001px"/></g><g style="clip-path:url(#clip-path-4)"><rect x="78.214" y="84.031" width="4.546" height="4.546" transform="translate(-37.452 82.207) rotate(-45.008)" style="fill:none;stroke:#204466;stroke-miterlimit:10;stroke-width:1.2857100000000001px"/><rect x="71.785" y="84.031" width="4.546" height="4.546" transform="translate(-39.335 77.652) rotate(-45.004)" style="fill:none;stroke:#204466;stroke-miterlimit:10;stroke-width:1.2857100000000001px"/><rect x="65.357" y="84.031" width="4.546" height="4.546" transform="translate(-41.218 73.106) rotate(-45.004)" style="fill:none;stroke:#204466;stroke-miterlimit:10;stroke-width:1.2857100000000001px"/><rect x="78.214" y="77.602" width="4.546" height="4.546" transform="translate(-32.906 80.323) rotate(-45.008)" style="fill:none;stroke:#204466;stroke-miterlimit:10;stroke-width:1.2857100000000001px"/><rect x="71.785" y="77.602" width="4.546" height="4.546" transform="translate(-34.789 75.769) rotate(-45.004)" style="fill:none;stroke:#204466;stroke-miterlimit:10;stroke-width:1.2857100000000001px"/><rect x="65.357" y="77.602" width="4.546" height="4.546" transform="translate(-36.672 71.223) rotate(-45.004)" style="fill:none;stroke:#204466;stroke-miterlimit:10;stroke-width:1.2857100000000001px"/><rect x="78.214" y="71.173" width="4.546" height="4.546" transform="translate(-28.36 78.44) rotate(-45.008)" style="fill:none;stroke:#204466;stroke-miterlimit:10;stroke-width:1.2857100000000001px"/><rect x="71.785" y="71.173" width="4.546" height="4.546" transform="translate(-30.243 73.885) rotate(-45.004)" style="fill:none;stroke:#204466;stroke-miterlimit:10;stroke-width:1.2857100000000001px"/><rect x="65.357" y="71.173" width="4.546" height="4.546" transform="translate(-32.126 69.339) rotate(-45.004)" style="fill:none;stroke:#204466;stroke-miterlimit:10;stroke-width:1.2857100000000001px"/></g><g style="clip-path:url(#clip-path-5)"><rect x="71.785" y="71.173" width="4.546" height="4.546" transform="translate(-30.243 73.885) rotate(-45.004)" style="fill:none;stroke:#204466;stroke-miterlimit:10;stroke-width:1.2857100000000001px"/><rect x="65.357" y="71.173" width="4.546" height="4.546" transform="translate(-32.126 69.339) rotate(-45.004)" style="fill:none;stroke:#204466;stroke-miterlimit:10;stroke-width:1.2857100000000001px"/><rect x="58.928" y="71.173" width="4.546" height="4.546" transform="translate(-34.009 64.793) rotate(-45.004)" style="fill:none;stroke:#204466;stroke-miterlimit:10;stroke-width:1.2857100000000001px"/><rect x="71.785" y="64.745" width="4.546" height="4.546" transform="translate(-25.698 71.988) rotate(-44.996)" style="fill:none;stroke:#204466;stroke-miterlimit:10;stroke-width:1.2857100000000001px"/><rect x="65.357" y="64.745" width="4.546" height="4.546" transform="translate(-27.581 67.443) rotate(-44.996)" style="fill:none;stroke:#204466;stroke-miterlimit:10;stroke-width:1.2857100000000001px"/><rect x="58.928" y="64.745" width="4.546" height="4.546" transform="translate(-29.463 62.898) rotate(-44.996)" style="fill:none;stroke:#204466;stroke-miterlimit:10;stroke-width:1.2857100000000001px"/><rect x="71.785" y="58.316" width="4.546" height="4.546" transform="translate(-21.153 70.106) rotate(-44.996)" style="fill:none;stroke:#204466;stroke-miterlimit:10;stroke-width:1.2857100000000001px"/><rect x="65.357" y="58.316" width="4.546" height="4.546" transform="translate(-23.035 65.56) rotate(-44.996)" style="fill:none;stroke:#204466;stroke-miterlimit:10;stroke-width:1.2857100000000001px"/><rect x="58.928" y="58.316" width="4.546" height="4.546" transform="translate(-24.918 61.015) rotate(-44.996)" style="fill:none;stroke:#204466;stroke-miterlimit:10;stroke-width:1.2857100000000001px"/></g><g style="clip-path:url(#clip-path-6)"><rect x="71.785" y="77.602" width="4.546" height="4.546" transform="translate(-34.789 75.769) rotate(-45.004)" style="fill:none;stroke:#204466;stroke-miterlimit:10;stroke-width:1.2857100000000001px"/><rect x="65.357" y="77.602" width="4.546" height="4.546" transform="translate(-36.672 71.223) rotate(-45.004)" style="fill:none;stroke:#204466;stroke-miterlimit:10;stroke-width:1.2857100000000001px"/><rect x="58.928" y="77.602" width="4.546" height="4.546" transform="translate(-38.556 66.677) rotate(-45.004)" style="fill:none;stroke:#204466;stroke-miterlimit:10;stroke-width:1.2857100000000001px"/><rect x="71.785" y="71.173" width="4.546" height="4.546" transform="translate(-30.243 73.885) rotate(-45.004)" style="fill:none;stroke:#204466;stroke-miterlimit:10;stroke-width:1.2857100000000001px"/><rect x="65.357" y="71.173" width="4.546" height="4.546" transform="translate(-32.126 69.339) rotate(-45.004)" style="fill:none;stroke:#204466;stroke-miterlimit:10;stroke-width:1.2857100000000001px"/><rect x="58.928" y="71.173" width="4.546" height="4.546" transform="translate(-34.009 64.793) rotate(-45.004)" style="fill:none;stroke:#204466;stroke-miterlimit:10;stroke-width:1.2857100000000001px"/><rect x="71.785" y="64.745" width="4.546" height="4.546" transform="translate(-25.698 71.988) rotate(-44.996)" style="fill:none;stroke:#204466;stroke-miterlimit:10;stroke-width:1.2857100000000001px"/><rect x="65.357" y="64.745" width="4.546" height="4.546" transform="translate(-27.581 67.443) rotate(-44.996)" style="fill:none;stroke:#204466;stroke-miterlimit:10;stroke-width:1.2857100000000001px"/><rect x="58.928" y="64.745" width="4.546" height="4.546" transform="translate(-29.463 62.898) rotate(-44.996)" style="fill:none;stroke:#204466;stroke-miterlimit:10;stroke-width:1.2857100000000001px"/></g><g style="clip-path:url(#clip-path-7)"><rect x="71.785" y="84.031" width="4.546" height="4.546" transform="translate(-39.335 77.652) rotate(-45.004)" style="fill:none;stroke:#204466;stroke-miterlimit:10;stroke-width:1.2857100000000001px"/><rect x="65.357" y="84.031" width="4.546" height="4.546" transform="translate(-41.218 73.106) rotate(-45.004)" style="fill:none;stroke:#204466;stroke-miterlimit:10;stroke-width:1.2857100000000001px"/><rect x="58.928" y="84.031" width="4.546" height="4.546" transform="translate(-43.102 68.56) rotate(-45.004)" style="fill:none;stroke:#204466;stroke-miterlimit:10;stroke-width:1.2857100000000001px"/><rect x="71.785" y="77.602" width="4.546" height="4.546" transform="translate(-34.789 75.769) rotate(-45.004)" style="fill:none;stroke:#204466;stroke-miterlimit:10;stroke-width:1.2857100000000001px"/><rect x="65.357" y="77.602" width="4.546" height="4.546" transform="translate(-36.672 71.223) rotate(-45.004)" style="fill:none;stroke:#204466;stroke-miterlimit:10;stroke-width:1.2857100000000001px"/><rect x="58.928" y="77.602" width="4.546" height="4.546" transform="translate(-38.556 66.677) rotate(-45.004)" style="fill:none;stroke:#204466;stroke-miterlimit:10;stroke-width:1.2857100000000001px"/><rect x="71.785" y="71.173" width="4.546" height="4.546" transform="translate(-30.243 73.885) rotate(-45.004)" style="fill:none;stroke:#204466;stroke-miterlimit:10;stroke-width:1.2857100000000001px"/><rect x="65.357" y="71.173" width="4.546" height="4.546" transform="translate(-32.126 69.339) rotate(-45.004)" style="fill:none;stroke:#204466;stroke-miterlimit:10;stroke-width:1.2857100000000001px"/><rect x="58.928" y="71.173" width="4.546" height="4.546" transform="translate(-34.009 64.793) rotate(-45.004)" style="fill:none;stroke:#204466;stroke-miterlimit:10;stroke-width:1.2857100000000001px"/></g><g style="clip-path:url(#clip-path-8)"><rect x="65.357" y="71.173" width="4.546" height="4.546" transform="translate(-32.126 69.339) rotate(-45.004)" style="fill:none;stroke:#204466;stroke-miterlimit:10;stroke-width:1.2857100000000001px"/><rect x="58.928" y="71.173" width="4.546" height="4.546" transform="translate(-34.009 64.793) rotate(-45.004)" style="fill:none;stroke:#204466;stroke-miterlimit:10;stroke-width:1.2857100000000001px"/><rect x="52.5" y="71.173" width="4.546" height="4.546" transform="translate(-35.893 60.249) rotate(-45.004)" style="fill:none;stroke:#204466;stroke-miterlimit:10;stroke-width:1.2857100000000001px"/><rect x="65.357" y="64.745" width="4.546" height="4.546" transform="translate(-27.581 67.443) rotate(-44.996)" style="fill:none;stroke:#204466;stroke-miterlimit:10;stroke-width:1.2857100000000001px"/><rect x="58.928" y="64.745" width="4.546" height="4.546" transform="translate(-29.463 62.898) rotate(-44.996)" style="fill:none;stroke:#204466;stroke-miterlimit:10;stroke-width:1.2857100000000001px"/><rect x="52.5" y="64.745" width="4.546" height="4.546" transform="translate(-31.346 58.354) rotate(-44.996)" style="fill:none;stroke:#204466;stroke-miterlimit:10;stroke-width:1.2857100000000001px"/><rect x="65.357" y="58.316" width="4.546" height="4.546" transform="translate(-23.035 65.56) rotate(-44.996)" style="fill:none;stroke:#204466;stroke-miterlimit:10;stroke-width:1.2857100000000001px"/><rect x="58.928" y="58.316" width="4.546" height="4.546" transform="translate(-24.918 61.015) rotate(-44.996)" style="fill:none;stroke:#204466;stroke-miterlimit:10;stroke-width:1.2857100000000001px"/><rect x="52.5" y="58.316" width="4.546" height="4.546" transform="translate(-26.8 56.471) rotate(-44.996)" style="fill:none;stroke:#204466;stroke-miterlimit:10;stroke-width:1.2857100000000001px"/></g><g style="clip-path:url(#clip-path-9)"><rect x="65.357" y="77.602" width="4.546" height="4.546" transform="translate(-36.672 71.223) rotate(-45.004)" style="fill:none;stroke:#204466;stroke-miterlimit:10;stroke-width:1.2857100000000001px"/><rect x="58.928" y="77.602" width="4.546" height="4.546" transform="translate(-38.556 66.677) rotate(-45.004)" style="fill:none;stroke:#204466;stroke-miterlimit:10;stroke-width:1.2857100000000001px"/><rect x="52.5" y="77.602" width="4.546" height="4.546" transform="translate(-40.439 62.132) rotate(-45.004)" style="fill:none;stroke:#204466;stroke-miterlimit:10;stroke-width:1.2857100000000001px"/><rect x="65.357" y="71.173" width="4.546" height="4.546" transform="translate(-32.126 69.339) rotate(-45.004)" style="fill:none;stroke:#204466;stroke-miterlimit:10;stroke-width:1.2857100000000001px"/><rect x="58.928" y="71.173" width="4.546" height="4.546" transform="translate(-34.009 64.793) rotate(-45.004)" style="fill:none;stroke:#204466;stroke-miterlimit:10;stroke-width:1.2857100000000001px"/><rect x="52.5" y="71.173" width="4.546" height="4.546" transform="translate(-35.893 60.249) rotate(-45.004)" style="fill:none;stroke:#204466;stroke-miterlimit:10;stroke-width:1.2857100000000001px"/><rect x="65.357" y="64.745" width="4.546" height="4.546" transform="translate(-27.581 67.443) rotate(-44.996)" style="fill:none;stroke:#204466;stroke-miterlimit:10;stroke-width:1.2857100000000001px"/><rect x="58.928" y="64.745" width="4.546" height="4.546" transform="translate(-29.463 62.898) rotate(-44.996)" style="fill:none;stroke:#204466;stroke-miterlimit:10;stroke-width:1.2857100000000001px"/><rect x="52.5" y="64.745" width="4.546" height="4.546" transform="translate(-31.346 58.354) rotate(-44.996)" style="fill:none;stroke:#204466;stroke-miterlimit:10;stroke-width:1.2857100000000001px"/></g><g style="clip-path:url(#clip-path-10)"><rect x="65.357" y="84.031" width="4.546" height="4.546" transform="translate(-41.218 73.106) rotate(-45.004)" style="fill:none;stroke:#204466;stroke-miterlimit:10;stroke-width:1.2857100000000001px"/><rect x="58.928" y="84.031" width="4.546" height="4.546" transform="translate(-43.102 68.56) rotate(-45.004)" style="fill:none;stroke:#204466;stroke-miterlimit:10;stroke-width:1.2857100000000001px"/><rect x="52.5" y="84.031" width="4.546" height="4.546" transform="translate(-44.985 64.015) rotate(-45.004)" style="fill:none;stroke:#204466;stroke-miterlimit:10;stroke-width:1.2857100000000001px"/><rect x="65.357" y="77.602" width="4.546" height="4.546" transform="translate(-36.672 71.223) rotate(-45.004)" style="fill:none;stroke:#204466;stroke-miterlimit:10;stroke-width:1.2857100000000001px"/><rect x="58.928" y="77.602" width="4.546" height="4.546" transform="translate(-38.556 66.677) rotate(-45.004)" style="fill:none;stroke:#204466;stroke-miterlimit:10;stroke-width:1.2857100000000001px"/><rect x="52.5" y="77.602" width="4.546" height="4.546" transform="translate(-40.439 62.132) rotate(-45.004)" style="fill:none;stroke:#204466;stroke-miterlimit:10;stroke-width:1.2857100000000001px"/><rect x="65.357" y="71.173" width="4.546" height="4.546" transform="translate(-32.126 69.339) rotate(-45.004)" style="fill:none;stroke:#204466;stroke-miterlimit:10;stroke-width:1.2857100000000001px"/><rect x="58.928" y="71.173" width="4.546" height="4.546" transform="translate(-34.009 64.793) rotate(-45.004)" style="fill:none;stroke:#204466;stroke-miterlimit:10;stroke-width:1.2857100000000001px"/><rect x="52.5" y="71.173" width="4.546" height="4.546" transform="translate(-35.893 60.249) rotate(-45.004)" style="fill:none;stroke:#204466;stroke-miterlimit:10;stroke-width:1.2857100000000001px"/></g></g><path d="M71.068,80.572H65.13c-2.183,0-3.959-1.464-3.959-3.265V63.9H75.027v13.4C75.027,79.108,73.251,80.572,71.068,80.572ZM62.251,64.984V77.307c0,1.2,1.291,2.185,2.879,2.185h5.938c1.588,0,2.879-.98,2.879-2.185V64.984Z" style="fill:#204466"/><rect x="63.741" y="80.032" width="8.717" height="0.822" style="fill:#204466"/><path d="M198.388,62.421c-.027.005-.012-.008-.089-.005a1.73,1.73,0,0,0-.331.037,1.646,1.646,0,0,0-.982.524,1.592,1.592,0,0,0-.325.763c-.02.407-.042.837-.064,1.281-.045.888-.094,1.835-.143,2.782-.191,3.79-.383,7.579-.383,7.579s-.191-3.789-.384-7.579c-.046-.947-.094-1.894-.139-2.782-.024-.444-.045-.874-.066-1.281a3.1,3.1,0,0,1,.177-1.451,3.326,3.326,0,0,1,1.565-1.667,3.965,3.965,0,0,1,.584-.259c.137-.051.27-.078.245-.074Z" style="fill:#8dc63f"/><path d="M196.071,80.226a10.241,10.241,0,0,1-1.394.554c-2.911.557-5.5-2.121-6.028-5.037l-.909-2.826c-.678-3.756,2.236-7.661,6.027-7.21.587.069,2.3.553,2.3.553Z" style="fill:#fc4a4a"/><path d="M196.071,80.226a10.265,10.265,0,0,0,1.4.554c2.91.557,5.5-2.121,6.026-5.037l.909-2.826c.678-3.756-2.236-7.661-6.027-7.21-.588.069-2.305.553-2.305.553V80.226Z" style="fill:#fc4a4a"/><path d="M191.306,71.692H191.3a2.542,2.542,0,0,1-.809-2.166,3.578,3.578,0,0,1,.339-1.229,1.641,1.641,0,0,1,2.211-.857l.017.013c.469.355-.089.861-.747,1.618a3.022,3.022,0,0,0-.557.946C191.375,70.922,191.486,71.716,191.306,71.692Z" style="fill:#ffc2c2"/></svg>