<svg id="Ñëîé_1" data-name="Ñëîé 1" xmlns="http://www.w3.org/2000/svg" viewBox="0 0 82.495 57.616"><path d="M81.047,25.071C80.082,49.4,44.7,49.191,44.7,49.191L26.647,58.1s4.277-9.684,3.688-9.789a55.351,55.351,0,0,1-8.362-2.159C9.96,41.992,1.853,34.11,1.853,25.071c0-13.367,17.728-24.2,39.6-24.2S81.577,11.714,81.047,25.071Z" style="fill:#eaeeef"/><path d="M17.605,24.062a1.668,1.668,0,0,1-1.768,1.658,1.668,1.668,0,0,1-1.769-1.658,1.771,1.771,0,0,1,3.537,0Zm-.056,11.217H14.124l.57-8.27h2.284Z" style="fill:#3dad52"/><path d="M31.845,19.549V32.442H28.861V27.156H23v5.286H20.019V19.549H23v5.084h5.857V19.549Z" style="fill:#3dad52"/><path d="M33.972,27.488c0-2.984,2.3-5.1,5.452-5.1a5.112,5.112,0,1,1,0,10.2C36.274,32.589,33.972,30.472,33.972,27.488Zm7.976,0a2.541,2.541,0,1,0-5.066,0,2.541,2.541,0,1,0,5.066,0Z" style="fill:#3dad52"/><path d="M46.78,18.776h2.874V32.442H46.78Z" style="fill:#3dad52"/><path d="M61.1,26.787v5.655h-2.69V31.208a3.249,3.249,0,0,1-3.02,1.381c-2.32,0-3.7-1.289-3.7-3,0-1.751,1.234-2.966,4.255-2.966h2.284c0-1.234-.736-1.952-2.284-1.952a4.754,4.754,0,0,0-2.854.921l-1.032-2.009a7.622,7.622,0,0,1,4.273-1.2C59.345,22.386,61.1,23.786,61.1,26.787Zm-2.874,2.524V28.3H56.251c-1.344,0-1.768.5-1.768,1.161,0,.718.607,1.2,1.621,1.2A2.114,2.114,0,0,0,58.222,29.311Z" style="fill:#3dad52"/><path d="M63.276,30.913a1.774,1.774,0,0,1,3.537,0,1.771,1.771,0,0,1-3.537,0Zm.056-11.364h3.425l-.571,8.417H63.9Z" style="fill:#3dad52"/></svg>