<svg id="Ñëîé_1" data-name="Ñëîé 1" xmlns="http://www.w3.org/2000/svg" viewBox="0 0 98.662 219.693"><rect x="3.238" y="3.536" width="92.185" height="216.444" style="fill:#74afb3"/><rect x="6.188" y="14.195" width="16.567" height="52.973" style="fill:#f9c640"/><path d="M16.881,57.369a2.41,2.41,0,1,1-2.41-2.41A2.41,2.41,0,0,1,16.881,57.369Z" style="fill:#3c2415"/><path d="M14.471,60.858a3.489,3.489,0,1,1,3.489-3.489A3.493,3.493,0,0,1,14.471,60.858Zm0-4.819a1.331,1.331,0,1,0,1.331,1.33A1.332,1.332,0,0,0,14.471,56.039Z" style="fill:#bcbec0"/><rect x="8.698" y="17.408" width="11.547" height="26.005" style="fill:#fff"/><rect x="8.698" y="17.408" width="11.547" height="2.41" style="fill:#bcbec0"/><rect x="8.698" y="41.003" width="11.547" height="2.41" style="fill:#bcbec0"/><rect x="10.07" y="21.71" width="8.802" height="0.918" style="fill:#bcbec0"/><rect x="10.07" y="24.221" width="8.802" height="0.918" style="fill:#bcbec0"/><rect x="10.07" y="26.731" width="8.802" height="0.918" style="fill:#bcbec0"/><rect x="24.426" y="14.195" width="16.567" height="52.973" style="fill:#3dad52"/><path d="M35.119,57.369a2.41,2.41,0,1,1-2.409-2.41A2.41,2.41,0,0,1,35.119,57.369Z" style="fill:#3c2415"/><path d="M32.71,60.858A3.489,3.489,0,1,1,36.2,57.369,3.493,3.493,0,0,1,32.71,60.858Zm0-4.819a1.331,1.331,0,1,0,1.33,1.33A1.332,1.332,0,0,0,32.71,56.039Z" style="fill:#bcbec0"/><rect x="26.936" y="17.408" width="11.546" height="26.005" style="fill:#fff"/><rect x="26.936" y="17.408" width="11.546" height="2.41" style="fill:#bcbec0"/><rect x="26.936" y="41.003" width="11.546" height="2.41" style="fill:#bcbec0"/><rect x="28.308" y="21.71" width="8.802" height="0.918" style="fill:#bcbec0"/><rect x="28.308" y="24.221" width="8.802" height="0.918" style="fill:#bcbec0"/><rect x="28.308" y="26.731" width="8.802" height="0.918" style="fill:#bcbec0"/><rect x="44.17" y="14.195" width="16.567" height="52.973" style="fill:#35ddf2"/><path d="M54.864,57.369a2.41,2.41,0,1,1-2.41-2.41A2.411,2.411,0,0,1,54.864,57.369Z" style="fill:#3c2415"/><path d="M52.453,60.858a3.489,3.489,0,1,1,3.49-3.489A3.493,3.493,0,0,1,52.453,60.858Zm0-4.819a1.331,1.331,0,1,0,1.331,1.33A1.332,1.332,0,0,0,52.453,56.039Z" style="fill:#bcbec0"/><rect x="46.68" y="17.408" width="11.547" height="26.005" style="fill:#fff"/><rect x="46.68" y="17.408" width="11.547" height="2.41" style="fill:#bcbec0"/><rect x="46.68" y="41.003" width="11.547" height="2.41" style="fill:#bcbec0"/><rect x="48.052" y="21.71" width="8.802" height="0.918" style="fill:#bcbec0"/><rect x="48.052" y="24.221" width="8.802" height="0.918" style="fill:#bcbec0"/><rect x="48.052" y="26.731" width="8.802" height="0.918" style="fill:#bcbec0"/><rect x="62.408" y="14.195" width="16.567" height="52.973" style="fill:#eb585a"/><path d="M73.1,57.369a2.41,2.41,0,1,1-2.41-2.41A2.41,2.41,0,0,1,73.1,57.369Z" style="fill:#3c2415"/><path d="M70.692,60.858a3.489,3.489,0,1,1,3.489-3.489A3.493,3.493,0,0,1,70.692,60.858Zm0-4.819a1.331,1.331,0,1,0,1.331,1.33A1.332,1.332,0,0,0,70.692,56.039Z" style="fill:#bcbec0"/><rect x="64.919" y="17.408" width="11.546" height="26.005" style="fill:#fff"/><rect x="64.919" y="17.408" width="11.546" height="2.41" style="fill:#bcbec0"/><rect x="64.919" y="41.003" width="11.546" height="2.41" style="fill:#bcbec0"/><rect x="66.291" y="21.71" width="8.802" height="0.918" style="fill:#bcbec0"/><rect x="66.291" y="24.221" width="8.802" height="0.918" style="fill:#bcbec0"/><rect x="66.291" y="26.731" width="8.802" height="0.918" style="fill:#bcbec0"/><path d="M71.874,134.139h-.646a6.913,6.913,0,0,1-6.912-6.912V123.6H62.029v12.331h9.845Z" style="fill:#eeb149"/><path d="M60.935,123.6H59.741v3.629a6.912,6.912,0,0,1-6.911,6.912h-.646v1.79h9.845V123.6Z" style="fill:#ffbc5a"/><polygon points="78.22 82.601 44.344 116.526 44.902 117.082 78.801 83.182 78.22 82.601" style="fill:#ffbc5a"/><polygon points="44.902 117.082 45.483 117.663 79.359 83.738 78.801 83.182 44.902 117.082" style="fill:#eeb149"/><path d="M62.147,124.39A23.9,23.9,0,0,1,45.2,117.38l1.137-1.137A22.366,22.366,0,0,0,77.963,84.612L79.1,83.474A23.963,23.963,0,0,1,62.147,124.39Z" style="fill:#eeb149"/><path d="M49.3,108.839,47.013,104.5l2.884-2.188,6.364,2.188.894.3,4.837-4.837c-1.164-1.323-2.526-2.887-2.747-3.22-.4-.6,5.071-3.182,5.071-3.182l1.1.494,1.715.773,1.817-1.817-3.534-.643-1.691-3.381,5.47-.4,2.586-1S68.593,85.61,67,85.411s.6-1.591.6-1.591H72.63a19.144,19.144,0,0,0-15.8-2.453l3.411,3.249L54.471,87.6l-2.784,2.586L49.9,86.206l4.332-3.912a19.319,19.319,0,0,0-5.844,4l3.3,6.082,2.784,1.193v3.382H49.9l-1.989,2.386-2.387,2.983V99.532l-2.585,1.79-.139-.2a19.223,19.223,0,0,0,5.59,12.454l2.818-2.818Z" style="fill:#4092dd"/><path d="M58.517,105.262l.707,3.577-2.963,3.223.995,4.773-6.051-6.081-2.818,2.818a19.267,19.267,0,0,0,32.242-18.7l-.3,1.277-2.586,2.784s-2.188,10.144-2.586,10.939-5.17,2.188-5.17,2.188l-1.392-3.223.994-6.92H63.719s-.8-.9-1.727-1.952L57.155,104.8l1.362.458Z" style="fill:#2f6fb6"/><polygon points="74.161 94.56 74.161 93.963 68.944 93.015 67.127 94.832 71.377 96.747 74.161 94.56" style="fill:#82bfc1"/><path d="M67,85.411c1.592.2,4.774,2.187,4.774,2.187l-2.586,1-5.47.4,1.691,3.381,3.534.643,6.727-6.727A19.429,19.429,0,0,0,72.63,83.82H67.6S65.41,85.212,67,85.411Z" style="fill:#44cc57"/><path d="M65.412,94.059l-1.1-.494s-5.47,2.586-5.071,3.182c.221.333,1.583,1.9,2.747,3.22l5.135-5.135Z" style="fill:#44cc57"/><path d="M68.944,93.015l5.217.948v.6l-2.784,2.187-4.25-1.915-5.135,5.135c.926,1.052,1.727,1.952,1.727,1.952h5.868l-.994,6.92,1.392,3.223s4.773-1.392,5.17-2.188,2.586-10.939,2.586-10.939l2.586-2.784.3-1.277a19.271,19.271,0,0,0-4.958-8.586Z" style="fill:#3dad52"/><path d="M51.687,90.184,54.471,87.6l5.768-2.982-3.411-3.249a19.043,19.043,0,0,0-2.6.927L49.9,86.206Z" style="fill:#44cc57"/><path d="M45.521,99.532v2.784l2.387-2.983L49.9,96.947h4.574V93.565l-2.784-1.193-3.3-6.082a19.233,19.233,0,0,0-5.648,13.64c0,.4.036.793.06,1.188l.139.2Z" style="fill:#44cc57"/><polygon points="49.897 102.316 47.013 104.504 49.3 108.839 51.205 110.754 57.155 104.804 56.261 104.504 49.897 102.316" style="fill:#44cc57"/><polygon points="57.256 116.835 56.261 112.062 59.224 108.839 58.517 105.262 57.155 104.804 51.205 110.754 57.256 116.835" style="fill:#3dad52"/><path d="M42.8,130.322l-1.67-2.71c3.558-2.193,4.305-3.362,4.305-3.956s-.747-1.763-4.3-3.956l1.67-2.71c3.023,1.862,5.819,3.959,5.819,6.666S45.827,128.46,42.8,130.322Z" style="fill:#000f28"/><path d="M13.647,130.322c-3.022-1.862-5.82-3.959-5.82-6.666s2.8-4.8,5.82-6.666l1.67,2.71c-3.558,2.193-4.306,3.362-4.306,3.956s.748,1.763,4.306,3.956Z" style="fill:#000f28"/><path d="M28.225,114.528v2.356a35.037,35.037,0,0,0-13.743,2.677l-2.2-1.927A40.632,40.632,0,0,1,28.225,114.528Z" style="fill:#5385a0"/><path d="M44.167,117.634l-2.2,1.927a35.039,35.039,0,0,0-13.744-2.677v-2.356A40.633,40.633,0,0,1,44.167,117.634Z" style="fill:#384b66"/><rect x="19.46" y="115.236" width="6.123" height="20.347" rx="2.007" style="fill:#1a273e"/><polygon points="19.46 118.632 13.77 122.514 13.77 131.732 19.46 133.188 19.46 118.632" style="fill:#384b66"/><rect x="30.449" y="115.236" width="6.123" height="20.347" rx="2.007" style="fill:#062635"/><polygon points="36.572 118.632 42.262 122.514 42.262 131.732 36.572 133.188 36.572 118.632" style="fill:#1a273e"/><rect x="13.06" y="123.14" width="2.845" height="9.673" rx="1.408" style="fill:#5385a0"/><path d="M41.745,123.14h.029a1.408,1.408,0,0,1,1.408,1.408V131.4a1.408,1.408,0,0,1-1.408,1.408h-.028a1.409,1.409,0,0,1-1.409-1.409v-6.856a1.408,1.408,0,0,1,1.408-1.408Z" style="fill:#274b6c"/><rect x="17.236" y="154.13" width="13.213" height="48.744" style="fill:#eb585a"/><rect x="40.425" y="153.742" width="13.213" height="48.744" style="fill:#eb585a"/><rect x="30.921" y="154.13" width="2.589" height="48.744" style="fill:#2f6fb6"/><rect x="34.185" y="154.13" width="2.59" height="48.744" style="fill:#3dad52"/><rect x="37.45" y="154.13" width="2.589" height="48.744" style="fill:#f9c640"/><rect x="6.666" y="157.657" width="10.57" height="45.217" style="fill:#f9c640"/><rect x="9.42" y="162.704" width="5.063" height="2.631" style="fill:#f0ead8"/><rect x="9.42" y="169.094" width="5.063" height="2.631" style="fill:#f0ead8"/><rect x="9.42" y="175.483" width="5.063" height="2.631" style="fill:#f0ead8"/><rect x="56.978" y="157.072" width="10.571" height="45.217" transform="translate(-30.603 13.736) rotate(-10.12)" style="fill:#f9c640"/><rect x="56.878" y="162.371" width="5.063" height="2.631" transform="translate(-27.841 12.988) rotate(-10.122)" style="fill:#f0ead8"/><rect x="58" y="168.662" width="5.063" height="2.631" transform="translate(-28.926 13.281) rotate(-10.12)" style="fill:#f0ead8"/><rect x="59.123" y="174.952" width="5.063" height="2.631" transform="translate(-30.017 13.578) rotate(-10.122)" style="fill:#f0ead8"/><rect x="68.115" y="157.011" width="6.924" height="45.217" transform="translate(-30.453 15.375) rotate(-10.122)" style="fill:#e4e0d0"/><rect x="67.064" y="162.311" width="3.316" height="2.631" transform="translate(-27.651 14.601) rotate(-10.108)" style="fill:#f0ead8"/><rect x="68.187" y="168.602" width="3.316" height="2.631" transform="translate(-28.737 14.895) rotate(-10.108)" style="fill:#f0ead8"/><rect x="69.309" y="174.892" width="3.316" height="2.631" transform="translate(-29.824 15.191) rotate(-10.108)" style="fill:#f0ead8"/><rect x="43.215" y="161.606" width="4.415" height="34.283" style="fill:#f0ead8"/><path d="M96.137,0V-.4H3.952V0H0V219.978H6.476V209.284H92.185v10.7h6.477V0ZM92.185,6.075V67.53H6.476V6.075Zm0,196.732H6.476V141.646H92.185ZM6.476,135.17V74.006H92.185V135.17Z" style="fill:#512583"/></svg>