<svg xmlns="http://www.w3.org/2000/svg" xmlns:xlink="http://www.w3.org/1999/xlink" viewBox="0 0 282.47 115.74"><defs><clipPath id="clip-path"><path d="M70.616,95.823H64.677c-1.888,0-3.419-1.22-3.419-2.726V80.234H74.035V93.1C74.035,94.6,72.5,95.823,70.616,95.823Z" style="fill:none"/></clipPath><clipPath id="clip-path-2"><rect x="70.391" y="79.594" width="6.429" height="6.429" style="fill:none"/></clipPath><clipPath id="clip-path-3"><rect x="70.391" y="86.023" width="6.429" height="6.429" style="fill:none"/></clipPath><clipPath id="clip-path-4"><rect x="70.391" y="92.452" width="6.429" height="6.429" style="fill:none"/></clipPath><clipPath id="clip-path-5"><rect x="63.963" y="79.594" width="6.429" height="6.429" style="fill:none"/></clipPath><clipPath id="clip-path-6"><rect x="63.963" y="86.023" width="6.429" height="6.429" style="fill:none"/></clipPath><clipPath id="clip-path-7"><rect x="63.963" y="92.452" width="6.429" height="6.429" style="fill:none"/></clipPath><clipPath id="clip-path-8"><rect x="57.534" y="79.594" width="6.428" height="6.429" style="fill:none"/></clipPath><clipPath id="clip-path-9"><rect x="57.534" y="86.023" width="6.428" height="6.429" style="fill:none"/></clipPath><clipPath id="clip-path-10"><rect x="57.534" y="92.452" width="6.428" height="6.429" style="fill:none"/></clipPath><linearGradient id="linear-gradient" x1="118.831" y1="74.568" x2="124.36" y2="69.039" gradientUnits="userSpaceOnUse"><stop offset="0" stop-color="#121212"/><stop offset="1" stop-color="#515151"/></linearGradient><linearGradient id="linear-gradient-2" x1="122.626" y1="70.733" x2="120.492" y2="72.867" gradientUnits="userSpaceOnUse"><stop offset="0" stop-color="#c4c4c4"/><stop offset="0.002" stop-color="#c4c4c4"/><stop offset="0.235" stop-color="#dedede"/><stop offset="0.474" stop-color="#f0f0f0"/><stop offset="0.724" stop-color="#fbfbfb"/><stop offset="1" stop-color="#fff"/></linearGradient><linearGradient id="linear-gradient-3" x1="128.996" y1="74.568" x2="134.525" y2="69.039" xlink:href="#linear-gradient"/><linearGradient id="linear-gradient-4" x1="132.824" y1="70.191" x2="130.524" y2="72.49" xlink:href="#linear-gradient-2"/><linearGradient id="linear-gradient-5" x1="133.289" y1="70.656" x2="130.989" y2="72.955" xlink:href="#linear-gradient-2"/><linearGradient id="linear-gradient-6" x1="139.161" y1="74.568" x2="144.69" y2="69.039" xlink:href="#linear-gradient"/><linearGradient id="linear-gradient-7" x1="142.344" y1="70.428" x2="139.865" y2="72.908" xlink:href="#linear-gradient-2"/><linearGradient id="linear-gradient-8" x1="143.266" y1="71.35" x2="140.787" y2="73.829" xlink:href="#linear-gradient-2"/><linearGradient id="linear-gradient-9" x1="143.549" y1="71.633" x2="141.069" y2="74.112" xlink:href="#linear-gradient-2"/><linearGradient id="linear-gradient-10" x1="149.326" y1="74.568" x2="154.855" y2="69.039" xlink:href="#linear-gradient"/><linearGradient id="linear-gradient-11" x1="151.035" y1="71.494" x2="150.416" y2="72.113" xlink:href="#linear-gradient-2"/><linearGradient id="linear-gradient-12" x1="152.4" y1="71.494" x2="151.781" y2="72.113" xlink:href="#linear-gradient-2"/><linearGradient id="linear-gradient-13" x1="153.765" y1="71.494" x2="153.146" y2="72.113" xlink:href="#linear-gradient-2"/></defs><g style="isolation:isolate"><g id="Ñëîé_1" data-name="Ñëîé 1"><rect x="226.11" y="93.538" width="41.417" height="3.108" rx="1.538" style="fill:#fc4a4a"/><rect x="238.221" y="76.082" width="39.381" height="0.935" transform="translate(99.019 293.648) rotate(-70.331)" style="fill:#fc4a4a"/><rect x="231.076" y="75.27" width="40.795" height="0.934" transform="translate(100.242 290.455) rotate(-71.603)" style="fill:#fc4a4a"/><polygon points="257.912 56.383 264.539 58.007 259.298 50.734 257.478 52.191 257.912 56.383" style="fill:#fc4a4a"/><path d="M264.427,58.461,257.8,56.835a.466.466,0,0,1-.353-.406l-.434-4.19a.469.469,0,0,1,.172-.412l1.823-1.457a.464.464,0,0,1,.355-.1.456.456,0,0,1,.314.19l5.241,7.274a.466.466,0,0,1,.007.533.462.462,0,0,1-.386.2A.535.535,0,0,1,264.427,58.461Zm-6.46-6.065.375,3.611,5.078,1.246-4.213-5.848Z" style="fill:#fc4a4a"/><rect x="247.815" y="21.608" width="0.934" height="33.293" transform="translate(36.735 173.736) rotate(-41.396)" style="fill:#f72107"/><rect x="245.851" y="23.921" width="0.934" height="32.675" transform="translate(39.036 179.282) rotate(-43.132)" style="fill:#f72107"/><polygon points="232.063 27.05 235.159 28.326 237.265 25.775 233.338 25.775 232.063 27.05" style="fill:#f72107"/><path d="M234.982,28.758l-3.1-1.276a.467.467,0,0,1-.152-.762l1.276-1.275a.465.465,0,0,1,.33-.136h3.927a.466.466,0,0,1,.361.763l-2.106,2.551a.47.47,0,0,1-.361.169A.476.476,0,0,1,234.982,28.758Zm-1.451-2.517-.643.644,2.131.878,1.256-1.522Z" style="fill:#fc4a4a"/><path d="M226.4,27.05V25.775a.468.468,0,0,1,.469-.466h6.467a.466.466,0,0,1,.466.466V27.05a.466.466,0,0,1-.466.466h-6.467A.468.468,0,0,1,226.4,27.05Zm6.47-.809h-5.534v.343h5.534Z" style="fill:#fc4a4a"/><path d="M223.456,22.747a1.958,1.958,0,0,1,2.348-1.468l.826.191L224.3,31.028l-2.612-.6Z" style="fill:#fc4a4a"/><path d="M227.225,21.606a1.959,1.959,0,0,1,1.467,2.349l-1.771,7.678-2.625-.605,2.334-9.558Z" style="fill:#f72107"/><path d="M226.413,31.516a6.8,6.8,0,0,1,5.229,7.407l-1.52,13.268-10.408-2.4L224.3,31.028Z" style="fill:#fc4a4a"/><path d="M214.244,34.906a6.805,6.805,0,0,1,7.948-4.364l2.1.486-4.582,18.761L209.8,47.5Z" style="fill:#fc4a4a"/><path d="M32.2,78.622a9.119,9.119,0,0,1,9.108-9.109V68.187a7.477,7.477,0,0,1,0-14.953V48.893H33.351a4.342,4.342,0,0,0-4.341,4.341V96.645h12.3V87.729A9.118,9.118,0,0,1,32.2,78.622Z" style="fill:#ffbc5a"/><path d="M53.61,53.234a4.342,4.342,0,0,0-4.341-4.341H41.31v4.341a7.477,7.477,0,0,1,0,14.953v1.326a9.108,9.108,0,1,1,0,18.216v8.916h12.3Z" style="fill:#eeb149"/><path d="M47.339,60.711A6.029,6.029,0,0,1,41.31,66.74v1.447a7.477,7.477,0,0,0,0-14.953v1.447A6.03,6.03,0,0,1,47.339,60.711Z" style="fill:#ffbc5a"/><path d="M33.834,60.711a7.484,7.484,0,0,0,7.476,7.476V66.74a6.03,6.03,0,0,1,0-12.059V53.234A7.486,7.486,0,0,0,33.834,60.711Z" style="fill:#eeb149"/><path d="M35.281,60.711A6.029,6.029,0,0,0,41.31,66.74V54.681A6.03,6.03,0,0,0,35.281,60.711Z" style="fill:#0f365a"/><path d="M47.339,60.711a6.03,6.03,0,0,0-6.029-6.03V66.74A6.029,6.029,0,0,0,47.339,60.711Z" style="fill:#274b6c"/><path d="M48.971,78.622a7.662,7.662,0,0,1-7.661,7.661v1.446a9.108,9.108,0,1,0,0-18.216v1.448A7.66,7.66,0,0,1,48.971,78.622Z" style="fill:#ffbc5a"/><path d="M32.2,78.622a9.118,9.118,0,0,0,9.108,9.107V86.283a7.661,7.661,0,0,1,0-15.322V69.513A9.119,9.119,0,0,0,32.2,78.622Z" style="fill:#eeb149"/><path d="M33.649,78.622a7.662,7.662,0,0,0,7.661,7.661V70.961A7.66,7.66,0,0,0,33.649,78.622Z" style="fill:#0f365a"/><path d="M48.971,78.622a7.66,7.66,0,0,0-7.661-7.661V86.283A7.662,7.662,0,0,0,48.971,78.622Z" style="fill:#274b6c"/><rect x="-0.453" y="96.751" width="282.47" height="12.224" style="fill:#eaeeef"/><rect x="7.905" y="108.974" width="265.754" height="6.627" style="fill:#e4e0d0"/><path d="M211.76,88.583h3.116a1.058,1.058,0,0,1,1.058,1.058v.025a1.058,1.058,0,0,1-1.058,1.058H211.76a1.059,1.059,0,0,1-1.059-1.059v-.021a1.06,1.06,0,0,1,1.06-1.06Z" style="fill:#274b6c"/><path d="M222.008,96.645H203.96a7.225,7.225,0,0,1,7.165-7.235h.721a13.622,13.622,0,0,1,10.942,5.508l.054.072A1.037,1.037,0,0,1,222.008,96.645Z" style="fill:#062635"/><path d="M205.13,96.18l-1.072-.13a5.857,5.857,0,0,1,4.755-4.8c6.716-1.278,13.243,3.738,13.521,3.953l-.664.851c-.065-.05-6.436-4.926-12.655-3.744A4.74,4.74,0,0,0,205.13,96.18Z" style="fill:#193556"/><path d="M63.629,85.422c-.293.018-.5-.026-.529-.129l1.707,6.874.527.122Z" style="fill:#f7daa9"/><polygon points="64.18 85.333 64.18 85.333 65.91 92.304 64.18 85.333" style="fill:#fff"/><path d="M65.088,84.8c.025.1-.139.242-.407.363l1.7,6.865.438-.361-1.905-7.545Z" style="fill:#f2c577"/><polygon points="65.334 92.289 65.356 92.338 66.607 95.112 65.91 92.304 65.334 92.289" style="fill:#133141"/><polygon points="64.807 92.167 66.607 95.112 65.356 92.338 64.807 92.167" style="fill:#83a7bb"/><polygon points="65.334 92.289 64.807 92.167 65.356 92.338 65.334 92.289" style="fill:#fbfbfb"/><polygon points="65.967 92.525 65.965 92.527 66.607 95.112 66.606 95.098 65.967 92.525" style="fill:#fbfbfb"/><polygon points="65.912 92.303 66.606 95.098 66.391 92.099 66.386 92.027 65.912 92.303" style="fill:#5385a0"/><rect x="65.937" y="92.301" width="0.003" height="0.229" transform="translate(-20.297 18.578) rotate(-13.921)" style="fill:#fbfbfb"/><polygon points="66.391 92.099 66.606 95.098 66.607 95.104 66.824 91.666 66.391 92.099" style="fill:#f9e4bf"/><polygon points="66.607 95.112 66.607 95.104 66.606 95.098 66.607 95.112" style="fill:#fbfbfb"/><polygon points="66.391 92.099 66.824 91.666 66.386 92.027 66.391 92.099" style="fill:#fbfbfb"/><path d="M64.18,85.333l-.009,0a3.123,3.123,0,0,1-.542.087l1.705,6.867.576.015Z" style="fill:#f7daa9"/><path d="M65.912,92.3l.474-.276-1.7-6.865a3.2,3.2,0,0,1-.5.171Z" style="fill:#f2c577"/><rect x="65.045" y="85.227" width="0.001" height="7.183" transform="translate(-19.472 18.275) rotate(-13.933)" style="fill:#f2c577"/><rect x="64.144" y="85.037" height="0.3" style="fill:#fff"/><path d="M63.629,85.422a3.123,3.123,0,0,0,.542-.087l.009,0-.071-.291-.011,0a3.367,3.367,0,0,1-.427.077c-.351.038-.614,0-.643-.12l.072.291C63.126,85.4,63.336,85.44,63.629,85.422Z" style="fill:#eaeeef"/><path d="M64.681,85.162c.268-.121.432-.259.407-.363l-.073-.291c.026.105-.138.243-.406.363a3.035,3.035,0,0,1-.5.171l.072.291A3.2,3.2,0,0,0,64.681,85.162Z" style="fill:#3f5f7c"/><rect x="64.144" y="85.037" height="0.3" transform="translate(-18.621 17.947) rotate(-13.93)" style="fill:#385876"/><path d="M64.012,84.655l.1.387a3.035,3.035,0,0,0,.5-.171c.268-.12.432-.258.406-.363l-.1-.387C64.959,84.281,64.556,84.517,64.012,84.655Z" style="fill:#0f365a"/><path d="M63.671,85.122a3.367,3.367,0,0,0,.427-.077l.011,0h0l-.1-.387-.01,0c-.549.137-1.03.118-1.07-.042l.1.387C63.057,85.119,63.32,85.16,63.671,85.122Z" style="fill:#274b6c"/><path d="M64,84.657l.01,0-3.9-15.685-.01,0c-.549.137,2.537,14.482,2.5,14.322l.328,1.321C62.972,84.775,63.453,84.794,64,84.657Z" style="fill:#fd9696"/><path d="M60.117,68.97l3.9,15.685c.544-.138.947-.374.907-.534L64.591,82.8C64.63,82.96,60.661,68.834,60.117,68.97Z" style="fill:#fd6b6b"/><path d="M59.963,68.392c-.549.136,2.6,14.741,2.641,14.9s-3.046-14.185-2.5-14.322l.01,0-.144-.581Z" style="fill:#feaeae"/><path d="M59.973,68.389l.144.581c.544-.136,4.513,13.99,4.474,13.83S60.518,68.256,59.973,68.389Z" style="fill:#fd9696"/><path d="M65.334,92.289,59.2,67.6c-.293.019-.5-.025-.529-.129l6.133,24.7Z" style="fill:#f7daa9"/><rect x="62.832" y="67.133" height="25.548" transform="translate(-17.402 17.494) rotate(-13.943)" style="fill:#fff"/><path d="M66.824,91.666,60.493,66.3l.168.676c.026.105-.138.242-.406.364l6.131,24.688Z" style="fill:#f1bd64"/><path d="M65.91,92.3,59.754,67.509l-.01,0a2.933,2.933,0,0,1-.541.087l6.131,24.691Z" style="fill:#f9e4c1"/><path d="M66.386,92.027,60.255,67.339a3.037,3.037,0,0,1-.5.17L65.912,92.3Z" style="fill:#f2c577"/><rect x="62.832" y="67.133" width="0.001" height="25.547" transform="translate(-17.406 17.499) rotate(-13.946)" style="fill:#f2c577"/><rect x="59.718" y="67.214" height="0.3" style="fill:#fff"/><path d="M59.2,67.6a2.933,2.933,0,0,0,.541-.087l.01,0-.072-.291-.01,0a3.346,3.346,0,0,1-.427.078c-.351.038-.614,0-.643-.121l.072.291C58.7,67.573,58.91,67.617,59.2,67.6Z" style="fill:#eaeeef"/><path d="M60.255,67.339c.268-.122.432-.259.406-.364l-.072-.29c.026.105-.138.242-.406.364a3.021,3.021,0,0,1-.5.169l.073.291A3.037,3.037,0,0,0,60.255,67.339Z" style="fill:#3f5f7c"/><rect x="59.718" y="67.214" height="0.3" transform="translate(-14.481 16.387) rotate(-13.953)" style="fill:#385876"/><path d="M59.586,66.832l.1.386a3.021,3.021,0,0,0,.5-.169c.268-.122.432-.259.406-.364l-.1-.386C60.532,66.458,60.13,66.695,59.586,66.832Z" style="fill:#0f365a"/><path d="M59.245,67.3a3.346,3.346,0,0,0,.427-.078l.01,0h0l-.1-.386-.01,0c-.549.136-1.03.118-1.07-.042l.1.386C58.631,67.3,58.894,67.337,59.245,67.3Z" style="fill:#274b6c"/><path d="M59.576,66.834l.01,0-.328-1.322-.01,0c-.549.136-1.031.118-1.07-.043l.328,1.322C58.546,66.952,59.027,66.97,59.576,66.834Z" style="fill:#fd9d9d"/><path d="M59.258,65.51l.328,1.322c.544-.137.946-.374.907-.533l-.328-1.322C60.2,65.136,59.8,65.374,59.258,65.51Z" style="fill:#fd6c6c"/><path d="M59.1,64.932c-.549.136-.966.378-.926.538s.521.179,1.07.043l.01,0-.144-.581Z" style="fill:#feaeae"/><path d="M59.114,64.929l.144.581c.544-.136.946-.374.907-.533S59.658,64.8,59.114,64.929Z" style="fill:#fd9696"/><path d="M66.5,94.915l.134.541c.027.108.1.183.163.169l-.184-.738Z" style="fill:#fd7979"/><path d="M66.61,94.887l.184.738h0c.062-.016.09-.117.063-.226l-.134-.54Z" style="fill:#fc4a4a"/><polygon points="69.221 94.995 69.33 89.416 71.287 89.811 69.221 94.995" style="fill:#195c8f"/><path d="M75.4,64.439l-1-.2q-1.731,7.11-3.129,14.3l1.227.248Z" style="fill:#f1bd66"/><path d="M76.394,64.641l-1-.2L72.5,78.785l1.23.249Q75.215,71.867,76.394,64.641Z" style="fill:#eeb149"/><path d="M70.308,89.613l1,.2c.872-3.578,1.67-7.177,2.419-10.781l-1.23-.249Z" style="fill:#f2c373"/><path d="M71.269,78.537c-.711,3.613-1.372,7.239-1.958,10.875l1,.2L72.5,78.785Z" style="fill:#f5d397"/><path d="M75.537,78.392a.4.4,0,0,1-.288-.236,3.3,3.3,0,0,1-.121-1.572,48.854,48.854,0,0,1,1.158-4.766c.3-1.108.576-2.154.654-2.538.158-.782.335-3.006.4-3.942L74.3,64.722a.5.5,0,0,1,.2-.968l3.79.765-.029.425c-.01.14-.237,3.443-.453,4.511-.084.417-.356,1.43-.67,2.6-.455,1.7-1.078,4.026-1.124,4.574a2.89,2.89,0,0,0,.039,1.062.545.545,0,0,1-.226.65A.416.416,0,0,1,75.537,78.392Z" style="fill:#195c8f"/><rect x="60.036" y="78.507" width="15.221" height="1.727" style="fill:#204466"/><g style="clip-path:url(#clip-path)"><g style="clip-path:url(#clip-path-2)"><rect x="77.761" y="86.964" width="4.546" height="4.546" transform="translate(-39.66 82.746) rotate(-45.008)" style="fill:none;stroke:#204466;stroke-miterlimit:10;stroke-width:1.2857100000000001px"/><rect x="71.333" y="86.964" width="4.546" height="4.546" transform="translate(-41.542 78.191) rotate(-45.004)" style="fill:none;stroke:#204466;stroke-miterlimit:10;stroke-width:1.2857100000000001px"/><rect x="64.904" y="86.964" width="4.546" height="4.546" transform="translate(-43.426 73.645) rotate(-45.004)" style="fill:none;stroke:#204466;stroke-miterlimit:10;stroke-width:1.2857100000000001px"/><rect x="77.761" y="80.536" width="4.546" height="4.546" transform="translate(-35.113 80.847) rotate(-45)" style="fill:none;stroke:#204466;stroke-miterlimit:10;stroke-width:1.2857100000000001px"/><rect x="71.333" y="80.536" width="4.546" height="4.546" transform="translate(-36.996 76.293) rotate(-44.996)" style="fill:none;stroke:#204466;stroke-miterlimit:10;stroke-width:1.2857100000000001px"/><rect x="64.904" y="80.536" width="4.546" height="4.546" transform="translate(-38.878 71.747) rotate(-44.996)" style="fill:none;stroke:#204466;stroke-miterlimit:10;stroke-width:1.2857100000000001px"/><rect x="77.761" y="74.108" width="4.546" height="4.546" transform="translate(-30.568 78.964) rotate(-45)" style="fill:none;stroke:#204466;stroke-miterlimit:10;stroke-width:1.2857100000000001px"/><rect x="71.333" y="74.107" width="4.546" height="4.546" transform="translate(-32.45 74.41) rotate(-44.996)" style="fill:none;stroke:#204466;stroke-miterlimit:10;stroke-width:1.2857100000000001px"/><rect x="64.904" y="74.107" width="4.546" height="4.546" transform="translate(-34.333 69.865) rotate(-44.996)" style="fill:none;stroke:#204466;stroke-miterlimit:10;stroke-width:1.2857100000000001px"/></g><g style="clip-path:url(#clip-path-3)"><rect x="77.761" y="93.393" width="4.546" height="4.546" transform="translate(-44.206 84.63) rotate(-45.008)" style="fill:none;stroke:#204466;stroke-miterlimit:10;stroke-width:1.2857100000000001px"/><rect x="71.333" y="93.393" width="4.546" height="4.546" transform="translate(-46.088 80.074) rotate(-45.004)" style="fill:none;stroke:#204466;stroke-miterlimit:10;stroke-width:1.2857100000000001px"/><rect x="64.904" y="93.393" width="4.546" height="4.546" transform="translate(-47.972 75.528) rotate(-45.004)" style="fill:none;stroke:#204466;stroke-miterlimit:10;stroke-width:1.2857100000000001px"/><rect x="77.761" y="86.964" width="4.546" height="4.546" transform="translate(-39.66 82.746) rotate(-45.008)" style="fill:none;stroke:#204466;stroke-miterlimit:10;stroke-width:1.2857100000000001px"/><rect x="71.333" y="86.964" width="4.546" height="4.546" transform="translate(-41.542 78.191) rotate(-45.004)" style="fill:none;stroke:#204466;stroke-miterlimit:10;stroke-width:1.2857100000000001px"/><rect x="64.904" y="86.964" width="4.546" height="4.546" transform="translate(-43.426 73.645) rotate(-45.004)" style="fill:none;stroke:#204466;stroke-miterlimit:10;stroke-width:1.2857100000000001px"/><rect x="77.761" y="80.536" width="4.546" height="4.546" transform="translate(-35.113 80.847) rotate(-45)" style="fill:none;stroke:#204466;stroke-miterlimit:10;stroke-width:1.2857100000000001px"/><rect x="71.333" y="80.536" width="4.546" height="4.546" transform="translate(-36.996 76.293) rotate(-44.996)" style="fill:none;stroke:#204466;stroke-miterlimit:10;stroke-width:1.2857100000000001px"/><rect x="64.904" y="80.536" width="4.546" height="4.546" transform="translate(-38.878 71.747) rotate(-44.996)" style="fill:none;stroke:#204466;stroke-miterlimit:10;stroke-width:1.2857100000000001px"/></g><g style="clip-path:url(#clip-path-4)"><rect x="77.761" y="99.822" width="4.546" height="4.546" transform="translate(-48.753 86.514) rotate(-45.008)" style="fill:none;stroke:#204466;stroke-miterlimit:10;stroke-width:1.2857100000000001px"/><rect x="71.333" y="99.822" width="4.546" height="4.546" transform="translate(-50.635 81.958) rotate(-45.004)" style="fill:none;stroke:#204466;stroke-miterlimit:10;stroke-width:1.2857100000000001px"/><rect x="64.904" y="99.822" width="4.546" height="4.546" transform="translate(-52.518 77.412) rotate(-45.004)" style="fill:none;stroke:#204466;stroke-miterlimit:10;stroke-width:1.2857100000000001px"/><rect x="77.761" y="93.393" width="4.546" height="4.546" transform="translate(-44.206 84.63) rotate(-45.008)" style="fill:none;stroke:#204466;stroke-miterlimit:10;stroke-width:1.2857100000000001px"/><rect x="71.333" y="93.393" width="4.546" height="4.546" transform="translate(-46.088 80.074) rotate(-45.004)" style="fill:none;stroke:#204466;stroke-miterlimit:10;stroke-width:1.2857100000000001px"/><rect x="64.904" y="93.393" width="4.546" height="4.546" transform="translate(-47.972 75.528) rotate(-45.004)" style="fill:none;stroke:#204466;stroke-miterlimit:10;stroke-width:1.2857100000000001px"/><rect x="77.761" y="86.964" width="4.546" height="4.546" transform="translate(-39.66 82.746) rotate(-45.008)" style="fill:none;stroke:#204466;stroke-miterlimit:10;stroke-width:1.2857100000000001px"/><rect x="71.333" y="86.964" width="4.546" height="4.546" transform="translate(-41.542 78.191) rotate(-45.004)" style="fill:none;stroke:#204466;stroke-miterlimit:10;stroke-width:1.2857100000000001px"/><rect x="64.904" y="86.964" width="4.546" height="4.546" transform="translate(-43.426 73.645) rotate(-45.004)" style="fill:none;stroke:#204466;stroke-miterlimit:10;stroke-width:1.2857100000000001px"/></g><g style="clip-path:url(#clip-path-5)"><rect x="71.333" y="86.964" width="4.546" height="4.546" transform="translate(-41.542 78.191) rotate(-45.004)" style="fill:none;stroke:#204466;stroke-miterlimit:10;stroke-width:1.2857100000000001px"/><rect x="64.904" y="86.964" width="4.546" height="4.546" transform="translate(-43.426 73.645) rotate(-45.004)" style="fill:none;stroke:#204466;stroke-miterlimit:10;stroke-width:1.2857100000000001px"/><rect x="58.475" y="86.964" width="4.546" height="4.546" transform="translate(-45.309 69.099) rotate(-45.004)" style="fill:none;stroke:#204466;stroke-miterlimit:10;stroke-width:1.2857100000000001px"/><rect x="71.333" y="80.536" width="4.546" height="4.546" transform="translate(-36.996 76.293) rotate(-44.996)" style="fill:none;stroke:#204466;stroke-miterlimit:10;stroke-width:1.2857100000000001px"/><rect x="64.904" y="80.536" width="4.546" height="4.546" transform="translate(-38.878 71.747) rotate(-44.996)" style="fill:none;stroke:#204466;stroke-miterlimit:10;stroke-width:1.2857100000000001px"/><rect x="58.475" y="80.536" width="4.546" height="4.546" transform="translate(-40.761 67.202) rotate(-44.996)" style="fill:none;stroke:#204466;stroke-miterlimit:10;stroke-width:1.2857100000000001px"/><rect x="71.333" y="74.107" width="4.546" height="4.546" transform="translate(-32.45 74.41) rotate(-44.996)" style="fill:none;stroke:#204466;stroke-miterlimit:10;stroke-width:1.2857100000000001px"/><rect x="64.904" y="74.107" width="4.546" height="4.546" transform="translate(-34.333 69.865) rotate(-44.996)" style="fill:none;stroke:#204466;stroke-miterlimit:10;stroke-width:1.2857100000000001px"/><rect x="58.475" y="74.108" width="4.546" height="4.546" transform="translate(-36.215 65.319) rotate(-44.996)" style="fill:none;stroke:#204466;stroke-miterlimit:10;stroke-width:1.2857100000000001px"/></g><g style="clip-path:url(#clip-path-6)"><rect x="71.333" y="93.393" width="4.546" height="4.546" transform="translate(-46.088 80.074) rotate(-45.004)" style="fill:none;stroke:#204466;stroke-miterlimit:10;stroke-width:1.2857100000000001px"/><rect x="64.904" y="93.393" width="4.546" height="4.546" transform="translate(-47.972 75.528) rotate(-45.004)" style="fill:none;stroke:#204466;stroke-miterlimit:10;stroke-width:1.2857100000000001px"/><rect x="58.475" y="93.393" width="4.546" height="4.546" transform="translate(-49.855 70.982) rotate(-45.004)" style="fill:none;stroke:#204466;stroke-miterlimit:10;stroke-width:1.2857100000000001px"/><rect x="71.333" y="86.964" width="4.546" height="4.546" transform="translate(-41.542 78.191) rotate(-45.004)" style="fill:none;stroke:#204466;stroke-miterlimit:10;stroke-width:1.2857100000000001px"/><rect x="64.904" y="86.964" width="4.546" height="4.546" transform="translate(-43.426 73.645) rotate(-45.004)" style="fill:none;stroke:#204466;stroke-miterlimit:10;stroke-width:1.2857100000000001px"/><rect x="58.475" y="86.964" width="4.546" height="4.546" transform="translate(-45.309 69.099) rotate(-45.004)" style="fill:none;stroke:#204466;stroke-miterlimit:10;stroke-width:1.2857100000000001px"/><rect x="71.333" y="80.536" width="4.546" height="4.546" transform="translate(-36.996 76.293) rotate(-44.996)" style="fill:none;stroke:#204466;stroke-miterlimit:10;stroke-width:1.2857100000000001px"/><rect x="64.904" y="80.536" width="4.546" height="4.546" transform="translate(-38.878 71.747) rotate(-44.996)" style="fill:none;stroke:#204466;stroke-miterlimit:10;stroke-width:1.2857100000000001px"/><rect x="58.475" y="80.536" width="4.546" height="4.546" transform="translate(-40.761 67.202) rotate(-44.996)" style="fill:none;stroke:#204466;stroke-miterlimit:10;stroke-width:1.2857100000000001px"/></g><g style="clip-path:url(#clip-path-7)"><rect x="71.333" y="99.822" width="4.546" height="4.546" transform="translate(-50.635 81.958) rotate(-45.004)" style="fill:none;stroke:#204466;stroke-miterlimit:10;stroke-width:1.2857100000000001px"/><rect x="64.904" y="99.822" width="4.546" height="4.546" transform="translate(-52.518 77.412) rotate(-45.004)" style="fill:none;stroke:#204466;stroke-miterlimit:10;stroke-width:1.2857100000000001px"/><rect x="58.475" y="99.822" width="4.546" height="4.546" transform="translate(-54.401 72.866) rotate(-45.004)" style="fill:none;stroke:#204466;stroke-miterlimit:10;stroke-width:1.2857100000000001px"/><rect x="71.333" y="93.393" width="4.546" height="4.546" transform="translate(-46.088 80.074) rotate(-45.004)" style="fill:none;stroke:#204466;stroke-miterlimit:10;stroke-width:1.2857100000000001px"/><rect x="64.904" y="93.393" width="4.546" height="4.546" transform="translate(-47.972 75.528) rotate(-45.004)" style="fill:none;stroke:#204466;stroke-miterlimit:10;stroke-width:1.2857100000000001px"/><rect x="58.475" y="93.393" width="4.546" height="4.546" transform="translate(-49.855 70.982) rotate(-45.004)" style="fill:none;stroke:#204466;stroke-miterlimit:10;stroke-width:1.2857100000000001px"/><rect x="71.333" y="86.964" width="4.546" height="4.546" transform="translate(-41.542 78.191) rotate(-45.004)" style="fill:none;stroke:#204466;stroke-miterlimit:10;stroke-width:1.2857100000000001px"/><rect x="64.904" y="86.964" width="4.546" height="4.546" transform="translate(-43.426 73.645) rotate(-45.004)" style="fill:none;stroke:#204466;stroke-miterlimit:10;stroke-width:1.2857100000000001px"/><rect x="58.475" y="86.964" width="4.546" height="4.546" transform="translate(-45.309 69.099) rotate(-45.004)" style="fill:none;stroke:#204466;stroke-miterlimit:10;stroke-width:1.2857100000000001px"/></g><g style="clip-path:url(#clip-path-8)"><rect x="64.904" y="86.964" width="4.546" height="4.546" transform="translate(-43.426 73.645) rotate(-45.004)" style="fill:none;stroke:#204466;stroke-miterlimit:10;stroke-width:1.2857100000000001px"/><rect x="58.475" y="86.964" width="4.546" height="4.546" transform="translate(-45.309 69.099) rotate(-45.004)" style="fill:none;stroke:#204466;stroke-miterlimit:10;stroke-width:1.2857100000000001px"/><rect x="52.047" y="86.964" width="4.546" height="4.546" transform="translate(-47.192 64.555) rotate(-45.004)" style="fill:none;stroke:#204466;stroke-miterlimit:10;stroke-width:1.2857100000000001px"/><rect x="64.904" y="80.536" width="4.546" height="4.546" transform="translate(-38.878 71.747) rotate(-44.996)" style="fill:none;stroke:#204466;stroke-miterlimit:10;stroke-width:1.2857100000000001px"/><rect x="58.475" y="80.536" width="4.546" height="4.546" transform="translate(-40.761 67.202) rotate(-44.996)" style="fill:none;stroke:#204466;stroke-miterlimit:10;stroke-width:1.2857100000000001px"/><rect x="52.047" y="80.536" width="4.546" height="4.546" transform="translate(-42.644 62.658) rotate(-44.996)" style="fill:none;stroke:#204466;stroke-miterlimit:10;stroke-width:1.2857100000000001px"/><rect x="64.904" y="74.107" width="4.546" height="4.546" transform="translate(-34.333 69.865) rotate(-44.996)" style="fill:none;stroke:#204466;stroke-miterlimit:10;stroke-width:1.2857100000000001px"/><rect x="58.475" y="74.108" width="4.546" height="4.546" transform="translate(-36.215 65.319) rotate(-44.996)" style="fill:none;stroke:#204466;stroke-miterlimit:10;stroke-width:1.2857100000000001px"/><rect x="52.047" y="74.107" width="4.546" height="4.546" transform="translate(-38.098 60.776) rotate(-44.996)" style="fill:none;stroke:#204466;stroke-miterlimit:10;stroke-width:1.2857100000000001px"/></g><g style="clip-path:url(#clip-path-9)"><rect x="64.904" y="93.393" width="4.546" height="4.546" transform="translate(-47.972 75.528) rotate(-45.004)" style="fill:none;stroke:#204466;stroke-miterlimit:10;stroke-width:1.2857100000000001px"/><rect x="58.475" y="93.393" width="4.546" height="4.546" transform="translate(-49.855 70.982) rotate(-45.004)" style="fill:none;stroke:#204466;stroke-miterlimit:10;stroke-width:1.2857100000000001px"/><rect x="52.047" y="93.393" width="4.546" height="4.546" transform="translate(-51.738 66.438) rotate(-45.004)" style="fill:none;stroke:#204466;stroke-miterlimit:10;stroke-width:1.2857100000000001px"/><rect x="64.904" y="86.964" width="4.546" height="4.546" transform="translate(-43.426 73.645) rotate(-45.004)" style="fill:none;stroke:#204466;stroke-miterlimit:10;stroke-width:1.2857100000000001px"/><rect x="58.475" y="86.964" width="4.546" height="4.546" transform="translate(-45.309 69.099) rotate(-45.004)" style="fill:none;stroke:#204466;stroke-miterlimit:10;stroke-width:1.2857100000000001px"/><rect x="52.047" y="86.964" width="4.546" height="4.546" transform="translate(-47.192 64.555) rotate(-45.004)" style="fill:none;stroke:#204466;stroke-miterlimit:10;stroke-width:1.2857100000000001px"/><rect x="64.904" y="80.536" width="4.546" height="4.546" transform="translate(-38.878 71.747) rotate(-44.996)" style="fill:none;stroke:#204466;stroke-miterlimit:10;stroke-width:1.2857100000000001px"/><rect x="58.475" y="80.536" width="4.546" height="4.546" transform="translate(-40.761 67.202) rotate(-44.996)" style="fill:none;stroke:#204466;stroke-miterlimit:10;stroke-width:1.2857100000000001px"/><rect x="52.047" y="80.536" width="4.546" height="4.546" transform="translate(-42.644 62.658) rotate(-44.996)" style="fill:none;stroke:#204466;stroke-miterlimit:10;stroke-width:1.2857100000000001px"/></g><g style="clip-path:url(#clip-path-10)"><rect x="64.904" y="99.822" width="4.546" height="4.546" transform="translate(-52.518 77.412) rotate(-45.004)" style="fill:none;stroke:#204466;stroke-miterlimit:10;stroke-width:1.2857100000000001px"/><rect x="58.475" y="99.822" width="4.546" height="4.546" transform="translate(-54.401 72.866) rotate(-45.004)" style="fill:none;stroke:#204466;stroke-miterlimit:10;stroke-width:1.2857100000000001px"/><rect x="52.047" y="99.822" width="4.546" height="4.546" transform="translate(-56.285 68.321) rotate(-45.004)" style="fill:none;stroke:#204466;stroke-miterlimit:10;stroke-width:1.2857100000000001px"/><rect x="64.904" y="93.393" width="4.546" height="4.546" transform="translate(-47.972 75.528) rotate(-45.004)" style="fill:none;stroke:#204466;stroke-miterlimit:10;stroke-width:1.2857100000000001px"/><rect x="58.475" y="93.393" width="4.546" height="4.546" transform="translate(-49.855 70.982) rotate(-45.004)" style="fill:none;stroke:#204466;stroke-miterlimit:10;stroke-width:1.2857100000000001px"/><rect x="52.047" y="93.393" width="4.546" height="4.546" transform="translate(-51.738 66.438) rotate(-45.004)" style="fill:none;stroke:#204466;stroke-miterlimit:10;stroke-width:1.2857100000000001px"/><rect x="64.904" y="86.964" width="4.546" height="4.546" transform="translate(-43.426 73.645) rotate(-45.004)" style="fill:none;stroke:#204466;stroke-miterlimit:10;stroke-width:1.2857100000000001px"/><rect x="58.475" y="86.964" width="4.546" height="4.546" transform="translate(-45.309 69.099) rotate(-45.004)" style="fill:none;stroke:#204466;stroke-miterlimit:10;stroke-width:1.2857100000000001px"/><rect x="52.047" y="86.964" width="4.546" height="4.546" transform="translate(-47.192 64.555) rotate(-45.004)" style="fill:none;stroke:#204466;stroke-miterlimit:10;stroke-width:1.2857100000000001px"/></g></g><path d="M70.616,96.363H64.678c-2.183,0-3.959-1.464-3.959-3.265v-13.4H74.575V93.1C74.575,94.9,72.8,96.363,70.616,96.363ZM61.8,80.775V93.1c0,1.2,1.292,2.185,2.88,2.185h5.938c1.588,0,2.879-.98,2.879-2.185V80.775Z" style="fill:#204466"/><rect x="63.288" y="95.823" width="8.717" height="0.822" style="fill:#204466"/><rect x="226.11" y="93.538" width="41.417" height="3.108" rx="1.538" style="fill:#eb585a"/><rect x="238.221" y="76.082" width="39.381" height="0.935" transform="translate(99.019 293.648) rotate(-70.331)" style="fill:#eb585a"/><rect x="231.076" y="75.27" width="40.795" height="0.934" transform="translate(100.242 290.455) rotate(-71.603)" style="fill:#eb585a"/><polygon points="257.912 56.383 264.539 58.007 259.298 50.734 257.478 52.191 257.912 56.383" style="fill:#eb585a"/><path d="M264.427,58.461,257.8,56.835a.466.466,0,0,1-.353-.406l-.434-4.19a.469.469,0,0,1,.172-.412l1.823-1.457a.464.464,0,0,1,.355-.1.456.456,0,0,1,.314.19l5.241,7.274a.466.466,0,0,1,.007.533.462.462,0,0,1-.386.2A.535.535,0,0,1,264.427,58.461Zm-6.46-6.065.375,3.611,5.078,1.246-4.213-5.848Z" style="fill:#eb585a"/><rect x="247.815" y="21.608" width="0.934" height="33.293" transform="translate(36.735 173.736) rotate(-41.396)" style="fill:#eb585a"/><rect x="245.851" y="23.921" width="0.934" height="32.675" transform="translate(39.036 179.282) rotate(-43.132)" style="fill:#eb585a"/><polygon points="232.063 27.05 235.159 28.326 237.265 25.775 233.338 25.775 232.063 27.05" style="fill:#eb585a"/><path d="M234.982,28.758l-3.1-1.276a.467.467,0,0,1-.152-.762l1.276-1.275a.465.465,0,0,1,.33-.136h3.927a.466.466,0,0,1,.361.763l-2.106,2.551a.47.47,0,0,1-.361.169A.476.476,0,0,1,234.982,28.758Zm-1.451-2.517-.643.644,2.131.878,1.256-1.522Z" style="fill:#eb585a"/><path d="M226.4,27.05V25.775a.468.468,0,0,1,.469-.466h6.467a.466.466,0,0,1,.466.466V27.05a.466.466,0,0,1-.466.466h-6.467A.468.468,0,0,1,226.4,27.05Zm6.47-.809h-5.534v.343h5.534Z" style="fill:#eb585a"/><path d="M223.456,22.747a1.958,1.958,0,0,1,2.348-1.468l.826.191L224.3,31.028l-2.612-.6Z" style="fill:#eb585a"/><path d="M227.225,21.606a1.959,1.959,0,0,1,1.467,2.349l-1.771,7.678-2.625-.605,2.334-9.558Z" style="fill:#eb585a"/><path d="M226.413,31.516a6.8,6.8,0,0,1,5.229,7.407l-1.52,13.268-10.408-2.4L224.3,31.028Z" style="fill:#eb585a"/><path d="M214.244,34.906a6.805,6.805,0,0,1,7.948-4.364l2.1.486-4.582,18.761L209.8,47.5Z" style="fill:#eb585a"/><path d="M32.2,78.622a9.119,9.119,0,0,1,9.108-9.109V68.187a7.477,7.477,0,0,1,0-14.953V48.893H33.351a4.342,4.342,0,0,0-4.341,4.341V96.645h12.3V87.729A9.118,9.118,0,0,1,32.2,78.622Z" style="fill:#ffbc5a"/><path d="M53.61,53.234a4.342,4.342,0,0,0-4.341-4.341H41.31v4.341a7.477,7.477,0,0,1,0,14.953v1.326a9.108,9.108,0,1,1,0,18.216v8.916h12.3Z" style="fill:#eeb149"/><path d="M47.339,60.711A6.029,6.029,0,0,1,41.31,66.74v1.447a7.477,7.477,0,0,0,0-14.953v1.447A6.03,6.03,0,0,1,47.339,60.711Z" style="fill:#ffbc5a"/><path d="M33.834,60.711a7.484,7.484,0,0,0,7.476,7.476V66.74a6.03,6.03,0,0,1,0-12.059V53.234A7.486,7.486,0,0,0,33.834,60.711Z" style="fill:#eeb149"/><path d="M35.281,60.711A6.029,6.029,0,0,0,41.31,66.74V54.681A6.03,6.03,0,0,0,35.281,60.711Z" style="fill:#0f365a"/><path d="M47.339,60.711a6.03,6.03,0,0,0-6.029-6.03V66.74A6.029,6.029,0,0,0,47.339,60.711Z" style="fill:#274b6c"/><path d="M48.971,78.622a7.662,7.662,0,0,1-7.661,7.661v1.446a9.108,9.108,0,1,0,0-18.216v1.448A7.66,7.66,0,0,1,48.971,78.622Z" style="fill:#ffbc5a"/><path d="M32.2,78.622a9.118,9.118,0,0,0,9.108,9.107V86.283a7.661,7.661,0,0,1,0-15.322V69.513A9.119,9.119,0,0,0,32.2,78.622Z" style="fill:#eeb149"/><path d="M33.649,78.622a7.662,7.662,0,0,0,7.661,7.661V70.961A7.66,7.66,0,0,0,33.649,78.622Z" style="fill:#0f365a"/><path d="M48.971,78.622a7.66,7.66,0,0,0-7.661-7.661V86.283A7.662,7.662,0,0,0,48.971,78.622Z" style="fill:#274b6c"/><rect x="13.699" y="111.24" width="252.812" height="4.361" style="fill:#f0ead8"/><path d="M211.76,88.583h3.116a1.058,1.058,0,0,1,1.058,1.058v.025a1.058,1.058,0,0,1-1.058,1.058H211.76a1.059,1.059,0,0,1-1.059-1.059v-.021a1.06,1.06,0,0,1,1.06-1.06Z" style="fill:#274b6c"/><path d="M222.008,96.645H203.96a7.225,7.225,0,0,1,7.165-7.235h.721a13.622,13.622,0,0,1,10.942,5.508l.054.072A1.037,1.037,0,0,1,222.008,96.645Z" style="fill:#062635"/><path d="M205.13,96.18l-1.072-.13a5.857,5.857,0,0,1,4.755-4.8c6.716-1.278,13.243,3.738,13.521,3.953l-.664.851c-.065-.05-6.436-4.926-12.655-3.744A4.74,4.74,0,0,0,205.13,96.18Z" style="fill:#193556"/><path d="M63.629,85.422c-.293.018-.5-.026-.529-.129l1.707,6.874.527.122Z" style="fill:#f7daa9"/><polygon points="64.18 85.333 64.18 85.333 65.91 92.304 64.18 85.333" style="fill:#fff"/><path d="M65.088,84.8c.025.1-.139.242-.407.363l1.7,6.865.438-.361-1.905-7.545Z" style="fill:#f2c577"/><polygon points="65.334 92.289 65.356 92.338 66.607 95.112 65.91 92.304 65.334 92.289" style="fill:#133141"/><polygon points="64.807 92.167 66.607 95.112 65.356 92.338 64.807 92.167" style="fill:#83a7bb"/><polygon points="65.334 92.289 64.807 92.167 65.356 92.338 65.334 92.289" style="fill:#fbfbfb"/><polygon points="65.967 92.525 65.965 92.527 66.607 95.112 66.606 95.098 65.967 92.525" style="fill:#fbfbfb"/><polygon points="65.912 92.303 66.606 95.098 66.391 92.099 66.386 92.027 65.912 92.303" style="fill:#5385a0"/><rect x="65.937" y="92.301" width="0.003" height="0.229" transform="translate(-20.297 18.578) rotate(-13.921)" style="fill:#fbfbfb"/><polygon points="66.391 92.099 66.606 95.098 66.607 95.104 66.824 91.666 66.391 92.099" style="fill:#f9e4bf"/><polygon points="66.607 95.112 66.607 95.104 66.606 95.098 66.607 95.112" style="fill:#fbfbfb"/><polygon points="66.391 92.099 66.824 91.666 66.386 92.027 66.391 92.099" style="fill:#fbfbfb"/><path d="M64.18,85.333l-.009,0a3.123,3.123,0,0,1-.542.087l1.705,6.867.576.015Z" style="fill:#f7daa9"/><path d="M65.912,92.3l.474-.276-1.7-6.865a3.2,3.2,0,0,1-.5.171Z" style="fill:#f2c577"/><rect x="65.045" y="85.227" width="0.001" height="7.183" transform="translate(-19.472 18.275) rotate(-13.933)" style="fill:#f2c577"/><rect x="64.144" y="85.037" height="0.3" style="fill:#fff"/><path d="M63.629,85.422a3.123,3.123,0,0,0,.542-.087l.009,0-.071-.291-.011,0a3.367,3.367,0,0,1-.427.077c-.351.038-.614,0-.643-.12l.072.291C63.126,85.4,63.336,85.44,63.629,85.422Z" style="fill:#eaeeef"/><path d="M64.681,85.162c.268-.121.432-.259.407-.363l-.073-.291c.026.105-.138.243-.406.363a3.035,3.035,0,0,1-.5.171l.072.291A3.2,3.2,0,0,0,64.681,85.162Z" style="fill:#3f5f7c"/><rect x="64.144" y="85.037" height="0.3" transform="translate(-18.621 17.947) rotate(-13.93)" style="fill:#385876"/><path d="M64.012,84.655l.1.387a3.035,3.035,0,0,0,.5-.171c.268-.12.432-.258.406-.363l-.1-.387C64.959,84.281,64.556,84.517,64.012,84.655Z" style="fill:#0f365a"/><path d="M63.671,85.122a3.367,3.367,0,0,0,.427-.077l.011,0h0l-.1-.387-.01,0c-.549.137-1.03.118-1.07-.042l.1.387C63.057,85.119,63.32,85.16,63.671,85.122Z" style="fill:#274b6c"/><path d="M64,84.657l.01,0-3.9-15.685-.01,0c-.549.137,2.537,14.482,2.5,14.322l.328,1.321C62.972,84.775,63.453,84.794,64,84.657Z" style="fill:#fd9696"/><path d="M60.117,68.97l3.9,15.685c.544-.138.947-.374.907-.534L64.591,82.8C64.63,82.96,60.661,68.834,60.117,68.97Z" style="fill:#fd6b6b"/><path d="M59.963,68.392c-.549.136,2.6,14.741,2.641,14.9s-3.046-14.185-2.5-14.322l.01,0-.144-.581Z" style="fill:#feaeae"/><path d="M59.973,68.389l.144.581c.544-.136,4.513,13.99,4.474,13.83S60.518,68.256,59.973,68.389Z" style="fill:#fd9696"/><path d="M65.334,92.289,59.2,67.6c-.293.019-.5-.025-.529-.129l6.133,24.7Z" style="fill:#f7daa9"/><rect x="62.832" y="67.133" height="25.548" transform="translate(-17.402 17.494) rotate(-13.943)" style="fill:#fff"/><path d="M66.824,91.666,60.493,66.3l.168.676c.026.105-.138.242-.406.364l6.131,24.688Z" style="fill:#f1bd64"/><path d="M65.91,92.3,59.754,67.509l-.01,0a2.933,2.933,0,0,1-.541.087l6.131,24.691Z" style="fill:#f9e4c1"/><path d="M66.386,92.027,60.255,67.339a3.037,3.037,0,0,1-.5.17L65.912,92.3Z" style="fill:#f2c577"/><rect x="62.832" y="67.133" width="0.001" height="25.547" transform="translate(-17.406 17.499) rotate(-13.946)" style="fill:#f2c577"/><rect x="59.718" y="67.214" height="0.3" style="fill:#fff"/><path d="M59.2,67.6a2.933,2.933,0,0,0,.541-.087l.01,0-.072-.291-.01,0a3.346,3.346,0,0,1-.427.078c-.351.038-.614,0-.643-.121l.072.291C58.7,67.573,58.91,67.617,59.2,67.6Z" style="fill:#eaeeef"/><path d="M60.255,67.339c.268-.122.432-.259.406-.364l-.072-.29c.026.105-.138.242-.406.364a3.021,3.021,0,0,1-.5.169l.073.291A3.037,3.037,0,0,0,60.255,67.339Z" style="fill:#3f5f7c"/><rect x="59.718" y="67.214" height="0.3" transform="translate(-14.481 16.387) rotate(-13.953)" style="fill:#385876"/><path d="M59.586,66.832l.1.386a3.021,3.021,0,0,0,.5-.169c.268-.122.432-.259.406-.364l-.1-.386C60.532,66.458,60.13,66.695,59.586,66.832Z" style="fill:#0f365a"/><path d="M59.245,67.3a3.346,3.346,0,0,0,.427-.078l.01,0h0l-.1-.386-.01,0c-.549.136-1.03.118-1.07-.042l.1.386C58.631,67.3,58.894,67.337,59.245,67.3Z" style="fill:#274b6c"/><path d="M59.576,66.834l.01,0-.328-1.322-.01,0c-.549.136-1.031.118-1.07-.043l.328,1.322C58.546,66.952,59.027,66.97,59.576,66.834Z" style="fill:#fd9d9d"/><path d="M59.258,65.51l.328,1.322c.544-.137.946-.374.907-.533l-.328-1.322C60.2,65.136,59.8,65.374,59.258,65.51Z" style="fill:#fd6c6c"/><path d="M59.1,64.932c-.549.136-.966.378-.926.538s.521.179,1.07.043l.01,0-.144-.581Z" style="fill:#feaeae"/><path d="M59.114,64.929l.144.581c.544-.136.946-.374.907-.533S59.658,64.8,59.114,64.929Z" style="fill:#fd9696"/><path d="M66.5,94.915l.134.541c.027.108.1.183.163.169l-.184-.738Z" style="fill:#fd7979"/><path d="M66.61,94.887l.184.738h0c.062-.016.09-.117.063-.226l-.134-.54Z" style="fill:#fc4a4a"/><polygon points="69.221 94.995 69.33 89.416 71.287 89.811 69.221 94.995" style="fill:#195c8f"/><path d="M75.4,64.439l-1-.2q-1.731,7.11-3.129,14.3l1.227.248Z" style="fill:#f1bd66"/><path d="M76.394,64.641l-1-.2L72.5,78.785l1.23.249Q75.215,71.867,76.394,64.641Z" style="fill:#eeb149"/><path d="M70.308,89.613l1,.2c.872-3.578,1.67-7.177,2.419-10.781l-1.23-.249Z" style="fill:#f2c373"/><path d="M71.269,78.537c-.711,3.613-1.372,7.239-1.958,10.875l1,.2L72.5,78.785Z" style="fill:#f5d397"/><path d="M75.537,78.392a.4.4,0,0,1-.288-.236,3.3,3.3,0,0,1-.121-1.572,48.854,48.854,0,0,1,1.158-4.766c.3-1.108.576-2.154.654-2.538.158-.782.335-3.006.4-3.942L74.3,64.722a.5.5,0,0,1,.2-.968l3.79.765-.029.425c-.01.14-.237,3.443-.453,4.511-.084.417-.356,1.43-.67,2.6-.455,1.7-1.078,4.026-1.124,4.574a2.89,2.89,0,0,0,.039,1.062.545.545,0,0,1-.226.65A.416.416,0,0,1,75.537,78.392Z" style="fill:#195c8f"/><rect x="60.036" y="78.507" width="15.221" height="1.727" style="fill:#204466"/><g style="clip-path:url(#clip-path)"><g style="clip-path:url(#clip-path-2)"><rect x="77.761" y="86.964" width="4.546" height="4.546" transform="translate(-39.66 82.746) rotate(-45.008)" style="fill:none;stroke:#204466;stroke-miterlimit:10;stroke-width:1.2857100000000001px"/><rect x="71.333" y="86.964" width="4.546" height="4.546" transform="translate(-41.542 78.191) rotate(-45.004)" style="fill:none;stroke:#204466;stroke-miterlimit:10;stroke-width:1.2857100000000001px"/><rect x="64.904" y="86.964" width="4.546" height="4.546" transform="translate(-43.426 73.645) rotate(-45.004)" style="fill:none;stroke:#204466;stroke-miterlimit:10;stroke-width:1.2857100000000001px"/><rect x="77.761" y="80.536" width="4.546" height="4.546" transform="translate(-35.113 80.847) rotate(-45)" style="fill:none;stroke:#204466;stroke-miterlimit:10;stroke-width:1.2857100000000001px"/><rect x="71.333" y="80.536" width="4.546" height="4.546" transform="translate(-36.996 76.293) rotate(-44.996)" style="fill:none;stroke:#204466;stroke-miterlimit:10;stroke-width:1.2857100000000001px"/><rect x="64.904" y="80.536" width="4.546" height="4.546" transform="translate(-38.878 71.747) rotate(-44.996)" style="fill:none;stroke:#204466;stroke-miterlimit:10;stroke-width:1.2857100000000001px"/><rect x="77.761" y="74.108" width="4.546" height="4.546" transform="translate(-30.568 78.964) rotate(-45)" style="fill:none;stroke:#204466;stroke-miterlimit:10;stroke-width:1.2857100000000001px"/><rect x="71.333" y="74.107" width="4.546" height="4.546" transform="translate(-32.45 74.41) rotate(-44.996)" style="fill:none;stroke:#204466;stroke-miterlimit:10;stroke-width:1.2857100000000001px"/><rect x="64.904" y="74.107" width="4.546" height="4.546" transform="translate(-34.333 69.865) rotate(-44.996)" style="fill:none;stroke:#204466;stroke-miterlimit:10;stroke-width:1.2857100000000001px"/></g><g style="clip-path:url(#clip-path-3)"><rect x="77.761" y="93.393" width="4.546" height="4.546" transform="translate(-44.206 84.63) rotate(-45.008)" style="fill:none;stroke:#204466;stroke-miterlimit:10;stroke-width:1.2857100000000001px"/><rect x="71.333" y="93.393" width="4.546" height="4.546" transform="translate(-46.088 80.074) rotate(-45.004)" style="fill:none;stroke:#204466;stroke-miterlimit:10;stroke-width:1.2857100000000001px"/><rect x="64.904" y="93.393" width="4.546" height="4.546" transform="translate(-47.972 75.528) rotate(-45.004)" style="fill:none;stroke:#204466;stroke-miterlimit:10;stroke-width:1.2857100000000001px"/><rect x="77.761" y="86.964" width="4.546" height="4.546" transform="translate(-39.66 82.746) rotate(-45.008)" style="fill:none;stroke:#204466;stroke-miterlimit:10;stroke-width:1.2857100000000001px"/><rect x="71.333" y="86.964" width="4.546" height="4.546" transform="translate(-41.542 78.191) rotate(-45.004)" style="fill:none;stroke:#204466;stroke-miterlimit:10;stroke-width:1.2857100000000001px"/><rect x="64.904" y="86.964" width="4.546" height="4.546" transform="translate(-43.426 73.645) rotate(-45.004)" style="fill:none;stroke:#204466;stroke-miterlimit:10;stroke-width:1.2857100000000001px"/><rect x="77.761" y="80.536" width="4.546" height="4.546" transform="translate(-35.113 80.847) rotate(-45)" style="fill:none;stroke:#204466;stroke-miterlimit:10;stroke-width:1.2857100000000001px"/><rect x="71.333" y="80.536" width="4.546" height="4.546" transform="translate(-36.996 76.293) rotate(-44.996)" style="fill:none;stroke:#204466;stroke-miterlimit:10;stroke-width:1.2857100000000001px"/><rect x="64.904" y="80.536" width="4.546" height="4.546" transform="translate(-38.878 71.747) rotate(-44.996)" style="fill:none;stroke:#204466;stroke-miterlimit:10;stroke-width:1.2857100000000001px"/></g><g style="clip-path:url(#clip-path-4)"><rect x="77.761" y="99.822" width="4.546" height="4.546" transform="translate(-48.753 86.514) rotate(-45.008)" style="fill:none;stroke:#204466;stroke-miterlimit:10;stroke-width:1.2857100000000001px"/><rect x="71.333" y="99.822" width="4.546" height="4.546" transform="translate(-50.635 81.958) rotate(-45.004)" style="fill:none;stroke:#204466;stroke-miterlimit:10;stroke-width:1.2857100000000001px"/><rect x="64.904" y="99.822" width="4.546" height="4.546" transform="translate(-52.518 77.412) rotate(-45.004)" style="fill:none;stroke:#204466;stroke-miterlimit:10;stroke-width:1.2857100000000001px"/><rect x="77.761" y="93.393" width="4.546" height="4.546" transform="translate(-44.206 84.63) rotate(-45.008)" style="fill:none;stroke:#204466;stroke-miterlimit:10;stroke-width:1.2857100000000001px"/><rect x="71.333" y="93.393" width="4.546" height="4.546" transform="translate(-46.088 80.074) rotate(-45.004)" style="fill:none;stroke:#204466;stroke-miterlimit:10;stroke-width:1.2857100000000001px"/><rect x="64.904" y="93.393" width="4.546" height="4.546" transform="translate(-47.972 75.528) rotate(-45.004)" style="fill:none;stroke:#204466;stroke-miterlimit:10;stroke-width:1.2857100000000001px"/><rect x="77.761" y="86.964" width="4.546" height="4.546" transform="translate(-39.66 82.746) rotate(-45.008)" style="fill:none;stroke:#204466;stroke-miterlimit:10;stroke-width:1.2857100000000001px"/><rect x="71.333" y="86.964" width="4.546" height="4.546" transform="translate(-41.542 78.191) rotate(-45.004)" style="fill:none;stroke:#204466;stroke-miterlimit:10;stroke-width:1.2857100000000001px"/><rect x="64.904" y="86.964" width="4.546" height="4.546" transform="translate(-43.426 73.645) rotate(-45.004)" style="fill:none;stroke:#204466;stroke-miterlimit:10;stroke-width:1.2857100000000001px"/></g><g style="clip-path:url(#clip-path-5)"><rect x="71.333" y="86.964" width="4.546" height="4.546" transform="translate(-41.542 78.191) rotate(-45.004)" style="fill:none;stroke:#204466;stroke-miterlimit:10;stroke-width:1.2857100000000001px"/><rect x="64.904" y="86.964" width="4.546" height="4.546" transform="translate(-43.426 73.645) rotate(-45.004)" style="fill:none;stroke:#204466;stroke-miterlimit:10;stroke-width:1.2857100000000001px"/><rect x="58.475" y="86.964" width="4.546" height="4.546" transform="translate(-45.309 69.099) rotate(-45.004)" style="fill:none;stroke:#204466;stroke-miterlimit:10;stroke-width:1.2857100000000001px"/><rect x="71.333" y="80.536" width="4.546" height="4.546" transform="translate(-36.996 76.293) rotate(-44.996)" style="fill:none;stroke:#204466;stroke-miterlimit:10;stroke-width:1.2857100000000001px"/><rect x="64.904" y="80.536" width="4.546" height="4.546" transform="translate(-38.878 71.747) rotate(-44.996)" style="fill:none;stroke:#204466;stroke-miterlimit:10;stroke-width:1.2857100000000001px"/><rect x="58.475" y="80.536" width="4.546" height="4.546" transform="translate(-40.761 67.202) rotate(-44.996)" style="fill:none;stroke:#204466;stroke-miterlimit:10;stroke-width:1.2857100000000001px"/><rect x="71.333" y="74.107" width="4.546" height="4.546" transform="translate(-32.45 74.41) rotate(-44.996)" style="fill:none;stroke:#204466;stroke-miterlimit:10;stroke-width:1.2857100000000001px"/><rect x="64.904" y="74.107" width="4.546" height="4.546" transform="translate(-34.333 69.865) rotate(-44.996)" style="fill:none;stroke:#204466;stroke-miterlimit:10;stroke-width:1.2857100000000001px"/><rect x="58.475" y="74.108" width="4.546" height="4.546" transform="translate(-36.215 65.319) rotate(-44.996)" style="fill:none;stroke:#204466;stroke-miterlimit:10;stroke-width:1.2857100000000001px"/></g><g style="clip-path:url(#clip-path-6)"><rect x="71.333" y="93.393" width="4.546" height="4.546" transform="translate(-46.088 80.074) rotate(-45.004)" style="fill:none;stroke:#204466;stroke-miterlimit:10;stroke-width:1.2857100000000001px"/><rect x="64.904" y="93.393" width="4.546" height="4.546" transform="translate(-47.972 75.528) rotate(-45.004)" style="fill:none;stroke:#204466;stroke-miterlimit:10;stroke-width:1.2857100000000001px"/><rect x="58.475" y="93.393" width="4.546" height="4.546" transform="translate(-49.855 70.982) rotate(-45.004)" style="fill:none;stroke:#204466;stroke-miterlimit:10;stroke-width:1.2857100000000001px"/><rect x="71.333" y="86.964" width="4.546" height="4.546" transform="translate(-41.542 78.191) rotate(-45.004)" style="fill:none;stroke:#204466;stroke-miterlimit:10;stroke-width:1.2857100000000001px"/><rect x="64.904" y="86.964" width="4.546" height="4.546" transform="translate(-43.426 73.645) rotate(-45.004)" style="fill:none;stroke:#204466;stroke-miterlimit:10;stroke-width:1.2857100000000001px"/><rect x="58.475" y="86.964" width="4.546" height="4.546" transform="translate(-45.309 69.099) rotate(-45.004)" style="fill:none;stroke:#204466;stroke-miterlimit:10;stroke-width:1.2857100000000001px"/><rect x="71.333" y="80.536" width="4.546" height="4.546" transform="translate(-36.996 76.293) rotate(-44.996)" style="fill:none;stroke:#204466;stroke-miterlimit:10;stroke-width:1.2857100000000001px"/><rect x="64.904" y="80.536" width="4.546" height="4.546" transform="translate(-38.878 71.747) rotate(-44.996)" style="fill:none;stroke:#204466;stroke-miterlimit:10;stroke-width:1.2857100000000001px"/><rect x="58.475" y="80.536" width="4.546" height="4.546" transform="translate(-40.761 67.202) rotate(-44.996)" style="fill:none;stroke:#204466;stroke-miterlimit:10;stroke-width:1.2857100000000001px"/></g><g style="clip-path:url(#clip-path-7)"><rect x="71.333" y="99.822" width="4.546" height="4.546" transform="translate(-50.635 81.958) rotate(-45.004)" style="fill:none;stroke:#204466;stroke-miterlimit:10;stroke-width:1.2857100000000001px"/><rect x="64.904" y="99.822" width="4.546" height="4.546" transform="translate(-52.518 77.412) rotate(-45.004)" style="fill:none;stroke:#204466;stroke-miterlimit:10;stroke-width:1.2857100000000001px"/><rect x="58.475" y="99.822" width="4.546" height="4.546" transform="translate(-54.401 72.866) rotate(-45.004)" style="fill:none;stroke:#204466;stroke-miterlimit:10;stroke-width:1.2857100000000001px"/><rect x="71.333" y="93.393" width="4.546" height="4.546" transform="translate(-46.088 80.074) rotate(-45.004)" style="fill:none;stroke:#204466;stroke-miterlimit:10;stroke-width:1.2857100000000001px"/><rect x="64.904" y="93.393" width="4.546" height="4.546" transform="translate(-47.972 75.528) rotate(-45.004)" style="fill:none;stroke:#204466;stroke-miterlimit:10;stroke-width:1.2857100000000001px"/><rect x="58.475" y="93.393" width="4.546" height="4.546" transform="translate(-49.855 70.982) rotate(-45.004)" style="fill:none;stroke:#204466;stroke-miterlimit:10;stroke-width:1.2857100000000001px"/><rect x="71.333" y="86.964" width="4.546" height="4.546" transform="translate(-41.542 78.191) rotate(-45.004)" style="fill:none;stroke:#204466;stroke-miterlimit:10;stroke-width:1.2857100000000001px"/><rect x="64.904" y="86.964" width="4.546" height="4.546" transform="translate(-43.426 73.645) rotate(-45.004)" style="fill:none;stroke:#204466;stroke-miterlimit:10;stroke-width:1.2857100000000001px"/><rect x="58.475" y="86.964" width="4.546" height="4.546" transform="translate(-45.309 69.099) rotate(-45.004)" style="fill:none;stroke:#204466;stroke-miterlimit:10;stroke-width:1.2857100000000001px"/></g><g style="clip-path:url(#clip-path-8)"><rect x="64.904" y="86.964" width="4.546" height="4.546" transform="translate(-43.426 73.645) rotate(-45.004)" style="fill:none;stroke:#204466;stroke-miterlimit:10;stroke-width:1.2857100000000001px"/><rect x="58.475" y="86.964" width="4.546" height="4.546" transform="translate(-45.309 69.099) rotate(-45.004)" style="fill:none;stroke:#204466;stroke-miterlimit:10;stroke-width:1.2857100000000001px"/><rect x="52.047" y="86.964" width="4.546" height="4.546" transform="translate(-47.192 64.555) rotate(-45.004)" style="fill:none;stroke:#204466;stroke-miterlimit:10;stroke-width:1.2857100000000001px"/><rect x="64.904" y="80.536" width="4.546" height="4.546" transform="translate(-38.878 71.747) rotate(-44.996)" style="fill:none;stroke:#204466;stroke-miterlimit:10;stroke-width:1.2857100000000001px"/><rect x="58.475" y="80.536" width="4.546" height="4.546" transform="translate(-40.761 67.202) rotate(-44.996)" style="fill:none;stroke:#204466;stroke-miterlimit:10;stroke-width:1.2857100000000001px"/><rect x="52.047" y="80.536" width="4.546" height="4.546" transform="translate(-42.644 62.658) rotate(-44.996)" style="fill:none;stroke:#204466;stroke-miterlimit:10;stroke-width:1.2857100000000001px"/><rect x="64.904" y="74.107" width="4.546" height="4.546" transform="translate(-34.333 69.865) rotate(-44.996)" style="fill:none;stroke:#204466;stroke-miterlimit:10;stroke-width:1.2857100000000001px"/><rect x="58.475" y="74.108" width="4.546" height="4.546" transform="translate(-36.215 65.319) rotate(-44.996)" style="fill:none;stroke:#204466;stroke-miterlimit:10;stroke-width:1.2857100000000001px"/><rect x="52.047" y="74.107" width="4.546" height="4.546" transform="translate(-38.098 60.776) rotate(-44.996)" style="fill:none;stroke:#204466;stroke-miterlimit:10;stroke-width:1.2857100000000001px"/></g><g style="clip-path:url(#clip-path-9)"><rect x="64.904" y="93.393" width="4.546" height="4.546" transform="translate(-47.972 75.528) rotate(-45.004)" style="fill:none;stroke:#204466;stroke-miterlimit:10;stroke-width:1.2857100000000001px"/><rect x="58.475" y="93.393" width="4.546" height="4.546" transform="translate(-49.855 70.982) rotate(-45.004)" style="fill:none;stroke:#204466;stroke-miterlimit:10;stroke-width:1.2857100000000001px"/><rect x="52.047" y="93.393" width="4.546" height="4.546" transform="translate(-51.738 66.438) rotate(-45.004)" style="fill:none;stroke:#204466;stroke-miterlimit:10;stroke-width:1.2857100000000001px"/><rect x="64.904" y="86.964" width="4.546" height="4.546" transform="translate(-43.426 73.645) rotate(-45.004)" style="fill:none;stroke:#204466;stroke-miterlimit:10;stroke-width:1.2857100000000001px"/><rect x="58.475" y="86.964" width="4.546" height="4.546" transform="translate(-45.309 69.099) rotate(-45.004)" style="fill:none;stroke:#204466;stroke-miterlimit:10;stroke-width:1.2857100000000001px"/><rect x="52.047" y="86.964" width="4.546" height="4.546" transform="translate(-47.192 64.555) rotate(-45.004)" style="fill:none;stroke:#204466;stroke-miterlimit:10;stroke-width:1.2857100000000001px"/><rect x="64.904" y="80.536" width="4.546" height="4.546" transform="translate(-38.878 71.747) rotate(-44.996)" style="fill:none;stroke:#204466;stroke-miterlimit:10;stroke-width:1.2857100000000001px"/><rect x="58.475" y="80.536" width="4.546" height="4.546" transform="translate(-40.761 67.202) rotate(-44.996)" style="fill:none;stroke:#204466;stroke-miterlimit:10;stroke-width:1.2857100000000001px"/><rect x="52.047" y="80.536" width="4.546" height="4.546" transform="translate(-42.644 62.658) rotate(-44.996)" style="fill:none;stroke:#204466;stroke-miterlimit:10;stroke-width:1.2857100000000001px"/></g><g style="clip-path:url(#clip-path-10)"><rect x="64.904" y="99.822" width="4.546" height="4.546" transform="translate(-52.518 77.412) rotate(-45.004)" style="fill:none;stroke:#204466;stroke-miterlimit:10;stroke-width:1.2857100000000001px"/><rect x="58.475" y="99.822" width="4.546" height="4.546" transform="translate(-54.401 72.866) rotate(-45.004)" style="fill:none;stroke:#204466;stroke-miterlimit:10;stroke-width:1.2857100000000001px"/><rect x="52.047" y="99.822" width="4.546" height="4.546" transform="translate(-56.285 68.321) rotate(-45.004)" style="fill:none;stroke:#204466;stroke-miterlimit:10;stroke-width:1.2857100000000001px"/><rect x="64.904" y="93.393" width="4.546" height="4.546" transform="translate(-47.972 75.528) rotate(-45.004)" style="fill:none;stroke:#204466;stroke-miterlimit:10;stroke-width:1.2857100000000001px"/><rect x="58.475" y="93.393" width="4.546" height="4.546" transform="translate(-49.855 70.982) rotate(-45.004)" style="fill:none;stroke:#204466;stroke-miterlimit:10;stroke-width:1.2857100000000001px"/><rect x="52.047" y="93.393" width="4.546" height="4.546" transform="translate(-51.738 66.438) rotate(-45.004)" style="fill:none;stroke:#204466;stroke-miterlimit:10;stroke-width:1.2857100000000001px"/><rect x="64.904" y="86.964" width="4.546" height="4.546" transform="translate(-43.426 73.645) rotate(-45.004)" style="fill:none;stroke:#204466;stroke-miterlimit:10;stroke-width:1.2857100000000001px"/><rect x="58.475" y="86.964" width="4.546" height="4.546" transform="translate(-45.309 69.099) rotate(-45.004)" style="fill:none;stroke:#204466;stroke-miterlimit:10;stroke-width:1.2857100000000001px"/><rect x="52.047" y="86.964" width="4.546" height="4.546" transform="translate(-47.192 64.555) rotate(-45.004)" style="fill:none;stroke:#204466;stroke-miterlimit:10;stroke-width:1.2857100000000001px"/></g></g><path d="M70.616,96.363H64.678c-2.183,0-3.959-1.464-3.959-3.265v-13.4H74.575V93.1C74.575,94.9,72.8,96.363,70.616,96.363ZM61.8,80.775V93.1c0,1.2,1.292,2.185,2.88,2.185h5.938c1.588,0,2.879-.98,2.879-2.185V80.775Z" style="fill:#204466"/><rect x="63.288" y="95.823" width="8.717" height="0.822" style="fill:#204466"/><polygon points="152.613 93.461 126.116 93.461 128.853 82.487 149.875 82.487 152.613 93.461" style="fill:#062635"/><path d="M166.716,97.635h-52.46V97a4.552,4.552,0,0,1,4.552-4.553h43.354A4.553,4.553,0,0,1,166.716,97Z" style="fill:#133141"/><rect x="80.62" y="11.828" width="115.457" height="73.024" style="fill:#133141"/><rect x="83.357" y="14.565" width="109.984" height="64.193" style="fill:#c1f4f0"/><g style="mix-blend-mode:multiply"><rect x="83.357" y="14.565" width="1.216" height="64.193" style="fill:#ace4e1"/></g><polygon points="197.294 85.976 196.077 85.976 196.077 11.828 197.294 12.932 197.294 85.976" style="fill:#062635"/><g style="mix-blend-mode:multiply"><rect x="84.573" y="14.565" width="108.768" height="1.216" style="fill:#ace4e1"/></g><polygon points="196.077 84.761 196.077 85.976 81.7 85.976 80.62 84.761 196.077 84.761" style="fill:#062635"/><path d="M190.234,81.992a1.774,1.774,0,1,1-1.774-1.774A1.772,1.772,0,0,1,190.234,81.992Z" style="fill:#062635"/><rect x="166.716" y="81.998" width="3.297" height="0.98" style="fill:#062635"/><rect x="171.404" y="81.998" width="3.297" height="0.98" style="fill:#062635"/><rect x="176.095" y="81.998" width="3.297" height="0.98" style="fill:#062635"/><rect x="180.783" y="81.998" width="3.297" height="0.98" style="fill:#062635"/><g style="mix-blend-mode:screen"><polygon points="117.557 15.818 84.573 48.802 84.616 45.925 114.76 15.781 117.557 15.818" style="fill:#c1f4f0"/></g><g style="mix-blend-mode:screen"><polygon points="137.44 15.781 84.573 68.647 84.573 60.954 129.746 15.781 137.44 15.781" style="fill:#c1f4f0"/></g><polygon points="152.613 93.461 126.116 93.461 128.853 82.487 149.875 82.487 152.613 93.461" style="fill:#062635"/><path d="M166.716,97.635h-52.46V97a4.552,4.552,0,0,1,4.552-4.553h43.354A4.553,4.553,0,0,1,166.716,97Z" style="fill:#133141"/><rect x="80.62" y="11.828" width="115.457" height="73.024" style="fill:#133141"/><rect x="83.357" y="14.565" width="109.984" height="64.193" style="fill:#2f6fb6"/><g style="mix-blend-mode:multiply"><rect x="83.357" y="14.565" width="1.216" height="64.193" style="fill:#ace4e1"/></g><polygon points="197.294 85.976 196.077 85.976 196.077 11.828 197.294 12.932 197.294 85.976" style="fill:#062635"/><g style="mix-blend-mode:multiply"><rect x="84.573" y="14.565" width="108.768" height="1.216" style="fill:#ace4e1"/></g><polygon points="196.077 84.761 196.077 85.976 81.7 85.976 80.62 84.761 196.077 84.761" style="fill:#062635"/><path d="M190.234,81.992a1.774,1.774,0,1,1-1.774-1.774A1.772,1.772,0,0,1,190.234,81.992Z" style="fill:#062635"/><rect x="166.716" y="81.998" width="3.297" height="0.98" style="fill:#062635"/><rect x="171.404" y="81.998" width="3.297" height="0.98" style="fill:#062635"/><rect x="176.095" y="81.998" width="3.297" height="0.98" style="fill:#062635"/><rect x="180.783" y="81.998" width="3.297" height="0.98" style="fill:#062635"/><path d="M194.285,14.565a6.953,6.953,0,0,1-.348,1.623V78.825H83.449V14.565H80.7V84.677H196.686V14.565Z" style="fill:#133141"/><g style="mix-blend-mode:screen;opacity:0.62"><polygon points="118.998 13.998 84.694 48.302 84.767 45.337 116.117 13.987 118.998 13.998" style="fill:#c1f4f0"/></g><g style="mix-blend-mode:screen;opacity:0.62"><polygon points="138.159 15.062 84.573 68.647 85.238 61.514 131.025 15.727 138.159 15.062" style="fill:#c1f4f0"/></g><circle cx="121.595" cy="71.804" r="3.91" style="fill:url(#linear-gradient)"/><path d="M123.185,70.935l-.812.438v-.392a.233.233,0,0,0-.233-.233h-1.994a.233.233,0,0,0-.233.233v1.645a.233.233,0,0,0,.233.233h1.994a.233.233,0,0,0,.233-.233v-.392l.812.438a.063.063,0,0,0,.093-.055V70.99A.063.063,0,0,0,123.185,70.935Z" style="fill:url(#linear-gradient-2)"/><circle cx="131.76" cy="71.804" r="3.91" style="fill:url(#linear-gradient-3)"/><rect x="130.988" y="69.974" width="1.545" height="2.547" rx="0.772" style="fill:url(#linear-gradient-4)"/><path d="M132.816,71.921a.931.931,0,0,1-1.058.916c-.509,0-1.054-.237-1.054-.9h-.281a1.159,1.159,0,0,0,1.194,1.181v.519h.282v-.519a1.182,1.182,0,0,0,1.2-1.193Z" style="fill:url(#linear-gradient-5)"/><circle cx="141.925" cy="71.804" r="3.91" style="fill:url(#linear-gradient-6)"/><path d="M141.611,72.115h0a.953.953,0,1,0-.953-.953A.947.947,0,0,0,141.611,72.115Z" style="fill:url(#linear-gradient-7)"/><path d="M142.406,72.2a1.22,1.22,0,0,1-1.549,0,.064.064,0,0,0-.094.008,2.174,2.174,0,0,0-.436,1.114.066.066,0,0,0,.065.074h2.441a.066.066,0,0,0,.066-.072,2.184,2.184,0,0,0-.4-1.119A.066.066,0,0,0,142.406,72.2Z" style="fill:url(#linear-gradient-8)"/><path d="M144.012,71.577H143.6v-.408a.047.047,0,0,0-.047-.047h-.2a.047.047,0,0,0-.048.047v.408H142.9a.049.049,0,0,0-.048.048v.2a.049.049,0,0,0,.048.048h.408v.408a.047.047,0,0,0,.048.047h.2a.047.047,0,0,0,.047-.047v-.408h.408a.048.048,0,0,0,.048-.048v-.2A.048.048,0,0,0,144.012,71.577Z" style="fill:url(#linear-gradient-9)"/><circle cx="152.09" cy="71.804" r="3.91" style="fill:url(#linear-gradient-10)"/><circle cx="150.726" cy="71.804" r="0.438" style="fill:url(#linear-gradient-11)"/><circle cx="152.09" cy="71.804" r="0.438" style="fill:url(#linear-gradient-12)"/><circle cx="153.455" cy="71.804" r="0.438" style="fill:url(#linear-gradient-13)"/><g style="mix-blend-mode:multiply"><path d="M175.043,13.555a41.173,41.173,0,0,0-8.327-6.814A69.71,69.71,0,0,0,137.26.4c-15.082.342-28.769,6.13-34.555,14.642-4.62,6.8-3.712,14.694,2.256,21.074a30.325,30.325,0,0,0,6.754,5.279c3.944,2.489,9.88,4.962,12.126,5.268,5.19.708,10.949,5.656,10.949,5.656L153.1,78.825l40.243-.067V37.123S179.477,18.583,175.043,13.555Z" style="fill:#2f6fb6"/></g><path d="M178.956,24.342c-.966,24.327-36.352,24.12-36.352,24.12l-18.049,8.9s4.277-9.683,3.689-9.788a55.364,55.364,0,0,1-8.363-2.159c-12.012-4.156-20.12-12.038-20.12-21.077,0-13.367,17.729-24.2,39.6-24.2S179.486,10.985,178.956,24.342Z" style="fill:#eaeeef"/><path d="M115.513,23.332a1.772,1.772,0,0,1-3.536,0,1.771,1.771,0,0,1,3.536,0Zm-.055,11.218h-3.426l.57-8.271h2.284Z" style="fill:#3dad52"/><path d="M129.754,18.82V31.713h-2.985V26.427h-5.856v5.286h-2.985V18.82h2.985V23.9h5.856V18.82Z" style="fill:#3dad52"/><path d="M131.88,26.759c0-2.984,2.3-5.1,5.452-5.1a5.112,5.112,0,1,1,0,10.2C134.183,31.86,131.88,29.742,131.88,26.759Zm7.976,0a2.541,2.541,0,1,0-5.066,0,2.541,2.541,0,1,0,5.066,0Z" style="fill:#3dad52"/><path d="M144.689,18.046h2.873V31.713h-2.873Z" style="fill:#3dad52"/><path d="M159,26.058v5.655h-2.689V30.479a3.251,3.251,0,0,1-3.021,1.381c-2.32,0-3.7-1.289-3.7-3,0-1.75,1.235-2.966,4.255-2.966h2.285c0-1.233-.737-1.951-2.285-1.951a4.765,4.765,0,0,0-2.854.92l-1.032-2.008a7.627,7.627,0,0,1,4.273-1.2C157.254,21.656,159,23.056,159,26.058Zm-2.873,2.524V27.569H154.16c-1.344,0-1.768.5-1.768,1.16,0,.719.607,1.2,1.621,1.2A2.117,2.117,0,0,0,156.131,28.582Z" style="fill:#3dad52"/><path d="M161.185,30.184a1.773,1.773,0,0,1,3.536,0,1.771,1.771,0,0,1-3.536,0Zm.055-11.364h3.426l-.572,8.417H161.81Z" style="fill:#3dad52"/><path d="M192.545,78.826c-.026.006-.011-.008-.089,0a1.921,1.921,0,0,0-.331.037,1.646,1.646,0,0,0-.981.525,1.564,1.564,0,0,0-.325.762c-.021.407-.042.837-.065,1.281-.045.888-.093,1.835-.142,2.783-.192,3.79-.383,7.579-.383,7.579l-.384-7.579c-.047-.948-.095-1.9-.14-2.783-.023-.444-.044-.874-.065-1.281a3.074,3.074,0,0,1,.177-1.451,3.325,3.325,0,0,1,1.564-1.667,4.012,4.012,0,0,1,.584-.259c.138-.05.271-.078.245-.074Z" style="fill:#8dc63f"/><path d="M190.229,96.632a10.3,10.3,0,0,1-1.4.553c-2.911.558-5.5-2.121-6.027-5.037l-.909-2.826c-.678-3.756,2.235-7.66,6.026-7.21.588.069,2.305.554,2.305.554Z" style="fill:#fc4a4a"/><path d="M190.229,96.632a10.266,10.266,0,0,0,1.4.553c2.911.558,5.5-2.121,6.027-5.037l.909-2.826c.678-3.756-2.236-7.66-6.027-7.21-.588.069-2.3.554-2.3.554V96.632Z" style="fill:#fc4a4a"/><path d="M185.463,88.1h-.007a2.544,2.544,0,0,1-.808-2.166,3.59,3.59,0,0,1,.339-1.229,1.64,1.64,0,0,1,2.211-.857l.016.013c.47.356-.089.861-.747,1.618a3.054,3.054,0,0,0-.556.947C185.533,87.328,185.644,88.122,185.463,88.1Z" style="fill:#ffc2c2"/></g></g></svg>