<svg xmlns="http://www.w3.org/2000/svg" xmlns:xlink="http://www.w3.org/1999/xlink" viewBox="0 0 116.638 85.807"><defs><linearGradient id="linear-gradient" x1="38.174" y1="62.74" x2="43.703" y2="57.211" gradientUnits="userSpaceOnUse"><stop offset="0" stop-color="#121212"/><stop offset="1" stop-color="#515151"/></linearGradient><linearGradient id="linear-gradient-2" x1="41.97" y1="58.905" x2="39.835" y2="61.039" gradientUnits="userSpaceOnUse"><stop offset="0" stop-color="#c4c4c4"/><stop offset="0.002" stop-color="#c4c4c4"/><stop offset="0.235" stop-color="#dedede"/><stop offset="0.474" stop-color="#f0f0f0"/><stop offset="0.724" stop-color="#fbfbfb"/><stop offset="1" stop-color="#fff"/></linearGradient><linearGradient id="linear-gradient-3" x1="48.339" y1="62.74" x2="53.868" y2="57.211" xlink:href="#linear-gradient"/><linearGradient id="linear-gradient-4" x1="52.167" y1="58.363" x2="49.868" y2="60.662" xlink:href="#linear-gradient-2"/><linearGradient id="linear-gradient-5" x1="52.632" y1="58.828" x2="50.333" y2="61.127" xlink:href="#linear-gradient-2"/><linearGradient id="linear-gradient-6" x1="58.504" y1="62.74" x2="64.033" y2="57.211" xlink:href="#linear-gradient"/><linearGradient id="linear-gradient-7" x1="61.688" y1="58.6" x2="59.208" y2="61.08" xlink:href="#linear-gradient-2"/><linearGradient id="linear-gradient-8" x1="62.609" y1="59.522" x2="60.13" y2="62.001" xlink:href="#linear-gradient-2"/><linearGradient id="linear-gradient-9" x1="62.892" y1="59.805" x2="60.413" y2="62.284" xlink:href="#linear-gradient-2"/><linearGradient id="linear-gradient-10" x1="68.669" y1="62.74" x2="74.198" y2="57.211" xlink:href="#linear-gradient"/><linearGradient id="linear-gradient-11" x1="70.379" y1="59.666" x2="69.759" y2="60.285" xlink:href="#linear-gradient-2"/><linearGradient id="linear-gradient-12" x1="71.744" y1="59.666" x2="71.124" y2="60.285" xlink:href="#linear-gradient-2"/><linearGradient id="linear-gradient-13" x1="73.108" y1="59.666" x2="72.489" y2="60.285" xlink:href="#linear-gradient-2"/></defs><g style="isolation:isolate"><g id="Ñëîé_1" data-name="Ñëîé 1"><polygon points="71.956 81.633 45.459 81.633 48.196 70.659 69.219 70.659 71.956 81.633" style="fill:#062635"/><path d="M86.06,85.807H33.6v-.633a4.552,4.552,0,0,1,4.553-4.553H81.506a4.554,4.554,0,0,1,4.554,4.553Z" style="fill:#133141"/><rect x="-0.036" width="115.457" height="73.024" style="fill:#133141"/><rect x="2.701" y="2.737" width="109.984" height="64.193" style="fill:#c1f4f0"/><g style="mix-blend-mode:multiply"><rect x="2.701" y="2.737" width="1.216" height="64.193" style="fill:#ace4e1"/></g><polygon points="116.638 74.148 115.421 74.148 115.421 0 116.638 1.104 116.638 74.148" style="fill:#062635"/><g style="mix-blend-mode:multiply"><rect x="3.916" y="2.737" width="108.768" height="1.216" style="fill:#ace4e1"/></g><polygon points="115.421 72.933 115.421 74.148 1.044 74.148 -0.036 72.933 115.421 72.933" style="fill:#062635"/><path d="M109.577,70.164A1.774,1.774,0,1,1,107.8,68.39,1.772,1.772,0,0,1,109.577,70.164Z" style="fill:#062635"/><rect x="86.06" y="70.17" width="3.297" height="0.98" style="fill:#062635"/><rect x="90.748" y="70.17" width="3.297" height="0.98" style="fill:#062635"/><rect x="95.438" y="70.17" width="3.297" height="0.98" style="fill:#062635"/><rect x="100.127" y="70.17" width="3.297" height="0.98" style="fill:#062635"/><g style="mix-blend-mode:screen"><polygon points="36.9 3.99 3.916 36.974 3.96 34.097 34.103 3.953 36.9 3.99" style="fill:#c1f4f0"/></g><g style="mix-blend-mode:screen"><polygon points="56.783 3.953 3.916 56.819 3.916 49.126 49.089 3.953 56.783 3.953" style="fill:#c1f4f0"/></g><polygon points="71.956 81.633 45.459 81.633 48.196 70.659 69.219 70.659 71.956 81.633" style="fill:#062635"/><path d="M86.06,85.807H33.6v-.633a4.552,4.552,0,0,1,4.553-4.553H81.506a4.554,4.554,0,0,1,4.554,4.553Z" style="fill:#133141"/><rect x="-0.036" width="115.457" height="73.024" style="fill:#133141"/><rect x="2.701" y="2.737" width="109.984" height="64.193" style="fill:#2f6fb6"/><g style="mix-blend-mode:multiply"><rect x="2.701" y="2.737" width="1.216" height="64.193" style="fill:#ace4e1"/></g><polygon points="116.638 74.148 115.421 74.148 115.421 0 116.638 1.104 116.638 74.148" style="fill:#062635"/><g style="mix-blend-mode:multiply"><rect x="3.916" y="2.737" width="108.768" height="1.216" style="fill:#ace4e1"/></g><polygon points="115.421 72.933 115.421 74.148 1.044 74.148 -0.036 72.933 115.421 72.933" style="fill:#062635"/><path d="M109.577,70.164A1.774,1.774,0,1,1,107.8,68.39,1.772,1.772,0,0,1,109.577,70.164Z" style="fill:#062635"/><rect x="86.06" y="70.17" width="3.297" height="0.98" style="fill:#062635"/><rect x="90.748" y="70.17" width="3.297" height="0.98" style="fill:#062635"/><rect x="95.438" y="70.17" width="3.297" height="0.98" style="fill:#062635"/><rect x="100.127" y="70.17" width="3.297" height="0.98" style="fill:#062635"/><path d="M113.628,2.737a6.852,6.852,0,0,1-.348,1.623V67H2.793V2.737H.043V72.849H116.029V2.737Z" style="fill:#133141"/><g style="mix-blend-mode:screen;opacity:0.62"><polygon points="38.342 2.17 4.038 36.474 4.111 33.509 35.461 2.159 38.342 2.17" style="fill:#c1f4f0"/></g><g style="mix-blend-mode:screen;opacity:0.62"><polygon points="57.502 3.234 3.916 56.819 4.582 49.687 50.369 3.899 57.502 3.234" style="fill:#c1f4f0"/></g><circle cx="40.939" cy="59.976" r="3.91" style="fill:url(#linear-gradient)"/><path d="M42.528,59.107l-.812.438v-.392a.232.232,0,0,0-.232-.233h-2a.233.233,0,0,0-.233.233V60.8a.233.233,0,0,0,.233.233h2a.232.232,0,0,0,.232-.233v-.392l.812.438a.063.063,0,0,0,.093-.055V59.162A.063.063,0,0,0,42.528,59.107Z" style="fill:url(#linear-gradient-2)"/><circle cx="51.104" cy="59.976" r="3.91" style="fill:url(#linear-gradient-3)"/><rect x="50.332" y="58.146" width="1.545" height="2.547" rx="0.772" style="fill:url(#linear-gradient-4)"/><path d="M52.16,60.093a.932.932,0,0,1-1.058.916c-.51,0-1.054-.237-1.054-.9h-.281a1.159,1.159,0,0,0,1.194,1.181v.519h.282v-.519a1.181,1.181,0,0,0,1.2-1.193Z" style="fill:url(#linear-gradient-5)"/><circle cx="61.269" cy="59.976" r="3.91" style="fill:url(#linear-gradient-6)"/><path d="M60.954,60.287h0A.953.953,0,1,0,60,59.334.947.947,0,0,0,60.954,60.287Z" style="fill:url(#linear-gradient-7)"/><path d="M61.75,60.371a1.22,1.22,0,0,1-1.549,0,.065.065,0,0,0-.095.008A2.183,2.183,0,0,0,59.67,61.5a.067.067,0,0,0,.066.074h2.441a.065.065,0,0,0,.065-.072,2.181,2.181,0,0,0-.4-1.119A.066.066,0,0,0,61.75,60.371Z" style="fill:url(#linear-gradient-8)"/><path d="M63.356,59.749h-.408v-.408a.047.047,0,0,0-.048-.047h-.2a.047.047,0,0,0-.047.047v.408h-.408a.048.048,0,0,0-.048.048V60a.048.048,0,0,0,.048.048h.408v.408a.047.047,0,0,0,.047.047h.2a.047.047,0,0,0,.048-.047v-.408h.408A.049.049,0,0,0,63.4,60v-.2A.049.049,0,0,0,63.356,59.749Z" style="fill:url(#linear-gradient-9)"/><circle cx="71.434" cy="59.976" r="3.91" style="fill:url(#linear-gradient-10)"/><circle cx="70.069" cy="59.976" r="0.438" style="fill:url(#linear-gradient-11)"/><circle cx="71.434" cy="59.976" r="0.438" style="fill:url(#linear-gradient-12)"/><circle cx="72.799" cy="59.976" r="0.438" style="fill:url(#linear-gradient-13)"/></g></g></svg>