<svg id="Ñëîé_1" data-name="Ñëîé 1" xmlns="http://www.w3.org/2000/svg" viewBox="0 0 18.877 25.052"><path d="M12.763,5.529c-.027,0-.012-.008-.089,0a1.912,1.912,0,0,0-.331.037,1.646,1.646,0,0,0-.982.524,1.592,1.592,0,0,0-.325.763c-.02.407-.042.837-.064,1.281-.045.888-.094,1.835-.143,2.782-.191,3.79-.383,7.58-.383,7.58s-.191-3.79-.383-7.58c-.047-.947-.1-1.894-.14-2.782-.024-.444-.045-.874-.066-1.281A3.1,3.1,0,0,1,10.034,5.4,3.326,3.326,0,0,1,11.6,3.73a3.965,3.965,0,0,1,.584-.259c.137-.051.27-.078.245-.074Z" style="fill:#8dc63f"/><path d="M10.446,23.334a10.241,10.241,0,0,1-1.394.554c-2.911.558-5.5-2.121-6.028-5.037l-.909-2.826c-.677-3.756,2.236-7.66,6.027-7.21.588.069,2.3.553,2.3.553Z" style="fill:#fc4a4a"/><path d="M10.446,23.334a10.265,10.265,0,0,0,1.4.554c2.91.558,5.5-2.121,6.026-5.037l.909-2.826c.678-3.756-2.236-7.66-6.027-7.21-.588.069-2.3.553-2.3.553V23.334Z" style="fill:#fc4a4a"/><path d="M5.681,14.8H5.674a2.544,2.544,0,0,1-.809-2.166A3.6,3.6,0,0,1,5.2,11.4a1.641,1.641,0,0,1,2.211-.857l.017.013c.469.355-.089.861-.747,1.618a3.041,3.041,0,0,0-.557.946C5.75,14.031,5.861,14.825,5.681,14.8Z" style="fill:#ffc2c2"/></svg>