<svg xmlns="http://www.w3.org/2000/svg" viewBox="0 0 116.118 118.034"><g style="isolation:isolate"><g id="Ñëîé_1" data-name="Ñëîé 1"><g style="mix-blend-mode:multiply"><path d="M111.521,72.807a30.245,30.245,0,0,0-5.557-7.32A31.2,31.2,0,0,0,82.5,55.88a30.562,30.562,0,0,0-25.332,45.862,30.36,30.36,0,0,0,5.3,6.779,31.122,31.122,0,0,0,22.2,9.513,30.575,30.575,0,0,0,26.855-45.227Z" style="fill:#fff"/><path d="M110.379,71.664a30.294,30.294,0,0,0-5.558-7.32,31.2,31.2,0,0,0-23.466-9.607A30.563,30.563,0,0,0,56.023,100.6a30.36,30.36,0,0,0,5.3,6.779,31.124,31.124,0,0,0,22.2,9.513,30.576,30.576,0,0,0,26.856-45.227Z" style="fill:#fffefb"/><path d="M109.236,70.522a30.3,30.3,0,0,0-5.558-7.321,31.2,31.2,0,0,0-23.466-9.607A30.563,30.563,0,0,0,54.88,99.456a30.389,30.389,0,0,0,5.3,6.779,31.124,31.124,0,0,0,22.2,9.513,30.576,30.576,0,0,0,26.856-45.226Z" style="fill:#fffcf7"/><path d="M108.093,69.379a30.3,30.3,0,0,0-5.558-7.321,31.2,31.2,0,0,0-23.466-9.607A30.563,30.563,0,0,0,53.737,98.313a30.418,30.418,0,0,0,5.3,6.779,31.12,31.12,0,0,0,22.2,9.513,30.575,30.575,0,0,0,26.856-45.226Z" style="fill:#fffbf2"/><path d="M106.95,68.236a30.249,30.249,0,0,0-5.558-7.32,31.2,31.2,0,0,0-23.465-9.608A30.563,30.563,0,0,0,52.594,97.17a30.418,30.418,0,0,0,5.3,6.779,31.12,31.12,0,0,0,22.2,9.513A30.575,30.575,0,0,0,106.95,68.236Z" style="fill:#fefaee"/><path d="M105.807,67.093a30.249,30.249,0,0,0-5.558-7.32,31.2,31.2,0,0,0-23.465-9.608A30.564,30.564,0,0,0,51.451,96.028a30.39,30.39,0,0,0,5.3,6.778,31.121,31.121,0,0,0,22.2,9.514,30.576,30.576,0,0,0,26.856-45.227Z" style="fill:#fef9ea"/><path d="M104.664,65.95a30.245,30.245,0,0,0-5.557-7.32,31.2,31.2,0,0,0-23.466-9.608A30.563,30.563,0,0,0,50.309,94.885a30.36,30.36,0,0,0,5.3,6.779,31.122,31.122,0,0,0,22.2,9.513A30.576,30.576,0,0,0,104.664,65.95Z" style="fill:#fef7e6"/><path d="M103.522,64.807a30.274,30.274,0,0,0-5.558-7.32A31.2,31.2,0,0,0,74.5,47.88,30.563,30.563,0,0,0,49.166,93.742a30.36,30.36,0,0,0,5.3,6.779,31.122,31.122,0,0,0,22.2,9.513,30.577,30.577,0,0,0,26.856-45.227Z" style="fill:#fef6e1"/><path d="M102.379,63.664a30.294,30.294,0,0,0-5.558-7.32,31.2,31.2,0,0,0-23.466-9.607A30.563,30.563,0,0,0,48.023,92.6a30.389,30.389,0,0,0,5.3,6.779,31.124,31.124,0,0,0,22.2,9.513,30.576,30.576,0,0,0,26.856-45.227Z" style="fill:#fef5dd"/><path d="M101.236,62.522A30.3,30.3,0,0,0,95.678,55.2a31.2,31.2,0,0,0-23.466-9.607A30.563,30.563,0,0,0,46.88,91.456a30.389,30.389,0,0,0,5.3,6.779,31.124,31.124,0,0,0,22.2,9.513,30.576,30.576,0,0,0,26.856-45.226Z" style="fill:#fef4d9"/><path d="M100.093,61.379a30.274,30.274,0,0,0-5.558-7.32A31.2,31.2,0,0,0,71.07,44.451,30.563,30.563,0,0,0,45.737,90.313a30.418,30.418,0,0,0,5.3,6.779,31.124,31.124,0,0,0,22.2,9.513,30.575,30.575,0,0,0,26.856-45.226Z" style="fill:#fef2d5"/><path d="M98.95,60.236a30.274,30.274,0,0,0-5.558-7.32,31.2,31.2,0,0,0-23.465-9.608A30.563,30.563,0,0,0,44.594,89.17a30.418,30.418,0,0,0,5.3,6.779,31.12,31.12,0,0,0,22.2,9.513A30.575,30.575,0,0,0,98.95,60.236Z" style="fill:#fef1d0"/><path d="M97.807,59.093a30.249,30.249,0,0,0-5.558-7.32,31.2,31.2,0,0,0-23.465-9.608A30.564,30.564,0,0,0,43.451,88.028a30.39,30.39,0,0,0,5.3,6.778,31.121,31.121,0,0,0,22.2,9.514A30.576,30.576,0,0,0,97.807,59.093Z" style="fill:#fdf0cc"/><path d="M96.664,57.95a30.245,30.245,0,0,0-5.557-7.32,31.2,31.2,0,0,0-23.466-9.608A30.564,30.564,0,0,0,42.308,86.885a30.394,30.394,0,0,0,5.3,6.779,31.121,31.121,0,0,0,22.2,9.513A30.576,30.576,0,0,0,96.664,57.95Z" style="fill:#fdefc8"/><path d="M95.522,56.807a30.274,30.274,0,0,0-5.558-7.32A31.2,31.2,0,0,0,66.5,39.88,30.563,30.563,0,0,0,41.166,85.742a30.389,30.389,0,0,0,5.3,6.779,31.122,31.122,0,0,0,22.2,9.513A30.577,30.577,0,0,0,95.522,56.807Z" style="fill:#fdedc4"/><path d="M94.379,55.665a30.28,30.28,0,0,0-5.558-7.321,31.2,31.2,0,0,0-23.466-9.607A30.563,30.563,0,0,0,40.023,84.6a30.389,30.389,0,0,0,5.3,6.779,31.122,31.122,0,0,0,22.2,9.513A30.577,30.577,0,0,0,94.379,55.665Z" style="fill:#fdecbf"/><path d="M93.236,54.522A30.3,30.3,0,0,0,87.678,47.2a31.2,31.2,0,0,0-23.466-9.607A30.563,30.563,0,0,0,38.88,83.456a30.389,30.389,0,0,0,5.3,6.779,31.124,31.124,0,0,0,22.2,9.513A30.575,30.575,0,0,0,93.236,54.522Z" style="fill:#fdebbb"/><path d="M92.093,53.379a30.274,30.274,0,0,0-5.558-7.32A31.2,31.2,0,0,0,63.07,36.451,30.563,30.563,0,0,0,37.737,82.313a30.418,30.418,0,0,0,5.3,6.779,31.124,31.124,0,0,0,22.2,9.513A30.575,30.575,0,0,0,92.093,53.379Z" style="fill:#fde9b7"/><path d="M90.95,52.236a30.274,30.274,0,0,0-5.558-7.32,31.2,31.2,0,0,0-23.465-9.608A30.563,30.563,0,0,0,36.594,81.17a30.418,30.418,0,0,0,5.3,6.779,31.12,31.12,0,0,0,22.2,9.513A30.575,30.575,0,0,0,90.95,52.236Z" style="fill:#fde8b3"/><path d="M89.807,51.093a30.274,30.274,0,0,0-5.558-7.32,31.2,31.2,0,0,0-23.465-9.608A30.564,30.564,0,0,0,35.451,80.028a30.39,30.39,0,0,0,5.3,6.778,31.121,31.121,0,0,0,22.2,9.514A30.576,30.576,0,0,0,89.807,51.093Z" style="fill:#fce7ae"/><path d="M88.665,49.95a30.3,30.3,0,0,0-5.559-7.32,31.2,31.2,0,0,0-23.465-9.608A30.565,30.565,0,0,0,34.308,78.885a30.394,30.394,0,0,0,5.3,6.778,31.118,31.118,0,0,0,22.2,9.514A30.577,30.577,0,0,0,88.665,49.95Z" style="fill:#fce6aa"/><path d="M87.522,48.807a30.274,30.274,0,0,0-5.558-7.32A31.2,31.2,0,0,0,58.5,31.88,30.564,30.564,0,0,0,33.165,77.742a30.423,30.423,0,0,0,5.3,6.779,31.121,31.121,0,0,0,22.2,9.513A30.577,30.577,0,0,0,87.522,48.807Z" style="fill:#fce4a6"/><path d="M86.379,47.665a30.28,30.28,0,0,0-5.558-7.321,31.2,31.2,0,0,0-23.466-9.607A30.564,30.564,0,0,0,32.022,76.6a30.423,30.423,0,0,0,5.3,6.779,31.121,31.121,0,0,0,22.2,9.513A30.577,30.577,0,0,0,86.379,47.665Z" style="fill:#fce3a2"/><path d="M85.236,46.522A30.3,30.3,0,0,0,79.678,39.2a31.2,31.2,0,0,0-23.465-9.607A30.563,30.563,0,0,0,30.88,75.456a30.389,30.389,0,0,0,5.3,6.779,31.124,31.124,0,0,0,22.2,9.513A30.576,30.576,0,0,0,85.236,46.522Z" style="fill:#fce29d"/><path d="M84.093,45.379a30.274,30.274,0,0,0-5.558-7.32A31.2,31.2,0,0,0,55.07,28.451,30.563,30.563,0,0,0,29.737,74.313a30.418,30.418,0,0,0,5.3,6.779,31.124,31.124,0,0,0,22.2,9.513A30.576,30.576,0,0,0,84.093,45.379Z" style="fill:#fce199"/><path d="M82.95,44.236a30.274,30.274,0,0,0-5.558-7.32,31.2,31.2,0,0,0-23.465-9.608A30.563,30.563,0,0,0,28.594,73.17a30.418,30.418,0,0,0,5.3,6.779,31.12,31.12,0,0,0,22.2,9.513A30.575,30.575,0,0,0,82.95,44.236Z" style="fill:#fcdf95"/><path d="M81.808,43.093a30.3,30.3,0,0,0-5.559-7.32,31.2,31.2,0,0,0-23.465-9.608A30.565,30.565,0,0,0,27.451,72.028a30.419,30.419,0,0,0,5.3,6.778,31.121,31.121,0,0,0,22.2,9.514A30.577,30.577,0,0,0,81.808,43.093Z" style="fill:#fcde91"/><path d="M80.665,41.95a30.3,30.3,0,0,0-5.559-7.32,31.2,31.2,0,0,0-23.465-9.608A30.565,30.565,0,0,0,26.308,70.885a30.394,30.394,0,0,0,5.3,6.778,31.118,31.118,0,0,0,22.2,9.514A30.577,30.577,0,0,0,80.665,41.95Z" style="fill:#fbdd8c"/><path d="M79.522,40.808a30.286,30.286,0,0,0-5.558-7.321A31.2,31.2,0,0,0,50.5,23.88,30.564,30.564,0,0,0,25.165,69.742a30.423,30.423,0,0,0,5.3,6.779,31.121,31.121,0,0,0,22.2,9.513A30.577,30.577,0,0,0,79.522,40.808Z" style="fill:#fbdc88"/><path d="M78.379,39.665a30.28,30.28,0,0,0-5.558-7.321,31.2,31.2,0,0,0-23.465-9.607A30.564,30.564,0,0,0,24.022,68.6a30.423,30.423,0,0,0,5.3,6.779,31.121,31.121,0,0,0,22.2,9.513A30.577,30.577,0,0,0,78.379,39.665Z" style="fill:#fbda84"/><path d="M77.236,38.522a30.255,30.255,0,0,0-5.558-7.32,31.192,31.192,0,0,0-23.465-9.608A30.564,30.564,0,0,0,22.879,67.456a30.423,30.423,0,0,0,5.3,6.779,31.123,31.123,0,0,0,22.2,9.513A30.576,30.576,0,0,0,77.236,38.522Z" style="fill:#fbd980"/><path d="M76.093,37.379a30.274,30.274,0,0,0-5.558-7.32A31.2,31.2,0,0,0,47.07,20.451,30.563,30.563,0,0,0,21.737,66.313a30.418,30.418,0,0,0,5.3,6.779,31.124,31.124,0,0,0,22.2,9.513A30.576,30.576,0,0,0,76.093,37.379Z" style="fill:#fbd87b"/><path d="M74.951,36.236a30.3,30.3,0,0,0-5.559-7.32,31.2,31.2,0,0,0-23.465-9.608A30.564,30.564,0,0,0,20.594,65.17a30.418,30.418,0,0,0,5.3,6.779,31.12,31.12,0,0,0,22.2,9.513A30.577,30.577,0,0,0,74.951,36.236Z" style="fill:#fbd677"/><path d="M73.808,35.093a30.3,30.3,0,0,0-5.559-7.32,31.2,31.2,0,0,0-23.465-9.608A30.565,30.565,0,0,0,19.451,64.028a30.419,30.419,0,0,0,5.3,6.778,31.121,31.121,0,0,0,22.2,9.514A30.577,30.577,0,0,0,73.808,35.093Z" style="fill:#fbd573"/><path d="M72.665,33.95a30.3,30.3,0,0,0-5.559-7.32,31.2,31.2,0,0,0-23.465-9.608A30.565,30.565,0,0,0,18.308,62.885a30.419,30.419,0,0,0,5.3,6.778,31.121,31.121,0,0,0,22.2,9.514A30.577,30.577,0,0,0,72.665,33.95Z" style="fill:#fad46f"/><path d="M71.522,32.808a30.286,30.286,0,0,0-5.558-7.321A31.2,31.2,0,0,0,42.5,15.879,30.565,30.565,0,0,0,17.165,61.742a30.423,30.423,0,0,0,5.3,6.779,31.121,31.121,0,0,0,22.2,9.513A30.577,30.577,0,0,0,71.522,32.808Z" style="fill:#fad36a"/><path d="M70.379,31.665a30.305,30.305,0,0,0-5.558-7.321,31.2,31.2,0,0,0-23.465-9.607A30.564,30.564,0,0,0,16.022,60.6a30.423,30.423,0,0,0,5.3,6.779,31.121,31.121,0,0,0,22.2,9.513A30.576,30.576,0,0,0,70.379,31.665Z" style="fill:#fad166"/><path d="M69.236,30.522a30.255,30.255,0,0,0-5.558-7.32,31.192,31.192,0,0,0-23.465-9.608A30.564,30.564,0,0,0,14.879,59.456a30.423,30.423,0,0,0,5.3,6.779,31.123,31.123,0,0,0,22.2,9.513A30.576,30.576,0,0,0,69.236,30.522Z" style="fill:#fad062"/><path d="M68.093,29.379a30.274,30.274,0,0,0-5.558-7.32A31.2,31.2,0,0,0,39.07,12.451,30.565,30.565,0,0,0,13.736,58.313a30.452,30.452,0,0,0,5.3,6.779,31.123,31.123,0,0,0,22.2,9.513A30.576,30.576,0,0,0,68.093,29.379Z" style="fill:#facf5e"/><path d="M66.951,28.236a30.3,30.3,0,0,0-5.559-7.32,31.2,31.2,0,0,0-23.465-9.608A30.612,30.612,0,0,0,17.891,63.949a31.119,31.119,0,0,0,22.2,9.513A30.577,30.577,0,0,0,66.951,28.236Z" style="fill:#face59"/><path d="M65.808,27.093a30.3,30.3,0,0,0-5.559-7.32,31.2,31.2,0,0,0-23.465-9.608A30.564,30.564,0,0,0,11.451,56.027a30.448,30.448,0,0,0,5.3,6.779,31.12,31.12,0,0,0,22.2,9.513A30.577,30.577,0,0,0,65.808,27.093Z" style="fill:#facc55"/><path d="M64.665,25.95a30.3,30.3,0,0,0-5.559-7.32A31.2,31.2,0,0,0,35.642,9.022,30.565,30.565,0,0,0,10.308,54.885a30.419,30.419,0,0,0,5.3,6.778,31.121,31.121,0,0,0,22.2,9.514A30.577,30.577,0,0,0,64.665,25.95Z" style="fill:#facb51"/><path d="M63.522,24.808a30.286,30.286,0,0,0-5.558-7.321A31.2,31.2,0,0,0,34.5,7.879,30.565,30.565,0,0,0,9.165,53.742a30.423,30.423,0,0,0,5.3,6.779,31.121,31.121,0,0,0,22.2,9.513A30.577,30.577,0,0,0,63.522,24.808Z" style="fill:#f9ca4d"/><path d="M62.379,23.665a30.305,30.305,0,0,0-5.558-7.321A31.2,31.2,0,0,0,33.356,6.737a30.782,30.782,0,0,0-27.1,18.8A31.014,31.014,0,0,0,8.022,52.6a30.423,30.423,0,0,0,5.3,6.779,31.121,31.121,0,0,0,22.2,9.513A30.576,30.576,0,0,0,62.379,23.665Z" style="fill:#f9c948"/><path d="M61.236,22.522a30.28,30.28,0,0,0-5.558-7.32A31.192,31.192,0,0,0,32.213,5.594,30.781,30.781,0,0,0,5.11,24.4,31.01,31.01,0,0,0,6.879,51.456a30.423,30.423,0,0,0,5.3,6.779,31.123,31.123,0,0,0,22.2,9.513A30.576,30.576,0,0,0,61.236,22.522Z" style="fill:#f9c744"/><path d="M60.094,21.379a30.329,30.329,0,0,0-5.559-7.32A31.192,31.192,0,0,0,31.07,4.451a30.78,30.78,0,0,0-27.1,18.8,31.015,31.015,0,0,0,1.769,27.06,30.452,30.452,0,0,0,5.3,6.779,31.123,31.123,0,0,0,22.2,9.513A30.577,30.577,0,0,0,60.094,21.379Z" style="fill:#f9c640"/></g><path d="M58.1,50.244A28.78,28.78,0,0,1,35.117,64.589,28.937,28.937,0,0,1,5.9,26.329,28.759,28.759,0,0,1,26.126,7.941a28.947,28.947,0,0,1,35.4,32.524A28.646,28.646,0,0,1,58.1,50.244C50.254,64.006,65.95,36.482,58.1,50.244Z" style="fill:#82bfc1"/><path d="M33.236,66.605A30.9,30.9,0,0,1,4.7,23.99a30.783,30.783,0,0,1,27.1-18.8A30.856,30.856,0,0,1,59.621,51.512,30.78,30.78,0,0,1,33.236,66.605ZM32.942,9.077A26.911,26.911,0,0,0,8.45,25.14a26.965,26.965,0,0,0,32.23,36.5,26.863,26.863,0,0,0,19.2-24.052A27.017,27.017,0,0,0,32.942,9.077Z" style="fill:#82bfc1"/><path d="M57.364,49.507A28.777,28.777,0,0,1,34.38,63.851,28.935,28.935,0,0,1,5.159,25.591,28.758,28.758,0,0,1,25.388,7.2a28.947,28.947,0,0,1,35.4,32.524,28.651,28.651,0,0,1-3.424,9.779Z" style="fill:#fefff5"/><path d="M33.1,16.985c-2.385,0-1.625-4.359-1.625-5.8s-.76-5.8,1.625-5.8,1.624,4.357,1.624,5.8S35.484,16.985,33.1,16.985Z" style="fill:#82bfc1"/><path d="M61.881,37.515H55.719c-.709,0-1.448.061-2.156,0a1.63,1.63,0,0,1,0-3.258c2.022-.172,4.133,0,6.162,0,.708,0,1.448-.061,2.156,0A1.63,1.63,0,0,1,61.881,37.515Z" style="fill:#82bfc1"/><path d="M33.1,66.391c-2.385,0-1.625-4.357-1.625-5.8s-.76-5.8,1.625-5.8,1.624,4.358,1.624,5.8S35.484,66.391,33.1,66.391Z" style="fill:#82bfc1"/><path d="M12.627,37.525H6.465c-.71,0-1.45.06-2.157,0a1.63,1.63,0,0,1,0-3.258c2.022-.173,4.133,0,6.163,0,.709,0,1.449-.061,2.156,0A1.63,1.63,0,0,1,12.627,37.525Z" style="fill:#82bfc1"/><path d="M32.363,16.247c-2.385,0-1.625-4.358-1.625-5.8s-.76-5.8,1.625-5.8,1.623,4.358,1.623,5.8S34.747,16.247,32.363,16.247Z" style="fill:#2f6fb6"/><path d="M61.143,36.778H54.982c-.71,0-1.448.061-2.157,0a1.63,1.63,0,0,1,0-3.258c2.022-.173,4.134,0,6.161,0,.71,0,1.449-.06,2.157,0A1.63,1.63,0,0,1,61.143,36.778Z" style="fill:#2f6fb6"/><path d="M32.363,65.654c-2.385,0-1.625-4.358-1.625-5.8s-.76-5.8,1.625-5.8,1.623,4.358,1.623,5.8S34.747,65.654,32.363,65.654Z" style="fill:#2f6fb6"/><path d="M11.888,36.787H5.728c-.711,0-1.449.061-2.157,0a1.63,1.63,0,0,1,0-3.258c2.023-.172,4.132,0,6.162,0,.709,0,1.448-.06,2.155,0A1.63,1.63,0,0,1,11.888,36.787Z" style="fill:#2f6fb6"/><path d="M32.5,65.868A30.9,30.9,0,0,1,3.967,23.253a30.78,30.78,0,0,1,27.1-18.8A30.856,30.856,0,0,1,58.884,50.775,30.777,30.777,0,0,1,32.5,65.868Zm-.3-57.528A26.912,26.912,0,0,0,7.713,24.4,26.966,26.966,0,0,0,39.945,60.9a26.861,26.861,0,0,0,19.2-24.052A27.015,27.015,0,0,0,32.205,8.34Z" style="fill:#2f6fb6"/><path d="M23.484,22.2c2.025,1.9,3.837,3.989,5.735,6.01a10.882,10.882,0,0,1,2.76,3.862c.2.546,1.058,2.861.243,3.176-.246.1-1.021-.427-1.238-.548a9.6,9.6,0,0,1-1.84-1.354c-1.256-1.174-1.775-2.685-2.582-4.159-.77-1.4-1.486-2.83-2.186-4.268C24.176,24.512,22.839,22.4,23.484,22.2Z" style="fill:#3dad52"/><path d="M45.725,18.63c-1.905,3.332-4.091,6.476-6.114,9.733a18.8,18.8,0,0,1-3.627,4.644c-.424.365-3.259,2.805-3.755,2.035-.174-.269.367-1.479.467-1.762a16.535,16.535,0,0,1,1.267-2.73,25.465,25.465,0,0,1,3.95-4.568c1.463-1.55,2.944-3.08,4.459-4.582.724-.718,1.449-1.434,2.187-2.136C44.842,19,45.363,18.138,45.725,18.63Z" style="fill:#3dad52"/><path d="M42.221,17.056c-1.011-.581.058-1.876.423-2.518s1.006-2.425,2.055-1.823c1.012.581-.057,1.875-.424,2.517s-1,2.424-2.054,1.824C41.8,16.814,42.643,17.3,42.221,17.056Z" style="fill:#98dcdb"/><path d="M19.431,57.019c-1.01-.581.057-1.876.423-2.517s1.005-2.425,2.054-1.825c1.012.584-.055,1.875-.422,2.518s-1.007,2.425-2.055,1.824C19.01,56.777,19.854,57.261,19.431,57.019Z" style="fill:#98dcdb"/><path d="M20.888,17.138c-.634-.363-1.046-1.571-1.394-2.168-.181-.311-.361-.623-.543-.934a.888.888,0,0,1,1.1-1.268c.679.3,1.138,1.623,1.48,2.211.182.312.361.623.543.934a.887.887,0,0,1-1.19,1.225Z" style="fill:#98dcdb"/><path d="M43.988,56.923c-.637-.368-1.046-1.57-1.394-2.169q-.272-.467-.541-.934a.888.888,0,0,1,1.1-1.269c.679.3,1.138,1.624,1.48,2.212.181.311.361.623.543.934a.888.888,0,0,1-1.19,1.226C43.859,56.848,44.254,57.074,43.988,56.923Z" style="fill:#98dcdb"/><path d="M10.312,23.4a.89.89,0,0,1,.338-1.643,1.744,1.744,0,0,1,1.008.382,18.185,18.185,0,0,1,2.328,1.336.89.89,0,0,1-.339,1.643,1.735,1.735,0,0,1-1.007-.381Z" style="fill:#98dcdb"/><path d="M52.943,47.869l-2.18-1.251a3.336,3.336,0,0,1-.837-.533.885.885,0,0,1,1.091-1.355,16.818,16.818,0,0,1,2.18,1.251,3.336,3.336,0,0,1,.84.534A.886.886,0,0,1,52.943,47.869Z" style="fill:#98dcdb"/><path d="M10.406,48.035c-1.33-.763.315-1.714.943-2.081.6-.351,1.876-1.455,2.635-1.123,1.512.661-.232,1.76-.855,2.125S11.171,48.474,10.406,48.035Z" style="fill:#98dcdb"/><path d="M50.059,24.859c-1.33-.764.313-1.714.942-2.082.6-.351,1.876-1.454,2.637-1.122,1.51.661-.233,1.76-.858,2.124s-1.956,1.517-2.721,1.08Z" style="fill:#98dcdb"/><path d="M43.714,49.6c-2.015-2.307-3.993-4.649-5.962-7-1.137-1.354-2.307-2.664-3.332-4.109-.286-.405-2.316-3.042-2.02-3.372.071-.078,2.768,2.838,2.975,3.079,1.164,1.337,2.159,2.8,3.218,4.224q1.671,2.249,3.323,4.516C42.18,47.3,43.909,49.226,43.714,49.6Z" style="fill:#eeb149"/><path d="M35.447,35.149c0,3.99-6.171,3.99-6.171,0S35.447,31.158,35.447,35.149Z" style="fill:#eeb149"/><path d="M32.363,38.977a3.829,3.829,0,1,1,3.816-3.828A3.862,3.862,0,0,1,32.363,38.977Zm0-6.19c-3.038,0-3.038,4.724,0,4.724S35.4,32.787,32.363,32.787Z" style="fill:#eeb149"/></g></g></svg>