<svg id="Capa_1" data-name="Capa 1" xmlns="http://www.w3.org/2000/svg" viewBox="0 0 170.144 311.316"><ellipse cx="100.517" cy="270.107" rx="61.091" ry="36.353" transform="translate(-12.279 4.893) rotate(-2.628)" style="fill:#a8c4e5;isolation:isolate;opacity:0.400000005960465"/><ellipse cx="81.077" cy="275.001" rx="61.091" ry="36.353" transform="translate(-12.524 4.007) rotate(-2.628)" style="fill:#2e2a4a"/><ellipse cx="80.489" cy="262.212" rx="61.091" ry="36.353" transform="translate(-11.938 3.966) rotate(-2.628)" style="fill:#fff;stroke:#2e2a4a;stroke-linecap:round;stroke-linejoin:round;stroke-width:1.31040000135365px"/><path d="M12.838,146.67S-24.694,78.378,51.819,15.77" style="fill:none;stroke:#2e2a4a;stroke-miterlimit:10;stroke-width:1.47140002250671px"/><path d="M94.607,236.794l6.407,17.514a3.5,3.5,0,0,1-1.537,4.235l-21.6,12.473a3.5,3.5,0,0,1-5.251-3.064l.194-21.325a3.5,3.5,0,0,1,1.75-3l15-8.663a3.5,3.5,0,0,1,5.037,1.83Z" style="fill:#fff;stroke:#2e2a4a;stroke-linecap:round;stroke-linejoin:round;stroke-width:1.21609997749329px"/><path d="M89.169,230.659,81.682,226.5,63.7,237.069l-3.436,23.67a3.849,3.849,0,0,0,1.24,3.421l3.151,2.827a4.8,4.8,0,0,0,8-3.529l.171-18.83L89.2,235.174a2.6,2.6,0,0,0-.033-4.515Z" style="fill:#2e2a4a"/><polyline points="95.704 43.796 30.329 143.006 80.803 233.869" style="fill:none;stroke:#2e2a4a;stroke-miterlimit:10;stroke-width:4.41419982910156px"/><polyline points="75.898 42.079 15.421 144.225 69.844 240.375" style="fill:none;stroke:#2e2a4a;stroke-miterlimit:10;stroke-width:4.41419982910156px"/><path d="M85.583,70.226,51.565,42.2a21.589,21.589,0,0,1-2.934-30.389h0l.763-.926A21.589,21.589,0,0,1,79.785,7.949L113.8,35.976a21.588,21.588,0,0,1,2.933,30.389h0l-.763.926A21.589,21.589,0,0,1,85.583,70.226Z" style="fill:#2f6fb6"/><path d="M120.066,54.2l-.763.926a21.651,21.651,0,0,1-30.389,2.934L54.9,30.029a21.563,21.563,0,0,1-7.829-16.8,21.651,21.651,0,0,0,4.5,28.2l34.014,28.03a21.652,21.652,0,0,0,30.389-2.933l.763-.927a21.455,21.455,0,0,0,4.9-13.591A21.511,21.511,0,0,1,120.066,54.2Z" style="fill:#2e2a4a"/><ellipse cx="132.275" cy="86.612" rx="54.125" ry="15.86" transform="translate(-20.335 127.946) rotate(-48.371)" style="fill:#fff;stroke:#2e2a4a;stroke-linecap:round;stroke-linejoin:round;stroke-width:1.21609993776966px"/><path d="M91.562,122.25,80.6,105.978a50.693,50.693,0,0,1,6.052-64.029h0a50.7,50.7,0,0,1,59.29-9.321l18.161,9.4Z" style="fill:#2f6fb6"/><path d="M86.65,42.816h0a48.259,48.259,0,0,1,4.2-3.729,50.68,50.68,0,0,0-2.648,60.2l10.635,15.784-7.277,8.047L80.6,106.845A50.694,50.694,0,0,1,86.65,42.816Z" style="fill:#2e2a4a"/><ellipse cx="128.146" cy="82.483" rx="54.125" ry="15.86" transform="translate(-18.634 123.473) rotate(-48.371)" style="fill:#2e2a4a"/><path d="M142.807,72.58c-1.273,9.009-6.223,21.881-23.691,25.6a9.634,9.634,0,0,1-11.053-12.945c3.868-9.556,13-19.776,22.087-23.067A9.588,9.588,0,0,1,142.807,72.58Z" style="fill:#fff;stroke:#2e2a4a;stroke-linecap:round;stroke-linejoin:round;stroke-width:1.21609997749329px"/><path d="M116.3,71.947c19.858-22.343,41.263-35.739,47.811-29.919a6.6,6.6,0,0,1,1.907,4.943c-9.376.827-26.537,13.075-42.676,31.234s-26.289,36.64-26.009,46.049A6.6,6.6,0,0,1,92.2,122.94C85.644,117.12,96.434,94.29,116.3,71.947Z" style="fill:#fff;stroke:#2e2a4a;stroke-linecap:round;stroke-linejoin:round;stroke-width:1.21609997749329px"/><path d="M33.8,137.137l-19.887,8.882a4.408,4.408,0,0,0-2.228,5.822c.055.125.117.247.184.366l8.486,15.07a3,3,0,0,0,3.9,1.235l20.267-9.662a3.224,3.224,0,0,0,1.525-4.3c-.032-.066-.065-.131-.1-.195l-9.114-16.216A2.372,2.372,0,0,0,33.8,137.137Z" style="fill:#fff;stroke:#2e2a4a;stroke-linecap:round;stroke-linejoin:round;stroke-width:1.21609997749329px"/><path d="M15.169,145.459l-2.331,1.212a3.448,3.448,0,0,0-1.467,4.648c.018.034.036.067.055.1l8.839,15.7a3.2,3.2,0,0,0,4.162,1.317l3.808-1.815Z" style="fill:#2e2a4a"/></svg>