<svg id="Capa_1" data-name="Capa 1" xmlns="http://www.w3.org/2000/svg" xmlns:xlink="http://www.w3.org/1999/xlink" viewBox="0 0 95.669 178.816"><defs><linearGradient id="Degradado_sin_nombre" x1="2.838" y1="-1446.507" x2="78.498" y2="-1446.507" gradientTransform="matrix(1, 0, 0, -1, 0, -1302.597)" gradientUnits="userSpaceOnUse"><stop offset="0" stop-color="#e1473d"/><stop offset="1" stop-color="#e9605a"/></linearGradient></defs><ellipse cx="56.625" cy="160.599" rx="39.044" ry="18.015" style="fill:#a8c4e5;isolation:isolate;opacity:0.400000005960465"/><path d="M2.838,109.206l11.193,56.3c1.08,5.783,10.113,13.11,26.637,13.11s25.312-6.379,26.638-13.11l11.192-56.3Z" style="stroke:#2e2a4a;stroke-miterlimit:10;stroke-width:1.47140002250671px;fill:url(#Degradado_sin_nombre)"/><ellipse cx="40.668" cy="110.808" rx="37.83" ry="16.088" style="fill:#fff;stroke:#2e2a4a;stroke-linecap:round;stroke-linejoin:round"/><ellipse cx="40.318" cy="110.31" rx="13.624" ry="33.329" transform="translate(-70.231 149.965) rotate(-89.656)" style="fill:#fff;stroke:#2e2a4a;stroke-linecap:round;stroke-linejoin:round"/><ellipse cx="40.668" cy="110.808" rx="23.087" ry="10.203" style="fill:#2e2a4a"/><path d="M6.93,93.034h0C4.524,89.876,2.441,86.229,2.9,82.1a7.5,7.5,0,0,1,2.385-4.814C8.977,74.019,14,76.13,17.114,79.238c2.662,2.661,4.555,6.05,7.428,8.482L13.505,52.789c-1.411-4.465-2.841-9.234-.479-13.731a6.545,6.545,0,0,1,6.732-3.571c7.034,1.146,6,13.047,12.255,16.458a89.687,89.687,0,0,1-9.2-27.732c-1.106-7.007-1.285-14.634,3.722-20.334A10.776,10.776,0,0,1,37.621.388c7.21,2.168,8.578,11.149,8.823,18.46l.915,27.308C49,39.456,51.3,32,55.945,27.342a4.028,4.028,0,0,1,6.87,2.53,58.3,58.3,0,0,1-6.047,30.8,13.746,13.746,0,0,1,3.4-3.941,5.479,5.479,0,0,1,8.9,4.381A41.05,41.05,0,0,1,57.2,89.184l3.6-4.013a2.708,2.708,0,0,1,4.721,1.836,25.438,25.438,0,0,1-8.38,18.553C41.119,119.662,17.805,107.311,6.93,93.034Z" style="fill:#3dad52"/></svg>