<svg id="Capa_1" data-name="Capa 1" xmlns="http://www.w3.org/2000/svg" viewBox="0 0 71.374 72.904"><path d="M67.528,72.9,6.219,72.578Q13.08,43.361,9.527,8.115l61.309.326C71.839,31.614,71.8,53.951,67.528,72.9Z" style="fill:#a8c4e5;isolation:isolate;opacity:0.400000005960465"/><path d="M61.884,65.362.574,65.036Q7.435,35.822,3.882.574L65.192.9C66.195,24.071,66.154,46.408,61.884,65.362Z" style="fill:#fff;stroke:#2e2a4a;stroke-linecap:round;stroke-linejoin:round;stroke-width:1.14752995967865px"/><path d="M49.779,17.9,20.29,17.74a3.107,3.107,0,0,1-3.032-2.659h0a2.368,2.368,0,0,1,2.092-2.617,2.335,2.335,0,0,1,.374-.012l29.489.157a3.108,3.108,0,0,1,3.032,2.659h0a2.37,2.37,0,0,1-2.094,2.617A2.314,2.314,0,0,1,49.779,17.9Z" style="fill:#fff;stroke:#2e2a4a;stroke-linecap:round;stroke-linejoin:round;stroke-width:1.14752995967865px"/><path d="M49.884,33.086,20.4,32.929a3.107,3.107,0,0,1-3.032-2.658h0a2.367,2.367,0,0,1,2.465-2.629l29.489.157a3.107,3.107,0,0,1,3.032,2.658h0a2.37,2.37,0,0,1-2.092,2.617A2.335,2.335,0,0,1,49.884,33.086Z" style="fill:#fff;stroke:#2e2a4a;stroke-linecap:round;stroke-linejoin:round;stroke-width:1.14752995967865px"/></svg>