<svg id="Capa_1" data-name="Capa 1" xmlns="http://www.w3.org/2000/svg" viewBox="0 0 226.723 141.652"><g id="Grupo_97" data-name="Grupo 97"><path id="Trazado_22" data-name="Trazado 22" d="M209.136,88.089,187.1,80.149a26.177,26.177,0,0,0-15.443,0l-22.037,7.94c-3.447,1.243-4.165,3.032-4.161,4.316s.736,3.068,4.191,4.285l7.066,2.49v17.669a1.881,1.881,0,0,0,1,1.662,46.785,46.785,0,0,0,43.935,0,1.883,1.883,0,0,0,1-1.662V98.967l6.462-2.276c3.456-1.219,4.187-3,4.191-4.285S212.583,89.332,209.136,88.089Zm-10.257,27.584c-2.716,1.264-10.608,4.55-19.2,4.55s-16.484-3.286-19.2-4.55V100.506l11.172,3.936a26.757,26.757,0,0,0,15.454,0l11.775-4.15Zm8.975-22.534-22,7.753a23.117,23.117,0,0,1-12.951,0l-22-7.753a5.418,5.418,0,0,1-1.507-.749,5.464,5.464,0,0,1,1.5-.76l22.037-7.94a22.557,22.557,0,0,1,12.891,0l22.037,7.94a5.464,5.464,0,0,1,1.5.76,5.4,5.4,0,0,1-1.507.749Z" style="fill:#fff"/><path id="Trazado_23" data-name="Trazado 23" d="M154.143,101.213a1.881,1.881,0,0,0-2.625.43v0c-2.122,2.958-5.478,6.414-9.86,7.131V89.583c.565.013,1.129.023,1.7.045a1.883,1.883,0,1,0,.151-3.762c-.618-.025-1.233-.036-1.848-.049V72.6h18.166c-.063,2.2-.251,4.732-.51,6.868a1.883,1.883,0,0,0,3.738.451c.276-2.284.472-4.966.536-7.319h14.487c-.044.8-.108,1.6-.2,2.385a1.882,1.882,0,1,0,3.739.435h0a43.059,43.059,0,0,0,.285-4.935,42.161,42.161,0,1,0-28.836,40.039,1.877,1.877,0,0,0-1.028-3.606,28.976,28.976,0,0,0,2.539-3.076A1.882,1.882,0,0,0,154.143,101.213ZM123.381,91.092a84.265,84.265,0,0,1,14.511-1.513v19.1c-6.014-1.3-11.313-8.065-14.513-17.588Zm14.511-5.279a87.98,87.98,0,0,0-15.591,1.66A66.716,66.716,0,0,1,120.21,72.6h17.682ZM101.324,72.6h15.119a71.638,71.638,0,0,0,2.1,15.722,61.671,61.671,0,0,0-10.652,3.718A38.2,38.2,0,0,1,101.322,72.6ZM108.2,48.49A62.345,62.345,0,0,0,118.693,52.1a71.47,71.47,0,0,0-2.263,16.737H101.3a38.2,38.2,0,0,1,6.9-20.344Zm33.453-16.3c6.07,1.018,11.463,7.592,14.772,17.019a84.26,84.26,0,0,1-14.772,1.59Zm-3.765.087V50.8a84.667,84.667,0,0,1-14.329-1.478c3.217-9.232,8.43-15.762,14.327-17.041Zm0,22.288V68.829H120.2a66.615,66.615,0,0,1,2.247-15.892,88.253,88.253,0,0,0,15.447,1.632Zm3.765,0a87.962,87.962,0,0,0,15.893-1.742,66.561,66.561,0,0,1,2.281,16.008H141.654Zm36.437,14.266H163.6a71.4,71.4,0,0,0-2.3-16.886,61.831,61.831,0,0,0,9.892-3.456,38.2,38.2,0,0,1,6.9,20.344ZM168.81,45.424a59.027,59.027,0,0,1-8.6,2.918,38.644,38.644,0,0,0-8.041-14.2,38.536,38.536,0,0,1,16.638,11.288Zm-40.643-11.61a38.278,38.278,0,0,0-8.4,14.67,59.633,59.633,0,0,1-9.177-3.061,38.52,38.52,0,0,1,17.574-11.608Zm-17.944,61.3a58.947,58.947,0,0,1,9.37-3.181c2.054,6.338,5,11.582,8.565,15.211a38.552,38.552,0,0,1-17.938-12.03Z" style="fill:#fff"/></g><circle id="Elipse_164" data-name="Elipse 164" cx="79.396" cy="110.329" r="10" style="fill:#f9c640"/><circle id="Elipse_166" data-name="Elipse 166" cx="200.396" cy="44.989" r="7" style="fill:#eb585a"/><circle id="Elipse_168" data-name="Elipse 168" cx="69.834" cy="51.551" r="7" style="fill:#eb585a"/><g id="_" data-name=" " style="isolation:isolate"><text transform="translate(171.496 18.989)" style="isolation:isolate;font-size:20px;fill:#fcfcfc;font-family:Montserrat-SemiBold, Montserrat;font-weight:600">+</text></g><g id="_4" data-name=" 4" style="isolation:isolate"><text transform="translate(15.496 89.99)" style="isolation:isolate;font-size:20px;fill:#fcfcfc;font-family:Montserrat-SemiBold, Montserrat;font-weight:600">+</text></g></svg>