<svg id="Capa_1" data-name="Capa 1" xmlns="http://www.w3.org/2000/svg" viewBox="0 0 238.979 156.425"><circle id="Elipse_163" data-name="Elipse 163" cx="199.406" cy="24" r="3.5" style="fill:#f9c640"/><circle id="Elipse_165" data-name="Elipse 165" cx="68.906" cy="130.244" r="5.312" style="fill:#f9c640"/><circle id="Elipse_167" data-name="Elipse 167" cx="212.906" cy="53.5" r="7" style="fill:#2f6fb6"/><circle id="Elipse_169" data-name="Elipse 169" cx="52.088" cy="90.938" r="7" style="fill:#3dad52"/><g id="_2" data-name=" 2" style="isolation:isolate"><text transform="translate(197.007 32.5)" style="isolation:isolate;font-size:20px;fill:#fcfcfc;font-family:Montserrat-SemiBold, Montserrat;font-weight:600">+</text></g><g id="_6" data-name=" 6" style="isolation:isolate"><text transform="translate(8.007 125.5)" style="isolation:isolate;font-size:20px;fill:#fcfcfc;font-family:Montserrat-SemiBold, Montserrat;font-weight:600">+</text></g><g id="Grupo_98" data-name="Grupo 98"><path id="Trazado_24" data-name="Trazado 24" d="M114.34,52.542a13.244,13.244,0,1,0,13.244,13.245A13.245,13.245,0,0,0,114.34,52.542Zm0,22.172a8.928,8.928,0,1,1,8.927-8.929v0A8.938,8.938,0,0,1,114.34,74.714Z" style="fill:#fcfcfc"/><circle id="Elipse_69" data-name="Elipse 69" cx="128.792" cy="102.76" r="2.421" style="fill:#fcfcfc"/><path id="Trazado_25" data-name="Trazado 25" d="M135.381,93.6V90.576a9.938,9.938,0,0,0-9.928-9.928H101.276a9.94,9.94,0,0,0-9.928,9.928V93.6H80.988V41.8h42.3a2.159,2.159,0,1,0,0-4.317H78.828a2.158,2.158,0,0,0-2.152,2.16V95.756a2.158,2.158,0,0,0,2.158,2.158H178.976a2.158,2.158,0,0,0,2.158-2.158h0V39.641a2.158,2.158,0,0,0-2.158-2.158h-3.885a2.159,2.159,0,0,0,0,4.317h1.727V93.6ZM95.669,90.576a5.618,5.618,0,0,1,5.612-5.612h24.173a5.618,5.618,0,0,1,5.612,5.612V93.6h-35.4Z" style="fill:#fcfcfc"/><path id="Trazado_26" data-name="Trazado 26" d="M180.815,29.713h-10.9a2.159,2.159,0,0,0,0,4.317h10.9c2.785,0,3.774,2.574,3.774,4.778v64.748c0,2.281-.991,4.718-3.774,4.718H78.945c-2.592,0-5.722-2.1-5.722-4.718V38.808c0-2.573,3.146-4.778,5.722-4.778h49.53a2.159,2.159,0,1,0,0-4.317H78.945c-4.739,0-10.039,3.89-10.039,9.095v64.748c0,5.17,5.3,9.035,10.039,9.035h37.443V119.5h-5.182a2.159,2.159,0,0,0,0,4.317h34.532a2.159,2.159,0,1,0,0-4.317h-5.18v-6.906h40.254c4.764,0,8.091-3.716,8.091-9.035V38.808C188.906,33.453,185.579,29.713,180.815,29.713ZM136.244,119.5H120.706v-6.906h15.54Z" style="fill:#fcfcfc"/><path id="Trazado_27" data-name="Trazado 27" d="M131.056,60.043A2.812,2.812,0,0,1,131.5,62a8.907,8.907,0,0,1-1.021,2.77,2.159,2.159,0,0,0,2.537,3.09,47.509,47.509,0,0,1,6.515-1.647c.257.066.778.222,1.245.363a33.579,33.579,0,0,0,8.713,1.748c12.645,0,22.932-9.17,22.932-20.442s-10.287-20.443-22.937-20.443-22.933,9.17-22.933,20.442C126.551,52.759,130.466,59.234,131.056,60.043Zm18.423-28.291c10.266,0,18.615,7.234,18.615,16.126S159.744,64,149.479,64a30.435,30.435,0,0,1-7.469-1.565c-.824-.248-1.368-.412-1.773-.49a3.284,3.284,0,0,0-.642-.058,19.271,19.271,0,0,0-3.825.694,5.048,5.048,0,0,0,.037-.589,7.109,7.109,0,0,0-1.271-4.5c-.622-.854-3.673-6.278-3.673-9.619C130.868,38.985,139.218,31.752,149.479,31.752Z" style="fill:#fcfcfc"/></g></svg>