<svg id="Capa_1" data-name="Capa 1" xmlns="http://www.w3.org/2000/svg" viewBox="0 0 181.893 218.471"><path d="M179.794,149.242l-52.472-29.9c-3.143-1.791-8.675-1.543-12.355.553l-9.02,5.138c-.046.026-.1.044-.146.07L9.469,179.979c-3.68,2.1-4.116,5.247-.973,7.038l52.472,29.9c3.143,1.791,8.675,1.543,12.355-.553l9.02-5.138c.046-.026.1-.044.146-.07l96.332-54.873C182.5,154.184,182.937,151.032,179.794,149.242Z" style="fill:#a8c4e5;isolation:isolate;opacity:0.400000005960465"/><path d="M158.824,148.324,111.13,121.045c-3.131-1.791-8.641-1.543-12.308.553L60.249,184.451l-.078,18c-4.69-3.829-10.623-8.613-11.242-8.828-1.038-.359-48.88-19.729-48.88-19.729L0,176.864a6.752,6.752,0,0,0,3.545,6.055l51.777,31.022a9.417,9.417,0,0,0,9.535.088l97.575-56.055c2.1-1.2,3.132-2.744,3.051-4.181l.082-5.78Z" style="fill:#fff;stroke:#2e2a4a;stroke-linecap:round;stroke-linejoin:round;stroke-width:1.14531004428864px"/><path d="M54.486,207.227l-52.471-29.9c-3.144-1.791-2.708-4.942.973-7.039l96.331-54.872c3.681-2.1,9.212-2.345,12.356-.554l52.471,29.895c3.143,1.791,2.707,4.942-.973,7.039L66.841,206.673C63.161,208.77,57.629,209.018,54.486,207.227Z" style="fill:#2e2a4a"/><path d="M141.149,167.493l5.811-3.31a1.5,1.5,0,0,0,.637-1.176h0c0-.45-.272-.658-.617-.462l-5.811,3.31a1.5,1.5,0,0,0-.636,1.176h0C140.528,167.479,140.806,167.689,141.149,167.493Z" style="fill:#2e2a4a"/><path d="M149.431,162.832l5.81-3.31a1.5,1.5,0,0,0,.637-1.176h0c.006-.451-.272-.658-.616-.462l-5.811,3.31a1.5,1.5,0,0,0-.637,1.176h0C148.808,162.82,149.086,163.028,149.431,162.832Z" style="fill:#2e2a4a"/><path d="M102.259,118.527,21.249,164.67a2.755,2.755,0,0,0-.059,4.8L69.69,197.1a2.847,2.847,0,0,0,2.81-.011l81-46.143a2.753,2.753,0,0,0,.059-4.8l-48.5-27.632A2.843,2.843,0,0,0,102.259,118.527Z" style="fill:#fff;stroke:#2e2a4a;stroke-linecap:round;stroke-linejoin:round;stroke-width:1.14752995967865px"/><path d="M125.3,22.3,89.463,1.613C85.805-.5,82.478-.46,80.026,1.283V1.276l-.052.043a6.446,6.446,0,0,0-.5.419l-7.1,5.893,3.492,5.075v24.92c0,9.98,6.124,21.68,13.608,26l35.553,20.526,3.739,5.434,5.815-4.817-.01-.015c2.664-1.779,4.346-5.513,4.346-10.727V48.3C138.906,38.324,132.782,26.623,125.3,22.3Z" style="fill:#2e2a4a"/><path d="M123.53,84.3V51.5a5.791,5.791,0,0,0-2.41-4.6L83.787,25.346A1.7,1.7,0,0,0,82.57,25.1l-.044-.042-4.568,2.548,3.419,11.7V59.977a5.788,5.788,0,0,0,2.41,4.6l5.99,3.459,10.334,22.831,13.622-8.074,1.789.106,2.393,6.068,4.434-2.588V86.37C123.049,86.208,123.53,85.468,123.53,84.3Z" style="fill:#2e2a4a"/><path d="M118.165,28.245,82.331,7.556c-7.484-4.321-13.608.308-13.608,10.288V43.57c0,9.979,6.124,21.68,13.608,26l4.762,2.749,8.016,16.587a3.337,3.337,0,0,0,5.262,1l6.626-6.1,11.168,6.449c7.485,4.321,13.609-.309,13.609-10.288V54.246C131.774,44.267,125.649,32.566,118.165,28.245Z" style="fill:#fff;stroke:#2e2a4a;stroke-linecap:round;stroke-linejoin:round;stroke-width:1.04170000553131px"/><path d="M97.628,28.94l-2.619,4.577a1.623,1.623,0,0,1-2.2.564l-5.857-2.4c-2.4-.984-3.354,1.843-1.619,4.785l4.238,7.187a5.472,5.472,0,0,1,.84,3.453l-1,6.116c-.41,2.5,2.1,6.038,4.239,5.982l5.239-.136a3.809,3.809,0,0,1,2.719,1.57l5.239,6.185c2.143,2.531,4.649,1.889,4.239-1.087l-1-7.271a2.308,2.308,0,0,1,.84-2.482l4.238-2.294c1.734-.938.777-4.871-1.619-6.654l-5.857-4.358a6.7,6.7,0,0,1-2.2-3.1l-2.619-7.6C101.8,28.854,98.7,27.066,97.628,28.94Z" style="fill:#f9c640"/></svg>