<svg id="Capa_1" data-name="Capa 1" xmlns="http://www.w3.org/2000/svg" viewBox="0 0 1467.574 992.497"><rect width="1467.574" height="989.896" style="fill:#fff"/><path d="M1053.826,680.242l-61.309-.326q6.861-29.216,3.308-64.463l61.309.326C1058.137,638.952,1058.1,661.289,1053.826,680.242Z" style="fill:#a8c4e5;isolation:isolate;opacity:0.400000005960465"/><line x1="1425.267" y1="718.527" x2="34.704" y2="712.212" style="fill:none;stroke:#2e2a4a;stroke-miterlimit:10;stroke-width:2.2649199962616px"/><circle cx="372.641" cy="662.532" r="16.829" style="fill:#fff"/><path d="M1048.182,672.7l-61.31-.326q6.861-29.214,3.308-64.462l61.31.326C1052.493,631.409,1052.452,653.746,1048.182,672.7Z" style="fill:#fff;stroke:#2e2a4a;stroke-linecap:round;stroke-linejoin:round;stroke-width:1.14752995967865px"/><path d="M1036.077,625.235l-29.489-.157a3.107,3.107,0,0,1-3.032-2.659h0a2.369,2.369,0,0,1,2.092-2.617,2.335,2.335,0,0,1,.374-.012l29.489.157a3.107,3.107,0,0,1,3.032,2.659h0a2.369,2.369,0,0,1-2.094,2.617A2.31,2.31,0,0,1,1036.077,625.235Z" style="fill:#fff;stroke:#2e2a4a;stroke-linecap:round;stroke-linejoin:round;stroke-width:1.14752995967865px"/><path d="M1036.182,640.424l-29.488-.157a3.1,3.1,0,0,1-3.032-2.658h0a2.368,2.368,0,0,1,2.465-2.629l29.489.157a3.107,3.107,0,0,1,3.032,2.658h0a2.369,2.369,0,0,1-2.092,2.617A2.335,2.335,0,0,1,1036.182,640.424Z" style="fill:#fff;stroke:#2e2a4a;stroke-linecap:round;stroke-linejoin:round;stroke-width:1.14752995967865px"/><path d="M174.705,690.478l-19.887,8.882a4.407,4.407,0,0,0-2.228,5.822c.055.125.117.247.184.366l8.486,15.07a3,3,0,0,0,3.9,1.235l20.267-9.662a3.225,3.225,0,0,0,1.525-4.3c-.031-.066-.065-.131-.1-.2l-9.114-16.216A2.372,2.372,0,0,0,174.705,690.478Z" style="fill:#fff;stroke:#2e2a4a;stroke-linecap:round;stroke-linejoin:round;stroke-width:1.21609997749329px"/><path d="M156.073,698.8l-2.331,1.212a3.445,3.445,0,0,0-1.466,4.647c.017.034.035.068.054.1l8.839,15.7a3.2,3.2,0,0,0,4.162,1.317l3.808-1.815Z" style="fill:#2e2a4a"/><circle cx="40.963" cy="655.363" r="13.782" transform="translate(-614.871 687.923) rotate(-89.266)" style="fill:#fff;stroke:#2e2a4a;stroke-linecap:round;stroke-linejoin:round;stroke-width:1.23064994812012px"/></svg>