<svg id="Capa_1" data-name="Capa 1" xmlns="http://www.w3.org/2000/svg" xmlns:xlink="http://www.w3.org/1999/xlink" viewBox="0 0 5396.709 1958.436"><defs><linearGradient id="Degradado_sin_nombre" x1="380.605" y1="179.339" x2="456.265" y2="179.339" gradientTransform="matrix(1, 0, 0, -1, 0, 1014.208)" gradientUnits="userSpaceOnUse"><stop offset="0" stop-color="#e1473d"/><stop offset="1" stop-color="#e9605a"/></linearGradient><linearGradient id="Degradado_sin_nombre-2" x1="2417.535" y1="-284.105" x2="2493.195" y2="-284.105" xlink:href="#Degradado_sin_nombre"/></defs><rect x="1621.804" y="10.104" width="1467.574" height="989.896" style="fill:#fff"/><path d="M2675.63,690.346l-61.309-.326q6.861-29.216,3.308-64.463l61.309.326C2679.941,649.056,2679.9,671.393,2675.63,690.346Z" style="fill:#a8c4e5;isolation:isolate;opacity:0.400000005960465"/><line x1="3047.071" y1="728.631" x2="1656.508" y2="722.316" style="fill:none;stroke:#2e2a4a;stroke-miterlimit:10;stroke-width:2.2649199962616px"/><circle cx="1994.445" cy="672.636" r="16.829" style="fill:#fff"/><path d="M2669.986,682.8l-61.31-.326q6.861-29.214,3.308-64.462l61.31.326C2674.3,641.513,2674.256,663.85,2669.986,682.8Z" style="fill:#fff;stroke:#2e2a4a;stroke-linecap:round;stroke-linejoin:round;stroke-width:1.14752995967865px"/><path d="M2657.881,635.339l-29.489-.157a3.107,3.107,0,0,1-3.032-2.659h0a2.369,2.369,0,0,1,2.092-2.617,2.335,2.335,0,0,1,.374-.012l29.489.157a3.107,3.107,0,0,1,3.032,2.659h0a2.37,2.37,0,0,1-2.094,2.617A2.31,2.31,0,0,1,2657.881,635.339Z" style="fill:#fff;stroke:#2e2a4a;stroke-linecap:round;stroke-linejoin:round;stroke-width:1.14752995967865px"/><path d="M2657.986,650.528l-29.488-.157a3.1,3.1,0,0,1-3.032-2.658h0a2.368,2.368,0,0,1,2.465-2.629l29.489.157a3.107,3.107,0,0,1,3.032,2.658h0a2.369,2.369,0,0,1-2.092,2.617A2.335,2.335,0,0,1,2657.986,650.528Z" style="fill:#fff;stroke:#2e2a4a;stroke-linecap:round;stroke-linejoin:round;stroke-width:1.14752995967865px"/><path d="M1796.509,700.582l-19.887,8.882a4.407,4.407,0,0,0-2.228,5.822c.055.125.117.247.184.366l8.486,15.07a3,3,0,0,0,3.9,1.235l20.267-9.662a3.225,3.225,0,0,0,1.525-4.3c-.032-.066-.065-.131-.1-.195l-9.114-16.216A2.372,2.372,0,0,0,1796.509,700.582Z" style="fill:#fff;stroke:#2e2a4a;stroke-linecap:round;stroke-linejoin:round;stroke-width:1.21609997749329px"/><path d="M1777.877,708.9l-2.331,1.212a3.445,3.445,0,0,0-1.466,4.647c.017.034.035.068.054.1l8.839,15.7a3.2,3.2,0,0,0,4.162,1.317l3.808-1.815Z" style="fill:#2e2a4a"/><path d="M1613.742,1821.475s221.127-32.284,223.754-243H1613.742Z" style="fill:#2f6fb6"/><path d="M2161.5,1821.475s-221.127-32.284-223.754-243H2161.5Z" style="fill:#2f6fb6"/><path d="M2613.864,1161.8v186.409a93.2,93.2,0,0,0,0-186.409Z" style="fill:#f9c640;isolation:isolate;opacity:0.479999989271164"/><path d="M2866.612,1167.167v186.409a93.2,93.2,0,0,1,0-186.409Z" style="fill:#512583;isolation:isolate;opacity:0.660000026226044"/><polygon points="2131.858 1514.253 1688.973 1514.253 1653.86 1378.438 2087.863 1378.438 2131.858 1514.253" style="fill:#a8c4e5;isolation:isolate;opacity:0.400000005960465"/><rect x="1650.764" y="1157" width="405.997" height="247.057" rx="10.147" style="fill:#2e2a4a"/><polygon points="2088.575 1496.592 1949.331 1513.098 1747.606 1513.098 1615.035 1495.637 1650.139 1387.479 2056.137 1387.479 2088.575 1496.592" style="fill:#fff;stroke:#2e2a4a;stroke-linecap:round;stroke-linejoin:round;stroke-width:1.23064994812012px"/><rect x="1650.763" y="1159.955" width="405.997" height="226.568" rx="9.717" style="fill:#fff;stroke:#2e2a4a;stroke-linecap:round;stroke-linejoin:round;stroke-width:1.17851996421814px"/><rect x="1658.288" y="1179.53" width="391.332" height="186.561" style="fill:#2f6fb6"/><polygon points="2049.711 1204.226 1658.378 1204.225 1658.197 1179.529 2049.529 1179.531 2049.711 1204.226" style="fill:#205abf"/><ellipse cx="1853.762" cy="1170.258" rx="3.871" ry="3.635" style="fill:#2e2a4a"/><polygon points="2040.981 1456.788 1653.86 1457.855 1670.983 1396.635 2024.732 1396.635 2040.981 1456.788" style="fill:#fff;stroke:#2e2a4a;stroke-linecap:round;stroke-linejoin:round;stroke-width:1.11303997039795px"/><polygon points="2031.97 1449.711 2018.681 1400.514 1966.681 1400.514 1729.359 1400.514 1677.359 1400.514 1663.354 1450.584 1715.395 1450.44 1715.354 1450.584 2031.97 1449.711" style="fill:#a8c4e5;isolation:isolate;opacity:0.400000005960465"/><polygon points="1919.277 1489.432 1783.303 1489.873 1789.317 1464.574 1913.569 1464.574 1919.277 1489.432" style="fill:#fff;stroke:#2e2a4a;stroke-linecap:round;stroke-linejoin:round;stroke-width:1.11303997039795px"/><path d="M1929.612,1496.592a21.957,21.957,0,0,0-13.189,4.413,12.861,12.861,0,0,1-7.726,2.449H1793.65a12.851,12.851,0,0,1-7.725-2.449,21.963,21.963,0,0,0-13.19-4.412h-157.7v.746c0,9.342,9.737,16.914,21.746,16.914h430.87c12.009,0,21.745-7.572,21.745-16.913v-.747Z" style="fill:#2e2a4a"/><path d="M2022.628,1190.457a6.25,6.25,0,1,1-6.251-6.249h0A6.25,6.25,0,0,1,2022.628,1190.457Z" style="fill:none;stroke:#fff;stroke-miterlimit:10;stroke-width:1.66650998592377px"/><path d="M2025.021,1199.057h0a1.5,1.5,0,0,1-2.114.1l-2.752-2.5a1.5,1.5,0,0,1-.1-2.114h0a1.5,1.5,0,0,1,2.114-.1l2.753,2.5A1.5,1.5,0,0,1,2025.021,1199.057Z" style="fill:#fff"/><path d="M1689.778,1191.878a3.958,3.958,0,1,1-3.958-3.958,3.959,3.959,0,0,1,3.958,3.958Z" style="fill:#fff"/><path d="M1702.9,1191.878a3.958,3.958,0,1,1-3.958-3.958,3.959,3.959,0,0,1,3.958,3.958Z" style="fill:#fff"/><path d="M1716.026,1191.878a3.958,3.958,0,1,1-3.958-3.958,3.959,3.959,0,0,1,3.958,3.958Z" style="fill:#fff"/><path d="M1824.111,1229.138h63.147a46.482,46.482,0,0,1,46.482,46.482h0a46.482,46.482,0,0,1-46.482,46.482h-63.147a46.482,46.482,0,0,1-46.482-46.482h0A46.482,46.482,0,0,1,1824.111,1229.138Z" style="fill:#eb585a"/><path d="M1836.78,1294.591v-37.942c0-3.171,2.563-5.35,4.937-4.2l40.363,19.6c3.109,1.51,3.06,7-.074,8.428l-40.363,18.344C1839.281,1299.9,1836.78,1297.72,1836.78,1294.591Z" style="fill:#fff"/><rect x="1681.862" y="1344.196" width="343.514" height="7.886" style="fill:#205abf"/><rect x="1681.862" y="1344.196" width="87.514" height="7.886" style="fill:#2e2a4a"/><circle cx="1769.376" cy="1348.139" r="6.437" style="fill:#2e2a4a"/><circle cx="1662.767" cy="665.467" r="13.782" transform="translate(976.042 2319.568) rotate(-89.266)" style="fill:#fff;stroke:#2e2a4a;stroke-linecap:round;stroke-linejoin:round;stroke-width:1.23064994812012px"/><path d="M2362.507,1327.406l-52.472-29.9c-3.143-1.791-8.675-1.543-12.355.553l-9.02,5.138c-.046.026-.1.044-.146.07l-96.332,54.876c-3.68,2.1-4.116,5.247-.973,7.038l52.472,29.895c3.143,1.791,8.675,1.543,12.355-.553l9.02-5.138c.046-.026.1-.044.146-.07l96.332-54.873C2365.214,1332.348,2365.65,1329.2,2362.507,1327.406Z" style="fill:#a8c4e5;isolation:isolate;opacity:0.400000005960465"/><path d="M2341.537,1326.488l-47.694-27.279c-3.131-1.791-8.641-1.543-12.308.553l-38.573,62.853-.078,18c-4.69-3.829-10.623-8.613-11.242-8.828-1.038-.359-48.88-19.729-48.88-19.729l-.048,2.97a6.752,6.752,0,0,0,3.545,6.055l51.777,31.022a9.415,9.415,0,0,0,9.535.088l97.575-56.055c2.1-1.2,3.132-2.744,3.051-4.181l.082-5.78Z" style="fill:#fff;stroke:#2e2a4a;stroke-linecap:round;stroke-linejoin:round;stroke-width:1.14531004428864px"/><path d="M2237.2,1385.391l-52.471-29.895c-3.144-1.791-2.708-4.942.973-7.039l96.331-54.872c3.681-2.1,9.212-2.345,12.356-.554l52.471,29.895c3.143,1.791,2.707,4.942-.973,7.039l-96.332,54.872C2245.874,1386.934,2240.342,1387.182,2237.2,1385.391Z" style="fill:#2e2a4a"/><path d="M2323.862,1345.657l5.811-3.31a1.5,1.5,0,0,0,.637-1.176h0c.005-.45-.272-.658-.617-.462l-5.811,3.31a1.5,1.5,0,0,0-.636,1.176h0C2323.241,1345.643,2323.519,1345.853,2323.862,1345.657Z" style="fill:#2e2a4a"/><path d="M2332.144,1341l5.81-3.31a1.5,1.5,0,0,0,.637-1.176h0c.006-.451-.272-.658-.616-.462l-5.811,3.31a1.5,1.5,0,0,0-.637,1.176h0C2331.521,1340.984,2331.8,1341.192,2332.144,1341Z" style="fill:#2e2a4a"/><path d="M2284.972,1296.691l-81.01,46.143a2.755,2.755,0,0,0-.059,4.8l48.5,27.632a2.844,2.844,0,0,0,2.81-.011l81-46.143a2.754,2.754,0,0,0,.059-4.8l-48.5-27.632A2.843,2.843,0,0,0,2284.972,1296.691Z" style="fill:#fff;stroke:#2e2a4a;stroke-linecap:round;stroke-linejoin:round;stroke-width:1.14752995967865px"/><path d="M2308.01,1200.466l-35.834-20.689c-3.658-2.112-6.985-2.073-9.437-.33v-.007l-.052.043a6.446,6.446,0,0,0-.5.419l-7.1,5.893,3.492,5.075v24.92c0,9.98,6.124,21.68,13.608,26l35.553,20.526,3.739,5.434,5.815-4.817-.01-.015c2.664-1.779,4.346-5.513,4.346-10.727v-25.724C2321.619,1216.488,2315.5,1204.787,2308.01,1200.466Z" style="fill:#2e2a4a"/><path d="M2306.243,1262.465v-32.8a5.791,5.791,0,0,0-2.41-4.6L2266.5,1203.51a1.7,1.7,0,0,0-1.217-.244l-.044-.042-4.568,2.548,3.419,11.7v20.669a5.788,5.788,0,0,0,2.41,4.6l5.99,3.459,10.334,22.831,13.622-8.074,1.789.106,2.393,6.068,4.434-2.588v-.009C2305.762,1264.372,2306.243,1263.632,2306.243,1262.465Z" style="fill:#2e2a4a"/><path d="M2300.878,1206.409l-35.834-20.689c-7.484-4.321-13.608.308-13.608,10.288v25.726c0,9.979,6.124,21.68,13.608,26l4.762,2.749,8.016,16.587a3.337,3.337,0,0,0,5.262,1l6.626-6.1,11.168,6.449c7.485,4.321,13.609-.309,13.609-10.288V1232.41C2314.487,1222.431,2308.362,1210.73,2300.878,1206.409Z" style="fill:#fff;stroke:#2e2a4a;stroke-linecap:round;stroke-linejoin:round;stroke-width:1.04170000553131px"/><path d="M2280.341,1207.1l-2.619,4.577a1.623,1.623,0,0,1-2.2.564l-5.857-2.4c-2.4-.984-3.354,1.843-1.619,4.785l4.238,7.187a5.482,5.482,0,0,1,.84,3.453l-1,6.116c-.41,2.5,2.1,6.038,4.239,5.982l5.239-.136a3.809,3.809,0,0,1,2.719,1.57l5.239,6.185c2.143,2.531,4.649,1.889,4.239-1.087l-1-7.271a2.309,2.309,0,0,1,.84-2.482l4.238-2.294c1.734-.938.777-4.871-1.619-6.654l-5.857-4.358a6.7,6.7,0,0,1-2.2-3.1l-2.619-7.6C2284.51,1207.018,2281.413,1205.23,2280.341,1207.1Z" style="fill:#f9c640"/><g id="Layer_2" data-name="Layer 2"><rect width="1500" height="1000" style="fill:#fff"/><path d="M1073.247,690.346l-61.309-.326q6.861-29.216,3.308-64.463l61.309.326C1077.558,649.056,1077.521,671.393,1073.247,690.346Z" style="fill:#a8c4e5;isolation:isolate;opacity:0.400000005960465"/><line x1="1444.688" y1="728.631" x2="54.125" y2="722.316" style="fill:none;stroke:#2e2a4a;stroke-miterlimit:10;stroke-width:2.2649199962616px"/><circle cx="392.062" cy="672.636" r="16.829" style="fill:#fff"/><path d="M1067.6,682.8l-61.31-.326q6.861-29.214,3.308-64.462l61.31.326C1071.914,641.513,1071.873,663.85,1067.6,682.8Z" style="fill:#fff;stroke:#2e2a4a;stroke-linecap:round;stroke-linejoin:round;stroke-width:1.14752995967865px"/><path d="M1055.5,635.339l-29.489-.157a3.107,3.107,0,0,1-3.032-2.659h0a2.369,2.369,0,0,1,2.092-2.617,2.335,2.335,0,0,1,.374-.012l29.489.157a3.107,3.107,0,0,1,3.032,2.659h0a2.37,2.37,0,0,1-2.094,2.617A2.31,2.31,0,0,1,1055.5,635.339Z" style="fill:#fff;stroke:#2e2a4a;stroke-linecap:round;stroke-linejoin:round;stroke-width:1.14752995967865px"/><path d="M1055.6,650.528l-29.488-.157a3.1,3.1,0,0,1-3.032-2.658h0a2.368,2.368,0,0,1,2.465-2.629l29.489.157a3.107,3.107,0,0,1,3.032,2.658h0a2.369,2.369,0,0,1-2.092,2.617A2.335,2.335,0,0,1,1055.6,650.528Z" style="fill:#fff;stroke:#2e2a4a;stroke-linecap:round;stroke-linejoin:round;stroke-width:1.14752995967865px"/><ellipse cx="434.392" cy="851.557" rx="39.044" ry="18.015" style="fill:#a8c4e5;isolation:isolate;opacity:0.400000005960465"/><path d="M380.605,800.164l11.193,56.3c1.08,5.783,10.113,13.11,26.637,13.11s25.312-6.379,26.638-13.11l11.192-56.3Z" style="stroke:#2e2a4a;stroke-miterlimit:10;stroke-width:1.47140002250671px;fill:url(#Degradado_sin_nombre)"/><ellipse cx="418.435" cy="801.766" rx="37.83" ry="16.088" style="fill:#fff;stroke:#2e2a4a;stroke-linecap:round;stroke-linejoin:round"/><ellipse cx="418.086" cy="801.268" rx="13.624" ry="33.329" transform="translate(-385.676 1214.538) rotate(-89.656)" style="fill:#fff;stroke:#2e2a4a;stroke-linecap:round;stroke-linejoin:round"/><ellipse cx="418.435" cy="801.766" rx="23.087" ry="10.203" style="fill:#2e2a4a"/><path d="M384.7,783.992h0c-2.406-3.158-4.489-6.8-4.027-10.932a7.511,7.511,0,0,1,2.385-4.814c3.689-3.269,8.716-1.158,11.826,1.95,2.662,2.661,4.555,6.05,7.428,8.482l-11.037-34.931c-1.411-4.465-2.841-9.234-.479-13.731a6.546,6.546,0,0,1,6.732-3.571c7.034,1.146,6,13.047,12.255,16.458a89.7,89.7,0,0,1-9.2-27.732c-1.106-7.007-1.285-14.634,3.722-20.334a10.778,10.778,0,0,1,11.086-3.491c7.21,2.168,8.578,11.149,8.823,18.46l.915,27.308c1.64-6.7,3.944-14.157,8.586-18.814a4.028,4.028,0,0,1,6.87,2.53,58.286,58.286,0,0,1-6.047,30.8,13.746,13.746,0,0,1,3.4-3.941,5.479,5.479,0,0,1,8.9,4.381,41.046,41.046,0,0,1-11.871,28.072l3.605-4.013a2.708,2.708,0,0,1,4.721,1.836,25.438,25.438,0,0,1-8.38,18.553C418.886,810.62,395.572,798.269,384.7,783.992Z" style="fill:#3dad52"/><ellipse cx="1093.285" cy="851.677" rx="42.861" ry="18.441" style="fill:#a8c4e5;isolation:isolate;opacity:0.400000005960465"/><path d="M1057.788,745.261h0a3.057,3.057,0,0,1-3.048-3.048v-5.122a3.057,3.057,0,0,1,3.048-3.048h0a3.059,3.059,0,0,1,3.049,3.048v5.122A3.059,3.059,0,0,1,1057.788,745.261Z" style="fill:#fff;stroke:#2e2a4a;stroke-linecap:round;stroke-linejoin:round;stroke-width:1.04170000553131px"/><path d="M1123.066,766.65c-.351-5.146-81.395-5.146-81.746,0l2.79,7.394,7.5,80.758c-.109,17.339,59.807,19.716,61.164,0l7.5-80.758Z" style="fill:#512583;stroke:#2e2a4a;stroke-linecap:round;stroke-linejoin:round;stroke-width:1.04170000553131px"/><path d="M1045.433,797.3c22.852,8.109,44.973,10.785,73.664,0l-5.352,45.623c-20.974,7.4-42.007,8.56-63.114.56Z" style="fill:#efebe2"/><path d="M1044.515,796.082c22.541,10.882,54.083,10.882,75.388,0l-5.476,46.183c-21.463,12.436-45.583,12.662-64.591,0Z" style="fill:#fff;stroke:#2e2a4a;stroke-linecap:round;stroke-linejoin:round;stroke-width:1.04170000553131px"/><path d="M1124,775.327c0,7.794-18.738,14.113-41.853,14.113s-41.853-6.319-41.853-14.113c0-1.064-.372-4.879,0-6.638,1.569-7.4,21.895-7.474,41.853-7.474,19.345,0,36.959,1.4,41.755,7.412C1123.9,768.627,1124,774.056,1124,775.327Z" style="fill:#fff;stroke:#2e2a4a;stroke-linecap:round;stroke-linejoin:round;stroke-width:1.04170000553131px"/><ellipse cx="1082.077" cy="767.048" rx="41.853" ry="14.113" style="fill:#fff;stroke:#2e2a4a;stroke-linecap:round;stroke-linejoin:round;stroke-width:1.04170000553131px"/><path d="M1118.013,761.817c.236,6.705-15.648,12.141-35.478,12.141s-36.1-5.436-36.335-12.141c-.032-.916,5.022-15.734,5.022-15.734a129.8,129.8,0,0,0,30.456,3.592c16.6,0,27.188-8.363,31.485-3.191C1113.163,746.484,1117.974,760.723,1118.013,761.817Z" style="fill:#fff;stroke:#2e2a4a;stroke-linecap:round;stroke-linejoin:round;stroke-width:1.04170000553131px"/><ellipse cx="1082.067" cy="747.412" rx="31.158" ry="9.657" style="fill:#fff;stroke:#2e2a4a;stroke-linecap:round;stroke-linejoin:round;stroke-width:1.04170000553131px"/><ellipse cx="1082.067" cy="747.412" rx="17.693" ry="5.484" style="fill:#d5e5f2"/><path d="M1094.241,826.2a12.339,12.339,0,1,1-12.339-12.339h0A12.341,12.341,0,0,1,1094.241,826.2Z" style="fill:#f9c640"/><path d="M1068.082,825.583s4.257,10.811,15.067,0,13.3,0,13.3,0" style="fill:none;stroke:#fff;stroke-miterlimit:10;stroke-width:3.62932991981506px"/><path d="M1344.766,811.967l-52.472-29.9c-3.143-1.791-8.675-1.543-12.355.553l-9.02,5.138c-.046.026-.1.044-.146.07L1174.441,842.7c-3.68,2.1-4.116,5.247-.973,7.038l52.472,29.895c3.143,1.791,8.675,1.543,12.355-.553l9.02-5.138c.046-.026.1-.044.146-.07L1343.793,819C1347.473,816.909,1347.909,813.757,1344.766,811.967Z" style="fill:#a8c4e5;isolation:isolate;opacity:0.400000005960465"/><path d="M1323.8,811.049,1276.1,783.77c-3.131-1.791-8.641-1.543-12.308.553l-38.573,62.853-.078,18c-4.69-3.829-10.623-8.613-11.242-8.828-1.038-.359-48.88-19.729-48.88-19.729l-.048,2.97a6.752,6.752,0,0,0,3.545,6.055l51.777,31.022a9.415,9.415,0,0,0,9.535.088l97.575-56.055c2.1-1.2,3.132-2.744,3.051-4.181l.082-5.78Z" style="fill:#fff;stroke:#2e2a4a;stroke-linecap:round;stroke-linejoin:round;stroke-width:1.14531004428864px"/><path d="M1219.458,869.952l-52.471-29.895c-3.144-1.791-2.708-4.942.973-7.039l96.331-54.872c3.681-2.1,9.212-2.345,12.356-.554l52.471,29.895c3.143,1.791,2.707,4.942-.973,7.039L1231.813,869.4C1228.133,871.5,1222.6,871.743,1219.458,869.952Z" style="fill:#2e2a4a"/><path d="M1306.121,830.218l5.811-3.31a1.5,1.5,0,0,0,.637-1.176h0c.005-.45-.272-.658-.617-.462l-5.811,3.31a1.5,1.5,0,0,0-.636,1.176h0C1305.5,830.2,1305.778,830.414,1306.121,830.218Z" style="fill:#2e2a4a"/><path d="M1314.4,825.557l5.81-3.31a1.5,1.5,0,0,0,.637-1.176h0c.006-.451-.272-.658-.616-.462l-5.811,3.31a1.5,1.5,0,0,0-.637,1.176h0C1313.78,825.545,1314.058,825.753,1314.4,825.557Z" style="fill:#2e2a4a"/><path d="M1267.231,781.252l-81.01,46.143a2.754,2.754,0,0,0-.059,4.8l48.5,27.632a2.842,2.842,0,0,0,2.81-.011l81-46.143a2.754,2.754,0,0,0,.059-4.8l-48.5-27.632A2.843,2.843,0,0,0,1267.231,781.252Z" style="fill:#fff;stroke:#2e2a4a;stroke-linecap:round;stroke-linejoin:round;stroke-width:1.14752995967865px"/><ellipse cx="260.842" cy="833.552" rx="61.091" ry="36.353" transform="translate(-37.945 12.837) rotate(-2.628)" style="fill:#a8c4e5;isolation:isolate;opacity:0.400000005960465"/><ellipse cx="241.402" cy="838.446" rx="61.091" ry="36.353" transform="translate(-38.19 11.95) rotate(-2.628)" style="fill:#2e2a4a"/><ellipse cx="240.814" cy="825.657" rx="61.091" ry="36.353" transform="translate(-37.604 11.91) rotate(-2.628)" style="fill:#fff;stroke:#2e2a4a;stroke-linecap:round;stroke-linejoin:round;stroke-width:1.31040000135365px"/><path d="M173.163,710.115s-37.532-68.292,38.981-130.9" style="fill:none;stroke:#2e2a4a;stroke-miterlimit:10;stroke-width:1.47140002250671px"/><path d="M254.932,800.239l6.407,17.514a3.5,3.5,0,0,1-1.537,4.235l-21.6,12.473a3.5,3.5,0,0,1-5.251-3.064l.194-21.325a3.5,3.5,0,0,1,1.75-3l15-8.663a3.5,3.5,0,0,1,4.781,1.282A3.457,3.457,0,0,1,254.932,800.239Z" style="fill:#fff;stroke:#2e2a4a;stroke-linecap:round;stroke-linejoin:round;stroke-width:1.21609997749329px"/><path d="M249.494,794.1l-7.487-4.159-17.98,10.569-3.436,23.67a3.85,3.85,0,0,0,1.24,3.421l3.151,2.827a4.8,4.8,0,0,0,8-3.529l.171-18.83,16.374-9.454a2.6,2.6,0,0,0-.033-4.515Z" style="fill:#2e2a4a"/><polyline points="256.029 607.241 190.654 706.451 241.128 797.314" style="fill:none;stroke:#2e2a4a;stroke-miterlimit:10;stroke-width:4.41419982910156px"/><polyline points="236.223 605.524 175.746 707.67 230.169 803.82" style="fill:none;stroke:#2e2a4a;stroke-miterlimit:10;stroke-width:4.41419982910156px"/><path d="M245.908,633.67,211.89,605.642a21.588,21.588,0,0,1-2.934-30.389h0l.763-.926a21.59,21.59,0,0,1,30.391-2.933l34.017,28.027a21.588,21.588,0,0,1,2.933,30.389h0l-.763.926A21.588,21.588,0,0,1,245.908,633.67Z" style="fill:#2f6fb6"/><path d="M280.391,617.642l-.763.926a21.652,21.652,0,0,1-30.389,2.934l-34.018-28.028a21.564,21.564,0,0,1-7.829-16.8,21.652,21.652,0,0,0,4.5,28.2l34.014,28.03a21.652,21.652,0,0,0,30.389-2.933l.763-.927a21.457,21.457,0,0,0,4.9-13.591A21.511,21.511,0,0,1,280.391,617.642Z" style="fill:#2e2a4a"/><ellipse cx="292.6" cy="650.057" rx="54.125" ry="15.86" transform="translate(-387.668 436.928) rotate(-48.371)" style="fill:#fff;stroke:#2e2a4a;stroke-linecap:round;stroke-linejoin:round;stroke-width:1.21609993776966px"/><path d="M251.887,685.7l-10.966-16.272a50.694,50.694,0,0,1,6.052-64.029h0a50.7,50.7,0,0,1,59.29-9.321l18.161,9.4Z" style="fill:#2f6fb6"/><path d="M246.975,606.261h0a48.076,48.076,0,0,1,4.2-3.729,50.681,50.681,0,0,0-2.648,60.2l10.635,15.784-7.277,8.047L240.921,670.29A50.694,50.694,0,0,1,246.975,606.261Z" style="fill:#2e2a4a"/><ellipse cx="288.471" cy="645.927" rx="54.125" ry="15.86" transform="translate(-385.967 432.456) rotate(-48.371)" style="fill:#2e2a4a"/><path d="M306.148,635.344c-1.273,9.009-6.223,21.881-23.691,25.6A9.633,9.633,0,0,1,271.4,648c3.868-9.556,13-19.776,22.087-23.067a9.589,9.589,0,0,1,12.657,10.412Z" style="fill:#fff;stroke:#2e2a4a;stroke-linecap:round;stroke-linejoin:round;stroke-width:1.21609997749329px"/><path d="M276.621,635.392c19.858-22.343,41.263-35.739,47.811-29.919a6.6,6.6,0,0,1,1.907,4.943c-9.376.827-26.537,13.075-42.676,31.234s-26.289,36.64-26.009,46.049a6.6,6.6,0,0,1-5.133-1.314C245.969,680.565,256.759,657.735,276.621,635.392Z" style="fill:#fff;stroke:#2e2a4a;stroke-linecap:round;stroke-linejoin:round;stroke-width:1.21609997749329px"/><path d="M194.126,700.582l-19.887,8.882a4.407,4.407,0,0,0-2.228,5.822c.055.125.117.247.184.366l8.486,15.07a3,3,0,0,0,3.9,1.235l20.267-9.662a3.225,3.225,0,0,0,1.525-4.3c-.031-.066-.065-.131-.1-.195l-9.114-16.216A2.372,2.372,0,0,0,194.126,700.582Z" style="fill:#fff;stroke:#2e2a4a;stroke-linecap:round;stroke-linejoin:round;stroke-width:1.21609997749329px"/><path d="M175.494,708.9l-2.331,1.212a3.445,3.445,0,0,0-1.466,4.647c.017.034.035.068.054.1l8.839,15.7a3.2,3.2,0,0,0,4.162,1.317l3.808-1.815Z" style="fill:#2e2a4a"/><path d="M307.039,608.2a23.349,23.349,0,0,0-14.452-7.8,21,21,0,0,0-17.359,35.631C285.374,624.924,293.29,616.591,307.039,608.2Z" style="fill:#75b2fc;isolation:isolate;opacity:0.660000026226044"/><polygon points="1025.815 904.1 582.93 904.1 547.817 768.285 981.82 768.285 1025.815 904.1" style="fill:#a8c4e5;isolation:isolate;opacity:0.400000005960465"/><rect x="544.721" y="546.847" width="405.997" height="247.057" rx="10.147" style="fill:#2e2a4a"/><polygon points="982.532 886.439 843.288 902.945 641.563 902.945 508.992 885.484 544.096 777.326 950.094 777.326 982.532 886.439" style="fill:#fff;stroke:#2e2a4a;stroke-linecap:round;stroke-linejoin:round;stroke-width:1.23064994812012px"/><rect x="544.72" y="549.802" width="405.997" height="226.568" rx="9.717" style="fill:#fff;stroke:#2e2a4a;stroke-linecap:round;stroke-linejoin:round;stroke-width:1.17851996421814px"/><rect x="552.245" y="569.377" width="391.332" height="186.561" style="fill:#2f6fb6"/><polygon points="943.668 594.073 552.335 594.072 552.154 569.376 943.486 569.378 943.668 594.073" style="fill:#205abf"/><ellipse cx="747.719" cy="560.105" rx="3.871" ry="3.635" style="fill:#2e2a4a"/><polygon points="934.938 846.635 547.817 847.702 564.94 786.482 918.689 786.482 934.938 846.635" style="fill:#fff;stroke:#2e2a4a;stroke-linecap:round;stroke-linejoin:round;stroke-width:1.11303997039795px"/><polygon points="925.927 839.558 912.638 790.361 860.638 790.361 623.316 790.361 571.316 790.361 557.311 840.431 609.352 840.287 609.311 840.431 925.927 839.558" style="fill:#a8c4e5;isolation:isolate;opacity:0.400000005960465"/><polygon points="813.234 879.279 677.26 879.72 683.274 854.421 807.526 854.421 813.234 879.279" style="fill:#fff;stroke:#2e2a4a;stroke-linecap:round;stroke-linejoin:round;stroke-width:1.11303997039795px"/><path d="M823.569,886.439a21.959,21.959,0,0,0-13.189,4.413,12.857,12.857,0,0,1-7.726,2.449H687.607a12.854,12.854,0,0,1-7.725-2.449,21.959,21.959,0,0,0-13.19-4.412h-157.7v.746c0,9.342,9.737,16.914,21.746,16.914h430.87c12.009,0,21.745-7.572,21.745-16.913v-.747Z" style="fill:#2e2a4a"/><path d="M916.585,580.3a6.25,6.25,0,1,1-6.251-6.249h0A6.251,6.251,0,0,1,916.585,580.3Z" style="fill:none;stroke:#fff;stroke-miterlimit:10;stroke-width:1.66650998592377px"/><path d="M918.978,588.9h0a1.5,1.5,0,0,1-2.114.1l-2.752-2.5a1.5,1.5,0,0,1-.1-2.114h0a1.5,1.5,0,0,1,2.114-.1l2.753,2.5A1.5,1.5,0,0,1,918.978,588.9Z" style="fill:#fff"/><path d="M583.735,581.725a3.958,3.958,0,1,1-3.958-3.958,3.958,3.958,0,0,1,3.958,3.958Z" style="fill:#fff"/><path d="M596.859,581.725a3.958,3.958,0,1,1-3.958-3.958,3.958,3.958,0,0,1,3.958,3.958Z" style="fill:#fff"/><path d="M609.983,581.725a3.958,3.958,0,1,1-3.958-3.958,3.958,3.958,0,0,1,3.958,3.958Z" style="fill:#fff"/><path d="M718.068,618.985h63.147A46.482,46.482,0,0,1,827.7,665.467h0a46.482,46.482,0,0,1-46.482,46.482H718.068a46.482,46.482,0,0,1-46.482-46.482h0A46.482,46.482,0,0,1,718.068,618.985Z" style="fill:#eb585a"/><path d="M730.737,684.438V646.5c0-3.171,2.563-5.35,4.937-4.2l40.363,19.6c3.109,1.51,3.06,7-.074,8.428L735.6,688.668C733.238,689.743,730.737,687.567,730.737,684.438Z" style="fill:#fff"/><path d="M0,243S221.127,210.72,223.754,0H0Z" style="fill:#2f6fb6"/><path d="M1500,243S1278.873,210.72,1276.246,0H1500Z" style="fill:#2f6fb6"/><path d="M0,428.917V615.326a93.2,93.2,0,0,0,93.205-93.2A93.2,93.2,0,0,0,0,428.917Z" style="fill:#f9c640;isolation:isolate;opacity:0.479999989271164"/><path d="M1500,342.817V529.226a93.2,93.2,0,0,1,0-186.409Z" style="fill:#512583;isolation:isolate;opacity:0.660000026226044"/><rect x="575.819" y="734.043" width="343.514" height="7.886" style="fill:#205abf"/><rect x="575.819" y="734.043" width="87.514" height="7.886" style="fill:#2e2a4a"/><circle cx="663.333" cy="737.986" r="6.437" style="fill:#2e2a4a"/><circle cx="1367.855" cy="629.888" r="13.782" style="fill:#fff;stroke:#2e2a4a;stroke-linecap:round;stroke-linejoin:round;stroke-width:1.23064997620741px"/><circle cx="1319.778" cy="266.4" r="13.782" transform="translate(845.423 1526.467) rotate(-80.783)" style="fill:#fff;stroke:#2e2a4a;stroke-linecap:round;stroke-linejoin:round;stroke-width:1.23064997620741px"/><circle cx="60.384" cy="665.467" r="13.782" transform="translate(-605.802 717.316) rotate(-89.266)" style="fill:#fff;stroke:#2e2a4a;stroke-linecap:round;stroke-linejoin:round;stroke-width:1.23064994812012px"/><polygon points="165.077 341.072 154.39 383.417 113.553 367.936 124.24 325.59 165.077 341.072" style="fill:#fff;stroke:#2e2a4a;stroke-linecap:round;stroke-linejoin:round;stroke-width:1.23064994812012px"/><path d="M1290.269,685.027l-35.834-20.689c-3.658-2.112-6.985-2.073-9.437-.33V664l-.052.043a6.446,6.446,0,0,0-.5.419l-7.1,5.893,3.492,5.075v24.92c0,9.98,6.124,21.68,13.608,26L1290,746.877l3.739,5.434,5.815-4.817-.01-.015c2.664-1.779,4.346-5.513,4.346-10.727V711.028C1303.878,701.049,1297.754,689.348,1290.269,685.027Z" style="fill:#2e2a4a"/><path d="M1288.5,747.026v-32.8a5.788,5.788,0,0,0-2.41-4.6l-37.333-21.555a1.7,1.7,0,0,0-1.217-.244l-.044-.042-4.568,2.548,3.419,11.7V722.7a5.791,5.791,0,0,0,2.41,4.6l5.99,3.459,10.334,22.831,13.622-8.074,1.789.106,2.393,6.068,4.434-2.588V749.1C1288.021,748.933,1288.5,748.193,1288.5,747.026Z" style="fill:#2e2a4a"/><path d="M1283.137,690.97,1247.3,670.281c-7.484-4.321-13.608.308-13.608,10.288V706.3c0,9.979,6.124,21.68,13.608,26l4.762,2.749,8.016,16.587a3.337,3.337,0,0,0,5.262,1l6.626-6.1,11.168,6.449c7.485,4.321,13.609-.309,13.609-10.288V716.971C1296.746,706.992,1290.621,695.291,1283.137,690.97Z" style="fill:#fff;stroke:#2e2a4a;stroke-linecap:round;stroke-linejoin:round;stroke-width:1.04170000553131px"/><path d="M1262.6,691.665l-2.619,4.577a1.623,1.623,0,0,1-2.2.564l-5.857-2.4c-2.4-.984-3.354,1.843-1.619,4.785l4.238,7.187a5.475,5.475,0,0,1,.84,3.453l-1,6.116c-.41,2.5,2.1,6.038,4.239,5.982l5.239-.136a3.809,3.809,0,0,1,2.719,1.57l5.239,6.185c2.143,2.531,4.649,1.889,4.239-1.087l-1-7.271a2.312,2.312,0,0,1,.84-2.482l4.238-2.294c1.734-.938.777-4.871-1.619-6.654l-5.857-4.358a6.7,6.7,0,0,1-2.2-3.105l-2.619-7.6C1266.769,691.579,1263.672,689.791,1262.6,691.665Z" style="fill:#f9c640"/></g><ellipse cx="2471.322" cy="1315.001" rx="39.044" ry="18.015" style="fill:#a8c4e5;isolation:isolate;opacity:0.400000005960465"/><path d="M2417.535,1263.608l11.193,56.3c1.08,5.783,10.113,13.11,26.637,13.11s25.312-6.379,26.638-13.11l11.192-56.3Z" style="stroke:#2e2a4a;stroke-miterlimit:10;stroke-width:1.47140002250671px;fill:url(#Degradado_sin_nombre-2)"/><ellipse cx="2455.365" cy="1265.21" rx="37.83" ry="16.088" style="fill:#fff;stroke:#2e2a4a;stroke-linecap:round;stroke-linejoin:round"/><ellipse cx="2455.016" cy="1264.712" rx="13.624" ry="33.329" transform="translate(1175.597 3712.096) rotate(-89.656)" style="fill:#fff;stroke:#2e2a4a;stroke-linecap:round;stroke-linejoin:round"/><ellipse cx="2455.365" cy="1265.21" rx="23.087" ry="10.203" style="fill:#2e2a4a"/><path d="M2421.627,1247.436h0c-2.406-3.158-4.489-6.8-4.027-10.932a7.511,7.511,0,0,1,2.385-4.814c3.689-3.269,8.716-1.158,11.826,1.95,2.662,2.661,4.555,6.05,7.428,8.482l-11.037-34.931c-1.411-4.465-2.841-9.234-.479-13.731a6.547,6.547,0,0,1,6.732-3.571c7.034,1.146,6,13.047,12.255,16.458a89.731,89.731,0,0,1-9.2-27.732c-1.106-7.007-1.285-14.634,3.722-20.334a10.779,10.779,0,0,1,11.086-3.491c7.21,2.168,8.578,11.149,8.823,18.46l.915,27.308c1.64-6.7,3.944-14.157,8.586-18.814a4.028,4.028,0,0,1,6.87,2.53,58.272,58.272,0,0,1-6.047,30.8,13.775,13.775,0,0,1,3.4-3.941,5.479,5.479,0,0,1,8.9,4.381,41.041,41.041,0,0,1-11.871,28.072l3.605-4.013a2.708,2.708,0,0,1,4.721,1.836,25.434,25.434,0,0,1-8.38,18.553C2455.816,1274.064,2432.5,1261.713,2421.627,1247.436Z" style="fill:#3dad52"/><polygon points="2291.258 1583.034 2280.571 1625.379 2239.734 1609.898 2250.421 1567.552 2291.258 1583.034" style="fill:#fff;stroke:#2e2a4a;stroke-linecap:round;stroke-linejoin:round;stroke-width:1.23064994812012px"/><circle cx="2375.825" cy="1580.336" r="13.782" style="fill:#fff;stroke:#2e2a4a;stroke-linecap:round;stroke-linejoin:round;stroke-width:1.23064997620741px"/><path id="Background" d="M3250.568,1082.325h1452.9v741.447S4642.789,1732.3,4371.2,1733.9s-337.427,232.334-676.917,224.334-443.711-175.312-443.711-175.312Z" style="fill:#2f6fb6"/><path id="Background-2" data-name="Background" d="M3265.506,242.04S3368.655,74.728,3704.655,66.728s401.158,222.733,669.957,224.333,328.852-89.872,328.852-89.872V942.636H3265.506Z" style="fill:#eb585a"/><path id="Background-3" data-name="Background" d="M5396.709,843.68a374.458,374.458,0,0,1-239.171,85.86h0c-207.659,0-376-168.341-376-376v-8c0-207.659,168.341-376,376-376h0a374.457,374.457,0,0,1,238.836,85.584Z" style="fill:#f9c640"/></svg>