<svg id="Layer_2" data-name="Layer 2" xmlns="http://www.w3.org/2000/svg" xmlns:xlink="http://www.w3.org/1999/xlink" viewBox="0 0 428.936 209.338"><defs><linearGradient id="linear-gradient" x1="61.557" y1="142.237" x2="404.145" y2="142.237" gradientUnits="userSpaceOnUse"><stop offset="0" stop-color="#e1473d"/><stop offset="1" stop-color="#e9605a"/></linearGradient></defs><path d="M70.949,173.059H378.937V111.415H70.949C77.541,111.416,77.541,173.059,70.949,173.059Z" style="fill:#f9c640"/><path d="M378.937,157.633V129.422c0-9.945-6.086-18.006-13.594-18.006H62.557a1,1,0,0,1-1-1V98.477a1,1,0,0,1,1-1H385.135c7.346,0,19.01,11.55,19.01,25.8v39.4c0,13.433-11.323,24.323-18.249,24.323H62.557a1,1,0,0,1-1-1V174.059a1,1,0,0,1,1-1H367.291C373.723,173.059,378.937,166.152,378.937,157.633Z" style="fill:url(#linear-gradient)"/><path d="M370.4,125.064H81.614a1,1,0,0,1,0-2H370.4a1,1,0,0,1,0,2Z" style="fill:#f7e0ad"/><path d="M370.4,134.213H81.614a1,1,0,0,1,0-2H370.4a1,1,0,0,1,0,2Z" style="fill:#f7e0ad"/><path d="M370.4,143.364H81.614a1,1,0,0,1,0-2H370.4a1,1,0,0,1,0,2Z" style="fill:#f7e0ad"/><path d="M370.4,152.513H81.614a1,1,0,0,1,0-2H370.4a1,1,0,0,1,0,2Z" style="fill:#f7e0ad"/><path d="M370.4,161.663H81.614a1,1,0,0,1,0-2H370.4a1,1,0,0,1,0,2Z" style="fill:#f7e0ad"/><path d="M94.448,38.026H323.522a12.4,12.4,0,0,1,12.4,12.4V88.644a9.432,9.432,0,0,1-9.432,9.432H95.981a8.836,8.836,0,0,1-8.836-8.836V45.329A7.3,7.3,0,0,1,94.448,38.026Z" style="fill:#2f6fb6"/><rect x="115.26" y="44.928" width="29.226" height="46.247" style="fill:#f9c640"/><rect x="148.785" y="44.928" width="10.966" height="46.247" style="fill:#91b3fa"/></svg>