<svg id="Layer_2" data-name="Layer 2" xmlns="http://www.w3.org/2000/svg" viewBox="0 0 424.326 226.723"><polygon points="231.324 32.06 72.657 80.423 231.324 128.787 389.991 80.423 231.324 32.06" style="fill:#fe5757"/><path d="M231.324,137.408l-99.861-30.439V176.5a24.174,24.174,0,0,0,19.146,23.651c53.628,11.37,105.2,11.723,154.57.372a24.121,24.121,0,0,0,18.648-23.537V109.212Z" style="fill:#fe5757"/><path d="M109.407,174.584q-13.013,5.781-22.759.243a5.092,5.092,0,0,1-2.414-5.442L98.356,99.169l14.015,69.686A5.16,5.16,0,0,1,109.407,174.584Z" style="fill:#fe5757"/><polygon points="231.324 73.259 96.301 87.606 96.301 111.029 100.302 111.029 100.713 90.502 231.324 73.259" style="fill:#fe5757"/></svg>