<svg xmlns="http://www.w3.org/2000/svg" width="240.907" height="242.527" viewBox="0 0 240.907 242.527">
  <g id="Grupo_106" data-name="Grupo 106" transform="translate(571.925 84.546) rotate(126)">
    <g id="Grupo_90" data-name="Grupo 90" transform="translate(206.718 258.971)">
      <path id="Trazado_202" data-name="Trazado 202" d="M199.539,441.359c.63-.315.679-.027,1.04-.517.372-.507-.045-1.168-.071-1.816-.259-5.8-.5-14.709-.4-20.448-.773-21.348,1.8-42.75,10.058-63.015,8.155-20.017,21.89-38.922,43.635-55.532,26.446-20.241,50.446-23.693,69.664-16.377,12.486,4.747,22.551,13.739,30.327,25.047a88.4,88.4,0,0,1,11.172,21.453c.2.848,1.411,1.429,2.713,1.3s2.2-.917,2-1.758c-1.43-10.579-4.725-20.48-10.305-28.906a63.409,63.409,0,0,0-29.809-23.8c-22.836-8.926-52.8-5.869-83.828,18.666-22.221,17.618-36.114,37.505-44.006,58.512-7.821,20.831-9.761,42.745-8.275,64.556.705,5.771,2.09,14.709,3.284,20.5.135.651-.105,1.36.405,1.824.488.441.454.154,1.167.39.03.217.334.378.672.361S199.569,441.578,199.539,441.359Z" transform="translate(-192.994 -272.407)" fill="#fcfcfc" fill-rule="evenodd"/>
    </g>
    <g id="Grupo_91" data-name="Grupo 91" transform="translate(363.578 293.894)">
      <path id="Trazado_203" data-name="Trazado 203" d="M251.031,311.031c-2.511-3.367-6.3-8.143-10.077-11.186-2.558-2.063-4.966-3.465-6.69-3.586-3.474.088-2.833,3.126-2.058,4.308.714,1.087,1.8,2.694,3.335,4.635,4.257,5.4,10.525,12.517,11.776,14.2,4.364,5.591,7.758,3.623,9.282,1.37.97-1.434,1.424-5.725,1.821-10.628l.368-8.285.2-14.543a1.589,1.589,0,0,0-3.16-.346l-3.109,14.165-1.59,8.2A12.729,12.729,0,0,0,251.031,311.031Z" transform="translate(-231.595 -285.56)" fill="#fcfcfc" fill-rule="evenodd"/>
    </g>
  </g>
</svg>
