<svg id="Capa_1" data-name="Capa 1" xmlns="http://www.w3.org/2000/svg" viewBox="0 0 440.489 535.571"><g style="opacity:0.6000000238418579"><path d="M228.259,113.742,205,82.827a1.783,1.783,0,0,0-3.176.745l-6.957,37.494a1.782,1.782,0,0,0,2.761,1.8l9.432-6.475,3.793,12.472a1.78,1.78,0,0,0,2.221,1.188h0l5.577-1.688a1.785,1.785,0,0,0,1.189-2.225l-3.479-11.45,10.145,1.883a1.782,1.782,0,0,0,1.749-2.824Zm-14.127-3.1a1.783,1.783,0,0,0-2.03,2.271l3.813,12.548-2.166.656-3.982-13.1a1.786,1.786,0,0,0-1.116-1.164,2.093,2.093,0,0,0-.235-.065,1.788,1.788,0,0,0-1.363.278l-7.893,5.418,5.433-29.279,18.065,24.017Z" style="fill:#fcfcfc"/><path d="M192.65,112.019,165.4,106.485,177.889,45l51.7,10.5-8.8,43.317a1.782,1.782,0,1,0,3.493.709l9.082-44.714a1.65,1.65,0,0,0-.061-.933c-2.764-8.053-.3-13.357-.2-13.57a1.782,1.782,0,0,0-.811-2.386,1.831,1.831,0,0,0-.433-.148L178.075,26.854c-4.31-.875-8.478,1.667-9.29,5.667l-13.533,66.63c-.86,4.231-.628,8.783,7.608,10.455l29.08,5.907a1.783,1.783,0,0,0,.71-3.494ZM172.278,33.231c.472-2.323,3.008-3.306,5.087-2.884l51.79,10.519a23.143,23.143,0,0,0-.138,10.885l-53.78-10.924a4.694,4.694,0,0,1-3.427-5.289ZM158.745,99.86,170.49,42.036a7.709,7.709,0,0,0,3.908,2.251L161.924,105.7C158.04,104.519,158.179,102.651,158.745,99.86Z" style="fill:#fcfcfc"/></g><path d="M337.525,295.336a2.8,2.8,0,1,0,2.8,2.8h0A2.8,2.8,0,0,0,337.525,295.336Z" style="fill:#fcfcfc"/><path d="M396.052,222.557h-116a2.5,2.5,0,0,0-2.5,2.5v65a2.5,2.5,0,0,0,2.5,2.5h116a2.5,2.5,0,0,0,2.5-2.5v-65A2.5,2.5,0,0,0,396.052,222.557Zm-2.5,65h-111v-60h111Z" style="fill:#fcfcfc"/><path d="M397.052,213.557h-118a10.513,10.513,0,0,0-10.5,10.5v75a10.512,10.512,0,0,0,10.5,10.5h44.5v8h-6a2.5,2.5,0,0,0,0,5h40a2.5,2.5,0,0,0,0-5h-6v-8h45.5a10.512,10.512,0,0,0,10.5-10.5v-75A10.513,10.513,0,0,0,397.052,213.557Zm-50.5,104h-18v-8h18Zm56-18.5a5.505,5.505,0,0,1-5.5,5.5h-118a5.506,5.506,0,0,1-5.5-5.5v-75a5.507,5.507,0,0,1,5.5-5.5h118a5.506,5.506,0,0,1,5.5,5.5Z" style="fill:#fcfcfc"/><path d="M298.185,245.936a2.4,2.4,0,0,0,1.768.621h.08a2.312,2.312,0,0,0,1.8-.738l7.414-8.323a2.5,2.5,0,0,0-3.755-3.3l-5.654,6.428-2.424-2.431a2.5,2.5,0,0,0-3.536-.014h0a2.468,2.468,0,0,0-.02,3.488l.02.019Z" style="fill:#fcfcfc"/><path d="M316.552,243.557h64a2.5,2.5,0,0,0,0-5h-64a2.5,2.5,0,0,0,0,5Z" style="fill:#fcfcfc"/><path d="M298.185,263.936a2.4,2.4,0,0,0,1.768.621h.08a2.312,2.312,0,0,0,1.8-.738l7.414-8.323a2.5,2.5,0,0,0-3.755-3.3l-5.654,6.428-2.424-2.431a2.5,2.5,0,0,0-3.536-.014h0a2.468,2.468,0,0,0-.02,3.488l.02.019Z" style="fill:#fcfcfc"/><path d="M316.552,261.557h64a2.5,2.5,0,0,0,0-5h-64a2.5,2.5,0,0,0,0,5Z" style="fill:#fcfcfc"/><path d="M298.185,281.936a2.4,2.4,0,0,0,1.768.621h.08a2.312,2.312,0,0,0,1.8-.738l7.414-8.323a2.5,2.5,0,0,0-3.755-3.3l-5.654,6.428-2.424-2.431a2.5,2.5,0,0,0-3.536-.014h0a2.468,2.468,0,0,0-.02,3.488l.02.019Z" style="fill:#fcfcfc"/><path d="M316.552,279.557h64a2.5,2.5,0,0,0,0-5h-64a2.5,2.5,0,0,0,0,5Z" style="fill:#fcfcfc"/><g style="opacity:0.800000011920929"><path d="M87.2,280.919l-3.322.9a2.151,2.151,0,1,1-1.125-4.153h0l3.322-.9a2.151,2.151,0,0,1,1.125,4.153Z" style="fill:#fcfcfc"/><path d="M66.885,293.975a2.152,2.152,0,0,1-2.07-.542,5.594,5.594,0,0,1-3.5-2c-1.931-2.136-4.262-7.627-4.637-9.529a10.891,10.891,0,0,1-.126-3.543,2.154,2.154,0,0,1,2.059-1.812,16.7,16.7,0,0,0,10.767-5.592c5.177-5.654,5.65-10.713,5.653-10.762a2.114,2.114,0,0,1,1.645-1.949c.489-.117,12.055-2.728,19.921,9.494a13.051,13.051,0,0,1,1.62,2.923c.63,1.847,1.385,7.771.8,10.554A5.581,5.581,0,0,1,97,284.707a2.151,2.151,0,0,1-4.221-.729,3.455,3.455,0,0,1,1.427-2.543,1.449,1.449,0,0,0,.6-1.1,26.3,26.3,0,0,0-.664-8.284,9.285,9.285,0,0,0-1.062-1.83c-.025-.035-.051-.073-.075-.109-4.8-7.489-11.231-8.016-13.986-7.85a26.384,26.384,0,0,1-6.472,11.6,21.71,21.71,0,0,1-11.73,6.714c.02.159.046.325.08.5A25.906,25.906,0,0,0,64.5,288.55c.5.552.678.581,1.071.646a3.455,3.455,0,0,1,2.516,1.475,2.151,2.151,0,0,1-.544,2.993h0A2.136,2.136,0,0,1,66.885,293.975Z" style="fill:#fcfcfc"/><path d="M110.514,282.065a2.15,2.15,0,0,1-2.6-1.4c-6.428-19.554-18.336-41.711-38.583-36.225S49.988,275.059,54.315,295.18a2.138,2.138,0,0,1-1.627,2.55l-.024,0a2.15,2.15,0,0,1-2.555-1.648v0c-6.767-31.465-.509-50.761,18.1-55.8s33.748,8.457,43.792,39.034a2.151,2.151,0,0,1-1.37,2.715h0Z" style="fill:#fcfcfc"/><path d="M127.377,341.352l-59.8,16.2a9.021,9.021,0,0,1-10.609-5.105l-16.5-40.283a7.6,7.6,0,0,1,.172-6.245,7.376,7.376,0,0,1,4.771-3.87l73.084-19.8a7.377,7.377,0,0,1,6.071.933,7.6,7.6,0,0,1,3.3,5.309l6.094,43.1A9.022,9.022,0,0,1,127.377,341.352ZM46.536,306.2a3.137,3.137,0,0,0-2.038,1.622,3.261,3.261,0,0,0-.043,2.711l16.5,40.283a4.718,4.718,0,0,0,5.5,2.583l59.8-16.2a4.719,4.719,0,0,0,3.445-5.009l-6.094-43.1a3.263,3.263,0,0,0-1.405-2.319,3.134,3.134,0,0,0-2.578-.371Z" style="fill:#fcfcfc"/><path d="M91.838,328.635a7.8,7.8,0,1,1,5.487-9.569v0A7.807,7.807,0,0,1,91.838,328.635Zm-2.953-10.9a3.5,3.5,0,1,0,4.291,2.468l0-.008a3.5,3.5,0,0,0-4.289-2.462Z" style="fill:#fcfcfc"/></g><g style="opacity:0.5"><path d="M302.662,488.282a2.119,2.119,0,0,0-1.746-.92h-41.7a2.113,2.113,0,0,0-1.885,1.157,1.771,1.771,0,0,1-.4.539h-1.016a2.115,2.115,0,0,0-.092,4.229c.031,0,.061,0,.092,0h1.164a4.271,4.271,0,0,0,3.272-1.691h37.1c-.91,1.393-1.987,2.537-2.849,2.537H255.915a2.115,2.115,0,0,0-.092,4.229H294.6c4.887,0,7.761-6.76,8.287-8.115A2.113,2.113,0,0,0,302.662,488.282Z" style="fill:#fcfcfc"/><path d="M282.523,485.67a8.971,8.971,0,0,0,8.92-9.021c0-.063,0-.126,0-.19V434.844a8.98,8.98,0,0,0-8.728-9.224l-.189,0H241.536a2.115,2.115,0,0,0-.092,4.229h41.079a4.747,4.747,0,0,1,4.695,4.795c0,.069,0,.137-.007.205v41.614a4.736,4.736,0,0,1-4.483,4.976c-.069,0-.137.006-.2.006H255.069a2.115,2.115,0,0,0-.092,4.229h27.546Z" style="fill:#fcfcfc"/><path d="M283.831,475.943v-40.6a2.115,2.115,0,0,0-2.113-2.115h-36.8a2.115,2.115,0,0,0-.092,4.229c.031,0,.061,0,.092,0H279.6v36.371h-2.537v-.423a6.351,6.351,0,0,0-6.344-6.343H258.875a6.351,6.351,0,0,0-6.344,6.343v.423h-.845a2.115,2.115,0,0,0-.092,4.229h30.119a2.113,2.113,0,0,0,2.118-2.108Zm-27.066-2.538a2.117,2.117,0,0,1,2.114-2.114h11.842a2.117,2.117,0,0,1,2.114,2.114v.423H256.761Z" style="fill:#fcfcfc"/><path d="M264.309,465.33a7.827,7.827,0,1,0-7.828-7.827A7.826,7.826,0,0,0,264.309,465.33Zm0-11.425a3.6,3.6,0,1,1-3.6,3.6,3.6,3.6,0,0,1,3.6-3.6Z" style="fill:#fcfcfc"/><path d="M216.519,466.972a24.4,24.4,0,1,0-24.4-24.4h0A24.426,24.426,0,0,0,216.519,466.972Zm0-44.569a20.17,20.17,0,1,1-20.17,20.17,20.17,20.17,0,0,1,20.17-20.17Z" style="fill:#fcfcfc"/><path d="M231.809,469.6H199.667a19.053,19.053,0,0,0-19.031,19.031v18.189a2.115,2.115,0,0,0,4.229,0V488.63a14.82,14.82,0,0,1,14.8-14.8h32.142a14.82,14.82,0,0,1,14.8,14.8v18.189a2.115,2.115,0,0,0,4.229,0V488.63A19.053,19.053,0,0,0,231.809,469.6Z" style="fill:#fcfcfc"/></g><circle cx="367.031" cy="90.419" r="8" style="fill:#fcfcfc"/><circle cx="172.031" cy="252.419" r="8" style="fill:#f9c640"/><circle cx="385.031" cy="435.419" r="8" style="fill:#fcfcfc"/></svg>