<?xml version="1.0" encoding="utf-8"?>
<!-- Generator: Adobe Illustrator 26.0.3, SVG Export Plug-In . SVG Version: 6.00 Build 0)  -->
<svg version="1.1" id="Capa_1" xmlns="http://www.w3.org/2000/svg" xmlns:xlink="http://www.w3.org/1999/xlink" x="0px" y="0px"
	 viewBox="0 0 446 517.3" style="enable-background:new 0 0 446 517.3;" xml:space="preserve">
<style type="text/css">
	.st0{opacity:0.6;}
	.st1{fill:#FCFCFC;}
	.st2{opacity:0.72;}
	.st3{opacity:0.8;}
	.st4{opacity:0.5;}
	.st5{fill:#F9C640;}
</style>
<g class="st2">
	<path class="st1" d="M353.5,276.1c-1.6,0-2.8,1.3-2.8,2.8s1.3,2.8,2.8,2.8c1.6,0,2.8-1.3,2.8-2.8c0,0,0,0,0,0
		C356.3,277.4,355,276.1,353.5,276.1C353.5,276.1,353.5,276.1,353.5,276.1z"/>
	<path class="st1" d="M412.1,203.2H296c-1.4,0-2.5,1.1-2.5,2.5v65.1c0,1.4,1.1,2.5,2.5,2.5h116.1c1.4,0,2.5-1.1,2.5-2.5v-65.1
		C414.6,204.4,413.5,203.2,412.1,203.2C412.1,203.2,412.1,203.2,412.1,203.2z M409.6,268.3H298.5v-60.1h111.1L409.6,268.3z"/>
	<path class="st1" d="M413.1,194.2H295c-5.8,0-10.5,4.7-10.5,10.5v75.1c0,5.8,4.7,10.5,10.5,10.5h44.6v8h-6c-1.4,0-2.5,1.1-2.5,2.5
		c0,1.4,1.1,2.5,2.5,2.5h40c1.4,0,2.5-1.1,2.5-2.5c0-1.4-1.1-2.5-2.5-2.5h-6v-8h45.6c5.8,0,10.5-4.7,10.5-10.5v-75.1
		C423.6,198.9,418.9,194.2,413.1,194.2z M362.5,298.3h-18v-8h18V298.3z M418.6,279.8c0,3-2.5,5.5-5.5,5.5H295c-3,0-5.5-2.5-5.5-5.5
		v-75.1c0-3,2.5-5.5,5.5-5.5h118.1c3,0,5.5,2.5,5.5,5.5V279.8z"/>
	<path class="st1" d="M314.1,226.6c0.5,0.4,1.1,0.7,1.8,0.6h0.1c0.7,0,1.3-0.2,1.8-0.7l7.4-8.3c0.9-1,0.8-2.6-0.2-3.5
		c-1-0.9-2.6-0.8-3.5,0.2l0,0l-5.7,6.4l-2.4-2.4c-1-1-2.6-1-3.5,0c0,0,0,0,0,0c-1,1-1,2.5,0,3.5c0,0,0,0,0,0L314.1,226.6z"/>
	<path class="st1" d="M332.5,224.3h64.1c1.4,0,2.5-1.1,2.5-2.5c0-1.4-1.1-2.5-2.5-2.5h-64.1c-1.4,0-2.5,1.1-2.5,2.5
		C330,223.1,331.1,224.3,332.5,224.3z"/>
	<path class="st1" d="M314.1,244.7c0.5,0.4,1.1,0.7,1.8,0.6h0.1c0.7,0,1.3-0.2,1.8-0.7l7.4-8.3c0.9-1,0.8-2.6-0.2-3.5
		c-1-0.9-2.6-0.8-3.5,0.2l-5.7,6.4l-2.4-2.4c-1-1-2.6-1-3.5,0c0,0,0,0,0,0c-1,1-1,2.5,0,3.5c0,0,0,0,0,0L314.1,244.7z"/>
	<path class="st1" d="M332.5,242.3h64.1c1.4,0,2.5-1.1,2.5-2.5c0-1.4-1.1-2.5-2.5-2.5h-64.1c-1.4,0-2.5,1.1-2.5,2.5
		C330,241.2,331.1,242.3,332.5,242.3z"/>
	<path class="st1" d="M314.1,262.7c0.5,0.4,1.1,0.7,1.8,0.6h0.1c0.7,0,1.3-0.2,1.8-0.7l7.4-8.3c0.9-1,0.8-2.6-0.2-3.5
		s-2.6-0.8-3.5,0.2l0,0l-5.7,6.4l-2.4-2.4c-1-1-2.6-1-3.5,0c0,0,0,0,0,0c-1,1-1,2.5,0,3.5c0,0,0,0,0,0L314.1,262.7z"/>
	<path class="st1" d="M332.5,260.3h64.1c1.4,0,2.5-1.1,2.5-2.5c0-1.4-1.1-2.5-2.5-2.5h-64.1c-1.4,0-2.5,1.1-2.5,2.5
		C330,259.2,331.1,260.3,332.5,260.3z"/>
</g>
<g class="st0">
	<path class="st1" d="M99.6,221.4h-3.4c-1.2,0-2.2-0.9-2.2-2.1c0-1.2,0.9-2.2,2.1-2.2c0,0,0.1,0,0.1,0h3.4c1.2,0,2.1,1,2.1,2.2
		C101.6,220.4,100.7,221.4,99.6,221.4z"/>
	<path class="st1" d="M85.8,221.4h-3.4c-1.2,0-2.2-0.9-2.2-2.1c0-1.2,0.9-2.2,2.1-2.2c0,0,0.1,0,0.1,0h3.4c1.2,0,2.2,0.9,2.2,2.1
		c0,1.2-0.9,2.2-2.1,2.2C85.9,221.4,85.9,221.4,85.8,221.4z"/>
	<path class="st1" d="M76.6,228.7c-0.8,0-1.5-0.4-1.9-1.1c-1.3-0.6-2.3-1.6-2.9-2.8c-1.3-2.6-2.1-8.5-2-10.4
		c0.1-1.2,0.3-2.4,0.8-3.5c0.4-0.9,1.5-1.4,2.5-1.2c4.1,0.7,8.4-0.3,11.9-2.6c6.5-4.1,8.3-8.9,8.3-8.9c0.3-0.9,1.2-1.5,2.1-1.4
		c0.5,0,12.3,0.5,16.7,14.4c0.4,1,0.7,2.1,0.8,3.2c0.1,1.9-0.7,7.9-2,10.4c-0.6,1.3-1.6,2.3-2.9,2.8c-0.6,1-1.9,1.4-2.9,0.8
		c-0.9-0.5-1.3-1.6-0.9-2.6c0.3-1,1.1-1.7,2-2.1c0.4-0.2,0.5-0.2,0.9-0.9c0.9-2.6,1.5-5.4,1.5-8.2c-0.1-0.7-0.3-1.4-0.5-2
		c0,0,0-0.1,0-0.1c-2.7-8.5-8.7-10.7-11.4-11.2c-2.2,3.9-5.4,7.2-9.3,9.5c-3.9,2.5-8.5,3.7-13.1,3.4c0,0.2,0,0.3-0.1,0.5
		c0.1,2.8,0.6,5.5,1.5,8.2c0.3,0.7,0.5,0.7,0.9,0.9c1,0.4,1.7,1.1,2,2.1c0.4,1.1-0.2,2.4-1.3,2.7C77.1,228.6,76.8,228.7,76.6,228.7
		L76.6,228.7z"/>
	<path class="st1" d="M121.8,228.6c-1.1,0-2.1-0.9-2.1-2c-1.1-20.6-6.8-45.1-27.8-45.1S65.2,206,64.1,226.5c-0.1,1.2-1.1,2.1-2.3,2
		c-1.2-0.1-2.1-1.1-2-2.3c1.7-32.1,12.8-49.1,32.1-49.1s30.4,17,32.1,49.1c0.1,1.2-0.8,2.2-2,2.3c0,0,0,0,0,0
		C121.9,228.6,121.8,228.6,121.8,228.6z"/>
	<path class="st1" d="M122.6,290.2h-62c-4.5,0-8.2-3.3-8.9-7.7l-5.4-43.2c-0.3-2.2,0.4-4.3,1.8-6c1.4-1.6,3.5-2.5,5.6-2.5h75.7
		c2.1,0,4.2,0.9,5.6,2.5c1.4,1.6,2.1,3.8,1.8,6l-5.4,43.2C130.8,286.9,127,290.2,122.6,290.2z M53.7,235.2c-0.9,0-1.8,0.4-2.4,1
		c-0.6,0.7-0.9,1.7-0.8,2.6L56,282c0.4,2.3,2.3,3.9,4.6,3.9h62c2.3,0,4.3-1.7,4.6-3.9l5.4-43.2c0.1-0.9-0.1-1.9-0.8-2.6
		c-0.6-0.7-1.5-1.1-2.4-1L53.7,235.2z"/>
	<path class="st1" d="M91.6,268.7c-4.3,0-7.8-3.5-7.8-7.8s3.5-7.8,7.8-7.8c4.3,0,7.8,3.5,7.8,7.8C99.4,265.2,95.9,268.6,91.6,268.7z
		 M91.6,257.4c-1.9,0-3.5,1.6-3.5,3.5s1.6,3.5,3.5,3.5s3.5-1.6,3.5-3.5C95.1,258.9,93.5,257.4,91.6,257.4L91.6,257.4z"/>
</g>
<path class="st1" d="M268.3,67.1l-3.9,0.6l-0.2-1.5c-0.1-0.9-1-1.6-1.9-1.5c0,0-0.8,0.1-2,0.3c-3,0.4-5.9,1.1-8.7,2.1
	c-2.5,1-5,2.3-7.2,3.8c-2.6-0.8-5.3-1.4-8-1.6c-3-0.1-6,0-8.9,0.5c-1.2,0.2-1.9,0.3-2,0.3c-0.9,0.2-1.5,1.1-1.4,2l0.2,1.5l-3.9,0.6
	c-1,0.1-1.6,1-1.5,2c0,0,0,0,0,0l4.4,29.5c0.1,1,1,1.6,2,1.5c0,0,0,0,0,0l47.8-7.1c1-0.1,1.6-1,1.5-2c0,0,0,0,0,0l-4.4-29.6
	C270.2,67.6,269.3,66.9,268.3,67.1C268.3,67.1,268.3,67.1,268.3,67.1z M252.9,70.2c2.6-0.9,5.2-1.6,7.9-2l0.1,0l3.7,24.7
	c-0.4,0-0.9,0.1-1.4,0.2c-2.2,0.3-4.3,0.8-6.4,1.5c-2.4,0.9-4.6,2.2-6.5,3.9l-3.7-24.9C248.6,72.2,250.7,71.1,252.9,70.2L252.9,70.2
	z M227.9,73.3c2.7-0.4,5.5-0.6,8.3-0.5c2.4,0.2,4.7,0.6,6.9,1.3l3.7,24.9c-2.3-1.1-4.8-1.7-7.4-1.9c-2.2,0-4.4,0.1-6.5,0.5
	c-0.5,0.1-1,0.2-1.4,0.2L227.9,73.3z M222.8,77.5l2.1-0.3l3.4,23.1c0.1,1,1.1,1.6,2,1.5c0.1,0,0.1,0,0.2,0c0,0,1.2-0.3,3-0.6
	c2-0.3,3.9-0.4,5.9-0.4c1,0,2,0.2,2.9,0.5l-15.6,2.3L222.8,77.5z M271,96.9l-15.6,2.3c0.8-0.5,1.7-1,2.7-1.3c1.9-0.6,3.8-1,5.8-1.3
	c1.8-0.3,3-0.3,3-0.3c1-0.1,1.7-0.9,1.7-1.9c0-0.1,0-0.1,0-0.2L265,71.2l2.1-0.3L271,96.9z"/>
<path class="st1" d="M217.8,92.6l-28.1,4.2L184.5,62c-0.1-1-1-1.6-2-1.5c0,0,0,0,0,0l-4.7,0.7l34.4-38.6l44.2,26.8l-6.3,0.9
	c-1,0.1-1.6,1-1.5,2c0,0,0,0,0,0l1.6,10.9c0.1,1,1.1,1.6,2,1.5s1.6-1.1,1.5-2l-1.4-9.1l9.4-1.4c1-0.1,1.6-1.1,1.5-2
	c-0.1-0.5-0.4-1-0.8-1.3l-49.6-30.2c-0.7-0.4-1.7-0.3-2.3,0.3l-38.6,43.4c-0.7,0.7-0.6,1.9,0.1,2.5c0.4,0.4,0.9,0.5,1.4,0.4l7.8-1.2
	l5.2,34.8c0.1,1,1,1.6,2,1.5c0,0,0,0,0,0l29.9-4.5c1-0.1,1.6-1.1,1.5-2S218.8,92.5,217.8,92.6L217.8,92.6z"/>
<g class="st3">
	<path class="st1" d="M281.5,500.6c-0.8,0-1.6-0.4-2-1.2l-8-14.4l-10.3,10.4c-0.7,0.7-1.6,0.9-2.5,0.5c-0.9-0.3-1.4-1.1-1.5-2
		l-0.8-48c0-0.9,0.5-1.7,1.3-2.1c0.8-0.4,1.8-0.2,2.5,0.4l37.5,32.3c0.7,0.6,1,1.6,0.6,2.5c-0.3,0.9-1.2,1.5-2.1,1.5l-13.4,0.2
		l7.4,13.3c0.3,0.5,0.4,1.1,0.2,1.7c-0.2,0.6-0.6,1.1-1.1,1.3l-6.6,3.5C282.3,500.6,281.9,500.6,281.5,500.6z M272,479
		c0.1,0,0.2,0,0.3,0c0.7,0.1,1.4,0.5,1.7,1.2l8.4,15.2l2.6-1.4l-8.1-14.5c-0.4-0.7-0.4-1.5,0-2.2c0.4-0.7,1.2-1.1,2-1.1l11.2-0.2
		L261,450.9l0.7,37.5l8.6-8.7C270.7,479.3,271.3,479,272,479L272,479z"/>
	<path class="st1" d="M292.2,465.2H289c-1.2,0-2.3-0.9-2.3-2.2c0-1.2,0.9-2.3,2.2-2.3c0,0,0.1,0,0.1,0h0.9v-62H185.5v62h8.3
		c1.2,0,2.3,0.9,2.3,2.2c0,1.2-0.9,2.3-2.2,2.3c0,0-0.1,0-0.1,0h-10.6c-1.3,0-2.3-1-2.3-2.2v-66.5c0-1.3,1.1-2.3,2.3-2.2h109
		c1.3,0,2.3,1,2.3,2.2v66.5C294.5,464.2,293.5,465.2,292.2,465.2z"/>
	<path class="st1" d="M271.5,417.6h-66.5c-1.2,0-2.3-0.9-2.3-2.2c0-1.2,0.9-2.3,2.2-2.3c0,0,0.1,0,0.1,0h66.5c1.2,0,2.3,0.9,2.3,2.2
		c0,1.2-0.9,2.3-2.2,2.3C271.5,417.6,271.5,417.6,271.5,417.6z"/>
	<path class="st1" d="M271.5,427.4h-66.5c-1.2,0-2.3-0.9-2.3-2.2c0-1.2,0.9-2.3,2.2-2.3c0,0,0.1,0,0.1,0h66.5c1.2,0,2.3,0.9,2.3,2.2
		c0,1.2-0.9,2.3-2.2,2.3C271.5,427.4,271.5,427.4,271.5,427.4z"/>
	<path class="st1" d="M271.5,437.3h-66.5c-1.2,0-2.3-0.9-2.3-2.2c0-1.2,0.9-2.3,2.2-2.3c0,0,0.1,0,0.1,0h66.5c1.2,0,2.3,0.9,2.3,2.2
		c0,1.2-0.9,2.3-2.2,2.3C271.5,437.3,271.5,437.3,271.5,437.3z"/>
	<path class="st1" d="M220,483.1h-0.1c-1.5,0.1-2.9-0.2-4.1-1c-1.4,0.4-2.9,0.3-4.3-0.2c-1.4-0.5-2.6-1.4-3.5-2.7
		c-1.4-0.3-2.6-0.9-3.6-1.9c-1.2-2.6-2.9-5-5-7c-0.6-1.3-0.8-2.8-0.4-4.2c-1.7-2.4-1.7-5.7,0-8.1c-0.2-1.3-0.1-2.7,0.5-4
		c0.5-1.3,1.5-2.5,2.7-3.2c0.2-1.5,1-2.8,2.1-3.9c1.1-1,2.4-1.7,3.9-2c0.8-1.2,2-2.1,3.3-2.6c1.4-0.6,3-0.7,4.5-0.3
		c1.2-0.8,2.7-1.2,4.1-1.2c2.7,1,5.5,1.5,8.4,1.5c1.4,0.5,2.5,1.4,3.3,2.7c1.5,0.2,2.8,0.9,3.9,2c1.1,1,1.8,2.4,2.1,3.9
		c1.2,0.8,2.2,1.9,2.7,3.2c0.5,1.2,0.7,2.6,0.4,4c1.7,2.4,1.7,5.7,0,8.1c0.3,1.4,0.2,2.9-0.5,4.2c-2.1,2-3.8,4.3-5,6.9
		c-1,1-2.3,1.6-3.6,1.9c-0.8,1.3-2,2.2-3.5,2.7c-1.4,0.5-2.9,0.5-4.3,0.1C222.9,482.9,221.5,483.2,220,483.1z M218.6,478.6
		c0.4,0.2,0.8,0.3,1.3,0.3c0.5,0,1-0.1,1.4-0.3c0.3-0.7,1-1.2,1.8-1.3c0.8-0.1,1.6,0.1,2.2,0.7c0.5,0.1,1,0,1.5-0.1
		c0.5-0.2,0.9-0.4,1.2-0.8c0-0.7,0.4-1.4,1-1.8c0.6-0.4,1.4-0.5,2.2-0.3c0.5-0.1,0.9-0.4,1.2-0.7c0.4-0.3,0.6-0.8,0.8-1.2
		c-0.3-0.7-0.2-1.6,0.3-2.2c0.5-0.6,1.3-1,2.1-0.9c0.4-0.3,0.7-0.7,0.9-1.1c0.2-0.4,0.3-0.9,0.2-1.4c-0.6-0.5-0.8-1.3-0.7-2
		c0.2-0.8,0.7-1.4,1.4-1.6c0.5-0.9,0.5-1.9,0-2.8c-0.7-0.3-1.2-0.8-1.3-1.5c-0.2-0.7,0-1.5,0.5-2c0.1-0.5,0-1-0.2-1.4
		c-0.2-0.5-0.5-0.9-0.9-1.1c-0.7,0-1.3-0.2-1.7-0.7c-0.7-0.7-0.8-1.7-0.4-2.6c-0.1-0.5-0.4-0.9-0.7-1.2c-0.3-0.4-0.8-0.6-1.3-0.7
		c-0.7,0.3-1.5,0.2-2.2-0.2c-0.7-0.4-1-1.1-1-1.9c-0.3-0.4-0.7-0.7-1.2-0.9c-0.4-0.2-0.7-0.2-1.1-0.2c-0.1,0-0.2,0-0.3,0
		c-0.5,0.5-1.2,0.7-2,0.6c-0.8-0.1-1.4-0.6-1.8-1.2c-0.4-0.2-0.9-0.3-1.4-0.3c-0.5,0-1,0.1-1.4,0.4c-0.3,0.7-0.9,1.2-1.7,1.4
		c-0.8,0.2-1.6-0.1-2.1-0.6c-0.2-0.1-0.5-0.1-0.7-0.1c-0.3,0-0.6,0.1-0.9,0.2c-0.5,0.2-0.9,0.5-1.2,0.9c0,0.8-0.4,1.5-1.1,1.9
		c-0.7,0.4-1.5,0.5-2.2,0.2c-0.5,0.1-0.9,0.4-1.3,0.7c-0.4,0.3-0.6,0.7-0.8,1.2c0.4,0.8,0.3,1.9-0.4,2.6c-0.5,0.5-1.1,0.7-1.8,0.7
		c-0.4,0.3-0.7,0.7-0.9,1.1c-0.2,0.4-0.3,1-0.2,1.4c0.5,0.5,0.7,1.3,0.5,2c-0.2,0.7-0.7,1.3-1.3,1.5c-0.5,0.9-0.5,1.9,0,2.8
		c0.7,0.3,1.3,0.9,1.4,1.7c0.1,0.8-0.1,1.5-0.7,2c-0.1,0.5,0,1,0.2,1.4c0.2,0.5,0.5,0.9,0.9,1.1c0.8-0.1,1.6,0.3,2.1,0.9
		c0.5,0.6,0.6,1.5,0.3,2.2c0.1,0.5,0.4,0.9,0.8,1.2c0.4,0.4,0.8,0.6,1.3,0.7c0.7-0.2,1.5-0.1,2.1,0.3c0.6,0.4,0.9,1.1,0.9,1.8
		c0.3,0.4,0.7,0.7,1.2,0.9c0.5,0.2,1,0.2,1.5,0.1c0.6-0.6,1.4-0.9,2.3-0.8C217.7,477.4,218.3,477.9,218.6,478.6L218.6,478.6z"/>
	<path class="st1" d="M220,474c-6.5-0.2-11.6-5.6-11.4-12.1c0.2-6.5,5.6-11.6,12.1-11.4c6.4,0.2,11.4,5.4,11.4,11.8
		C232,468.8,226.6,474.1,220,474z M220,454.9c-4,0.1-7.2,3.5-7.1,7.5c0.1,4,3.5,7.2,7.5,7.1c3.9-0.1,7.1-3.3,7.1-7.3
		C227.5,458.2,224.1,454.9,220,454.9z"/>
	<path class="st1" d="M208.5,496.6c-0.2,0-0.3,0-0.5,0c-0.7-0.1-1.3-0.6-1.6-1.3l-1.7-3.7l-4.2,1c-1,0.2-1.9-0.2-2.5-1
		c-0.5-0.8-0.5-1.9,0.1-2.6c0.9-1.2,3.4-4.7,3.7-7.2c0.1-1.3,1.3-2.2,2.6-2c1.2,0.1,2.1,1.2,2,2.4c-0.2,1.7-0.7,3.3-1.5,4.7l0.5-0.1
		c1.1-0.3,2.2,0.3,2.7,1.3l0.9,2c0.7-1.3,1.2-2.7,1.3-4.2c0.2-1.3,1.3-2.2,2.6-2c1.2,0.2,2.1,1.2,2,2.4c-0.4,3.8-2.2,7.3-4.9,9.9
		C209.6,496.4,209.1,496.6,208.5,496.6z"/>
	<path class="st1" d="M231.9,496.6c-0.6,0-1.1-0.2-1.5-0.6c-2.8-2.6-4.5-6.1-4.9-9.9c0-1.3,1-2.3,2.2-2.4c1.2,0,2.2,0.8,2.4,2
		c0.1,1.5,0.6,2.9,1.3,4.2l0.9-2c0.5-1,1.6-1.5,2.7-1.3l0.5,0.1c-0.8-1.5-1.3-3.1-1.5-4.7c-0.1-1.2,0.8-2.3,2.1-2.4c0,0,0,0,0,0
		c1.3-0.1,2.4,0.8,2.5,2c0.2,2.5,2.7,6.1,3.7,7.2c0.6,0.7,0.7,1.8,0.1,2.6c-0.5,0.8-1.5,1.2-2.5,1l-4.2-1l-1.7,3.7
		c-0.3,0.7-0.9,1.1-1.6,1.3C232.2,496.5,232,496.6,231.9,496.6z"/>
	<path class="st1" d="M252.1,465.2h-5.5c-1.2,0-2.3-0.9-2.3-2.2c0-1.2,0.9-2.3,2.2-2.3c0,0,0.1,0,0.1,0h5.5c1.2,0,2.3,0.9,2.3,2.2
		c0,1.2-0.9,2.3-2.2,2.3C252.1,465.2,252.1,465.2,252.1,465.2L252.1,465.2z"/>
	<path class="st1" d="M283,456.2h-5.1c-1.2,0-2.3-1-2.3-2.2c0-1.2,1-2.3,2.2-2.3c0,0,0.1,0,0.1,0h2.8v-44h-85.9v44h0.9
		c1.2,0,2.3,1,2.3,2.2c0,1.2-1,2.3-2.2,2.3c0,0-0.1,0-0.1,0h-3.2c-1.3,0-2.3-1-2.3-2.2c0,0,0,0,0,0v-48.5c0-1.3,1.1-2.3,2.3-2.2H283
		c1.3,0,2.3,1,2.3,2.2v48.5C285.3,455.2,284.3,456.2,283,456.2z"/>
	<path class="st1" d="M252.1,456.2h-7.4c-1.2,0-2.3-1-2.3-2.2c0-1.2,1-2.3,2.2-2.3c0,0,0.1,0,0.1,0h7.4c1.2,0,2.3,1,2.3,2.2
		C254.4,455.1,253.4,456.2,252.1,456.2C252.1,456.2,252.1,456.2,252.1,456.2z"/>
</g>
<circle class="st5" cx="201.9" cy="242.2" r="8"/>
<circle class="st1" cx="20.9" cy="69.2" r="8"/>
<circle class="st1" cx="90.9" cy="406.2" r="8"/>
</svg>
