<?xml version="1.0" encoding="utf-8"?>
<!-- Generator: Adobe Illustrator 25.2.3, SVG Export Plug-In . SVG Version: 6.00 Build 0)  -->
<svg version="1.1" xmlns="http://www.w3.org/2000/svg" xmlns:xlink="http://www.w3.org/1999/xlink" x="0px" y="0px"
	 viewBox="0 0 195 152" style="enable-background:new 0 0 195 152;" xml:space="preserve">
<style type="text/css">
	.st0{fill:#333333;}
	.st1{fill:#F9C640;}
	.st2{fill:#2F6FB6;}
	.st3{fill:#EB585A;}
	.st4{fill:#EEEEEE;}
	.st5{fill:#FFFFFF;}
	.st6{fill:#3DAD52;}
	.st7{fill:#FCFCFC;}
	.st8{fill:#666666;}
	.st9{opacity:0.4;fill:#A8C4E5;enable-background:new    ;}
	.st10{fill:#2E2A4A;}
	.st11{opacity:0.66;fill:#75B2FC;enable-background:new    ;}
	.st12{fill:#512583;}
	.st13{fill:#EFEBE2;}
	.st14{fill:#D5E5F2;}
	.st15{fill:#FFFFFF;stroke:#2E2A4A;stroke-width:1.1475;stroke-linecap:round;stroke-linejoin:round;}
</style>
<g id="Ñëîé_1">
	<g>
		<g>
			<path class="st1" d="M142.9,60.5c-0.4-0.3-1.2-1.1-1.2-1.1l-8.9-7.6V34.7c0-0.9-0.8-1.7-1.7-1.7h-20.8l-0.3-0.2
				c-3.5-2.9-9.2-2.9-12.7,0L97,33H75.9c-0.9,0-1.7,0.8-1.7,1.7v17.3L66,58.8c0,0-0.9,0.8-1.5,1.2c-1.7,1.5-2.5,3.8-2.5,6.1v39.5
				c0,4.7,3.7,8.4,8.5,8.4h66c4.8,0,8.5-3.7,8.5-8.4V66.2C145,64.1,144.4,61.9,142.9,60.5z M129.4,55"/>
		</g>
		<circle id="Elipse_75" class="st1" cx="144.9" cy="34.7" r="3.5"/>
		<circle id="Elipse_76" class="st1" cx="46.5" cy="120.4" r="7.5"/>
		<circle id="Elipse_74" class="st2" cx="160.4" cy="49.2" r="7"/>
		<circle id="Elipse_77" class="st3" cx="40.1" cy="95.7" r="3.3"/>
		<path class="st4" d="M130,69l-21.3,18c-2.7,2.3-6.8,2.4-9.5,0.1L77,69V35h54L130,69z"/>
		
			<image style="overflow:visible;" width="1401" height="1019" xlink:href="../Asset_1@4x.png"  transform="matrix(1.998572e-02 0 0 1.998572e-02 90 52)">
		</image>
		<g>
			<path class="st8" d="M141.7,59.4l-8.9-7.6V34.7c0-0.9-0.8-1.7-1.7-1.7h-20.8l-0.3-0.2c-3.5-2.9-9.2-2.9-12.7,0L97,33H75.9
				c-0.9,0-1.7,0.8-1.7,1.7v17.3L66,58.8c0,0-0.9,0.8-1.5,1.2c-1.7,1.5-2.5,3.8-2.5,6.1v39.5c0,4.7,3.7,8.4,8.5,8.4h66
				c4.8,0,8.5-3.7,8.5-8.4V66.2c0-2.1-0.6-4.3-2.1-5.7C142.5,60.1,141.7,59.4,141.7,59.4z M111.8,88.1L141,63.7
				c0.4,0.7,0.6,1.6,0.6,2.4v39.5c0,0.8-0.2,1.5-0.5,2.1L111.8,88.1z M138.6,61.3l-5.9,4.9v-9.9L138.6,61.3z M129.4,36.4V69
				l-21.6,18c-2.3,1.9-6.1,1.9-8.4,0L77.6,68.9V36.4H129.4z M65.9,107.8c-0.3-0.7-0.5-1.4-0.5-2.2V66.2c0-0.9,0.2-1.7,0.6-2.5
				l29.3,24.4L65.9,107.8z M74.2,66.1l-5.8-4.9l5.8-4.8V66.1z M70.5,110.6c-0.7,0-1.4-0.1-2-0.4l29.7-19.9c1.6,1,3.5,1.5,5.4,1.5
				c1.9,0,3.8-0.5,5.4-1.5l29.6,19.8c-0.6,0.3-1.3,0.4-2.1,0.4H70.5z"/>
		</g>
	</g>
</g>
<g id="Ñëîé_2">
</g>
<g id="Ñëîé_3">
</g>
<g id="Ñëîé_4">
</g>
</svg>
