<svg id="Layer_2" data-name="Layer 2" xmlns="http://www.w3.org/2000/svg" viewBox="0 0 412.596 361.532"><rect x="183.162" y="132.24" width="157.678" height="157.678" style="fill:#f9c640"/><polygon points="372.424 251.342 278.165 229.294 309.823 320.261 329.007 299.14 377.546 343.23 401.779 316.551 353.24 272.462 372.424 251.342" style="fill:#2f6fb6"/><path d="M377.65,345.35l-48.542-44.089L309.234,323.14,275.85,227.21l99.4,23.252-19.892,21.9,48.54,44.088Zm-48.744-48.33,48.538,44.089,22.215-24.457-48.54-44.087,18.475-20.342-89.113-20.845,29.93,86Z" style="fill:#512583;stroke:#2e2a4a;stroke-linecap:round;stroke-linejoin:round;stroke-width:1.0417px"/><circle cx="44.32" cy="30.368" r="9.99" transform="translate(4.581 66.526) rotate(-76.718)" style="fill:#2f6fb6"/><circle cx="92.733" cy="30.368" r="9.99" transform="translate(41.872 113.644) rotate(-76.718)" style="fill:#2f6fb6"/><circle cx="141.147" cy="30.368" r="9.99" transform="translate(88.561 164.828) rotate(-80.783)" style="fill:#2f6fb6"/><circle cx="187.254" cy="30.368" r="9.99" transform="translate(127.284 210.34) rotate(-80.783)" style="fill:#2f6fb6"/><circle cx="235.668" cy="30.368" r="9.99" transform="translate(47.552 175.537) rotate(-45)" style="fill:#2f6fb6"/><circle cx="284.081" cy="30.368" r="9.99" transform="translate(61.732 209.77) rotate(-45)" style="fill:#2f6fb6"/><circle cx="44.32" cy="78.782" r="9.99" style="fill:#2f6fb6"/><circle cx="92.733" cy="78.782" r="9.99" style="fill:#2f6fb6"/><circle cx="141.147" cy="78.782" r="9.99" style="fill:#2f6fb6"/><circle cx="187.254" cy="78.782" r="9.99" style="fill:#2f6fb6"/><circle cx="235.668" cy="78.782" r="9.99" style="fill:#2f6fb6"/><circle cx="284.081" cy="78.782" r="9.99" style="fill:#2f6fb6"/><circle cx="44.32" cy="127.195" r="9.99" transform="translate(-76.959 68.593) rotate(-45)" style="fill:#2f6fb6"/><circle cx="92.733" cy="127.195" r="9.99" transform="translate(-62.779 102.827) rotate(-45)" style="fill:#2f6fb6"/><circle cx="141.147" cy="127.195" r="9.99" transform="translate(-37.931 63.697) rotate(-22.5)" style="fill:#2f6fb6"/><circle cx="44.32" cy="175.608" r="9.99" transform="translate(-111.193 82.773) rotate(-45)" style="fill:#2f6fb6"/><circle cx="92.733" cy="175.608" r="9.99" transform="translate(-97.013 117.007) rotate(-45)" style="fill:#2f6fb6"/><circle cx="141.147" cy="175.608" r="9.99" transform="translate(-56.458 67.382) rotate(-22.5)" style="fill:#2f6fb6"/><circle cx="44.32" cy="224.021" r="9.99" transform="translate(-145.426 96.953) rotate(-45)" style="fill:#2f6fb6"/><circle cx="92.733" cy="224.021" r="9.99" transform="translate(-131.246 131.187) rotate(-45)" style="fill:#2f6fb6"/><circle cx="141.147" cy="224.021" r="9.99" transform="translate(-74.985 71.067) rotate(-22.5)" style="fill:#2f6fb6"/><circle cx="44.32" cy="272.435" r="9.99" transform="translate(-231.009 252.977) rotate(-76.718)" style="fill:#2f6fb6"/><circle cx="92.733" cy="272.435" r="9.99" transform="translate(-193.719 300.095) rotate(-76.718)" style="fill:#2f6fb6"/><circle cx="141.147" cy="272.435" r="9.99" transform="translate(-150.379 368.12) rotate(-80.783)" style="fill:#2f6fb6"/></svg>