<svg id="Capa_1" data-name="Capa 1" xmlns="http://www.w3.org/2000/svg" viewBox="0 0 42.128 37.574"><path id="Icon_awesome-mail-bulk" data-name="Icon awesome-mail-bulk" d="M14.97,29.176c-1.4,0-2.791-1.221-3.489-1.744-3.489-2.443-4.533-3.315-5.233-3.838V30.92a1.746,1.746,0,0,0,1.744,1.744H21.948a1.746,1.746,0,0,0,1.744-1.744V23.594c-.7.523-1.744,1.4-5.233,3.838C17.761,27.954,16.366,29.176,14.97,29.176Zm6.978-10.467H7.992a1.745,1.745,0,0,0-1.744,1.745v.872c1.4,1.047,1.221,1.047,6.28,4.71.523.349,1.57,1.4,2.442,1.4s1.919-1.047,2.442-1.221c5.059-3.663,4.884-3.663,6.28-4.71V20.454A1.745,1.745,0,0,0,21.948,18.709ZM35.9,13.476H18.459a1.745,1.745,0,0,0-1.744,1.744v1.744h5.233a3.494,3.494,0,0,1,3.473,3.152l.016-.012V27.43H35.9a1.745,1.745,0,0,0,1.745-1.743V15.22A1.746,1.746,0,0,0,35.9,13.476Zm-1.745,6.978H30.67V16.965h3.488ZM14.97,15.22a3.493,3.493,0,0,1,3.489-3.489H30.67V6.5a1.746,1.746,0,0,0-1.745-1.744H11.481A1.745,1.745,0,0,0,9.737,6.5V16.965H14.97Z" style="fill:#fcfcfc"/></svg>