<svg id="Capa_1" data-name="Capa 1" xmlns="http://www.w3.org/2000/svg" viewBox="0 0 39.83 33.866"><path id="Icon_awesome-instagram" data-name="Icon awesome-instagram" d="M21,8.721a8.066,8.066,0,1,0,.026,0Zm0,13.331A5.252,5.252,0,1,1,26.253,16.8h0A5.263,5.263,0,0,1,21,22.052ZM31.3,8.391a1.88,1.88,0,1,1,0-.009Zm5.349,1.916a9.327,9.327,0,0,0-2.545-6.6,9.385,9.385,0,0,0-6.6-2.545c-2.6-.148-10.4-.148-13,0A9.374,9.374,0,0,0,7.9,3.7a9.354,9.354,0,0,0-2.545,6.6c-.148,2.6-.148,10.4,0,13A9.318,9.318,0,0,0,7.9,29.9a9.4,9.4,0,0,0,6.6,2.545c2.6.148,10.4.148,13,0A9.33,9.33,0,0,0,34.1,29.9a9.392,9.392,0,0,0,2.545-6.6c.148-2.6.148-10.392,0-12.994ZM33.285,26.088a5.323,5.323,0,0,1-3,3c-2.074.823-7,.633-9.288.633s-7.221.183-9.288-.633a5.317,5.317,0,0,1-3-3c-.823-2.074-.633-7-.633-9.288s-.183-7.221.633-9.288a5.317,5.317,0,0,1,3-3c2.074-.823,7-.633,9.288-.633s7.221-.183,9.288.633a5.323,5.323,0,0,1,3,3c.823,2.074.633,7,.633,9.288S34.107,24.021,33.285,26.088Z" style="fill:#fcfcfc"/></svg>