<svg id="Capa_1" data-name="Capa 1" xmlns="http://www.w3.org/2000/svg" viewBox="0 0 38 37.574"><path id="Icon_awesome-facebook-messenger" data-name="Icon awesome-facebook-messenger" d="M19.667,3.709C11.194,3.709,4.63,9.9,4.63,18.26A14.22,14.22,0,0,0,9.352,29.023c.5.454.4.717.487,3.522a1.2,1.2,0,0,0,1.686,1.063c3.2-1.409,3.242-1.521,3.784-1.373,9.272,2.552,19.322-3.382,19.322-13.975C34.631,9.9,28.134,3.709,19.667,3.709Zm9.027,11.2L24.278,21.9a2.261,2.261,0,0,1-3.119.7c-.049-.031-.1-.064-.142-.1L17.5,19.871a.907.907,0,0,0-1.089,0l-4.74,3.6a.713.713,0,0,1-1.038-.955l4.416-6.991a2.26,2.26,0,0,1,3.119-.7c.049.031.1.063.142.1l3.512,2.629a.908.908,0,0,0,1.089,0l4.743-3.592a.711.711,0,0,1,1.034.945Z" style="fill:#fcfcfc"/></svg>