<svg id="Capa_1" data-name="Capa 1" xmlns="http://www.w3.org/2000/svg" viewBox="0 0 238.979 168.681"><circle id="Elipse_179" data-name="Elipse 179" cx="178.693" cy="24.255" r="3.5" style="fill:#f9c640"/><circle id="Elipse_177" data-name="Elipse 177" cx="72.832" cy="136.416" r="10" style="fill:#f9c640"/><circle id="Elipse_180" data-name="Elipse 180" cx="208.193" cy="46.755" r="7" style="fill:#2f6fb6"/><circle id="Elipse_178" data-name="Elipse 178" cx="59.172" cy="92.978" r="7" style="fill:#eb585a"/><g id="_3" data-name=" 3" style="isolation:isolate"><text transform="translate(177.294 23.755)" style="isolation:isolate;font-size:20px;fill:#fcfcfc;font-family:Montserrat-SemiBold, Montserrat;font-weight:600">+</text></g><g id="_5" data-name=" 5" style="isolation:isolate"><text transform="translate(5.273 126.916)" style="isolation:isolate;font-size:20px;fill:#fcfcfc;font-family:Montserrat-SemiBold, Montserrat;font-weight:600">+</text></g><g id="Grupo_105" data-name="Grupo 105"><path id="Trazado_28" data-name="Trazado 28" d="M193.452,91.921h-4.661V90.077a2.12,2.12,0,0,0-2.009-2.116c-.039,0-.958-.047-2.393-.047a51.735,51.735,0,0,0-10.6.987,40.072,40.072,0,0,0-9.152,3.251,40.032,40.032,0,0,0-9.153-3.251,51.735,51.735,0,0,0-10.6-.987c-1.435,0-2.354.046-2.393.047a2.119,2.119,0,0,0-2.01,2.116v1.844H135.82A2.119,2.119,0,0,0,133.7,94.04v35.6a2.119,2.119,0,0,0,2.119,2.119h57.632a2.119,2.119,0,0,0,2.119-2.119h0v-35.6a2.119,2.119,0,0,0-2.117-2.121Zm-18.748,1a49.934,49.934,0,0,1,9.685-1h.164v29.786c-.5-.015-1.054-.025-1.666-.025a46.02,46.02,0,0,0-7.749.609,24.022,24.022,0,0,0-8.383,3.5V95.831a34.968,34.968,0,0,1,7.946-2.907Zm-29.985-.773a48.577,48.577,0,0,1,9.849.887,36.2,36.2,0,0,1,7.949,2.793v29.958a24.03,24.03,0,0,0-8.383-3.5,46.02,46.02,0,0,0-7.749-.609c-.612,0-1.171.01-1.666.025Zm-6.78,4.008h2.543v27.786a2.118,2.118,0,0,0,2.118,2.118,1.855,1.855,0,0,0,.2-.009c.014,0,1.474-.134,3.588-.134a42.325,42.325,0,0,1,7.029.548,15.109,15.109,0,0,1,3.37,1.049H137.939Zm53.394,31.359H172.482a15.166,15.166,0,0,1,3.375-1.049,42.325,42.325,0,0,1,7.029-.548c2.115,0,3.574.133,3.588.134a2.118,2.118,0,0,0,2.306-1.911q.009-.1.009-.2V96.159h2.543Z" style="fill:#eee"/><path id="Trazado_29" data-name="Trazado 29" d="M129.463,113.109h-33.9V71.156a2.119,2.119,0,0,0-2.119-2.119H87.763L135.052,29.63l47.335,39.407h-7.579a2.119,2.119,0,0,0-2.119,2.119h0V84.293a2.119,2.119,0,0,0,4.238,0V73.275h11.317a2.119,2.119,0,0,0,1.356-3.747L136.407,25.244a2.12,2.12,0,0,0-2.712,0L80.555,69.528a2.119,2.119,0,0,0,1.357,3.747h9.414v41.953a2.119,2.119,0,0,0,2.119,2.119h36.02a2.119,2.119,0,0,0,0-4.238Z" style="fill:#eee"/></g></svg>